<svg id="Livello_1" data-name="Livello 1" xmlns="http://www.w3.org/2000/svg" xmlns:xlink="http://www.w3.org/1999/xlink" viewBox="0 0 1080 1080"><defs><style>.cls-1{fill:url(#Sfumatura_senza_nome_50);}.cls-2{fill:url(#Sfumatura_senza_nome_32);}.cls-3{fill:url(#Sfumatura_senza_nome_51);}</style><linearGradient id="Sfumatura_senza_nome_50" x1="576.51" y1="563.43" x2="780.39" y2="725.33" gradientUnits="userSpaceOnUse"><stop offset="0" stop-color="#87b3e1"/><stop offset="0.56" stop-color="#bd94c4"/><stop offset="1" stop-color="#e37daf"/></linearGradient><linearGradient id="Sfumatura_senza_nome_32" x1="526.24" y1="231.49" x2="524.24" y2="519.31" gradientUnits="userSpaceOnUse"><stop offset="0" stop-color="#e37daf"/><stop offset="0.95" stop-color="#ee9f80"/></linearGradient><linearGradient id="Sfumatura_senza_nome_51" x1="275.08" y1="741.96" x2="464.36" y2="559.73" gradientUnits="userSpaceOnUse"><stop offset="0" stop-color="#87b3e1"/><stop offset="1" stop-color="#e37daf"/></linearGradient></defs><path class="cls-1" d="M616.45,822.2A54.25,54.25,0,0,1,587.31,814c-17.84-11.21-27.9-32.36-27.61-58L561,639.47c.49-43.3,30-91.74,67.45-110.74l84.21-49.06c.48-.27,1-.54,1.46-.78,21.54-10.67,43.77-10.57,61,.25,17.84,11.22,27.9,32.37,27.61,58a24.52,24.52,0,0,1-49-.56c.1-8.92-2.28-14.44-4.67-16-1.72-1.08-6-1.21-12.47,1.85l-84.06,49c-.48.28-1,.54-1.47.79-21.54,10.66-40.69,42.32-41,67.73l-1.31,116.52c-.1,8.92,2.28,14.44,4.68,16,1.72,1.08,6,1.21,12.46-1.85l84.06-49q.72-.42,1.47-.78c21.54-10.67,40.69-42.33,41-67.74l.12-12.09-69.35,40a24.52,24.52,0,0,1-24.52-42.48L765.8,576.74a24.53,24.53,0,0,1,36.14,26.88l-.51,50C801,697,771.39,745.43,734,764.43l-84.2,49.06c-.48.27-1,.54-1.47.78A72,72,0,0,1,616.45,822.2Z"/><path class="cls-2" d="M540,528.47a24.48,24.48,0,0,1-12.2-3.25L320.83,406.47a24.53,24.53,0,0,1,.11-42.61l159.52-90.42c37.41-21.55,94.21-20.74,129.59,1.84L709.74,332c.43.24.84.5,1.25.76,20.14,13.11,31.38,32.3,30.83,52.64-.57,21.06-13.66,40.49-35.9,53.31l-.21.12L552,525.32A24.51,24.51,0,0,1,540,528.47ZM382.54,385.33l157.53,90.41,141.46-79.6c7.67-4.44,11.18-9.26,11.26-12.08.05-2-2-5.81-8-9.84l-99.56-56.63c-.43-.25-.84-.5-1.25-.77-20.16-13.11-57.15-13.49-79.17-.8Z"/><path class="cls-3" d="M515.21,638.17c-.48-43.34-30.1-91.81-67.54-110.79L314,450.85a24.53,24.53,0,0,0-36.71,21.29V710.66a24.53,24.53,0,0,0,12.12,21.16l137,80.33c.49.29,1,.57,1.52.82a72,72,0,0,0,31.86,7.93,54.25,54.25,0,0,0,29.14-8.19c17.84-11.21,27.9-32.36,27.62-58Zm-52.4,133c-1.72,1.08-6,1.21-12.45-1.84L326.3,696.61V514.43l97.59,55.86c.42.24.86.48,1.3.69,21.54,10.67,40.69,42.33,41,67.74l.23,20.92-70.1-40.23A24.53,24.53,0,1,0,371.89,662L467,716.56l.44,38.68C467.58,764.16,465.2,769.68,462.81,771.19Z"/></svg>