<svg xmlns="http://www.w3.org/2000/svg" xmlns:xlink="http://www.w3.org/1999/xlink" viewBox="0 0 95.39 110.15"><defs><linearGradient id="Sfumatura_senza_nome_194" y1="55.07" x2="95.39" y2="55.07" gradientUnits="userSpaceOnUse"><stop offset="0" stop-color="#86b3e1"/><stop offset="0.33" stop-color="#bd93c3"/><stop offset="0.58" stop-color="#e37cae"/><stop offset="0.95" stop-color="#ed9e7f"/></linearGradient><linearGradient id="Sfumatura_senza_nome_194-2" x1="30.48" y1="55.07" x2="64.9" y2="55.07" xlink:href="#Sfumatura_senza_nome_194"/></defs><g id="Livello_2" data-name="Livello 2"><g id="Livello_1-2" data-name="Livello 1"><polygon points="92.86 81.15 92.86 28.99 47.69 2.91 2.52 28.99 2.52 81.15 47.69 107.23 92.86 81.15" style="fill:none;stroke-miterlimit:10;stroke-width:5.04759158845993px;stroke:url(#Sfumatura_senza_nome_194)"/><path d="M30.48,79.81V74.13a29.19,29.19,0,0,1,5.26-7.56q3.21-3.33,7-6.73,3.48-3.18,5.52-5.07a13.21,13.21,0,0,0,2.91-3.63A9.22,9.22,0,0,0,52,47q0-6.21-8-6.2a27,27,0,0,0-6.13.71,44.4,44.4,0,0,0-5.75,1.78V32.76A40.52,40.52,0,0,1,39.07,31,46.1,46.1,0,0,1,47,30.34q8.54,0,13,4.31t4.46,12.1a13.86,13.86,0,0,1-2,7.6,32.22,32.22,0,0,1-6.13,6.77c-2,1.72-3.82,3.29-5.41,4.73a26,26,0,0,0-4,4.58H64.9v9.38Z" style="fill:url(#Sfumatura_senza_nome_194-2)"/></g></g></svg>