<svg id="Livello_2" data-name="Livello 2" xmlns="http://www.w3.org/2000/svg" xmlns:xlink="http://www.w3.org/1999/xlink" viewBox="0 0 164.39 164.39"><defs><style>.cls-1{fill:url(#Sfumatura_senza_nome_194);}.cls-2{fill:#fff;}</style><linearGradient id="Sfumatura_senza_nome_194" x1="-1168.06" y1="66.74" x2="270.27" y2="84.52" gradientUnits="userSpaceOnUse"><stop offset="0" stop-color="#87b3e1"/><stop offset="0.32" stop-color="#bd94c4"/><stop offset="0.58" stop-color="#e37daf"/><stop offset="0.95" stop-color="#ee9f80"/></linearGradient></defs><circle class="cls-1" cx="82.19" cy="82.19" r="82.19"/><path class="cls-2" d="M118.18,50.27,86.39,129.72a3.11,3.11,0,0,1-4.07,1.69,3.07,3.07,0,0,1-1.81-2h0L72.41,98.6A8.78,8.78,0,0,0,71.75,97l17.83-17.8A3.12,3.12,0,0,0,85.2,74.8L67.4,92.6a8.78,8.78,0,0,0-1.58-.66L35,83.88A3.12,3.12,0,0,1,34.67,78L114.12,46.2a3.08,3.08,0,0,1,3.5.57A3,3,0,0,1,118.18,50.27Z"/></svg>