<svg id="Livello_2" data-name="Livello 2" xmlns="http://www.w3.org/2000/svg" xmlns:xlink="http://www.w3.org/1999/xlink" viewBox="0 0 480.62 413.22"><defs><style>.cls-1,.cls-10,.cls-18{fill:#d7d9e5;}.cls-1{opacity:0.4;}.cls-1,.cls-10,.cls-4{isolation:isolate;}.cls-2{fill:#d5d6e0;}.cls-3{fill:#e9ebf5;}.cls-4{fill:#010101;opacity:0.05;}.cls-5{fill:#dc990f;}.cls-6{fill:#f9cb0b;}.cls-7{fill:#cc8c0b;}.cls-8{fill:#e8a40d;}.cls-9{fill:#f8ca0b;}.cls-10{opacity:0.3;}.cls-11{fill:url(#Sfumatura_senza_nome_3);}.cls-12{fill:#fff;}.cls-13{fill:#dfdfe9;}.cls-14{fill:#524c9b;}.cls-15{fill:#ba95c5;}.cls-16{fill:url(#Sfumatura_senza_nome_3-2);}.cls-17{fill:url(#Sfumatura_senza_nome_3-3);}.cls-19{fill:#ecf0fa;}.cls-20{fill:#e2e5f1;}.cls-21{fill:#e5e5e4;}.cls-22{fill:#f4f3f4;}.cls-23{fill:#bfbebf;}.cls-24{fill:#2c3140;}.cls-25{fill:#ddeefb;}.cls-26{fill:#dbdbdb;}.cls-27{fill:#1e212d;}</style><linearGradient id="Sfumatura_senza_nome_3" x1="-1829.77" y1="12112.47" x2="-1783.91" y2="12033.04" gradientTransform="matrix(1, 0, 0, -1, 2038, 12257.94)" gradientUnits="userSpaceOnUse"><stop offset="0" stop-color="#e9ebf5"/><stop offset="0.04" stop-color="#dedfe9"/><stop offset="0.1" stop-color="#d7d8e2"/><stop offset="0.27" stop-color="#d5d6e0"/></linearGradient><linearGradient id="Sfumatura_senza_nome_3-2" x1="-1793.61" y1="12091.34" x2="-1747.75" y2="12011.91" xlink:href="#Sfumatura_senza_nome_3"/><linearGradient id="Sfumatura_senza_nome_3-3" x1="-1755.61" y1="12069.36" x2="-1709.74" y2="11989.93" xlink:href="#Sfumatura_senza_nome_3"/></defs><g id="Слой_2" data-name="Слой 2"><g id="Слой_1-2" data-name="Слой 1-2"><polygon class="cls-1" points="224.91 270.71 224.9 270.71 120.6 330.93 60.43 365.68 59.09 364.91 119.26 330.17 223.58 269.95 223.58 269.95 224.91 270.71"/><polygon class="cls-1" points="418.65 343.24 399.49 332.18 358.46 308.5 295.17 271.96 293.85 272.72 357.14 309.26 398.16 332.94 417.31 344.01 418.65 343.24"/><polygon class="cls-1" points="158.29 189.6 135.08 176.2 74.89 141.46 73.57 142.23 133.74 176.97 156.94 190.38 217.12 225.11 218.45 224.35 158.29 189.6"/><path class="cls-1" d="M111,193.62l50.15-29c2.76-1.59,3.07-4,.67-5.4L110.31,129.5c-2.41-1.38-6.59-1.2-9.36.39l-50.14,29c-2.78,1.6-3.07,4-.67,5.41L101.63,194C104,195.36,108.21,195.18,111,193.62Z"/><path class="cls-2" d="M167.08,159.66h0a4,4,0,0,1-2.26,2.89L114.67,191.5c-2.77,1.6-7,1.77-9.36.39L53.82,162.16a2.87,2.87,0,0,1-1.57-2h0v-.28a1.15,1.15,0,0,1,0-.37v-3.32l2.14.67.11-.08,50.15-28.95c2.77-1.61,7-1.77,9.36-.39l50.57,29.19,2.52-.77Z"/><path class="cls-3" d="M165.5,153.63,114,123.9c-2.4-1.38-6.59-1.22-9.36.4L74.89,141.46l-1.32.77-19.07,11c-2.76,1.6-3.06,4-.67,5.4l51.49,29.73c2.41,1.38,6.59,1.21,9.36-.39l19.06-11,1.34-.77L164.83,159C167.6,157.43,167.89,155,165.5,153.63Z"/><ellipse class="cls-4" cx="106.44" cy="156.59" rx="33.54" ry="19.37"/><path class="cls-5" d="M142.31,154.5h0c0,4.94-3.3,9.88-9.82,13.64-13.11,7.56-34.35,7.56-47.45,0-6.53-3.77-9.82-8.71-9.82-13.65h0v-8.21l1.65,2.18A21.12,21.12,0,0,1,85,140.74c13.1-7.57,34.34-7.57,47.45,0,4.08,2.36,6.89,5.17,8.43,8.16l1.39-3.1v8.7Z"/><ellipse class="cls-6" cx="108.76" cy="146.14" rx="33.54" ry="19.37"/><path class="cls-7" d="M125.76,136.33c-9.38-5.41-24.59-5.41-34,0-5.05,2.93-7.38,6.82-7,10.64.33,3.27,2.67,6.49,7,9,9.38,5.41,24.59,5.41,34,0,4.32-2.53,6.65-5.71,7-9C133.12,143.15,130.79,139.24,125.76,136.33Z"/><path class="cls-8" d="M125.76,138c-9.38-5.42-24.59-5.42-34,0-4.32,2.52-6.66,5.71-7,9,.33,3.27,2.67,6.49,7,9,9.38,5.41,24.59,5.41,34,0,4.32-2.53,6.65-5.71,7-9C132.4,143.71,130.06,140.49,125.76,138Z"/><path class="cls-7" d="M118.15,149.85a18.35,18.35,0,0,0,1.71-1.22,7,7,0,0,0,1.13-1.18,2.36,2.36,0,0,0,.51-1.18,1.84,1.84,0,0,0-.32-1.16,4.72,4.72,0,0,0-1.21-1.19,6.87,6.87,0,0,0-3.4-1.28,9,9,0,0,0-3.64.54q.91-1.69-1.66-2.94a6.64,6.64,0,0,0-2-.59,7.39,7.39,0,0,0-2.1,0,12.41,12.41,0,0,0-2.08.52,20.11,20.11,0,0,0-2.13.92l-2.91-1.68.25-.1H99.9l-.22-.13-.22.13H97.71v1l3.21,1.85-1.57.92-3.24-1.85-.51.3L94,141.4v1l3.3,1.9c-.27.18-.7.42-1.25.74l-1.16.67-1.61-.06v1L95.45,148l1.46-.84a2.25,2.25,0,0,1,2-.16l3.76,2.17.22-.11-.21.12,5.28,3c.36.29.34.56-.08.81l-1.47-.18v1l2,1.61,2.62-1.51.72-.42.72-.39,3.34,1.92,2-1.17v-1l-.92.52L114.54,152l1.61-.92,3.29,1.9,2-1.16v-1h-1.84Zm-11.36-3.69-.61.35-.46.26-4-2.32.51-.31.7-.41c.18-.11.44-.25.79-.43s.65-.3.92-.4a7.54,7.54,0,0,1,.92-.29,4.85,4.85,0,0,1,1-.16,4.05,4.05,0,0,1,.92.1,2.68,2.68,0,0,1,.92.34,1.67,1.67,0,0,1,.56.46.61.61,0,0,1,.14.49,1.43,1.43,0,0,1-.13.49,1.45,1.45,0,0,1-.39.5c-.2.19-.37.34-.53.47a4.24,4.24,0,0,1-.65.46Zm9.42,1.27a3.58,3.58,0,0,1-.34.52,4.51,4.51,0,0,1-.55.52c-.22.19-.43.36-.63.5l-.72.47-.67.42-.64.36c-.26.13-.42.23-.49.27l-4.43-2.56.61-.37.84-.49c.21-.13.52-.29.92-.5a8.05,8.05,0,0,1,1.08-.49c.32-.12.69-.24,1.1-.36a5.77,5.77,0,0,1,1.16-.21,4.87,4.87,0,0,1,1.08.08,2.94,2.94,0,0,1,1,.37,1.73,1.73,0,0,1,.55.46.93.93,0,0,1,.2.48.88.88,0,0,1-.11.57Z"/><path class="cls-9" d="M116.57,141.61a8.68,8.68,0,0,0-3.64.54q.91-1.69-1.66-3a6.62,6.62,0,0,0-2-.58,7.39,7.39,0,0,0-2.1,0,13.46,13.46,0,0,0-2.08.52,18.24,18.24,0,0,0-2.13.92l-3.3-1.9-2,1.15,3.21,1.84-1.57.93-3.24-1.85L94,141.4l3.3,1.9c-.27.18-.7.43-1.25.75l-2.77,1.59,2.15,1.25,1.46-.84a2.26,2.26,0,0,1,2-.17l3.76,2.18a.76.76,0,0,1,.22-.11l-.21.12,5.28,3c.36.29.34.57-.1.82l-1.45.84,2,1.62,2.62-1.51.72-.41.72-.41,3.34,1.93,2-1.17-3.3-1.9c.38-.21.92-.51,1.61-.93l3.29,1.9,2-1.17-3.34-1.92a18.35,18.35,0,0,0,1.71-1.22A6,6,0,0,0,121,146.4a2.33,2.33,0,0,0,.51-1.17,1.84,1.84,0,0,0-.32-1.16,4.32,4.32,0,0,0-1.21-1.2A6.75,6.75,0,0,0,116.57,141.61Zm-14.87,1.84.51-.3.7-.42a7.62,7.62,0,0,1,.79-.41,8.34,8.34,0,0,1,.92-.41,7.54,7.54,0,0,1,.92-.29,4.24,4.24,0,0,1,1-.15,4,4,0,0,1,.92.08,2.92,2.92,0,0,1,.92.35,1.88,1.88,0,0,1,.56.45.69.69,0,0,1,.14.5,1.32,1.32,0,0,1-.13.48,1.39,1.39,0,0,1-.39.51l-.53.48a7.49,7.49,0,0,1-.65.45l-.63.39a5.39,5.39,0,0,1-.61.35l-.46.26-4-2.32Zm14.44,2a1.13,1.13,0,0,1,.21.49,1,1,0,0,1-.13.53,3.48,3.48,0,0,1-.34.51,4.59,4.59,0,0,1-.55.53c-.22.19-.44.36-.63.5l-.72.47-.67.41-.64.36-.49.28-4.43-2.56.61-.36.83-.5c.22-.13.53-.3.93-.5s.77-.37,1.08-.5.73-.25,1.1-.35a5.13,5.13,0,0,1,1.16-.2,4.86,4.86,0,0,1,1.08.06,3.4,3.4,0,0,1,1,.37A1.8,1.8,0,0,1,116.14,145.41Z"/><path class="cls-5" d="M142.67,142.34h0c0,4.94-3.29,9.88-9.81,13.65-13.11,7.56-34.35,7.56-47.45,0-6.53-3.77-9.82-8.71-9.82-13.65h0v-8.22l1.65,2.22a21.12,21.12,0,0,1,8.17-7.69c13.1-7.57,34.34-7.57,47.45,0a20.92,20.92,0,0,1,8.43,8.15l1.38-3.09v8.63Z"/><ellipse class="cls-6" cx="109.13" cy="134" rx="33.54" ry="19.37"/><path class="cls-7" d="M126.11,124.19c-9.38-5.42-24.59-5.42-34,0-5,2.92-7.38,6.82-7,10.64.33,3.26,2.67,6.48,7,9,9.38,5.41,24.59,5.41,34,0,4.32-2.53,6.65-5.72,7-9C133.49,131,131.16,127.11,126.11,124.19Z"/><path class="cls-8" d="M126.11,125.86c-9.38-5.42-24.59-5.42-34,0-4.32,2.52-6.66,5.71-7,9,.33,3.26,2.67,6.48,7,9,9.38,5.41,24.59,5.41,34,0,4.32-2.53,6.65-5.72,7-9C132.74,131.57,130.43,128.35,126.11,125.86Z"/><path class="cls-7" d="M118.51,137.7a19,19,0,0,0,1.72-1.21,7,7,0,0,0,1.13-1.18,2.45,2.45,0,0,0,.51-1.18,1.91,1.91,0,0,0-.32-1.16,4.29,4.29,0,0,0-1.21-1.19,6.78,6.78,0,0,0-3.4-1.28,8.91,8.91,0,0,0-3.69.54c.62-1.13.06-2.11-1.66-2.94a6.47,6.47,0,0,0-2-.59,7.39,7.39,0,0,0-2.1,0,12.38,12.38,0,0,0-2.08.51,19.83,19.83,0,0,0-2.13.92l-2.83-1.69.25-.09h-.41l-.22-.13-.22.13H98v1l3.21,1.84-1.57.92-3.23-1.84-.52.3-1.5-.17v1l3.3,1.93-1.25.74-1.17.67-1.63-.11v1l2.21,1.24,1.45-.84a2.24,2.24,0,0,1,2.06-.15l3.76,2.16.22-.11-.21.12,5.27,3c.36.29.34.56-.07.8l-1.48-.17v1l2,1.62,2.62-1.51.73-.41.72-.41,3.33,1.94,2-1.17v-1l-.92.52-2.4-1.39c.37-.2.92-.51,1.61-.92l3.29,1.9,2-1.17v-1H120ZM107.16,134l-.61.36-.46.25-4-2.32a2.94,2.94,0,0,0,.51-.3l.7-.42c.18-.11.44-.25.79-.42s.64-.3.92-.4.57-.2.92-.3a5.62,5.62,0,0,1,1-.15,4.7,4.7,0,0,1,.92.09,3.12,3.12,0,0,1,.92.35,1.74,1.74,0,0,1,.56.45.69.69,0,0,1,.14.5,1.69,1.69,0,0,1-.13.49,1.58,1.58,0,0,1-.39.5,6.67,6.67,0,0,1-.53.47,7,7,0,0,1-.65.46,3.34,3.34,0,0,1-.59.43Zm9.42,1.27a3.11,3.11,0,0,1-.34.52,4.51,4.51,0,0,1-.55.52,6,6,0,0,1-.63.5l-.72.48-.67.41-.64.36-.49.27-4.43-2.55.61-.37.83-.5.93-.49a11.47,11.47,0,0,1,1.08-.49c.32-.12.69-.24,1.1-.36a5.77,5.77,0,0,1,1.16-.21,5.65,5.65,0,0,1,1.09.07,3,3,0,0,1,1,.38,1.7,1.7,0,0,1,.55.45,1.18,1.18,0,0,1,.2.49,1,1,0,0,1-.11.56Z"/><path class="cls-9" d="M116.94,129.46a9.08,9.08,0,0,0-3.69.54c.62-1.14.06-2.12-1.66-2.94a6.47,6.47,0,0,0-2-.59,7.39,7.39,0,0,0-2.1,0,11.51,11.51,0,0,0-2.08.52,19.83,19.83,0,0,0-2.13.92L100,126l-2,1.17,3.2,1.84-1.56.93-3.24-1.85-2,1.16,3.34,1.91c-.28.18-.7.43-1.25.75l-2.77,1.59,2.18,1.24,1.45-.84a2.31,2.31,0,0,1,2.06-.16l3.76,2.18a.94.94,0,0,1,.22-.12l-.21.12,5.27,3c.37.31.34.57-.09.83l-1.46.84,2,1.62,2.62-1.52.73-.4.72-.41,3.33,1.93,2-1.17-3.3-1.9,1.62-.93,3.29,1.9,2-1.16-3.35-1.92a17.59,17.59,0,0,0,1.71-1.22,6.37,6.37,0,0,0,1.14-1.18,2.45,2.45,0,0,0,.51-1.18,1.85,1.85,0,0,0-.33-1.16,4.38,4.38,0,0,0-1.2-1.19A6.89,6.89,0,0,0,116.94,129.46Zm-14.87,1.84.51-.3.7-.42c.18-.11.44-.25.79-.42a8,8,0,0,1,1.84-.69,4.85,4.85,0,0,1,1-.16,4.7,4.7,0,0,1,.92.09,3.3,3.3,0,0,1,.92.35,1.64,1.64,0,0,1,.56.45.64.64,0,0,1,.14.5,1.55,1.55,0,0,1-.13.48,1.51,1.51,0,0,1-.39.51c-.19.18-.37.34-.53.47a5.06,5.06,0,0,1-.65.46l-.63.4-.61.35-.46.25-4-2.32Zm14.43,2a.9.9,0,0,1,.21.49,1,1,0,0,1-.13.53,3.48,3.48,0,0,1-.34.51,4.59,4.59,0,0,1-.55.53c-.22.19-.44.36-.63.5l-.72.47-.67.41-.64.36-.49.28-4.43-2.56a3.75,3.75,0,0,0,.61-.37l.83-.49.93-.51a9.55,9.55,0,0,1,1.08-.49c.36-.13.73-.25,1.1-.35a5.77,5.77,0,0,1,1.16-.21,5,5,0,0,1,1.09.07,3.18,3.18,0,0,1,1,.37A1.67,1.67,0,0,1,116.5,133.27Z"/><path class="cls-10" d="M253.62,311.12l53-30.58a2.08,2.08,0,0,0,0-3.59L209.3,219.43a2.11,2.11,0,0,0-2.09,0l-53,30.53a2.1,2.1,0,0,0-.74.74,2.07,2.07,0,0,0,.74,2.84l97.34,57.54A2.07,2.07,0,0,0,253.62,311.12Z"/><path class="cls-3" d="M270.46,110.51a11.2,11.2,0,0,0-4.15-4.91l-16.45-9.5c-1.56-.9-3-.85-4-.06l-78.94,45.38L180.67,211l7.67,39,2.23,11.31,1.59-.92L269.44,216c1.46-.5,2.39-2.18,2.39-4.7V116.19A13.34,13.34,0,0,0,270.46,110.51Z"/><path class="cls-11" d="M270.43,110.43l-78.26,44.31S184.55,192.2,180.64,211c-1.28,6.15-2.16,10.31-2.25,10.47-.19.49,5.8,17.19,10,28.58,2,5.57,3.61,9.86,3.82,10.4L269.44,216c1.46-.5,2.39-2.18,2.39-4.7V116.19A13.4,13.4,0,0,0,270.43,110.43Z"/><path class="cls-12" d="M193.81,161.07v95.07c0,4.08-2.47,6-5.53,4.19l-16.46-9.49c-3-1.77-5.53-6.52-5.53-10.61V145.17a6.54,6.54,0,0,1,.74-3.24l-.35-.41,1.56-.85h0a3.51,3.51,0,0,1,3.6.3l16.45,9.49C191.36,152.23,193.85,157,193.81,161.07Z"/><path class="cls-13" d="M192.16,257.05V162c0-4.09-2.47-8.84-5.53-10.61l-16.46-9.5c-3-1.77-5.53.11-5.53,4.2v95.07c0,4.08,2.46,8.83,5.53,10.6l16.46,9.5C189.69,263,192.17,261.14,192.16,257.05Z"/><path class="cls-14" d="M180.85,159l-4.67-2.69-.23-.14c-2.19-1.27-4,.07-4,3v77.32c0,3,1.77,6.32,4,7.58l4.9,2.83a3.35,3.35,0,0,0,1.41.46c1.5.1,2.55-1.21,2.55-3.46V166.61C184.81,163.68,183,160.3,180.85,159Z"/><path class="cls-15" d="M180.88,159l-4.66-2.69c-1.47-.1-2.53,1.22-2.53,3.46v77.33c0,3,1.78,6.31,4,7.57l4.6,2.68c1.5.1,2.55-1.21,2.55-3.46V166.61C184.81,163.68,183,160.3,180.88,159Z"/><path class="cls-3" d="M306.65,131.64a11.28,11.28,0,0,0-4.16-4.91L286,117.23c-1.56-.9-3-.85-4-.06l-25.32,14.55-1.58.93-.48.27-26,15-3.27,1.85-.84.49-21.48,12.35,13.72,69.58,7.68,39,2.25,11.31,1.58-.93,77.28-44.43c1.48-.5,2.4-2.17,2.4-4.71V137.33A13.55,13.55,0,0,0,306.65,131.64Z"/><path class="cls-16" d="M306.61,131.57l-78.27,44.3s-7.63,37.46-11.54,56.23c-1.28,6.16-2.16,10.31-2.24,10.47-.2.49,5.79,17.19,9.94,28.58,2,5.56,3.61,9.86,3.82,10.39L305.6,237.1c1.48-.49,2.4-2.17,2.4-4.7V137.33A13.53,13.53,0,0,0,306.61,131.57Z"/><path class="cls-12" d="M230,182.2v95.07c0,4.09-2.47,6-5.53,4.2L208,272c-3-1.77-5.53-6.52-5.53-10.61V166.3a6.62,6.62,0,0,1,.74-3.24l-.34-.41,1.56-.86h0a3.56,3.56,0,0,1,3.6.31l16.45,9.49C227.52,173.34,230,178.11,230,182.2Z"/><path class="cls-13" d="M222.78,172.5,206.32,163c-3-1.76-5.53.1-5.53,4.2v95.08c0,4.1,2.48,8.85,5.53,10.61l5.4,3.08,1.69,1,9.39,5.41c3.06,1.78,5.53-.1,5.53-4.18V183.11C228.33,179,225.84,174.27,222.78,172.5Z"/><path class="cls-14" d="M217,180.16l-4.61-2.69-.24-.14c-2.19-1.26-4,.08-4,3v77.32c0,2.92,1.77,6.31,4,7.58l4.9,2.83a3.35,3.35,0,0,0,1.42.46c1.49.1,2.54-1.21,2.54-3.46V187.74C221,184.82,219.2,181.43,217,180.16Z"/><path class="cls-15" d="M217,180.16l-4.61-2.69c-1.48-.09-2.54,1.23-2.54,3.48v77.32c0,3,1.78,6.3,4,7.57l4.61,2.68c1.49.1,2.54-1.21,2.54-3.46V187.74C221,184.82,219.2,181.43,217,180.16Z"/><path class="cls-3" d="M344.6,153.66a11.16,11.16,0,0,0-4.16-4.91L324,139.25c-1.56-.9-3-.85-4-.06l-78.94,45.38,13.73,69.59,7.69,39,2.24,11.26,1.58-.92,77.29-44.43c1.46-.51,2.38-2.19,2.38-4.71V159.31A13.23,13.23,0,0,0,344.6,153.66Z"/><path class="cls-17" d="M344.6,153.55l-78.27,44.3s-7.61,37.47-11.52,56.23c-1.28,6.16-2.17,10.32-2.25,10.47-.2.48,5.79,17.19,9.94,28.58,2,5.57,3.62,9.85,3.82,10.39l77.29-44.43c1.46-.51,2.38-2.19,2.38-4.71V159.31A13.24,13.24,0,0,0,344.6,153.55Z"/><path class="cls-12" d="M268,204.18v95.06c0,4.09-2.46,6-5.53,4.21L246,293.94c-3-1.77-5.53-6.52-5.53-10.6V188.28a6.54,6.54,0,0,1,.73-3.25l-.35-.4,1.56-.86h0a3.6,3.6,0,0,1,3.61.3l16.45,9.5C265.53,195.34,268,200.08,268,204.18Z"/><path class="cls-13" d="M266.32,300.16V205.09c0-4.08-2.47-8.83-5.53-10.6L244.34,185c-3-1.77-5.53.11-5.53,4.19v95.07c0,4.09,2.46,8.83,5.53,10.6l16.45,9.51C263.85,306.13,266.34,304.24,266.32,300.16Z"/><path class="cls-14" d="M255.06,202.14l-4.67-2.69-.24-.14c-2.18-1.26-4,.07-4,3v77.32c0,3,1.78,6.31,4,7.57l4.91,2.83a3.15,3.15,0,0,0,1.42.47c1.49.1,2.54-1.21,2.54-3.46V209.72C259,206.8,257.18,203.4,255.06,202.14Z"/><path class="cls-15" d="M255.1,202.14l-4.67-2.69c-1.47-.09-2.52,1.22-2.52,3.47v77.32c0,3,1.77,6.31,4,7.57l4.61,2.69c1.49.1,2.54-1.21,2.54-3.46V209.72C259,206.8,257.18,203.4,255.1,202.14Z"/><path class="cls-5" d="M279.41,106.33h0l-.22.13-.44.25-8.39,4.89,1.77-3c-4.31.25-9.27-1.06-14.55-4.1C240.87,94.81,227.32,71.34,227.32,52c0-6.92.69-10.9,3.69-14.59l-2.49-.51,7.6-4.46.11-.06h.06c5.47-3.1,13-2.62,21.29,2.18,16.73,9.65,30.28,33.12,30.28,52.42C287.86,96.43,284.63,103.09,279.41,106.33Z"/><ellipse class="cls-6" cx="250.35" cy="74.5" rx="24.8" ry="42.96" transform="translate(-3.83 134.65) rotate(-29.89)"/><path class="cls-7" d="M253.11,51.82a31.91,31.91,0,0,0-3.68-2.52c-12-6.91-21.67-1.31-21.67,12.52,0,12.92,8.46,28.45,19.35,36.06l.08.05c.72.49,1.47,1,2.21,1.41,12,6.91,21.67,1.32,21.67-12.51C271.07,74.48,263.32,59.73,253.11,51.82Z"/><path class="cls-8" d="M253.11,51.86a27.16,27.16,0,0,0-2.37-1.52c-12-6.91-21.66-1.32-21.66,12.51,0,12.35,7.79,27.13,18,35l.08.05c.72.49,1.47,1,2.21,1.41,12,6.91,21.67,1.32,21.67-12.51C271.07,74.48,263.32,59.73,253.11,51.86Z"/><path class="cls-7" d="M259.6,79.74a11.27,11.27,0,0,0-2.92-3.69c1.66,0,2.39-1.26,2.19-3.69a8.33,8.33,0,0,0-.61-2.56,9.22,9.22,0,0,0-1.39-2.31,14.88,14.88,0,0,0-1.89-2,22.44,22.44,0,0,0-2.34-1.77V58.87l-2.57-1.5-.92.55.92,1.35v2.84q-.66-.39-2-1.14V56.2l-2.58-1.49-.92.54.92.92v3.42l-1.62-.92-3.54-2.06-.92.53.92,1.11v1.52l1.85,1.07A2.91,2.91,0,0,1,243.63,63v5.54l.27.17-.27-.16v7.77c-.09.6-.42.74-1,.42l-1.84-1.07-.92.53.71.93-.29,1.76,3.35,1.92.92.55.92.52v4.93l1.51.87.12,1.15.92-.53V83.46c.47.29,1.15.68,2,1.2v4.85l1.47.84.16,1.18.92-.54V86.07a21.46,21.46,0,0,0,2.44,1.11,8,8,0,0,0,2,.51,3.24,3.24,0,0,0,1.63-.19,2.47,2.47,0,0,0,1.07-1.1,5.68,5.68,0,0,0,.55-2.1A8.63,8.63,0,0,0,259.6,79.74Zm-10-14.39c.24.13.56.33,1,.61s.74.52,1,.74a12.34,12.34,0,0,1,.92.85,5.09,5.09,0,0,1,.8,1,5.62,5.62,0,0,1,.52,1.11,4.09,4.09,0,0,1,.2,1.25,2.12,2.12,0,0,1-.15.93.85.85,0,0,1-.45.48,2.1,2.1,0,0,1-.62.16,2,2,0,0,1-.81-.11c-.33-.1-.61-.19-.85-.29a7.78,7.78,0,0,1-.93-.42l-.84-.44c-.18-.1-.45-.25-.77-.45l-.58-.34v-6l.66.37Zm5.46,16.33a1.32,1.32,0,0,1-.4.54,1.3,1.3,0,0,1-.67.19,3.5,3.5,0,0,1-.79,0,6,6,0,0,1-.92-.26c-.31-.12-.62-.25-.92-.39s-.6-.29-1-.49l-.92-.48-.81-.5-.62-.36v-6.5l.8.41c.45.24.8.44,1.08.61s.66.4,1.16.72a8.68,8.68,0,0,1,1.24.92c.31.3.7.6,1.09,1a7.24,7.24,0,0,1,.93,1.14,6.49,6.49,0,0,1,.61,1.24,3.88,3.88,0,0,1,.25,1.39A2.19,2.19,0,0,1,255.11,81.68Z"/><path class="cls-9" d="M258.65,80.24a11.23,11.23,0,0,0-2.92-3.68q2.49,0,2.2-3.69a8.64,8.64,0,0,0-.62-2.56A9,9,0,0,0,255.93,68a15.4,15.4,0,0,0-1.84-2,23.75,23.75,0,0,0-2.34-1.79V59.4l-2.57-1.48v4.73l-2.05-1.15V56.74l-2.57-1.49v4.87c-.37-.2-.92-.51-1.62-.92l-3.55-2.07V60.3l1.84,1.07a2.9,2.9,0,0,1,1.49,2.17v5.53l.26.18-.26-.15v7.75c-.09.61-.42.75-1,.43l-1.85-1.07-.52,3.23,3.35,1.94.92.53.92.54v4.92l2.57,1.48V84c.47.29,1.15.69,2.05,1.2V90l2.57,1.49V86.6a22.21,22.21,0,0,0,2.43,1.12,8.89,8.89,0,0,0,2,.51,3,3,0,0,0,1.62-.2,2.35,2.35,0,0,0,1.08-1.1,5.27,5.27,0,0,0,.54-2.1A8.38,8.38,0,0,0,258.65,80.24ZM247.14,65l.65.37.93.5c.24.14.56.34,1,.61s.75.53,1,.75a12.34,12.34,0,0,1,.92.85,6.38,6.38,0,0,1,.8,1A5.58,5.58,0,0,1,253,70.2a3.77,3.77,0,0,1,.21,1.25,2.4,2.4,0,0,1-.15.92.94.94,0,0,1-.44.5,2.24,2.24,0,0,1-.63.16,2,2,0,0,1-.8-.12c-.33-.09-.62-.19-.87-.27a7.6,7.6,0,0,1-.92-.43c-.37-.18-.64-.34-.83-.45l-.78-.44-.57-.35V65Zm7,17.21a1.23,1.23,0,0,1-.4.53,1.07,1.07,0,0,1-.66.2,4.25,4.25,0,0,1-.8,0,7.45,7.45,0,0,1-.92-.27,8.18,8.18,0,0,1-.92-.39c-.27-.12-.6-.28-1-.49l-.92-.47-.8-.47-.62-.37V73.91l.79.44L249,75c.28.17.67.41,1.15.73a8.68,8.68,0,0,1,1.24.92,14.67,14.67,0,0,1,1.1,1,7.78,7.78,0,0,1,.92,1.14A6.33,6.33,0,0,1,254,80a3.83,3.83,0,0,1,.25,1.38A2,2,0,0,1,254.16,82.22Z"/><polygon class="cls-1" points="448.04 136.94 387.85 171.68 359.27 188.18 299.11 222.93 300.45 223.69 360.61 188.95 389.2 172.45 449.36 137.71 448.04 136.94"/><path class="cls-1" d="M416.74,190.3l50.19-29c2.78-1.59,3.07-4,.68-5.4l-51.5-29.73c-2.39-1.38-6.59-1.21-9.35.39l-50.15,29c-2.77,1.6-3.07,4-.67,5.4l51.49,29.73C409.78,192.07,414,191.9,416.74,190.3Z"/><path class="cls-2" d="M472.9,156.34h0a4,4,0,0,1-2.28,2.89l-50.15,29c-2.76,1.6-7,1.77-9.35.39l-51.53-29.72a3,3,0,0,1-1.58-2h0v-.28a2.29,2.29,0,0,1,0-.37v-3.32l2.14.68.12-.09,50.15-28.95c2.77-1.61,7-1.77,9.35-.39l50.57,29.19,2.54-.77Z"/><path class="cls-3" d="M420.44,184.7l50.14-28.95c2.78-1.6,3.08-4,.68-5.41l-51.5-29.72c-2.39-1.39-6.59-1.21-9.35.38l-50.15,29c-2.76,1.59-3.07,4-.67,5.4l51.53,29.73C413.49,186.47,417.67,186.29,420.44,184.7Z"/><ellipse class="cls-4" cx="412.2" cy="153.31" rx="33.54" ry="19.37"/><path class="cls-5" d="M448.07,151.23h0c0,4.94-3.3,9.88-9.82,13.64-13.1,7.56-34.35,7.56-47.45,0-6.52-3.77-9.82-8.71-9.82-13.65h0V143l1.65,2.17a21.39,21.39,0,0,1,8.17-7.71c13.1-7.56,34.35-7.56,47.45,0a21,21,0,0,1,8.43,8.16l1.39-3.09v8.65Z"/><ellipse class="cls-6" cx="414.52" cy="142.86" rx="33.54" ry="19.37"/><path class="cls-7" d="M431.5,133.05c-9.38-5.41-24.59-5.41-34,0-5,2.92-7.38,6.82-7,10.64.34,3.27,2.67,6.49,7,9,9.38,5.41,24.59,5.41,34,0,4.33-2.53,6.65-5.71,7-9C438.89,139.87,436.55,136,431.5,133.05Z"/><path class="cls-8" d="M431.5,134.72c-9.38-5.42-24.59-5.42-34,0-4.32,2.52-6.65,5.71-7,9,.34,3.27,2.67,6.49,7,9,9.38,5.41,24.59,5.41,34,0,4.33-2.53,6.65-5.71,7-9C438.15,140.43,435.83,137.21,431.5,134.72Z"/><path class="cls-7" d="M423.9,146.61a17.25,17.25,0,0,0,1.72-1.22,7,7,0,0,0,1.14-1.17,2.48,2.48,0,0,0,.5-1.18,1.92,1.92,0,0,0-.32-1.17,4.72,4.72,0,0,0-1.21-1.19,7,7,0,0,0-3.39-1.28,9.09,9.09,0,0,0-3.65.55c.62-1.13.06-2.11-1.66-2.94a6.34,6.34,0,0,0-2-.59,6.72,6.72,0,0,0-2.1,0,12.16,12.16,0,0,0-2.06.51,18.24,18.24,0,0,0-2.13.92l-2.91-1.67.24-.1h-.42l-.22-.13-.22.13h-1.85v1l3.22,1.84-1.57.92L401.78,138l-.52.29-1.5-.16v1l3.3,1.91-1.25.74-1.16.66-1.64-.1v1l2.15,1.24,1.46-.84a2.25,2.25,0,0,1,2.05-.16l3.77,2.17.22-.11-.21.12,5.27,3c.37.29.34.56-.07.81l-1.48-.19v1.05l2,1.61,2.63-1.51.72-.42.71-.39,3.35,1.92,2-1.17v-1l-.92.52-2.41-1.39,1.62-.92,3.29,1.9,2.08-1.24v-1.05h-1.8Zm-11.34-3.69-.62.35-.45.26-4.06-2.33.52-.3.69-.42c.18-.11.45-.25.79-.42a8,8,0,0,1,1.84-.69,4.94,4.94,0,0,1,1-.16,4.7,4.7,0,0,1,.92.09,3.28,3.28,0,0,1,.92.34,2,2,0,0,1,.55.46.63.63,0,0,1,.15.49,2,2,0,0,1-.13.49,1.78,1.78,0,0,1-.39.51l-.54.47a7.42,7.42,0,0,1-.64.46Zm9.42,1.27a3.64,3.64,0,0,1-.35.52,4.59,4.59,0,0,1-.55.53l-.63.5-.71.47-.69.41-.63.36-.49.28-4.42-2.57.6-.36.83-.49.92-.51a9.62,9.62,0,0,1,1.09-.49c.32-.12.68-.24,1.11-.36a6.44,6.44,0,0,1,1.15-.2,4.41,4.41,0,0,1,1.09.07,3.18,3.18,0,0,1,1,.37,1.84,1.84,0,0,1,.55.45,1.24,1.24,0,0,1,.2.49,1,1,0,0,1-.1.52Z"/><path class="cls-9" d="M422.34,138.32a8.75,8.75,0,0,0-3.65.54c.62-1.13.06-2.11-1.66-3a6.62,6.62,0,0,0-2-.59,7.39,7.39,0,0,0-2.1,0,11.31,11.31,0,0,0-2.06.52,18.24,18.24,0,0,0-2.13.92l-3.31-1.9-2,1.16,3.22,1.84-1.58.93-3.23-1.85-2,1.17,3.3,1.9c-.28.18-.69.43-1.26.75l-2.76,1.59,2.15,1.25,1.45-.84a2.28,2.28,0,0,1,2.06-.17l3.76,2.18a.91.91,0,0,1,.22-.11l-.2.12,5.26,3c.38.29.35.57-.09.82l-1.46.84,2,1.62,2.63-1.51.73-.42.71-.4,3.34,1.93,2-1.17-3.32-1.9c.37-.2.92-.51,1.61-.92l3.29,1.9,2-1.17-3.35-1.93a17.15,17.15,0,0,0,1.72-1.21,6.37,6.37,0,0,0,1.14-1.18,2.45,2.45,0,0,0,.5-1.17,1.85,1.85,0,0,0-.33-1.16,4,4,0,0,0-1.2-1.2A6.71,6.71,0,0,0,422.34,138.32Zm-14.91,1.84.52-.31.69-.41a8.84,8.84,0,0,1,.79-.41,8.34,8.34,0,0,1,.92-.41,7.6,7.6,0,0,1,.92-.3,4.91,4.91,0,0,1,1-.14,4,4,0,0,1,.92.08,2.92,2.92,0,0,1,.92.35,1.84,1.84,0,0,1,.55.45.69.69,0,0,1,.15.5,1.89,1.89,0,0,1-.13.48,1.78,1.78,0,0,1-.39.51l-.54.48a7.33,7.33,0,0,1-.64.45l-.63.39-.62.35-.45.26Zm14.44,2a1,1,0,0,1,.2.49,1,1,0,0,1-.12.53,3.54,3.54,0,0,1-.35.51,4.59,4.59,0,0,1-.55.53c-.22.19-.43.35-.63.5l-.71.47-.68.41-.64.36-.49.28-4.42-2.57.61-.36.83-.49c.22-.13.52-.3.92-.5s.77-.37,1.09-.5a10.8,10.8,0,0,1,1.1-.35,5,5,0,0,1,1.15-.2,4.41,4.41,0,0,1,1.09.06,3.18,3.18,0,0,1,1,.37,1.78,1.78,0,0,1,.59.46Z"/><path class="cls-5" d="M448.46,139.06h0c0,4.94-3.3,9.87-9.83,13.64-13.1,7.57-34.34,7.57-47.44,0-6.53-3.77-9.83-8.7-9.83-13.64h0v-8.22L383,133a21.39,21.39,0,0,1,8.18-7.7c13.1-7.57,34.34-7.57,47.44,0a20.84,20.84,0,0,1,8.44,8.16l1.37-3.11V139Z"/><ellipse class="cls-6" cx="414.89" cy="130.72" rx="33.54" ry="19.37"/><path class="cls-7" d="M431.87,120.91c-9.38-5.42-24.59-5.42-34,0-5,2.92-7.38,6.82-7,10.64.33,3.26,2.67,6.48,7,9,9.38,5.41,24.59,5.41,34,0,4.33-2.53,6.65-5.72,7-9C439.26,127.73,436.93,123.83,431.87,120.91Z"/><path class="cls-8" d="M431.87,122.58c-9.38-5.42-24.59-5.42-34,0-4.32,2.52-6.66,5.71-7,9,.33,3.26,2.67,6.48,7,9,9.38,5.41,24.59,5.41,34,0,4.33-2.53,6.65-5.72,7-9C438.52,128.29,436.2,125.07,431.87,122.58Z"/><path class="cls-7" d="M424.27,134.42c.59-.38,1.17-.78,1.72-1.21a7.08,7.08,0,0,0,1.14-1.18,2.54,2.54,0,0,0,.5-1.18,1.85,1.85,0,0,0-.33-1.16,4,4,0,0,0-1.2-1.19,6.65,6.65,0,0,0-3.4-1.28,8.89,8.89,0,0,0-3.64.54c.62-1.14.06-2.12-1.66-2.94a6.62,6.62,0,0,0-2-.59,7.39,7.39,0,0,0-2.1,0,12.19,12.19,0,0,0-2.06.52,18.24,18.24,0,0,0-2.13.92L406.2,124l.25-.09H406l-.22-.13-.22.13h-1.8v1l3.22,1.85-1.58.92-3.24-1.85-.51.31-1.5-.18v1l3.3,1.91-1.26.74-1.16.66-1.63-.1v1l2.15,1.25,1.45-.84a2.27,2.27,0,0,1,2.06-.16l3.76,2.17.22-.11-.2.12,5.26,3c.37.29.34.55-.06.8l-1.49-.17v1l2,1.62,2.63-1.51.73-.41.71-.41,3.35,1.94,2-1.17v-1.05l-.92.52-2.4-1.39c.37-.2.92-.51,1.61-.92l3.29,1.9,2-1.17v-1h-1.73Zm-11.35-3.69-.61.35-.45.26-4-2.24.51-.3.69-.42c.19-.11.46-.25.8-.42s.64-.3.92-.4a7.6,7.6,0,0,1,.92-.3,4.91,4.91,0,0,1,1-.14,4.14,4.14,0,0,1,.92.08,3.43,3.43,0,0,1,.92.35,1.8,1.8,0,0,1,.54.45.66.66,0,0,1,.16.5,1.71,1.71,0,0,1-.14.49,1.58,1.58,0,0,1-.39.5l-.53.47a7.68,7.68,0,0,1-.65.47Zm9.43,1.27a2.68,2.68,0,0,1-.36.52,3.8,3.8,0,0,1-.54.52,5.23,5.23,0,0,1-.64.5l-.7.48-.69.41-.63.36-.49.27-4.43-2.55.61-.37.83-.5.92-.5a11.5,11.5,0,0,1,1.09-.48q.46-.18,1.11-.36a5.55,5.55,0,0,1,1.15-.21,5,5,0,0,1,1.09.07,3,3,0,0,1,1,.38,1.47,1.47,0,0,1,.54.45,1.08,1.08,0,0,1,.21.49,1,1,0,0,1-.1.56Z"/><path class="cls-9" d="M422.7,126.18a9.06,9.06,0,0,0-3.64.54c.62-1.14.06-2.12-1.66-2.94a6.62,6.62,0,0,0-2-.59,7.39,7.39,0,0,0-2.1,0,11.31,11.31,0,0,0-2.06.52,18.24,18.24,0,0,0-2.13.92l-3.31-1.91-2,1.17,3.22,1.84-1.58.92-3.24-1.84-2,1.16,3.3,1.91c-.28.18-.7.42-1.26.75l-2.76,1.59,2.14,1.24,1.46-.84a2.27,2.27,0,0,1,2.06-.16l3.76,2.18.22-.12-.2.12,5.26,3c.38.3.35.57-.09.83l-1.46.84,2,1.61,2.63-1.51L418,137l.71-.4,3.34,1.92,2-1.17-3.31-1.9,1.62-.93,3.29,1.9,2-1.16-3.35-1.93a16,16,0,0,0,1.71-1.21,6.76,6.76,0,0,0,1.15-1.18,2.54,2.54,0,0,0,.5-1.18,1.85,1.85,0,0,0-.33-1.16,4.38,4.38,0,0,0-1.2-1.19A6.74,6.74,0,0,0,422.7,126.18ZM407.83,128l.51-.31.69-.41c.19-.11.46-.25.8-.42a6.93,6.93,0,0,1,.92-.41c.3-.11.61-.21.92-.29a4.93,4.93,0,0,1,1-.15,4.86,4.86,0,0,1,.92.09,3.43,3.43,0,0,1,.92.35,1.69,1.69,0,0,1,.54.45.66.66,0,0,1,.16.5,1.56,1.56,0,0,1-.14.48,1.48,1.48,0,0,1-.39.51l-.53.47a5.06,5.06,0,0,1-.65.46l-.62.39-.62.35-.45.26-4-2.32Zm14.43,2a1,1,0,0,1,.2.49.86.86,0,0,1-.11.52,3.2,3.2,0,0,1-.36.52,3.87,3.87,0,0,1-.54.53c-.23.19-.44.35-.64.49l-.7.47-.69.42-.63.36-.49.27-4.43-2.56.61-.37.83-.49.92-.5a8.12,8.12,0,0,1,1.09-.49,8.42,8.42,0,0,1,1.11-.35,5.55,5.55,0,0,1,1.15-.21,4.44,4.44,0,0,1,1.09.07,3,3,0,0,1,1,.37A1.67,1.67,0,0,1,422.26,130Z"/><path class="cls-5" d="M446.72,126.92h0c0,4.94-3.3,9.88-9.83,13.65-13.11,7.56-34.34,7.56-47.44,0-6.53-3.77-9.83-8.71-9.83-13.65h0V118.7l1.65,2.18a21.27,21.27,0,0,1,8.18-7.71c13.1-7.56,34.34-7.56,47.44,0,4.08,2.36,6.9,5.18,8.44,8.17l1.39-3.11v8.69Z"/><ellipse class="cls-6" cx="413.16" cy="118.58" rx="33.54" ry="19.37"/><path class="cls-7" d="M430.14,108.77c-9.38-5.42-24.58-5.42-34,0-5.06,2.92-7.39,6.81-7,10.64.33,3.26,2.66,6.48,7,9,9.38,5.42,24.58,5.42,34,0,4.33-2.52,6.66-5.71,7-9C437.53,115.58,435.19,111.69,430.14,108.77Z"/><path class="cls-8" d="M430.14,110.43c-9.38-5.41-24.58-5.41-34,0-4.33,2.53-6.66,5.71-7,9,.33,3.26,2.66,6.48,7,9,9.38,5.42,24.58,5.42,34,0,4.33-2.52,6.66-5.71,7-9C436.8,116.14,434.47,112.92,430.14,110.43Z"/><path class="cls-7" d="M422.55,122.28a17.11,17.11,0,0,0,1.71-1.22,6.37,6.37,0,0,0,1.14-1.18,2.4,2.4,0,0,0,.5-1.17,1.78,1.78,0,0,0-.32-1.16,4.32,4.32,0,0,0-1.21-1.2,6.7,6.7,0,0,0-3.39-1.27,8.77,8.77,0,0,0-3.69.54c.65-1.13.09-2.12-1.66-3a6.47,6.47,0,0,0-2-.59,7.39,7.39,0,0,0-2.1,0,12.3,12.3,0,0,0-2.07.52,20.11,20.11,0,0,0-2.13.92l-2.92-1.68.26-.1h-.42l-.22-.12-.22.12H402v1l3.22,1.85-1.58.92-3.24-1.85-.51.3-1.5-.17v1l3.3,1.9c-.28.18-.71.43-1.26.75l-1.16.66-1.59-.14v1l2.14,1.24,1.46-.84a2.27,2.27,0,0,1,2.06-.16l3.76,2.17a1.51,1.51,0,0,1,.22-.11l-.21.12,5.27,3c.37.29.34.56-.07.81l-1.48-.18v1l2,1.63,2.63-1.52.72-.41.72-.41,3.33,1.93,2-1.09v-1l-.92.53-2.41-1.4c.38-.2.93-.51,1.62-.92l3.29,1.9,2-1.17v-1h-1.8Zm-11.36-3.69-.61.35-.45.26-4-2.33.52-.3.69-.41c.19-.11.44-.25.79-.42a7.66,7.66,0,0,1,.93-.4,7.07,7.07,0,0,1,.92-.3,4.16,4.16,0,0,1,1-.15,4,4,0,0,1,.92.09,2.83,2.83,0,0,1,.93.35,1.7,1.7,0,0,1,.55.45.69.69,0,0,1,.15.5,1.93,1.93,0,0,1-.13.47,1.65,1.65,0,0,1-.39.51l-.53.48a6.87,6.87,0,0,1-.65.45Zm9.43,1.29a3.64,3.64,0,0,1-.35.52,4.42,4.42,0,0,1-.54.52c-.23.19-.44.36-.64.5s-.44.3-.72.47-.5.32-.67.41l-.64.36-.49.28-4.43-2.56.62-.36.83-.5c.22-.13.53-.29.92-.5s.77-.37,1.09-.5.73-.25,1.1-.35a5.75,5.75,0,0,1,1.16-.2,4.33,4.33,0,0,1,1.08.07,3.14,3.14,0,0,1,1,.36,1.87,1.87,0,0,1,.54.47,1,1,0,0,1,.2.48A1,1,0,0,1,420.62,119.88Z"/><path class="cls-9" d="M421,114a8.93,8.93,0,0,0-3.69.54c.65-1.13.09-2.11-1.66-2.94a6.47,6.47,0,0,0-2-.59,6.72,6.72,0,0,0-2.1,0,12.27,12.27,0,0,0-2.07.51,17.3,17.3,0,0,0-2.05,1l-3.3-1.91-2,1.16,3.22,1.84-1.58.92-3.23-1.84-2,1.16,3.3,1.91-1.26.74-2.76,1.59,2.15,1.25,1.45-.84a2.27,2.27,0,0,1,2.06-.16l3.76,2.17.22-.11-.21.12,5.27,3c.38.29.34.57-.09.82l-1.46.85,2,1.61,2.63-1.51.72-.42.72-.4,3.34,1.93,2-1.17-3.3-1.91c.37-.2.92-.5,1.61-.92l3.29,1.9,2-1.16-3.35-1.94a20.35,20.35,0,0,0,1.72-1.2,7,7,0,0,0,1.13-1.18,2.48,2.48,0,0,0,.4-1.18,1.85,1.85,0,0,0-.33-1.16,4.25,4.25,0,0,0-1.2-1.19A6.77,6.77,0,0,0,421,114Zm-14.88,1.84.52-.3.69-.42a13,13,0,0,1,1.72-.83c.27-.1.57-.19.92-.29a4.16,4.16,0,0,1,1-.15,3.55,3.55,0,0,1,.92.09,3.06,3.06,0,0,1,.93.34,1.88,1.88,0,0,1,.55.46.63.63,0,0,1,.15.49,2.09,2.09,0,0,1-.13.49,1.92,1.92,0,0,1-.39.51l-.53.47c-.21.16-.43.32-.65.46l-.64.38a4.23,4.23,0,0,1-.6.36l-.46.25-4-2.31Zm14.44,2a1,1,0,0,1,.2.49,1,1,0,0,1-.12.53,3,3,0,0,1-.35.52,4.51,4.51,0,0,1-.54.53l-.64.49-.72.48-.67.4-.64.36-.49.28-4.43-2.56.62-.37.83-.49.92-.5c.41-.2.77-.37,1.09-.49s.68-.24,1.1-.36a5.75,5.75,0,0,1,1.16-.2,4.9,4.9,0,0,1,1.08.06,3.41,3.41,0,0,1,1,.38A1.85,1.85,0,0,1,420.54,117.84Z"/><path class="cls-1" d="M404.27,361.48l50.14-29c2.78-1.6,3.08-4,.68-5.4L403.6,297.4c-2.4-1.38-6.59-1.21-9.36.39l-50.15,29c-2.76,1.6-3.07,4-.67,5.4l51.49,29.72C397.29,363.29,401.5,363.12,404.27,361.48Z"/><path class="cls-2" d="M460.4,327.55h0a4,4,0,0,1-2.27,2.89l-50.16,29c-2.78,1.59-7,1.77-9.36.38l-51.49-29.72a2.9,2.9,0,0,1-1.58-2h0v-.28a2.16,2.16,0,0,1,0-.36v-3.32l2.14.67.12-.08,50.15-29c2.76-1.59,6.95-1.77,9.35-.39l50.57,29.2,2.53-.78Z"/><path class="cls-3" d="M408,356,458.12,327c2.77-1.6,3.07-4,.67-5.4L407.3,291.87c-2.4-1.39-6.59-1.21-9.35.38L347.8,321.17c-2.77,1.6-3.07,4-.67,5.4l51.49,29.73C401,357.7,405.2,357.52,408,356Z"/><ellipse class="cls-4" cx="399.72" cy="324.53" rx="33.54" ry="19.37"/><path class="cls-5" d="M435.6,322.42h0c0,4.94-3.29,9.88-9.83,13.65-13.09,7.56-34.33,7.56-47.44,0-6.53-3.77-9.82-8.71-9.82-13.65h0V314.2l1.64,2.18a21.41,21.41,0,0,1,8.18-7.71c13.11-7.56,34.35-7.56,47.44,0,4.1,2.36,6.9,5.17,8.44,8.17l1.39-3.11v8.69Z"/><ellipse class="cls-6" cx="402.05" cy="314.07" rx="33.54" ry="19.37"/><path class="cls-7" d="M419,304.27c-9.39-5.42-24.6-5.42-34,0-5.05,2.92-7.39,6.82-7,10.64.32,3.27,2.66,6.48,7,9,9.37,5.42,24.58,5.42,34,0,4.32-2.52,6.64-5.7,7-9C426.42,311.09,424.09,307.19,419,304.27Z"/><path class="cls-8" d="M419,305.93c-9.39-5.41-24.6-5.41-34,0-4.33,2.53-6.67,5.71-7,9,.32,3.27,2.66,6.48,7,9,9.37,5.42,24.58,5.42,34,0,4.32-2.52,6.64-5.7,7-9C425.68,311.61,423.36,308.42,419,305.93Z"/><path class="cls-7" d="M411.44,317.78a18.35,18.35,0,0,0,1.71-1.22,6.71,6.71,0,0,0,1.14-1.18,2.45,2.45,0,0,0,.51-1.18,1.85,1.85,0,0,0-.33-1.16,4.42,4.42,0,0,0-1.21-1.19,6.87,6.87,0,0,0-3.4-1.28,9,9,0,0,0-3.64.55c.64-1.14.09-2.12-1.67-2.95a6.41,6.41,0,0,0-2-.59,7.39,7.39,0,0,0-2.1,0,12.06,12.06,0,0,0-2.07.52,20.11,20.11,0,0,0-2.13.92l-2.92-1.68.25-.1h-.41l-.22-.13-.22.13H391v1l3.21,1.85-1.57.92-3.25-1.84-.5.29-1.51-.16v1l3.3,1.91-1.26.74-1.15.66-1.64-.1v1l2.16,1.23,1.44-.84a2.32,2.32,0,0,1,2.07-.15L396,317l.22-.12L396,317l5.26,3c.37.3.34.57-.06.82l-1.48-.19v1.05l2,1.62,2.62-1.52.73-.4.71-.41,3.35,1.93,2-1.16v-1l-.92.51-2.39-1.38,1.61-.92,3.28,1.9,2-1.17v-1h-1.84Zm-11.36-3.69-.6.35-.47.26-4-2.32.5-.31.69-.41.8-.43a9.21,9.21,0,0,1,.92-.4c.27-.1.58-.19.92-.29a4.24,4.24,0,0,1,1-.15,4.78,4.78,0,0,1,.92.09,2.87,2.87,0,0,1,.92.35,1.84,1.84,0,0,1,.55.45.65.65,0,0,1,.15.5,1.72,1.72,0,0,1-.13.48,1.61,1.61,0,0,1-.4.5,6.48,6.48,0,0,1-.52.47,6.08,6.08,0,0,1-.66.47Zm9.42,1.27a2.26,2.26,0,0,1-.35.52,3.87,3.87,0,0,1-.54.53c-.23.19-.44.35-.64.49a6.71,6.71,0,0,1-.71.47l-.67.42-.63.36-.49.27L401,315.86l.61-.36.83-.5.92-.49a9.67,9.67,0,0,1,1.09-.5,10.8,10.8,0,0,1,1.1-.35,5.55,5.55,0,0,1,1.15-.21,5,5,0,0,1,1.09.07,3.24,3.24,0,0,1,1,.37,1.6,1.6,0,0,1,.54.46,1.08,1.08,0,0,1,.21.49,1,1,0,0,1-.11.56Z"/><path class="cls-9" d="M409.86,309.54a8.89,8.89,0,0,0-3.64.54c.64-1.13.09-2.12-1.67-2.94a6.41,6.41,0,0,0-2-.59,7.39,7.39,0,0,0-2.1,0,12.3,12.3,0,0,0-2.07.52,18.24,18.24,0,0,0-2.13.92l-3.3-1.91-2,1.16,3.21,1.85-1.57.92-3.25-1.85-2,1.18,3.3,1.9-1.26.74-2.76,1.6,2.15,1.24,1.45-.84a2.29,2.29,0,0,1,2.07-.16l3.76,2.17.22-.11-.21.12,5.26,3c.38.3.35.57-.08.82l-1.46.84,2,1.62,2.62-1.51.73-.41.71-.41,3.34,1.93,2-1.16-3.3-1.91c.37-.2.92-.51,1.61-.92l3.29,1.9,2-1.17-3.33-1.93a16.89,16.89,0,0,0,1.7-1.21,6.81,6.81,0,0,0,1.15-1.19,2.4,2.4,0,0,0,.5-1.17,1.78,1.78,0,0,0-.32-1.16,4.07,4.07,0,0,0-1.22-1.19A6.71,6.71,0,0,0,409.86,309.54ZM395,311.38l.5-.29.69-.43c.19-.11.46-.25.8-.41a9.5,9.5,0,0,1,.92-.41c.3-.11.61-.21.92-.29a4.24,4.24,0,0,1,1-.15,4.09,4.09,0,0,1,.92.08,3.43,3.43,0,0,1,.92.35,2,2,0,0,1,.55.45.71.71,0,0,1,.15.5,1.69,1.69,0,0,1-.13.49,1.65,1.65,0,0,1-.4.51l-.52.47a7.75,7.75,0,0,1-.66.46l-.62.39-.61.35-.46.25-4-2.32Zm14.43,2a1.16,1.16,0,0,1,.2.49.89.89,0,0,1-.13.53,2.2,2.2,0,0,1-.35.51,3.38,3.38,0,0,1-.54.53c-.23.19-.44.36-.64.5s-.42.29-.71.47-.5.32-.67.41l-.63.36-.49.28L401,314.88l.61-.37.83-.5c.22-.13.54-.3.92-.5a11.81,11.81,0,0,1,1.09-.49,10.87,10.87,0,0,1,1.1-.36,5,5,0,0,1,2.24-.14,3.49,3.49,0,0,1,1,.37,1.81,1.81,0,0,1,.57.46Z"/><path class="cls-5" d="M436,310.28h0c0,4.94-3.29,9.87-9.83,13.64-13.1,7.57-34.34,7.57-47.44,0-6.53-3.76-9.82-8.7-9.82-13.64h0v-8.22l1.64,2.18a21.34,21.34,0,0,1,8.18-7.71c13.1-7.57,34.34-7.57,47.44,0,4.09,2.36,6.89,5.17,8.43,8.16l1.4-3.1v8.69Z"/><ellipse class="cls-6" cx="402.42" cy="301.93" rx="33.54" ry="19.37"/><path class="cls-7" d="M419.4,292.13c-9.38-5.42-24.59-5.42-34,0-5.05,2.92-7.4,6.82-7,10.63.32,3.28,2.65,6.49,7,9,9.37,5.41,24.58,5.41,34,0,4.33-2.52,6.65-5.7,7-9C426.79,299,424.46,295,419.4,292.13Z"/><path class="cls-8" d="M419.4,293.79c-9.38-5.42-24.59-5.42-34,0-4.34,2.52-6.67,5.71-7,9,.32,3.28,2.65,6.49,7,9,9.37,5.41,24.58,5.41,34,0,4.33-2.52,6.65-5.7,7-9C426.05,299.5,423.73,296.28,419.4,293.79Z"/><path class="cls-7" d="M411.81,305.64a17,17,0,0,0,1.7-1.22,6.43,6.43,0,0,0,1.15-1.18,2.35,2.35,0,0,0,.5-1.18,1.78,1.78,0,0,0-.32-1.16,4.46,4.46,0,0,0-1.22-1.19,6.72,6.72,0,0,0-3.42-1.28,9.08,9.08,0,0,0-3.69.54c.61-1.13.06-2.11-1.67-2.94a6.5,6.5,0,0,0-2-.59,7.39,7.39,0,0,0-2.1,0,12.41,12.41,0,0,0-2.08.52,18.24,18.24,0,0,0-2.13.92l-2.91-1.68.25-.1h-.3l-.22-.13-.22.13h-1.84v1l3.21,1.85c-.35.2-.88.5-1.57.92l-3.25-1.84-.5.29-1.51-.17v1l3.3,1.91-1.26.73-1.15.67-1.64-.1v1l2.16,1.23,1.44-.84a2.26,2.26,0,0,1,2.07-.15l3.75,2.16.22-.11-.21.12,5.26,3c.37.3.34.57-.06.82l-1.48-.19v1l2,1.62,2.62-1.52.73-.41.71-.41,3.35,1.94,2-1.17v-1l-.92.51-2.39-1.38,1.61-.92,3.28,1.9,2-1.16v-1.05h-1.8ZM400.45,302l-.61.35-.46.26-4-2.32.51-.31.69-.41c.19-.11.45-.26.8-.43s.65-.3.92-.4.61-.21.92-.29a4.16,4.16,0,0,1,1-.15,3.67,3.67,0,0,1,.93.09,3.1,3.1,0,0,1,.92.34,2,2,0,0,1,.55.46.67.67,0,0,1,.15.49,1.69,1.69,0,0,1-.13.49,1.61,1.61,0,0,1-.4.5,5.13,5.13,0,0,1-.52.47,7.85,7.85,0,0,1-.66.47Zm9.42,1.26a2.32,2.32,0,0,1-.35.53,3.87,3.87,0,0,1-.54.53,7.62,7.62,0,0,1-.64.48,8.52,8.52,0,0,1-.71.48l-.67.41-.64.36-.48.27-4.44-2.55.61-.37.83-.49.92-.5a11.52,11.52,0,0,1,1.09-.49c.31-.12.68-.24,1.1-.36a5.54,5.54,0,0,1,1.15-.2,4.44,4.44,0,0,1,1.09.07,3.24,3.24,0,0,1,1,.37,1.8,1.8,0,0,1,.54.45,1,1,0,0,1,.2.49.84.84,0,0,1-.1.56Z"/><path class="cls-9" d="M410.2,297.4a8.73,8.73,0,0,0-3.69.54c.61-1.13.06-2.12-1.67-2.95a6.79,6.79,0,0,0-2-.59,8.2,8.2,0,0,0-2.1,0,11.51,11.51,0,0,0-2.08.52,22.07,22.07,0,0,0-2.13.92l-3.3-1.9-2,1.16,3.21,1.85-1.57.92L389.64,296l-2,1.17,3.31,1.9c-.29.18-.7.43-1.26.75l-2.77,1.6,2.16,1.24,1.45-.85a2.3,2.3,0,0,1,2.06-.15l3.76,2.17a1.19,1.19,0,0,1,.22-.12l-.21.13,5.26,3c.38.3.36.57-.08.82l-1.45.84,2,1.62,2.61-1.51.73-.41.71-.41,3.35,1.93,2-1.16-3.3-1.91,1.61-.92,3.28,1.9,2-1.18-3.34-1.92a16,16,0,0,0,1.71-1.22,6.37,6.37,0,0,0,1.14-1.18,2.42,2.42,0,0,0,.51-1.17,1.91,1.91,0,0,0-.32-1.16,4.23,4.23,0,0,0-1.22-1.2A6.68,6.68,0,0,0,410.2,297.4Zm-14.87,1.84.5-.3.7-.42a8.84,8.84,0,0,1,.79-.41,9.5,9.5,0,0,1,.92-.41c.3-.11.61-.21.92-.29a4.24,4.24,0,0,1,1-.15,4,4,0,0,1,.92.08,3.3,3.3,0,0,1,.92.35,2,2,0,0,1,.55.45.66.66,0,0,1,.15.5,1.55,1.55,0,0,1-.13.48,1.51,1.51,0,0,1-.39.51l-.53.48c-.21.16-.43.31-.65.45l-.63.4-.61.35-.46.25-4-2.32Zm14.43,2a1.18,1.18,0,0,1,.21.49,1.07,1.07,0,0,1-.13.53,3.07,3.07,0,0,1-.35.51,3.93,3.93,0,0,1-.55.53c-.23.19-.44.36-.63.5s-.43.29-.71.47-.51.32-.68.41l-.63.36c-.26.15-.43.23-.49.28l-4.43-2.56.6-.36.83-.5c.22-.13.54-.3.92-.5a11.84,11.84,0,0,1,1.09-.5c.36-.13.73-.25,1.1-.35a5,5,0,0,1,2.24-.14,3.15,3.15,0,0,1,1,.37,1.82,1.82,0,0,1,.61.46Z"/><path class="cls-5" d="M434.24,298.18h0c0,4.94-3.3,9.87-9.83,13.64-13.1,7.57-34.34,7.57-47.44,0-6.53-3.77-9.82-8.7-9.82-13.64h0V290l1.65,2.17a21.41,21.41,0,0,1,8.17-7.69c13.11-7.57,34.35-7.57,47.45,0a20.87,20.87,0,0,1,8.43,8.16l1.4-3.11v8.69Z"/><ellipse class="cls-6" cx="400.69" cy="289.79" rx="33.54" ry="19.37"/><path class="cls-7" d="M417.67,280c-9.37-5.42-24.58-5.42-34,0-5.06,2.91-7.39,6.81-7,10.63.33,3.27,2.66,6.48,7,9,9.38,5.41,24.59,5.41,34,0,4.33-2.52,6.66-5.71,7-9C425.06,286.8,422.73,282.9,417.67,280Z"/><path class="cls-8" d="M417.67,281.65c-9.37-5.42-24.58-5.42-34,0-4.33,2.52-6.66,5.71-7,9,.33,3.27,2.66,6.48,7,9,9.38,5.41,24.59,5.41,34,0,4.33-2.52,6.66-5.71,7-9C424.33,287.36,422,284.14,417.67,281.65Z"/><path class="cls-7" d="M410.09,293.49a18.11,18.11,0,0,0,1.7-1.21,6.13,6.13,0,0,0,1.14-1.19,2.29,2.29,0,0,0,.51-1.17,1.91,1.91,0,0,0-.32-1.16,4.32,4.32,0,0,0-1.22-1.19,6.71,6.71,0,0,0-3.39-1.28,9,9,0,0,0-3.64.54c.63-1.13.08-2.12-1.67-2.94a6.5,6.5,0,0,0-2-.59,7.39,7.39,0,0,0-2.1,0,13.46,13.46,0,0,0-2.08.52,18.24,18.24,0,0,0-2.13.92L392,283l.25-.1h-.42l-.22-.12-.22.12h-1.8v1l3.21,1.84-1.58.92L388,284.88l-.52.3L386,285v1l3.31,1.91-1.26.74-1.16.66-1.64-.1v1l2.15,1.25,1.46-.84a2.23,2.23,0,0,1,2.05-.17l3.76,2.18a1.58,1.58,0,0,1,.23-.11l-.21.12,5.27,3c.37.28.34.55-.07.8l-1.47-.18v1l2,1.62,2.62-1.51.72-.42.71-.4,3.35,1.92,2-1.16v-1l-.92.53-2.4-1.4c.37-.2.92-.5,1.6-.92l3.29,1.9,2-1.16v-1h-1.79Zm-11.36-3.69-.61.35-.46.26-4.06-2.29.51-.29.69-.42c.19-.11.45-.25.79-.42s.66-.3.93-.4a7.6,7.6,0,0,1,.92-.3,5.51,5.51,0,0,1,1-.15,4.88,4.88,0,0,1,.93.09,2.87,2.87,0,0,1,.92.35,2,2,0,0,1,.55.45.74.74,0,0,1,.15.5,2,2,0,0,1-.13.48,1.54,1.54,0,0,1-.4.51,6.67,6.67,0,0,1-.53.47,5.87,5.87,0,0,1-.65.46Zm9.42,1.27a3.15,3.15,0,0,1-.35.52,5.39,5.39,0,0,1-.54.53,7.35,7.35,0,0,1-.64.49,8,8,0,0,1-.71.47c-.29.18-.51.33-.67.42l-.64.36-.5.27-4.42-2.55.61-.37.83-.49c.22-.13.53-.3.92-.5a9.77,9.77,0,0,1,1.09-.49,9.93,9.93,0,0,1,1.09-.36,5,5,0,0,1,1.15-.2,5,5,0,0,1,1.09.06,3.24,3.24,0,0,1,1,.37,1.7,1.7,0,0,1,.54.46,1.08,1.08,0,0,1,.21.49.91.91,0,0,1-.1.56Z"/><path class="cls-9" d="M408.51,285.25a9,9,0,0,0-3.64.54c.61-1.13.06-2.11-1.67-2.94a6.5,6.5,0,0,0-2-.59,7.39,7.39,0,0,0-2.1,0,11.51,11.51,0,0,0-2.08.52,18.24,18.24,0,0,0-2.13.92l-3.3-1.91-2,1.17,3.21,1.85-1.58.92L388,283.88l-2,1.17,3.31,1.9-1.26.74-2.77,1.61,2.15,1.23,1.46-.84a2.28,2.28,0,0,1,2.05-.15l3.76,2.16.23-.11-.21.12,5.26,3c.38.3.35.57-.09.83l-1.45.84,2,1.61,2.61-1.51.73-.4.71-.41,3.35,1.93,2-1.17-3.33-1.9,1.6-.92,3.29,1.9,2-1.17-3.33-1.92a17,17,0,0,0,1.7-1.22,6.7,6.7,0,0,0,1.14-1.18,2.36,2.36,0,0,0,.51-1.18,1.91,1.91,0,0,0-.32-1.16,4.46,4.46,0,0,0-1.22-1.19A6.84,6.84,0,0,0,408.51,285.25Zm-14.87,1.84.51-.3.69-.42c.18-.11.45-.25.79-.42s.66-.3.92-.41a9.12,9.12,0,0,1,.93-.28,4.65,4.65,0,0,1,1-.16,4.7,4.7,0,0,1,.92.09,3.17,3.17,0,0,1,.92.34,2.09,2.09,0,0,1,.56.47.64.64,0,0,1,.14.48,1.6,1.6,0,0,1-.12.49,1.68,1.68,0,0,1-.4.51,6.94,6.94,0,0,1-.54.47,5,5,0,0,1-.64.46l-.63.4-.61.35-.46.26-4-2.33Zm14.43,2a.84.84,0,0,1,.08,1,4.3,4.3,0,0,1-.35.52,5.29,5.29,0,0,1-.54.52,7.61,7.61,0,0,1-.64.5l-.71.47-.67.41-.64.36-.5.28-4.42-2.56.61-.37.83-.49.92-.51c.35-.18.71-.34,1.09-.49s.67-.24,1.09-.36a6.44,6.44,0,0,1,1.15-.2,5,5,0,0,1,1.09.08,2.93,2.93,0,0,1,1,.36A1.62,1.62,0,0,1,408.07,289.07Z"/><path class="cls-5" d="M437.5,286.2h0c0,4.94-3.3,9.87-9.83,13.64-13.1,7.57-34.34,7.57-47.44,0-6.53-3.77-9.82-8.7-9.82-13.64h0V278l1.65,2.17a21.39,21.39,0,0,1,8.18-7.7c13.11-7.56,34.34-7.56,47.44,0a21,21,0,0,1,8.44,8.16l1.39-3.1v8.7Z"/><ellipse class="cls-6" cx="403.96" cy="277.89" rx="33.54" ry="19.37"/><path class="cls-7" d="M420.93,268.09c-9.37-5.42-24.58-5.42-33.95,0-5.06,2.91-7.4,6.81-7,10.63.33,3.27,2.66,6.48,7,9,9.37,5.42,24.58,5.42,33.95,0,4.34-2.51,6.66-5.7,7-9C428.33,274.9,426,271,420.93,268.09Z"/><path class="cls-8" d="M420.93,269.74c-9.37-5.41-24.58-5.41-33.95,0-4.34,2.53-6.67,5.72-7,9,.33,3.27,2.66,6.48,7,9,9.37,5.42,24.58,5.42,33.95,0,4.34-2.51,6.66-5.7,7-9C427.59,275.46,425.27,272.24,420.93,269.74Z"/><path class="cls-7" d="M413.35,281.59a17,17,0,0,0,1.7-1.22,6.12,6.12,0,0,0,1.15-1.18,2.37,2.37,0,0,0,.5-1.17,1.84,1.84,0,0,0-.32-1.16,4.23,4.23,0,0,0-1.22-1.2,6.79,6.79,0,0,0-3.39-1.27,8.84,8.84,0,0,0-3.64.54c.64-1.13.08-2.12-1.67-2.94a6.41,6.41,0,0,0-2-.59,7.39,7.39,0,0,0-2.1,0,13.46,13.46,0,0,0-2.08.52,19,19,0,0,0-2.13.92l-2.91-1.69.25-.09h-.41l-.23-.13-.22.13h-1.79v1l3.2,1.85-1.57.92L391.26,273l-.51.29-1.51-.16v1l3.31,1.9-1.26.74-1.15.67-1.64-.1v1l2.14,1.24,1.46-.84a2.27,2.27,0,0,1,2.06-.16l3.76,2.17.23-.11-.21.12,5.26,3c.37.29.34.56-.07.81l-1.47-.18v1l2,1.63,2.62-1.52.73-.41.71-.41,3.34,1.93,2-1.16v-1l-.92.52-2.4-1.39c.37-.2.93-.51,1.61-.92l3.29,1.9,2-1.17v-1h-1.85ZM402,277.9l-.61.35-.46.26-4-2.32.51-.31.69-.41c.19-.11.45-.25.79-.42s.66-.3.93-.4a7.6,7.6,0,0,1,.92-.3,4.73,4.73,0,0,1,1-.14,4.18,4.18,0,0,1,.93.08,2.87,2.87,0,0,1,.92.35,2.17,2.17,0,0,1,.55.45.74.74,0,0,1,.15.5,2.09,2.09,0,0,1-.13.49,1.46,1.46,0,0,1-.4.49,6.77,6.77,0,0,1-.53.48,5.87,5.87,0,0,1-.65.46Zm9.42,1.27a2.63,2.63,0,0,1-.35.52,4.51,4.51,0,0,1-.54.53c-.23.19-.44.35-.64.49a8,8,0,0,1-.71.47c-.28.18-.5.33-.67.42l-.64.36-.49.27-4.43-2.55.61-.37.83-.5.92-.49a11.84,11.84,0,0,1,1.09-.5c.31-.12.67-.23,1.1-.35a5,5,0,0,1,2.24-.14,3.18,3.18,0,0,1,1,.37,1.6,1.6,0,0,1,.54.46.82.82,0,0,1,.2.49.9.9,0,0,1-.09.56Z"/><path class="cls-9" d="M411.77,273.35a9,9,0,0,0-3.64.54q.93-1.69-1.67-2.94a6.5,6.5,0,0,0-2-.59,7.39,7.39,0,0,0-2.1,0,11.51,11.51,0,0,0-2.08.52,19,19,0,0,0-2.13.92l-3.3-1.91-2,1.16,3.2,1.85-1.57.92L391.26,272l-2,1.16,3.31,1.9-1.26.74-2.77,1.61,2.15,1.23,1.46-.84a2.22,2.22,0,0,1,2.05-.15l3.77,2.16.23-.11-.22.12,5.27,3c.38.3.35.57-.1.83l-1.44.84,2,1.61,2.62-1.51.72-.41.71-.41,3.35,1.94,2-1.17-3.3-1.9,1.6-.92,3.29,1.9,2-1.16-3.34-1.92a20.42,20.42,0,0,0,1.71-1.22,7.08,7.08,0,0,0,1.14-1.18,2.45,2.45,0,0,0,.51-1.18,1.92,1.92,0,0,0-.33-1.16,4.29,4.29,0,0,0-1.21-1.19A6.7,6.7,0,0,0,411.77,273.35Zm-14.87,1.84.51-.3.69-.42c.19-.11.45-.25.79-.42s.66-.31.93-.41.61-.2.92-.28a3.72,3.72,0,0,1,1-.16,4.88,4.88,0,0,1,.93.09,3.1,3.1,0,0,1,.92.34,2.05,2.05,0,0,1,.55.47.65.65,0,0,1,.15.48,1.61,1.61,0,0,1-.13.49,1.54,1.54,0,0,1-.4.51c-.19.18-.38.34-.53.47a5.87,5.87,0,0,1-.65.46l-.62.4-.61.35-.46.26-4-2.33Zm14.43,2a.93.93,0,0,1,.2.48.89.89,0,0,1-.12.53,2.63,2.63,0,0,1-.35.52,3.86,3.86,0,0,1-.54.53,7.73,7.73,0,0,1-.64.49l-.71.48-.67.4-.64.36-.49.28-4.43-2.55.61-.37.83-.5.92-.5c.35-.18.72-.34,1.09-.49s.67-.24,1.1-.36a6.29,6.29,0,0,1,1.15-.2,4.45,4.45,0,0,1,1.09.08,3,3,0,0,1,1,.36,1.59,1.59,0,0,1,.57.46Z"/><path class="cls-18" d="M122.84,375c0,2.21-1.52,4.56-4.69,6.4L96.33,394c-5.63,3.25-14.14,3.61-19,.78l-43-24.8c-2.27-1.32-3.34-3.07-3.27-4.91h0v-60.4L122.8,315v60Z"/><path class="cls-19" d="M122.76,321.64c.22,2.24-1.34,4.72-4.61,6.56L96.34,340.71c-5.63,3.26-14.14,3.56-19,.8l-43-24.82c-2.25-1.3-3.27-3.05-3.27-4.89h0v-7.16l3.5,1.85c.37-.27.74-.51,1.13-.74L57.5,293.16c5.63-3.25,14.14-3.6,19-.79L115.72,315h7.06v6.57Z"/><path class="cls-20" d="M96.33,333.62,118.15,321c5.62-3.25,6.24-8.21,1.36-11l-43-24.82c-4.87-2.81-13.38-2.45-19,.79l-21.82,12.6c-5.62,3.25-6.23,8.15-1.36,11l43,24.81C82.19,337.2,90.7,336.88,96.33,333.62Z"/><g id="_Группа_" data-name=" Группа "><path id="_Контур_" data-name=" Контур " class="cls-21" d="M47.68,307.17v.11a2.14,2.14,0,0,0,1.06,1.84L76.4,325.17a2.1,2.1,0,0,0,2.11,0l19.8-11.46a2.1,2.1,0,0,0,1.09-1.84h0Z"/><path id="_Контур_2" data-name=" Контур 2" class="cls-21" d="M99.37,311.87H77.43v13.57a2,2,0,0,0,1.08-.27l19.8-11.42A2.11,2.11,0,0,0,99.37,311.87Z"/><g id="_Группа_2" data-name=" Группа 2"><path id="_Контур_3" data-name=" Контур 3" class="cls-22" d="M99.38,311.87,69.13,294.42l-21.2,12.26a.37.37,0,0,0-.26.27.4.4,0,0,0,.26.5l28.8,16.62a1.51,1.51,0,0,0,1.51,0Z"/></g><g id="_Группа_3" data-name=" Группа 3"><polygon id="_Контур_4" data-name=" Контур 4" class="cls-23" points="64.98 308.87 74.36 314.29 74.22 314.38 69.15 317.31 59.92 311.96 59.76 311.88 64.98 308.87"/><polygon id="_Контур_5" data-name=" Контур 5" class="cls-21" points="64.98 309.04 74.22 314.38 69.15 317.31 59.92 311.96 64.98 309.04"/></g><path class="cls-24" d="M91.35,312.74l1.26-.74a.47.47,0,0,1,.43,0l1.32.77c.15.07.14.17,0,.24l-1.26.74a.45.45,0,0,1-.42,0l-1.3-.82C91.26,312.87,91.26,312.81,91.35,312.74Z"/><path class="cls-24" d="M89.5,311.63l1.26-.74a.51.51,0,0,1,.42,0l1.34.78c.14.05.13.16,0,.24l-1.27.73a.47.47,0,0,1-.43,0l-1.33-.77C89.41,311.78,89.41,311.68,89.5,311.63Z"/><path class="cls-24" d="M87.57,310.51l1.31-.74a.4.4,0,0,1,.42,0l1.3.78c.14.06.12.17,0,.24l-1.26.73a.47.47,0,0,1-.43,0l-1.34-.77A.16.16,0,0,1,87.57,310.51Z"/><path class="cls-24" d="M85.74,309.42l1.26-.73a.45.45,0,0,1,.42,0l1.34.77c.14.06.12.17,0,.24l-1.27.73a.43.43,0,0,1-.44,0l-1.32-.76C85.62,309.6,85.62,309.49,85.74,309.42Z"/><path class="cls-24" d="M83.78,308.53a.13.13,0,0,1,0-.19l1.28-.74a.49.49,0,0,1,.41,0l1.34.77c.14.06.12.17,0,.25l-1.27.72a.47.47,0,0,1-.43,0l-1.33-.76A.12.12,0,0,1,83.78,308.53Z"/><path class="cls-24" d="M81.88,307.43a.15.15,0,0,1,.07-.19l1.27-.73a.45.45,0,0,1,.42,0l1.33.76c.15.06.13.18,0,.26l-1.27.73a.54.54,0,0,1-.43,0L82,307.49A.13.13,0,0,1,81.88,307.43Z"/><path class="cls-24" d="M80.08,306.16l1.29-.73a.43.43,0,0,1,.41,0l1.34.76c.14.07.12.19,0,.25l-1.28.74a.51.51,0,0,1-.42,0l-1.36-.78C80,306.34,80,306.24,80.08,306.16Z"/><path class="cls-24" d="M78.17,305.05l1.28-.73a.51.51,0,0,1,.42,0l1.33.77c.14.06.12.17,0,.24l-1.27.74a.47.47,0,0,1-.43,0l-1.33-.76C78.06,305.24,78.08,305.16,78.17,305.05Z"/><path class="cls-24" d="M76.29,304l1.27-.73a.51.51,0,0,1,.42,0l1.34.77c.14.06.12.17,0,.24L78,305a.47.47,0,0,1-.43,0l-1.32-.77C76.18,304.15,76.19,304,76.29,304Z"/><path class="cls-24" d="M74.4,302.88l1.28-.73a.43.43,0,0,1,.41,0l1.34.77c.13.06.12.17,0,.24l-1.27.74a.54.54,0,0,1-.43,0l-1.33-.78C74.29,303.07,74.3,303,74.4,302.88Z"/><path class="cls-24" d="M72.52,301.79l1.27-.73a.45.45,0,0,1,.42,0l1.33.77c.14.07.13.17,0,.24l-1.27.74a.54.54,0,0,1-.43,0L72.52,302C72.4,302,72.42,301.87,72.52,301.79Z"/><path class="cls-24" d="M70.62,300.71l1.26-.74a.54.54,0,0,1,.43,0l1.34.77c.14.07.13.17,0,.24l-1.27.74a.45.45,0,0,1-.42,0L70.63,301A.13.13,0,0,1,70.62,300.71Z"/><path class="cls-24" d="M68.68,299.81a.14.14,0,0,1,0-.19l1.27-.74a.54.54,0,0,1,.43,0l1.33.78c.14.06.13.16,0,.24l-1.26.73a.47.47,0,0,1-.43,0l-1.33-.77Z"/><path class="cls-24" d="M66,298l1.28-.74a.45.45,0,0,1,.42,0l2.25,1.3c.14.05.13.16,0,.24l-1.27.74a.54.54,0,0,1-.43,0l-2.27-1.3C65.83,298.18,65.85,298.08,66,298Z"/><path class="cls-24" d="M86.8,312.12l1.27-.74a.51.51,0,0,1,.42,0l1.29.78c.14.06.12.17,0,.24l-1.27.74a.47.47,0,0,1-.43,0l-1.33-.77C86.65,312.31,86.65,312.2,86.8,312.12Z"/><path class="cls-24" d="M84.86,311l1.28-.73a.51.51,0,0,1,.42,0l1.33.78c.14.06.12.16,0,.24l-1.27.73a.45.45,0,0,1-.42,0l-1.34-.77C84.75,311.22,84.8,311.11,84.86,311Z"/><path class="cls-24" d="M82.9,310.13a.14.14,0,0,1,.06-.19l1.26-.72a.42.42,0,0,1,.43,0L86,310c.15.06.14.18,0,.25l-1.26.73a.45.45,0,0,1-.42,0L83,310.19A.09.09,0,0,1,82.9,310.13Z"/><path class="cls-24" d="M81.12,308.85l1.3-.73a.45.45,0,0,1,.42,0l1.31.76c.14.08.12.19,0,.25l-1.28.74a.51.51,0,0,1-.42,0l-1.33-.77C81,309.06,81,308.92,81.12,308.85Z"/><path class="cls-24" d="M79.21,307.73l1.27-.73a.45.45,0,0,1,.42,0l1.33.81c.14.06.12.17,0,.24l-1.26.73a.42.42,0,0,1-.43,0L79.2,308C79.1,307.92,79.11,307.84,79.21,307.73Z"/><path class="cls-24" d="M77.32,306.68l1.27-.73a.47.47,0,0,1,.43,0l1.33.77c.13,0,.12.17,0,.25l-1.28.72a.4.4,0,0,1-.42,0l-1.33-.76A.14.14,0,0,1,77.32,306.68Z"/><path class="cls-24" d="M75.36,305.77a.14.14,0,0,1,.07-.18l1.27-.73a.45.45,0,0,1,.42,0l1.33.76c.14.06.13.18,0,.26l-1.26.73a.54.54,0,0,1-.43,0l-1.34-.77A.11.11,0,0,1,75.36,305.77Z"/><path class="cls-24" d="M73.54,304.5l1.27-.73a.42.42,0,0,1,.43,0l1.32.76c.15.07.13.18,0,.25l-1.27.73a.45.45,0,0,1-.42,0l-1.33-.77C73.42,304.68,73.44,304.57,73.54,304.5Z"/><path class="cls-24" d="M71.64,303.41l1.26-.73a.49.49,0,0,1,.44,0l1.33.77c.14.06.13.16,0,.23l-1.27.74a.43.43,0,0,1-.41,0l-1.34-.77A.13.13,0,0,1,71.64,303.41Z"/><path class="cls-24" d="M69.78,302.29l1.28-.74a.45.45,0,0,1,.42,0l1.3.81c.14.05.12.16,0,.24l-1.27.73a.45.45,0,0,1-.42,0l-1.34-.77C69.65,302.49,69.66,302.39,69.78,302.29Z"/><path class="cls-24" d="M67.87,301.22l1.27-.73a.47.47,0,0,1,.43,0l1.33.77c.13.06.12.18,0,.24l-1.28.75a.51.51,0,0,1-.42,0l-1.33-.78C67.76,301.41,67.78,301.3,67.87,301.22Z"/><path class="cls-24" d="M66,300.14l1.27-.74a.45.45,0,0,1,.42,0l1.33.77c.14.07.13.17,0,.24l-1.26.74a.54.54,0,0,1-.43,0L66,300.38C65.87,300.32,65.88,300.21,66,300.14Z"/><path class="cls-24" d="M88.6,313.42a.13.13,0,0,1,0-.19l1.28-.75a.51.51,0,0,1,.42,0l2.24,1.29c.14.06.13.17,0,.25l-1.26.74a.61.61,0,0,1-.42,0l-2.25-1.3Z"/><path class="cls-24" d="M65.42,298.3l-1.14.66-.21.12-.2.12-.27.15-1.32.77a.1.1,0,0,0-.06.05h0a.13.13,0,0,0,.06.18l.85.49a.47.47,0,0,0,.4,0l1.41-.83a.4.4,0,0,1,.37,0l.1.07a.47.47,0,0,0,.4,0l1.34-.78c.11-.07.11-.17,0-.22l-1.33-.78A.41.41,0,0,0,65.42,298.3Z"/><path class="cls-24" d="M84,317.09a.13.13,0,0,1,0-.18l1.27-.74a.54.54,0,0,1,.43,0l1.35.76c.15.07.13.18,0,.25l-1.27.74a.54.54,0,0,1-.43,0l-1.32-.78A.12.12,0,0,1,84,317.09Z"/><path class="cls-24" d="M82.19,315.82l1.26-.73a.47.47,0,0,1,.43,0l1.32.77c.14.06.13.17,0,.24l-1.27.74a.51.51,0,0,1-.42,0l-1.33-.78C82,316,82,315.9,82.19,315.82Z"/><path class="cls-24" d="M80.33,314.74l1.28-.74a.47.47,0,0,1,.43,0l1.28.77c.15.07.13.17,0,.24l-1.27.73a.42.42,0,0,1-.43,0L80.29,315C80.2,314.92,80.2,314.81,80.33,314.74Z"/><path class="cls-24" d="M64.27,305.47l1.26-.73a.47.47,0,0,1,.43,0l1.34.77c.14.06.13.17,0,.24L66,306.5a.54.54,0,0,1-.43,0l-1.32-.78C64.17,305.67,64.18,305.56,64.27,305.47Z"/><path class="cls-24" d="M62.39,304.66a.14.14,0,0,1-.14-.14.13.13,0,0,1,.14-.12l1.28-.74a.51.51,0,0,1,.42,0l1.33.77c.14.07.12.18,0,.25l-1.27.74a.54.54,0,0,1-.43,0l-1.33-.78Z"/><path class="cls-24" d="M60.51,303.32l1.26-.74a.47.47,0,0,1,.43,0l1.34.77c.14.06.13.17,0,.24l-1.27.74a.54.54,0,0,1-.43,0l-1.33-.77C60.4,303.49,60.42,303.43,60.51,303.32Z"/><path class="cls-24" d="M58.63,302.21l1.28-.74a.49.49,0,0,1,.41,0l1.34.81c.14.07.12.17,0,.24l-1.27.74a.47.47,0,0,1-.43,0l-1.33-.77A.16.16,0,0,1,58.63,302.21Z"/><path class="cls-24" d="M77.86,313.55a.14.14,0,0,1,.07-.16l1.27-.74a.51.51,0,0,1,.42,0l1.85,1.05c.14.07.13.18,0,.24l-1.27.74a.42.42,0,0,1-.43,0l-1.84-1.07A.13.13,0,0,1,77.86,313.55Z"/><path class="cls-24" d="M66.16,306.57l1.27-.73a.45.45,0,0,1,.42,0l1.85,1.05c.12.06.12.17,0,.24l-1.28.73a.45.45,0,0,1-.42,0l-1.84-1.05C66.05,306.75,66.05,306.64,66.16,306.57Z"/><path class="cls-24" d="M68.6,307.92l1.27-.74a.45.45,0,0,1,.42,0l8.83,5.14c.13.06.13.17,0,.24l-1.27.74a.51.51,0,0,1-.42,0l-8.91-5.12C68.41,308.12,68.42,308,68.6,307.92Z"/><path class="cls-24" d="M84.41,312.87l1.28-.73a.4.4,0,0,1,.42,0l1.33.78c.13.07.12.18,0,.25l-1.27.73a.47.47,0,0,1-.43,0l-1.33-.78C84.3,313.07,84.32,313,84.41,312.87Z"/><path class="cls-24" d="M82.54,311.78l1.27-.73a.45.45,0,0,1,.42,0l1.33.77c.14.07.12.18,0,.24l-1.28.75a.54.54,0,0,1-.43,0L82.53,312C82.42,312,82.44,311.87,82.54,311.78Z"/><path class="cls-24" d="M80.66,310.69l1.28-.69a.38.38,0,0,1,.41,0l1.32.69c.14.06.12.18,0,.24l-1.28.77a.45.45,0,0,1-.42,0l-1.33-.77C80.53,310.93,80.55,310.78,80.66,310.69Z"/><path class="cls-24" d="M78.78,309.58l1.28-.73a.45.45,0,0,1,.42,0l1.3.8c.15.06.13.17,0,.24l-1.27.74a.47.47,0,0,1-.43,0l-1.32-.77C78.65,309.77,78.66,309.69,78.78,309.58Z"/><path class="cls-24" d="M76.91,308.51l1.27-.73a.45.45,0,0,1,.42,0l1.3.79c.14.06.13.18,0,.24l-1.27.75a.66.66,0,0,1-.44,0l-1.32-.78C76.73,308.72,76.78,308.61,76.91,308.51Z"/><path class="cls-24" d="M75,307.43l1.28-.74a.54.54,0,0,1,.43,0l1.28.79c.14.07.13.18,0,.24l-1.26.75a.64.64,0,0,1-.43,0L75,307.69C74.85,307.63,74.85,307.52,75,307.43Z"/><path class="cls-24" d="M73.15,306.35l1.27-.75a.63.63,0,0,1,.43,0l1.28.79c.14.07.13.18,0,.25l-1.27.74a.54.54,0,0,1-.43,0l-1.32-.77C73,306.54,73,306.43,73.15,306.35Z"/><path class="cls-24" d="M71.27,305.25l1.28-.74a.64.64,0,0,1,.43,0l1.27.8c.13.06.12.17,0,.25l-1.27.72a.42.42,0,0,1-.43,0l-1.33-.76C71.1,305.45,71.1,305.31,71.27,305.25Z"/><path class="cls-24" d="M69.4,304.16l1.27-.73a.47.47,0,0,1,.43,0l1.26.78c.15.07.13.18,0,.26l-1.27.73a.54.54,0,0,1-.43,0l-1.32-.77C69.22,304.37,69.22,304.24,69.4,304.16Z"/><path class="cls-24" d="M67.52,303.13l1.28-.74a.51.51,0,0,1,.42,0l1.26.71c.14.07.12.18,0,.25l-1.28.73a.45.45,0,0,1-.42,0l-1.33-.76C67.35,303.32,67.35,303.16,67.52,303.13Z"/><path class="cls-24" d="M65.51,302.19a.13.13,0,0,1,.08-.17l1.28-.74a.45.45,0,0,1,.42,0l1.3.76c.14.06.12.18,0,.25l-1.26.73a.49.49,0,0,1-.44,0l-1.33-.76A.18.18,0,0,1,65.51,302.19Z"/><path class="cls-24" d="M63.63,301.12a.14.14,0,0,1,.06-.19l1.26-.74a.51.51,0,0,1,.42,0l1.34.77c.14.05.13.17,0,.25l-1.27.72a.43.43,0,0,1-.44,0l-1.32-.76Z"/><path class="cls-24" d="M86.3,314l1.26-.72a.42.42,0,0,1,.43,0l2.77,1.61c.15.05.13.16,0,.24l-1.26.74a.56.56,0,0,1-.44,0l-2.76-1.6C86.19,314.16,86.2,314.05,86.3,314Z"/><path class="cls-24" d="M83.55,314.48l1.26-.73a.56.56,0,0,1,.44,0l1.29.72c.14.06.14.17,0,.25l-1.27.74a.51.51,0,0,1-.42,0l-1.33-.78C83.4,314.68,83.41,314.55,83.55,314.48Z"/><path class="cls-24" d="M81.62,313.35l1.28-.72a.4.4,0,0,1,.42,0l1.34.76c.13.07.12.18,0,.25l-1.28.74a.61.61,0,0,1-.42,0l-1.33-.74C81.52,313.58,81.54,313.46,81.62,313.35Z"/><path class="cls-24" d="M79.74,312.34l1.28-.73a.47.47,0,0,1,.43,0l1.33.71c.14.07.12.18,0,.24l-1.28.75a.61.61,0,0,1-.42,0l-1.34-.78C79.63,312.53,79.65,312.38,79.74,312.34Z"/><path class="cls-24" d="M77.72,311.34a.13.13,0,0,1,.14-.12l1.28-.74a.51.51,0,0,1,.42,0l1.34.77c.13.07.12.18,0,.25l-1.29.74a.61.61,0,0,1-.42,0l-1.33-.78A.12.12,0,0,1,77.72,311.34Z"/><path class="cls-24" d="M76,310.12l1.28-.75a.58.58,0,0,1,.41,0l1.35.79c.13.07.12.18,0,.25l-1.27.74a.47.47,0,0,1-.43,0L76,310.38A.15.15,0,0,1,76,310.12Z"/><path class="cls-24" d="M74.1,309l1.26-.75a.54.54,0,0,1,.43,0l1.33.8c.14.05.13.16,0,.24l-1.27.73a.45.45,0,0,1-.42,0l-1.34-.77C74,309.22,74,309.11,74.1,309Z"/><path class="cls-24" d="M72.21,307.92l1.27-.74a.47.47,0,0,1,.43,0l1.33.82c.13.05.12.16,0,.24L74,309a.49.49,0,0,1-.41,0l-1.34-.78C72.1,308.12,72.12,308,72.21,307.92Z"/><path class="cls-24" d="M70.34,306.82l1.27-.74a.54.54,0,0,1,.43,0l1.32.83c.13.06.12.17,0,.24l-1.28.73a.45.45,0,0,1-.42,0l-1.34-.77C70.21,307.05,70.23,307,70.34,306.82Z"/><path class="cls-24" d="M68.46,305.76l1.27-.73a.47.47,0,0,1,.43,0l1.31.79c.14.06.12.17,0,.24l-1.28.73a.4.4,0,0,1-.42,0L68.44,306C68.33,306,68.35,305.86,68.46,305.76Z"/><path class="cls-24" d="M66.59,304.67l1.27-.73a.47.47,0,0,1,.43,0l1.3.79c.13.06.12.17,0,.25l-1.28.72a.4.4,0,0,1-.42,0l-1.34-.76C66.45,304.87,66.46,304.77,66.59,304.67Z"/><path class="cls-24" d="M64.68,303.58l1.26-.72a.42.42,0,0,1,.43,0l1.33.78c.14.07.13.17,0,.25l-1.27.73a.47.47,0,0,1-.43,0l-1.33-.77C64.52,303.79,64.58,303.68,64.68,303.58Z"/><path class="cls-24" d="M60.38,301.35a.14.14,0,0,1,.07-.17l1.27-.75a.64.64,0,0,1,.43,0l3.68,2.12c.14.07.13.18,0,.25l-1.27.73a.43.43,0,0,1-.41,0l-3.69-2.11A.18.18,0,0,1,60.38,301.35Z"/><path class="cls-24" d="M85.33,315.75a.14.14,0,0,1,.07-.18l1.28-.73a.38.38,0,0,1,.41,0l1.84,1.05c.14.06.12.17,0,.24l-1.27.74a.51.51,0,0,1-.42,0l-1.85-1.05S85.34,315.78,85.33,315.75Z"/></g><g id="_Группа_4" data-name=" Группа 4"><g id="_Группа_5" data-name=" Группа 5"><path id="_Контур_6" data-name=" Контур 6" class="cls-21" d="M100.4,310.09V287.77a2.07,2.07,0,0,0-1-1.84L71.71,270a2.18,2.18,0,0,0-2.1,0h0l-.24.13-.24.53v23.79L99.4,311.87h0C100,311.5,100.25,311.23,100.4,310.09Z"/><path id="_Контур_7" data-name=" Контур 7" class="cls-21" d="M100.15,286.75a2.14,2.14,0,0,0-.79-.82L71.71,270a2.18,2.18,0,0,0-2.1,0l-.24.13-.24.53v.8l27.49,17.4Z"/><path id="_Контур_8" data-name=" Контур 8" class="cls-25" d="M69.59,270a.49.49,0,0,0-.46.47v24l30.31,17.52V287.82a1,1,0,0,0-.5-.92L69.85,270.13A.61.61,0,0,0,69.59,270Z"/><path id="_Контур_9" data-name=" Контур 9" class="cls-22" d="M69.59,270a.49.49,0,0,0-.46.47v24l30.31,17.52V287.82a1,1,0,0,0-.5-.92L69.85,270.13A.61.61,0,0,0,69.59,270Z"/><polygon id="_Контур_10" data-name=" Контур 10" class="cls-26" points="69.15 294.42 69.15 293.55 99.4 311.02 99.4 311.88 69.15 294.42"/></g><polygon id="_Контур_11" data-name=" Контур 11" class="cls-27" points="98.42 287.79 98.42 309.16 70.3 292.97 70.3 271.56 98.42 287.79"/></g></g></g></svg>