<svg id="Livello_2" data-name="Livello 2" xmlns="http://www.w3.org/2000/svg" xmlns:xlink="http://www.w3.org/1999/xlink" viewBox="0 0 1920 1080"><defs><style>.cls-1{opacity:0.6;fill:url(#Sfumatura_senza_nome_16);}</style><radialGradient id="Sfumatura_senza_nome_16" cx="1492.53" cy="523.88" r="1156.41" gradientTransform="matrix(-0.99, -0.14, 0.08, -0.59, 2926.66, 1041.15)" gradientUnits="userSpaceOnUse"><stop offset="0.05" stop-color="#f49c81"/><stop offset="0.22" stop-color="#eb6585"/><stop offset="0.34" stop-color="#e43a89"/><stop offset="0.37" stop-color="#da3986"/><stop offset="0.6" stop-color="#8b326d"/><stop offset="0.79" stop-color="#512d5b"/><stop offset="0.92" stop-color="#2d2a50"/><stop offset="1" stop-color="#1f294c"/></radialGradient></defs><path class="cls-1" d="M1915.91,115.5l24.24,14,.5-.86-24.74-14.29-24.49,14.14-24-13.85v-28l24-13.85,24.24,14,.5-.86-24.24-14V44.25l24-13.85,24.24,14,.5-.86-24.74-14.29-24.49,14.14-24-13.85v-28l24-13.85,24.24,14,.5-.86-24.74-14.29L1866.92.7l-24.49-14.14L1817.94.7l-24.49-14.14L1769,.7l-24.49-14.14L1720,.7l-24.49-14.14L1671,.7,1646.5-13.44,1622,.7l-24.49-14.14L1573,.7l-24.49-14.14L1524.05.7l-24.49-14.14L1475.06.7l-24.49-14.14L1426.08.7l-24.49-14.14L1377.1.7l-24.49-14.14L1328.12.7l-24.49-14.14L1279.14.7l-24.5-14.14L1230.15.7l-24.49-14.14L1181.17.7l-24.49-14.14L1132.19.7,1107.7-13.44,1083.21.7l-24.5-14.14L1034.22.7l-24.49-14.14L985.24.7,960.75-13.44,936.26.7,911.77-13.44,887.28.7l-24.5-14.14L838.29.7,813.8-13.44,789.31.7,764.82-13.44,740.33.7,715.84-13.44,691.35.7l-24.5-14.14L642.36.7,617.87-13.44,593.38.7,568.89-13.44,544.4.7,519.91-13.44,495.42.7,470.93-13.44,446.43.7,421.94-13.44,397.45.7,373-13.44,348.47.7,324-13.44,299.49.7,275-13.44,250.5.7,226-13.44,201.52.7,177-13.44,152.54.7,128.05-13.44,103.56.7,79.07-13.44,54.58.7,30.08-13.44,5.59.7-18.9-13.44-43.89,1V29.56h1v-28l24-13.85,24,13.85v28L-19.4,43.67V72L-43.89,86.09v28.57h1v-28l24-13.85,24,13.85v28L-19.4,128.77v28.28l-24.49,14.14v28.57h1v-28l24-13.85,24,13.85v28L-19.4,213.87v28.28l-24.49,14.14v28.57h1v-28l24-13.85,24,13.85v28L-19.4,299v28.28l-24.49,14.14V370h1V342l24-13.85L5.09,342v28L-19.4,384.07v28.28l-24.49,14.14v28.57h1v-28l24-13.85,24,13.85v28L-19.4,469.17v28.28l-24.49,14.14v28.57h1v-28l24-13.85,24,13.85v28l-24.24,14-.25.14v28.28l-24.24,14-.25.14v28.57h1v-28l24-13.85,24,13.85v28l-24.24,14-.25.14v28.28l-24.24,14-.25.14v28.57h1v-28l24-13.85,24,13.85v28l-24.24,14-.25.14v28.28l-24.24,14-.25.14v28.57h1v-28l24-13.85,24,13.85v28l-24.24,14-.25.14v28.28l-24.24,14-.25.14v28.57h1v-28l24-13.85,24,13.85v28l-24.24,14-.25.14V923l-24.24,14-.25.14v28.57h1v-28l24-13.85,24,13.85v28l-24.24,14-.25.14v28.28l-24.24,14-.25.14v28.57h1v-28l24-13.85,24,13.85v28l-24.24,14-.25.14v28.57h1v-28l24-13.85,24,13.85v28h1v-28l24-13.85,24,13.85v28h1v-28l24-13.85,24,13.85v28h1v-28l24-13.85,24,13.85v28h1v-28l24-13.85,24,13.85v28h1v-28l24-13.85,24,13.85v28h1v-28l24-13.85,24,13.85v28h1v-28l24-13.85,24,13.85v28h1v-28l24-13.85,24,13.85v28h1v-28l24-13.85,24,13.85v28h1v-28l24-13.85,24,13.85v28h1v-28l24-13.85,24,13.85v28h1v-28l24-13.85,24,13.85v28h1v-28l24-13.85,24,13.85v28h1v-28l24-13.85,24,13.85v28h1v-28l24-13.85,24,13.85v28h1v-28l24-13.85,24,13.85v28h1v-28l24-13.85,24,13.85v28h1v-28l24-13.85,24,13.85v28h1v-28l24-13.85,24,13.85v28h1v-28l24-13.85,24,13.85v28h1v-28l24-13.85,24,13.85v28h1v-28l24-13.85,24,13.85v28h1v-28l24-13.85,24,13.85v28h1v-28l24-13.85,24,13.85v28h1v-28l24-13.85,24,13.85v28h1v-28l24-13.85,24,13.85v28h1v-28l24-13.85,24,13.85v28h1v-28l24-13.85,24,13.85v28h1v-28l24-13.85,24,13.85v28h1v-28l24-13.85,24,13.85v28h1v-28l24-13.85,24,13.85v28h1v-28l24-13.85,24,13.85v28h1v-28l24-13.85,24,13.85v28h1v-28l24-13.85,24,13.85v28h1v-28l24-13.85,24,13.85v28h1v-28l24-13.85,24,13.85v28h1v-28l24-13.85,24,13.85v28h1v-28l24-13.85,24,13.85v28h1v-28l24-13.85,24.24,14,.5-.86-24.74-14.29-24.49,14.14-24-13.85v-28l24-13.85,24.24,14,.5-.86-24.24-14v-27.7l24-13.85,24.24,14,.5-.86-24.74-14.29-24.49,14.14-24-13.85v-28l24-13.85,24.24,14,.5-.86-24.24-14v-27.7l24-13.85,24.24,14,.5-.86-24.74-14.29-24.49,14.14-24-13.85v-28l24-13.85,24.24,14,.5-.86-24.24-14v-27.7l24-13.85,24.24,14,.5-.86-24.74-14.29-24.49,14.14-24-13.85v-28l24-13.85,24.24,14,.5-.86-24.24-14v-27.7l24-13.85,24.24,14,.5-.86L1915.91,710l-24.49,14.14-24-13.85v-28l24-13.85,24.24,14,.5-.86-24.24-14V640l24-13.85,24.24,14,.5-.86-24.74-14.29-24.49,14.14-24-13.85v-28l24-13.85,24.24,14,.5-.86-24.24-14v-27.7l24-13.85,24.24,14,.5-.86-24.74-14.29L1891.42,554l-24-13.85v-28l24-13.85,24.24,14,.5-.86-24.24-14v-27.7l24-13.85,24.24,14,.5-.86-24.74-14.29-24.49,14.14-24-13.85v-28l24-13.85,24.24,14,.5-.86-24.24-14v-27.7l24-13.85,24.24,14,.5-.86-24.74-14.29-24.49,14.14-24-13.85V342l24-13.85,24.24,14,.5-.86-24.24-14v-27.7l24-13.85,24.24,14,.5-.86-24.74-14.29-24.49,14.14-24-13.85v-28l24-13.85,24.24,14,.5-.86-24.24-14v-27.7l24-13.85,24.24,14,.5-.86-24.74-14.29-24.49,14.14-24-13.85v-28l24-13.85,24.24,14,.5-.86-24.24-14v-27.7Zm-25-71.25V72l-24,13.85-24-13.85V44.25l24-13.85ZM1696,497.45v-27.7l24-13.85,24,13.85v27.7l-24,13.85Zm23.49,14.72v28l-24,13.85-24-13.85v-28l24-13.85Zm0-57.14-24,13.85-24-13.85v-28l24-13.85,24,13.85ZM1695,469.75v27.7l-24,13.85-24-13.85v-27.7l24-13.85Zm-24.5,42.42v28l-24,13.85-24-13.85v-28l24-13.85Zm0-57.14-24,13.85-24-13.85v-28l24-13.85,24,13.85ZM1646,469.75v27.7l-24,13.85-24-13.85v-27.7l24-13.85Zm-24.49,42.42v28l-24,13.85-24-13.85v-28l24-13.85Zm0-57.14-24,13.85-24-13.85v-28l24-13.85,24,13.85ZM1597,469.75v27.7l-24,13.85-24-13.85v-27.7l24-13.85Zm-24.49,42.42v28l-24,13.85-24-13.85v-28l24-13.85Zm0-57.14-24,13.85-24-13.85v-28l24-13.85,24,13.85ZM1548,469.75v27.7l-24,13.85-24-13.85v-27.7l24-13.85Zm-24.49,42.42v28l-24,13.85-24-13.85v-28l24-13.85Zm0-57.14-24,13.85-24-13.85v-28l24-13.85,24,13.85Zm-24.49,14.72v27.7l-24,13.85-24-13.85v-27.7l24-13.85Zm-24.5,42.42v28l-24,13.85-24-13.85v-28l24-13.85Zm0-57.14-24,13.85-24-13.85v-28l24-13.85,24,13.85Zm-24.49,14.72v27.7l-24,13.85-24-13.85v-27.7l24-13.85Zm-24.49,42.42v28l-24,13.85-24-13.85v-28l24-13.85Zm0-57.14-24,13.85-24-13.85v-28l24-13.85,24,13.85Zm-24.49,14.72v27.7l-24,13.85-24-13.85v-27.7l24-13.85Zm-24.49,42.42v28l-24,13.85-24-13.85v-28l24-13.85Zm0-57.14-24,13.85-24-13.85v-28l24-13.85,24,13.85Zm-24.49,14.72v27.7l-24,13.85-24-13.85v-27.7l24-13.85Zm-24.49,42.42v28l-24,13.85-24-13.85v-28l24-13.85Zm0-57.14-24,13.85-24-13.85v-28l24-13.85,24,13.85Zm-24.49,14.72v27.7l-24,13.85-24-13.85v-27.7l24-13.85Zm-24.5,42.42v28l-24,13.85-24-13.85v-28l24-13.85Zm0-57.14-24,13.85-24-13.85v-28l24-13.85,24,13.85Zm-24.49,14.72v27.7l-24,13.85-24-13.85v-27.7l24-13.85Zm-24.49,42.42v28l-24,13.85-24-13.85v-28l24-13.85Zm0-57.14-24,13.85-24-13.85v-28l24-13.85,24,13.85Zm-24.49,14.72v27.7l-24,13.85-24-13.85v-27.7l24-13.85Zm-24.49,42.42v28l-24,13.85-24-13.85v-28l24-13.85Zm0-57.14-24,13.85-24-13.85v-28l24-13.85,24,13.85Zm-24.49,14.72v27.7l-24,13.85-24-13.85v-27.7l24-13.85Zm-24.49,42.42v28l-24,13.85-24-13.85v-28l24-13.85Zm0-57.14-24,13.85-24-13.85v-28l24-13.85,24,13.85Zm-24.49,14.72v27.7l-24,13.85-24-13.85v-27.7l24-13.85Zm-24.49,42.42v28l-24,13.85-24-13.85v-28l24-13.85Zm0-57.14-24,13.85-24-13.85v-28l24-13.85,24,13.85Zm-24.5,14.72v27.7l-24,13.85-24-13.85v-27.7l24-13.85Zm-24.49,42.42v28l-24,13.85-24-13.85v-28l24-13.85Zm0-57.14-24,13.85-24-13.85v-28l24-13.85,24,13.85Zm-24.49,14.72v27.7l-24,13.85-24-13.85v-27.7l24-13.85Zm-24.49,42.42v28l-24,13.85-24-13.85v-28l24-13.85Zm0-57.14-24,13.85-24-13.85v-28l24-13.85,24,13.85Zm-24.49,14.72v27.7l-24,13.85-24-13.85v-27.7l24-13.85Zm-24.49,42.42v28l-24,13.85-24-13.85v-28l24-13.85Zm0-57.14-24,13.85-24-13.85v-28l24-13.85,24,13.85Zm-24.49,14.72v27.7l-24,13.85-24-13.85v-27.7l24-13.85Zm-24.49,42.42v28l-24,13.85-24-13.85v-28l24-13.85Zm0-57.14-24,13.85-24-13.85v-28l24-13.85,24,13.85Zm-24.5,14.72v27.7l-24,13.85-24-13.85v-27.7l24-13.85Zm-24.49,42.42v28L813.8,554l-24-13.85v-28l24-13.85Zm0-57.14-24,13.85-24-13.85v-28l24-13.85,24,13.85ZM813.3,469.75v27.7l-24,13.85-24-13.85v-27.7l24-13.85Zm-24.49,42.42v28l-24,13.85-24-13.85v-28l24-13.85Zm0-57.14-24,13.85-24-13.85v-28l24-13.85,24,13.85Zm-24.49,14.72v27.7l-24,13.85-24-13.85v-27.7l24-13.85Zm-24.49,42.42v28l-24,13.85-24-13.85v-28l24-13.85Zm0-57.14-24,13.85-24-13.85v-28l24-13.85,24,13.85Zm-24.49,14.72v27.7l-24,13.85-24-13.85v-27.7l24-13.85Zm-24.49,42.42v28l-24,13.85-24-13.85v-28l24-13.85Zm0-57.14-24,13.85-24-13.85v-28l24-13.85,24,13.85Zm-24.5,14.72v27.7l-24,13.85-24-13.85v-27.7l24-13.85Zm-24.49,42.42v28l-24,13.85-24-13.85v-28l24-13.85Zm0-57.14-24,13.85-24-13.85v-28l24-13.85,24,13.85Zm-24.49,14.72v27.7l-24,13.85-24-13.85v-27.7l24-13.85Zm-24.49,42.42v28l-24,13.85-24-13.85v-28l24-13.85Zm0-57.14-24,13.85L544.9,455v-28l24-13.85,24,13.85Zm-24.49,14.72v27.7l-24,13.85-24-13.85v-27.7l24-13.85ZM543.9,512.17v28l-24,13.85-24-13.85v-28l24-13.85Zm0-57.14-24,13.85-24-13.85v-28l24-13.85,24,13.85Zm-24.49,14.72v27.7l-24,13.85-24-13.85v-27.7l24-13.85Zm-24.49,42.42v28l-24,13.85-24-13.85v-28l24-13.85Zm0-57.14-24,13.85-24-13.85v-28l24-13.85,24,13.85Zm-24.49,14.72v27.7l-24,13.85-24-13.85v-27.7l24-13.85Zm-24.5,42.42v28l-24,13.85-24-13.85v-28l24-13.85Zm0-57.14-24,13.85L398,455v-28l24-13.85,24,13.85Zm-24.49,14.72v27.7l-24,13.85-24-13.85v-27.7l24-13.85ZM397,512.17v28L373,554l-24-13.85v-28l24-13.85ZM397,455l-24,13.85L349,455v-28l24-13.85,24,13.85Zm-24.49,14.72v27.7l-24,13.85-24-13.85v-27.7l24-13.85ZM348,512.17v28L324,554l-24-13.85v-28l24-13.85ZM348,455l-24,13.85L300,455v-28l24-13.85,24,13.85Zm-24.49,14.72v27.7l-24,13.85-24-13.85v-27.7l24-13.85ZM299,512.17v28L275,554l-24-13.85v-28l24-13.85ZM299,455l-24,13.85L251,455v-28l24-13.85,24,13.85ZM274.5,469.75v27.7l-24,13.85-24-13.85v-27.7l24-13.85ZM250,512.17v28L226,554l-24-13.85v-28l24-13.85ZM250,455l-24,13.85L202,455v-28l24-13.85,24,13.85Zm-24.49,14.72v27.7l-24,13.85-24-13.85v-27.7l24-13.85ZM201,512.17v28L177,554l-24-13.85v-28l24-13.85ZM201,455l-24,13.85L153,455v-28l24-13.85,24,13.85Zm-24.49,14.72v27.7l-24,13.85-24-13.85v-27.7l24-13.85ZM152,455l-24,13.85-24-13.85v-28l24-13.85,24,13.85Zm0,57.14v28l-24,13.85-24-13.85v-28l24-13.85Zm0,85.1v28l-24,13.85-24-13.85v-28l24-13.85Zm-23.49-14.72v-27.7l24-13.85,24,13.85v27.7l-24,13.85ZM153,597.27l24-13.85,24,13.85v28l-24,13.85-24-13.85Zm24.49-14.72v-27.7l24-13.85,24,13.85v27.7l-24,13.85ZM202,597.27l24-13.85,24,13.85v28l-24,13.85-24-13.85Zm24.49-14.72v-27.7l24-13.85,24,13.85v27.7l-24,13.85ZM251,597.27l24-13.85,24,13.85v28l-24,13.85-24-13.85Zm24.5-14.72v-27.7l24-13.85,24,13.85v27.7l-24,13.85ZM300,597.27l24-13.85,24,13.85v28l-24,13.85-24-13.85Zm24.49-14.72v-27.7l24-13.85,24,13.85v27.7l-24,13.85ZM349,597.27l24-13.85,24,13.85v28l-24,13.85-24-13.85Zm24.49-14.72v-27.7l24-13.85,24,13.85v27.7l-24,13.85ZM398,597.27l24-13.85,24,13.85v28l-24,13.85-24-13.85Zm24.49-14.72v-27.7l24-13.85,24,13.85v27.7l-24,13.85Zm24.49,14.72,24-13.85,24,13.85v28l-24,13.85-24-13.85Zm24.5-14.72v-27.7l24-13.85,24,13.85v27.7l-24,13.85Zm24.49,14.72,24-13.85,24,13.85v28l-24,13.85-24-13.85Zm24.49-14.72v-27.7l24-13.85,24,13.85v27.7l-24,13.85Zm24.49,14.72,24-13.85,24,13.85v28l-24,13.85-24-13.85Zm24.49-14.72v-27.7l24-13.85,24,13.85v27.7l-24,13.85Zm24.49,14.72,24-13.85,24,13.85v28l-24,13.85-24-13.85Zm24.49-14.72v-27.7l24-13.85,24,13.85v27.7l-24,13.85Zm24.49,14.72,24-13.85,24,13.85v28l-24,13.85-24-13.85Zm24.49-14.72v-27.7l24-13.85,24,13.85v27.7l-24,13.85Zm24.5,14.72,24-13.85,24,13.85v28l-24,13.85-24-13.85Zm24.49-14.72v-27.7l24-13.85,24,13.85v27.7l-24,13.85Zm24.49,14.72,24-13.85,24,13.85v28l-24,13.85-24-13.85Zm24.49-14.72v-27.7l24-13.85,24,13.85v27.7l-24,13.85Zm24.49,14.72,24-13.85,24,13.85v28l-24,13.85-24-13.85Zm24.49-14.72v-27.7l24-13.85,24,13.85v27.7l-24,13.85Zm24.49,14.72,24-13.85,24,13.85v28l-24,13.85-24-13.85Zm24.49-14.72v-27.7l24-13.85,24,13.85v27.7l-24,13.85Zm24.5,14.72,24-13.85,24,13.85v28l-24,13.85-24-13.85Zm24.49-14.72v-27.7l24-13.85,24,13.85v27.7l-24,13.85Zm24.49,14.72,24-13.85,24,13.85v28l-24,13.85-24-13.85Zm24.49-14.72v-27.7l24-13.85,24,13.85v27.7l-24,13.85Zm24.49,14.72,24-13.85,24,13.85v28l-24,13.85-24-13.85Zm24.49-14.72v-27.7l24-13.85,24,13.85v27.7l-24,13.85Zm24.49,14.72,24-13.85,24,13.85v28l-24,13.85-24-13.85Zm24.49-14.72v-27.7l24-13.85,24,13.85v27.7l-24,13.85Zm24.5,14.72,24-13.85,24,13.85v28l-24,13.85-24-13.85Zm24.49-14.72v-27.7l24-13.85,24,13.85v27.7l-24,13.85Zm24.49,14.72,24-13.85,24,13.85v28l-24,13.85-24-13.85Zm24.49-14.72v-27.7l24-13.85,24,13.85v27.7l-24,13.85Zm24.49,14.72,24-13.85,24,13.85v28l-24,13.85-24-13.85Zm24.49-14.72v-27.7l24-13.85,24,13.85v27.7l-24,13.85Zm24.49,14.72,24-13.85,24,13.85v28l-24,13.85-24-13.85Zm24.49-14.72v-27.7l24-13.85,24,13.85v27.7l-24,13.85Zm24.49,14.72,24-13.85,24,13.85v28l-24,13.85-24-13.85Zm24.5-14.72v-27.7l24-13.85,24,13.85v27.7l-24,13.85Zm24.49,14.72,24-13.85,24,13.85v28l-24,13.85-24-13.85Zm24.49-14.72v-27.7l24-13.85,24,13.85v27.7l-24,13.85Zm24.49,14.72,24-13.85,24,13.85v28l-24,13.85-24-13.85Zm24.49-14.72v-27.7l24-13.85,24,13.85v27.7l-24,13.85Zm24.49,14.72,24-13.85,24,13.85v28l-24,13.85-24-13.85Zm24.49-14.72v-27.7l24-13.85,24,13.85v27.7l-24,13.85Zm24.49,14.72,24-13.85,24,13.85v28l-24,13.85-24-13.85Zm24.5-14.72v-27.7l24-13.85,24,13.85v27.7l-24,13.85Zm24.49,14.72,24-13.85,24,13.85v28l-24,13.85-24-13.85ZM1549,582.55v-27.7L1573,541l24,13.85v27.7l-24,13.85Zm24.49,14.72,24-13.85,24,13.85v28l-24,13.85-24-13.85ZM1598,582.55v-27.7L1622,541l24,13.85v27.7l-24,13.85Zm24.49,14.72,24-13.85,24,13.85v28l-24,13.85-24-13.85ZM1647,582.55v-27.7L1671,541l24,13.85v27.7l-24,13.85Zm24.49,14.72,24-13.85,24,13.85v28l-24,13.85-24-13.85Zm24.5-14.72v-27.7L1720,541l24,13.85v27.7l-24,13.85Zm24.49,14.72,24-13.85,24,13.85v28l-24,13.85-24-13.85Zm0-57.14v-28l24-13.85,24,13.85v28l-24,13.85Zm0-85.1v-28l24-13.85,24,13.85v28l-24,13.85Zm0-85.1V342l24-13.85,24,13.85v28l-24,13.85ZM1744,384.65v27.7l-24,13.85-24-13.85v-27.7l24-13.85Zm-24.49-14.72-24,13.85-24-13.85V342l24-13.85,24,13.85ZM1695,384.65v27.7l-24,13.85-24-13.85v-27.7l24-13.85Zm-24.5-14.72-24,13.85-24-13.85V342l24-13.85,24,13.85ZM1646,384.65v27.7l-24,13.85-24-13.85v-27.7l24-13.85Zm-24.49-14.72-24,13.85-24-13.85V342l24-13.85,24,13.85ZM1597,384.65v27.7l-24,13.85-24-13.85v-27.7l24-13.85Zm-24.49-14.72-24,13.85-24-13.85V342l24-13.85,24,13.85ZM1548,384.65v27.7l-24,13.85-24-13.85v-27.7l24-13.85Zm-24.49-14.72-24,13.85-24-13.85V342l24-13.85,24,13.85Zm-24.49,14.72v27.7l-24,13.85-24-13.85v-27.7l24-13.85Zm-24.5-14.72-24,13.85-24-13.85V342l24-13.85,24,13.85Zm-24.49,14.72v27.7l-24,13.85-24-13.85v-27.7l24-13.85Zm-24.49-14.72-24,13.85-24-13.85V342l24-13.85,24,13.85Zm-24.49,14.72v27.7l-24,13.85-24-13.85v-27.7l24-13.85Zm-24.49-14.72-24,13.85-24-13.85V342l24-13.85,24,13.85Zm-24.49,14.72v27.7l-24,13.85-24-13.85v-27.7l24-13.85Zm-24.49-14.72-24,13.85-24-13.85V342l24-13.85,24,13.85Zm-24.49,14.72v27.7l-24,13.85-24-13.85v-27.7l24-13.85Zm-24.5-14.72-24,13.85-24-13.85V342l24-13.85,24,13.85Zm-24.49,14.72v27.7l-24,13.85-24-13.85v-27.7l24-13.85Zm-24.49-14.72-24,13.85-24-13.85V342l24-13.85,24,13.85Zm-24.49,14.72v27.7l-24,13.85-24-13.85v-27.7l24-13.85Zm-24.49-14.72-24,13.85-24-13.85V342l24-13.85,24,13.85Zm-24.49,14.72v27.7l-24,13.85-24-13.85v-27.7l24-13.85Zm-24.49-14.72-24,13.85-24-13.85V342l24-13.85,24,13.85Zm-24.49,14.72v27.7l-24,13.85-24-13.85v-27.7l24-13.85Zm-24.49-14.72-24,13.85-24-13.85V342l24-13.85,24,13.85Zm-24.5,14.72v27.7l-24,13.85-24-13.85v-27.7l24-13.85Zm-24.49-14.72-24,13.85-24-13.85V342l24-13.85,24,13.85Zm-24.49,14.72v27.7l-24,13.85-24-13.85v-27.7l24-13.85Zm-24.49-14.72-24,13.85-24-13.85V342l24-13.85,24,13.85Zm-24.49,14.72v27.7l-24,13.85-24-13.85v-27.7l24-13.85Zm-24.49-14.72-24,13.85-24-13.85V342l24-13.85,24,13.85Zm-24.49,14.72v27.7l-24,13.85-24-13.85v-27.7l24-13.85Zm-24.49-14.72-24,13.85-24-13.85V342l24-13.85,24,13.85Zm-24.5,14.72v27.7l-24,13.85-24-13.85v-27.7l24-13.85Zm-24.49-14.72-24,13.85-24-13.85V342l24-13.85,24,13.85ZM813.3,384.65v27.7l-24,13.85-24-13.85v-27.7l24-13.85Zm-24.49-14.72-24,13.85-24-13.85V342l24-13.85,24,13.85Zm-24.49,14.72v27.7l-24,13.85-24-13.85v-27.7l24-13.85Zm-24.49-14.72-24,13.85-24-13.85V342l24-13.85,24,13.85Zm-24.49,14.72v27.7l-24,13.85-24-13.85v-27.7l24-13.85Zm-24.49-14.72-24,13.85-24-13.85V342l24-13.85,24,13.85Zm-24.5,14.72v27.7l-24,13.85-24-13.85v-27.7l24-13.85Zm-24.49-14.72-24,13.85-24-13.85V342l24-13.85,24,13.85Zm-24.49,14.72v27.7l-24,13.85-24-13.85v-27.7l24-13.85Zm-24.49-14.72-24,13.85-24-13.85V342l24-13.85,24,13.85Zm-24.49,14.72v27.7l-24,13.85-24-13.85v-27.7l24-13.85ZM543.9,369.93l-24,13.85-24-13.85V342l24-13.85,24,13.85Zm-24.49,14.72v27.7l-24,13.85-24-13.85v-27.7l24-13.85Zm-24.49-14.72-24,13.85-24-13.85V342l24-13.85,24,13.85Zm-24.49,14.72v27.7l-24,13.85-24-13.85v-27.7l24-13.85Zm-24.5-14.72-24,13.85-24-13.85V342l24-13.85,24,13.85Zm-24.49,14.72v27.7l-24,13.85-24-13.85v-27.7l24-13.85ZM397,369.93l-24,13.85-24-13.85V342l24-13.85L397,342Zm-24.49,14.72v27.7l-24,13.85-24-13.85v-27.7l24-13.85ZM348,369.93l-24,13.85-24-13.85V342l24-13.85L348,342Zm-24.49,14.72v27.7l-24,13.85-24-13.85v-27.7l24-13.85ZM299,369.93l-24,13.85-24-13.85V342l24-13.85L299,342ZM274.5,384.65v27.7l-24,13.85-24-13.85v-27.7l24-13.85ZM250,369.93l-24,13.85-24-13.85V342l24-13.85L250,342Zm-24.49,14.72v27.7l-24,13.85-24-13.85v-27.7l24-13.85ZM201,369.93l-24,13.85-24-13.85V342l24-13.85L201,342Zm-24.49,14.72v27.7l-24,13.85-24-13.85v-27.7l24-13.85ZM152,369.93l-24,13.85-24-13.85V342l24-13.85L152,342Zm-24.49,14.72v27.7l-24,13.85-24-13.85v-27.7l24-13.85Zm0,85.1v27.7l-24,13.85-24-13.85v-27.7l24-13.85Zm0,85.1v27.7l-24,13.85-24-13.85v-27.7l24-13.85Zm0,85.1v27.7l-24,13.85-24-13.85V640l24-13.85Zm-23.49,42.42,24-13.85,24,13.85v28l-24,13.85-24-13.85Zm24.49-14.72V640l24-13.85,24,13.85v27.7l-24,13.85ZM153,682.37l24-13.85,24,13.85v28l-24,13.85-24-13.85Zm24.49-14.72V640l24-13.85,24,13.85v27.7l-24,13.85ZM202,682.37l24-13.85,24,13.85v28l-24,13.85-24-13.85Zm24.49-14.72V640l24-13.85,24,13.85v27.7l-24,13.85ZM251,682.37l24-13.85,24,13.85v28l-24,13.85-24-13.85Zm24.5-14.72V640l24-13.85,24,13.85v27.7l-24,13.85ZM300,682.37l24-13.85,24,13.85v28l-24,13.85-24-13.85Zm24.49-14.72V640l24-13.85,24,13.85v27.7l-24,13.85ZM349,682.37l24-13.85,24,13.85v28l-24,13.85-24-13.85Zm24.49-14.72V640l24-13.85,24,13.85v27.7l-24,13.85ZM398,682.37l24-13.85,24,13.85v28l-24,13.85-24-13.85Zm24.49-14.72V640l24-13.85,24,13.85v27.7l-24,13.85Zm24.49,14.72,24-13.85,24,13.85v28l-24,13.85-24-13.85Zm24.5-14.72V640l24-13.85,24,13.85v27.7l-24,13.85Zm24.49,14.72,24-13.85,24,13.85v28l-24,13.85-24-13.85Zm24.49-14.72V640l24-13.85,24,13.85v27.7l-24,13.85Zm24.49,14.72,24-13.85,24,13.85v28l-24,13.85-24-13.85Zm24.49-14.72V640l24-13.85,24,13.85v27.7l-24,13.85Zm24.49,14.72,24-13.85,24,13.85v28l-24,13.85-24-13.85Zm24.49-14.72V640l24-13.85,24,13.85v27.7l-24,13.85Zm24.49,14.72,24-13.85,24,13.85v28l-24,13.85-24-13.85Zm24.49-14.72V640l24-13.85,24,13.85v27.7l-24,13.85Zm24.5,14.72,24-13.85,24,13.85v28l-24,13.85-24-13.85Zm24.49-14.72V640l24-13.85,24,13.85v27.7l-24,13.85Zm24.49,14.72,24-13.85,24,13.85v28l-24,13.85-24-13.85Zm24.49-14.72V640l24-13.85,24,13.85v27.7l-24,13.85Zm24.49,14.72,24-13.85,24,13.85v28l-24,13.85-24-13.85Zm24.49-14.72V640l24-13.85,24,13.85v27.7l-24,13.85Zm24.49,14.72,24-13.85,24,13.85v28l-24,13.85-24-13.85Zm24.49-14.72V640l24-13.85,24,13.85v27.7l-24,13.85Zm24.5,14.72,24-13.85,24,13.85v28l-24,13.85-24-13.85Zm24.49-14.72V640l24-13.85,24,13.85v27.7l-24,13.85Zm24.49,14.72,24-13.85,24,13.85v28l-24,13.85-24-13.85Zm24.49-14.72V640l24-13.85,24,13.85v27.7l-24,13.85Zm24.49,14.72,24-13.85,24,13.85v28l-24,13.85-24-13.85Zm24.49-14.72V640l24-13.85,24,13.85v27.7l-24,13.85Zm24.49,14.72,24-13.85,24,13.85v28l-24,13.85-24-13.85Zm24.49-14.72V640l24-13.85,24,13.85v27.7l-24,13.85Zm24.5,14.72,24-13.85,24,13.85v28l-24,13.85-24-13.85Zm24.49-14.72V640l24-13.85,24,13.85v27.7l-24,13.85Zm24.49,14.72,24-13.85,24,13.85v28l-24,13.85-24-13.85Zm24.49-14.72V640l24-13.85,24,13.85v27.7l-24,13.85Zm24.49,14.72,24-13.85,24,13.85v28l-24,13.85-24-13.85Zm24.49-14.72V640l24-13.85,24,13.85v27.7l-24,13.85Zm24.49,14.72,24-13.85,24,13.85v28l-24,13.85-24-13.85Zm24.49-14.72V640l24-13.85,24,13.85v27.7l-24,13.85Zm24.49,14.72,24-13.85,24,13.85v28l-24,13.85-24-13.85Zm24.5-14.72V640l24-13.85,24,13.85v27.7l-24,13.85Zm24.49,14.72,24-13.85,24,13.85v28l-24,13.85-24-13.85Zm24.49-14.72V640l24-13.85,24,13.85v27.7l-24,13.85Zm24.49,14.72,24-13.85,24,13.85v28l-24,13.85-24-13.85Zm24.49-14.72V640l24-13.85,24,13.85v27.7l-24,13.85Zm24.49,14.72,24-13.85,24,13.85v28l-24,13.85-24-13.85Zm24.49-14.72V640l24-13.85,24,13.85v27.7l-24,13.85Zm24.49,14.72,24-13.85,24,13.85v28l-24,13.85-24-13.85Zm24.5-14.72V640l24-13.85L1548,640v27.7l-24,13.85Zm24.49,14.72,24-13.85,24,13.85v28l-24,13.85-24-13.85ZM1549,667.65V640l24-13.85L1597,640v27.7l-24,13.85Zm24.49,14.72,24-13.85,24,13.85v28l-24,13.85-24-13.85ZM1598,667.65V640l24-13.85L1646,640v27.7l-24,13.85Zm24.49,14.72,24-13.85,24,13.85v28l-24,13.85-24-13.85ZM1647,667.65V640l24-13.85L1695,640v27.7l-24,13.85Zm24.49,14.72,24-13.85,24,13.85v28l-24,13.85-24-13.85Zm24.5-14.72V640l24-13.85L1744,640v27.7l-24,13.85Zm24.49,14.72,24-13.85,24,13.85v28l-24,13.85-24-13.85ZM1745,667.65V640l24-13.85L1793,640v27.7l-24,13.85Zm0-85.1v-27.7L1769,541l24,13.85v27.7l-24,13.85Zm0-85.1v-27.7l24-13.85,24,13.85v27.7l-24,13.85Zm0-85.1v-27.7l24-13.85,24,13.85v27.7l-24,13.85Zm0-85.1v-27.7l24-13.85,24,13.85v27.7l-24,13.85Zm23.49-42.42-24,13.85-24-13.85v-28l24-13.85,24,13.85ZM1744,299.55v27.7l-24,13.85-24-13.85v-27.7l24-13.85Zm-24.49-14.72-24,13.85-24-13.85v-28l24-13.85,24,13.85ZM1695,299.55v27.7l-24,13.85-24-13.85v-27.7l24-13.85Zm-24.5-14.72-24,13.85-24-13.85v-28l24-13.85,24,13.85ZM1646,299.55v27.7l-24,13.85-24-13.85v-27.7l24-13.85Zm-24.49-14.72-24,13.85-24-13.85v-28l24-13.85,24,13.85ZM1597,299.55v27.7l-24,13.85-24-13.85v-27.7l24-13.85Zm-24.49-14.72-24,13.85-24-13.85v-28l24-13.85,24,13.85ZM1548,299.55v27.7l-24,13.85-24-13.85v-27.7l24-13.85Zm-24.49-14.72-24,13.85-24-13.85v-28l24-13.85,24,13.85Zm-24.49,14.72v27.7l-24,13.85-24-13.85v-27.7l24-13.85Zm-24.5-14.72-24,13.85-24-13.85v-28l24-13.85,24,13.85Zm-24.49,14.72v27.7l-24,13.85-24-13.85v-27.7l24-13.85Zm-24.49-14.72-24,13.85-24-13.85v-28l24-13.85,24,13.85Zm-24.49,14.72v27.7l-24,13.85-24-13.85v-27.7l24-13.85Zm-24.49-14.72-24,13.85-24-13.85v-28l24-13.85,24,13.85Zm-24.49,14.72v27.7l-24,13.85-24-13.85v-27.7l24-13.85Zm-24.49-14.72-24,13.85-24-13.85v-28l24-13.85,24,13.85Zm-24.49,14.72v27.7l-24,13.85-24-13.85v-27.7l24-13.85Zm-24.5-14.72-24,13.85-24-13.85v-28l24-13.85,24,13.85Zm-24.49,14.72v27.7l-24,13.85-24-13.85v-27.7l24-13.85Zm-24.49-14.72-24,13.85-24-13.85v-28l24-13.85,24,13.85Zm-24.49,14.72v27.7l-24,13.85-24-13.85v-27.7l24-13.85Zm-24.49-14.72-24,13.85-24-13.85v-28l24-13.85,24,13.85Zm-24.49,14.72v27.7l-24,13.85-24-13.85v-27.7l24-13.85Zm-24.49-14.72-24,13.85-24-13.85v-28l24-13.85,24,13.85Zm-24.49,14.72v27.7l-24,13.85-24-13.85v-27.7l24-13.85Zm-24.49-14.72-24,13.85-24-13.85v-28l24-13.85,24,13.85Zm-24.5,14.72v27.7l-24,13.85-24-13.85v-27.7l24-13.85Zm-24.49-14.72-24,13.85-24-13.85v-28l24-13.85,24,13.85Zm-24.49,14.72v27.7l-24,13.85-24-13.85v-27.7l24-13.85Zm-24.49-14.72-24,13.85-24-13.85v-28l24-13.85,24,13.85Zm-24.49,14.72v27.7l-24,13.85-24-13.85v-27.7l24-13.85Zm-24.49-14.72-24,13.85-24-13.85v-28l24-13.85,24,13.85Zm-24.49,14.72v27.7l-24,13.85-24-13.85v-27.7l24-13.85Zm-24.49-14.72-24,13.85-24-13.85v-28l24-13.85,24,13.85Zm-24.5,14.72v27.7l-24,13.85-24-13.85v-27.7l24-13.85Zm-24.49-14.72-24,13.85-24-13.85v-28l24-13.85,24,13.85ZM813.3,299.55v27.7l-24,13.85-24-13.85v-27.7l24-13.85Zm-24.49-14.72-24,13.85-24-13.85v-28l24-13.85,24,13.85Zm-24.49,14.72v27.7l-24,13.85-24-13.85v-27.7l24-13.85Zm-24.49-14.72-24,13.85-24-13.85v-28l24-13.85,24,13.85Zm-24.49,14.72v27.7l-24,13.85-24-13.85v-27.7l24-13.85Zm-24.49-14.72-24,13.85-24-13.85v-28l24-13.85,24,13.85Zm-24.5,14.72v27.7l-24,13.85-24-13.85v-27.7l24-13.85Zm-24.49-14.72-24,13.85-24-13.85v-28l24-13.85,24,13.85Zm-24.49,14.72v27.7l-24,13.85-24-13.85v-27.7l24-13.85Zm-24.49-14.72-24,13.85-24-13.85v-28l24-13.85,24,13.85Zm-24.49,14.72v27.7l-24,13.85-24-13.85v-27.7l24-13.85ZM543.9,284.83l-24,13.85-24-13.85v-28l24-13.85,24,13.85Zm-24.49,14.72v27.7l-24,13.85-24-13.85v-27.7l24-13.85Zm-24.49-14.72-24,13.85-24-13.85v-28l24-13.85,24,13.85Zm-24.49,14.72v27.7l-24,13.85-24-13.85v-27.7l24-13.85Zm-24.5-14.72-24,13.85-24-13.85v-28l24-13.85,24,13.85Zm-24.49,14.72v27.7l-24,13.85-24-13.85v-27.7l24-13.85ZM397,284.83l-24,13.85-24-13.85v-28L373,243l24,13.85Zm-24.49,14.72v27.7l-24,13.85-24-13.85v-27.7l24-13.85ZM348,284.83l-24,13.85-24-13.85v-28L324,243l24,13.85Zm-24.49,14.72v27.7l-24,13.85-24-13.85v-27.7l24-13.85ZM299,284.83l-24,13.85-24-13.85v-28L275,243l24,13.85ZM274.5,299.55v27.7l-24,13.85-24-13.85v-27.7l24-13.85ZM250,284.83l-24,13.85-24-13.85v-28L226,243l24,13.85Zm-24.49,14.72v27.7l-24,13.85-24-13.85v-27.7l24-13.85ZM201,284.83l-24,13.85-24-13.85v-28L177,243l24,13.85Zm-24.49,14.72v27.7l-24,13.85-24-13.85v-27.7l24-13.85ZM152,284.83l-24,13.85-24-13.85v-28l24-13.85,24,13.85Zm-24.49,14.72v27.7l-24,13.85-24-13.85v-27.7l24-13.85Zm-24.49-14.72-24,13.85-24-13.85v-28l24-13.85,24,13.85Zm0,57.14v28l-24,13.85-24-13.85V342l24-13.85Zm0,85.1v28l-24,13.85L55.08,455v-28l24-13.85Zm0,85.1v28L79.07,554l-24-13.85v-28l24-13.85Zm0,85.1v28l-24,13.85-24-13.85v-28l24-13.85Zm0,85.1v28l-24,13.85-24-13.85v-28l24-13.85Zm0,85.1v28l-24,13.85-24-13.85v-28l24-13.85ZM79.57,752.75v-27.7l24-13.85,24,13.85v27.7l-24,13.85Zm24.49,14.72,24-13.85,24,13.85v28l-24,13.85-24-13.85Zm24.49-14.72v-27.7l24-13.85,24,13.85v27.7l-24,13.85ZM153,767.47l24-13.85,24,13.85v28l-24,13.85-24-13.85Zm24.49-14.72v-27.7l24-13.85,24,13.85v27.7l-24,13.85ZM202,767.47l24-13.85,24,13.85v28l-24,13.85-24-13.85Zm24.49-14.72v-27.7l24-13.85,24,13.85v27.7l-24,13.85ZM251,767.47l24-13.85,24,13.85v28l-24,13.85-24-13.85Zm24.5-14.72v-27.7l24-13.85,24,13.85v27.7l-24,13.85ZM300,767.47l24-13.85,24,13.85v28l-24,13.85-24-13.85Zm24.49-14.72v-27.7l24-13.85,24,13.85v27.7l-24,13.85ZM349,767.47l24-13.85,24,13.85v28l-24,13.85-24-13.85Zm24.49-14.72v-27.7l24-13.85,24,13.85v27.7l-24,13.85ZM398,767.47l24-13.85,24,13.85v28l-24,13.85-24-13.85Zm24.49-14.72v-27.7l24-13.85,24,13.85v27.7l-24,13.85Zm24.49,14.72,24-13.85,24,13.85v28l-24,13.85-24-13.85Zm24.5-14.72v-27.7l24-13.85,24,13.85v27.7l-24,13.85Zm24.49,14.72,24-13.85,24,13.85v28l-24,13.85-24-13.85Zm24.49-14.72v-27.7l24-13.85,24,13.85v27.7l-24,13.85Zm24.49,14.72,24-13.85,24,13.85v28l-24,13.85-24-13.85Zm24.49-14.72v-27.7l24-13.85,24,13.85v27.7l-24,13.85Zm24.49,14.72,24-13.85,24,13.85v28l-24,13.85-24-13.85Zm24.49-14.72v-27.7l24-13.85,24,13.85v27.7l-24,13.85Zm24.49,14.72,24-13.85,24,13.85v28l-24,13.85-24-13.85Zm24.49-14.72v-27.7l24-13.85,24,13.85v27.7l-24,13.85Zm24.5,14.72,24-13.85,24,13.85v28l-24,13.85-24-13.85Zm24.49-14.72v-27.7l24-13.85,24,13.85v27.7l-24,13.85Zm24.49,14.72,24-13.85,24,13.85v28l-24,13.85-24-13.85Zm24.49-14.72v-27.7l24-13.85,24,13.85v27.7l-24,13.85Zm24.49,14.72,24-13.85,24,13.85v28l-24,13.85-24-13.85Zm24.49-14.72v-27.7l24-13.85,24,13.85v27.7l-24,13.85Zm24.49,14.72,24-13.85,24,13.85v28l-24,13.85-24-13.85Zm24.49-14.72v-27.7l24-13.85,24,13.85v27.7l-24,13.85Zm24.5,14.72,24-13.85,24,13.85v28l-24,13.85-24-13.85Zm24.49-14.72v-27.7l24-13.85,24,13.85v27.7l-24,13.85Zm24.49,14.72,24-13.85,24,13.85v28l-24,13.85-24-13.85Zm24.49-14.72v-27.7l24-13.85,24,13.85v27.7l-24,13.85Zm24.49,14.72,24-13.85,24,13.85v28l-24,13.85-24-13.85Zm24.49-14.72v-27.7l24-13.85,24,13.85v27.7l-24,13.85Zm24.49,14.72,24-13.85,24,13.85v28l-24,13.85-24-13.85Zm24.49-14.72v-27.7l24-13.85,24,13.85v27.7l-24,13.85Zm24.5,14.72,24-13.85,24,13.85v28l-24,13.85-24-13.85Zm24.49-14.72v-27.7l24-13.85,24,13.85v27.7l-24,13.85Zm24.49,14.72,24-13.85,24,13.85v28l-24,13.85-24-13.85Zm24.49-14.72v-27.7l24-13.85,24,13.85v27.7l-24,13.85Zm24.49,14.72,24-13.85,24,13.85v28l-24,13.85-24-13.85Zm24.49-14.72v-27.7l24-13.85,24,13.85v27.7l-24,13.85Zm24.49,14.72,24-13.85,24,13.85v28l-24,13.85-24-13.85Zm24.49-14.72v-27.7l24-13.85,24,13.85v27.7l-24,13.85Zm24.49,14.72,24-13.85,24,13.85v28l-24,13.85-24-13.85Zm24.5-14.72v-27.7l24-13.85,24,13.85v27.7l-24,13.85Zm24.49,14.72,24-13.85,24,13.85v28l-24,13.85-24-13.85Zm24.49-14.72v-27.7l24-13.85,24,13.85v27.7l-24,13.85Zm24.49,14.72,24-13.85,24,13.85v28l-24,13.85-24-13.85Zm24.49-14.72v-27.7l24-13.85,24,13.85v27.7l-24,13.85Zm24.49,14.72,24-13.85,24,13.85v28l-24,13.85-24-13.85Zm24.49-14.72v-27.7l24-13.85,24,13.85v27.7l-24,13.85Zm24.49,14.72,24-13.85,24,13.85v28l-24,13.85-24-13.85Zm24.5-14.72v-27.7l24-13.85,24,13.85v27.7l-24,13.85Zm24.49,14.72,24-13.85,24,13.85v28l-24,13.85-24-13.85ZM1549,752.75v-27.7l24-13.85,24,13.85v27.7l-24,13.85Zm24.49,14.72,24-13.85,24,13.85v28l-24,13.85-24-13.85ZM1598,752.75v-27.7l24-13.85,24,13.85v27.7l-24,13.85Zm24.49,14.72,24-13.85,24,13.85v28l-24,13.85-24-13.85ZM1647,752.75v-27.7l24-13.85,24,13.85v27.7l-24,13.85Zm24.49,14.72,24-13.85,24,13.85v28l-24,13.85-24-13.85Zm24.5-14.72v-27.7l24-13.85,24,13.85v27.7l-24,13.85Zm24.49,14.72,24-13.85,24,13.85v28l-24,13.85-24-13.85ZM1745,752.75v-27.7l24-13.85,24,13.85v27.7l-24,13.85Zm24.49,14.72,24-13.85,24,13.85v28l-24,13.85-24-13.85Zm0-57.14v-28l24-13.85,24,13.85v28l-24,13.85Zm0-85.1v-28l24-13.85,24,13.85v28l-24,13.85Zm0-85.1v-28l24-13.85,24,13.85v28l-24,13.85Zm0-85.1v-28l24-13.85,24,13.85v28l-24,13.85Zm0-85.1V342l24-13.85,24,13.85v28l-24,13.85Zm0-85.1v-28l24-13.85,24,13.85v28l-24,13.85Zm0-85.1v-28l24-13.85,24,13.85v28l-24,13.85ZM1793,214.45v27.7L1769,256l-24-13.85v-27.7l24-13.85Zm-24.49-14.72-24,13.85-24-13.85v-28l24-13.85,24,13.85ZM1744,214.45v27.7L1720,256l-24-13.85v-27.7l24-13.85Zm-24.49-14.72-24,13.85-24-13.85v-28l24-13.85,24,13.85ZM1695,214.45v27.7L1671,256l-24-13.85v-27.7l24-13.85Zm-24.5-14.72-24,13.85-24-13.85v-28l24-13.85,24,13.85ZM1646,214.45v27.7L1622,256l-24-13.85v-27.7l24-13.85Zm-24.49-14.72-24,13.85-24-13.85v-28l24-13.85,24,13.85ZM1597,214.45v27.7L1573,256l-24-13.85v-27.7l24-13.85Zm-24.49-14.72-24,13.85-24-13.85v-28l24-13.85,24,13.85ZM1548,214.45v27.7l-24,13.85-24-13.85v-27.7l24-13.85Zm-24.49-14.72-24,13.85-24-13.85v-28l24-13.85,24,13.85Zm-24.49,14.72v27.7l-24,13.85-24-13.85v-27.7l24-13.85Zm-24.5-14.72-24,13.85-24-13.85v-28l24-13.85,24,13.85Zm-24.49,14.72v27.7l-24,13.85-24-13.85v-27.7l24-13.85Zm-24.49-14.72-24,13.85-24-13.85v-28l24-13.85,24,13.85Zm-24.49,14.72v27.7l-24,13.85-24-13.85v-27.7l24-13.85Zm-24.49-14.72-24,13.85-24-13.85v-28l24-13.85,24,13.85Zm-24.49,14.72v27.7l-24,13.85-24-13.85v-27.7l24-13.85Zm-24.49-14.72-24,13.85-24-13.85v-28l24-13.85,24,13.85Zm-24.49,14.72v27.7l-24,13.85-24-13.85v-27.7l24-13.85Zm-24.5-14.72-24,13.85-24-13.85v-28l24-13.85,24,13.85Zm-24.49,14.72v27.7l-24,13.85-24-13.85v-27.7l24-13.85Zm-24.49-14.72-24,13.85-24-13.85v-28l24-13.85,24,13.85Zm-24.49,14.72v27.7l-24,13.85-24-13.85v-27.7l24-13.85Zm-24.49-14.72-24,13.85-24-13.85v-28l24-13.85,24,13.85Zm-24.49,14.72v27.7l-24,13.85-24-13.85v-27.7l24-13.85Zm-24.49-14.72-24,13.85-24-13.85v-28l24-13.85,24,13.85Zm-24.49,14.72v27.7l-24,13.85-24-13.85v-27.7l24-13.85Zm-24.49-14.72-24,13.85-24-13.85v-28l24-13.85,24,13.85Zm-24.5,14.72v27.7l-24,13.85-24-13.85v-27.7l24-13.85Zm-24.49-14.72-24,13.85-24-13.85v-28l24-13.85,24,13.85Zm-24.49,14.72v27.7l-24,13.85-24-13.85v-27.7l24-13.85Zm-24.49-14.72-24,13.85-24-13.85v-28l24-13.85,24,13.85Zm-24.49,14.72v27.7l-24,13.85-24-13.85v-27.7l24-13.85Zm-24.49-14.72-24,13.85-24-13.85v-28l24-13.85,24,13.85Zm-24.49,14.72v27.7l-24,13.85-24-13.85v-27.7l24-13.85Zm-24.49-14.72-24,13.85-24-13.85v-28l24-13.85,24,13.85Zm-24.5,14.72v27.7l-24,13.85-24-13.85v-27.7l24-13.85Zm-24.49-14.72-24,13.85-24-13.85v-28l24-13.85,24,13.85ZM813.3,214.45v27.7l-24,13.85-24-13.85v-27.7l24-13.85Zm-24.49-14.72-24,13.85-24-13.85v-28l24-13.85,24,13.85Zm-24.49,14.72v27.7l-24,13.85-24-13.85v-27.7l24-13.85Zm-24.49-14.72-24,13.85-24-13.85v-28l24-13.85,24,13.85Zm-24.49,14.72v27.7l-24,13.85-24-13.85v-27.7l24-13.85Zm-24.49-14.72-24,13.85-24-13.85v-28l24-13.85,24,13.85Zm-24.5,14.72v27.7l-24,13.85-24-13.85v-27.7l24-13.85Zm-24.49-14.72-24,13.85-24-13.85v-28l24-13.85,24,13.85Zm-24.49,14.72v27.7l-24,13.85-24-13.85v-27.7l24-13.85Zm-24.49-14.72-24,13.85-24-13.85v-28l24-13.85,24,13.85Zm-24.49,14.72v27.7L544.4,256l-24-13.85v-27.7l24-13.85ZM543.9,199.73l-24,13.85-24-13.85v-28l24-13.85,24,13.85Zm-24.49,14.72v27.7l-24,13.85-24-13.85v-27.7l24-13.85Zm-24.49-14.72-24,13.85-24-13.85v-28l24-13.85,24,13.85Zm-24.49,14.72v27.7l-24,13.85-24-13.85v-27.7l24-13.85Zm-24.5-14.72-24,13.85-24-13.85v-28l24-13.85,24,13.85Zm-24.49,14.72v27.7l-24,13.85-24-13.85v-27.7l24-13.85ZM397,199.73l-24,13.85-24-13.85v-28l24-13.85,24,13.85Zm-24.49,14.72v27.7l-24,13.85-24-13.85v-27.7l24-13.85ZM348,199.73l-24,13.85-24-13.85v-28l24-13.85,24,13.85Zm-24.49,14.72v27.7l-24,13.85-24-13.85v-27.7l24-13.85ZM299,199.73l-24,13.85-24-13.85v-28l24-13.85,24,13.85ZM274.5,214.45v27.7L250.5,256l-24-13.85v-27.7l24-13.85ZM250,199.73l-24,13.85-24-13.85v-28l24-13.85,24,13.85Zm-24.49,14.72v27.7l-24,13.85-24-13.85v-27.7l24-13.85ZM201,199.73l-24,13.85-24-13.85v-28l24-13.85,24,13.85Zm-24.49,14.72v27.7l-24,13.85-24-13.85v-27.7l24-13.85ZM152,199.73l-24,13.85-24-13.85v-28l24-13.85,24,13.85Zm-24.49,14.72v27.7l-24,13.85-24-13.85v-27.7l24-13.85Zm-24.49-14.72-24,13.85-24-13.85v-28l24-13.85,24,13.85ZM78.57,214.45v27.7L54.58,256l-24-13.85v-27.7l24-13.85Zm0,85.1v27.7l-24,13.85-24-13.85v-27.7l24-13.85Zm0,85.1v27.7l-24,13.85-24-13.85v-27.7l24-13.85Zm0,85.1v27.7l-24,13.85-24-13.85v-27.7l24-13.85Zm0,85.1v27.7l-24,13.85-24-13.85v-27.7l24-13.85Zm0,85.1v27.7l-24,13.85-24-13.85V640l24-13.85Zm0,85.1v27.7l-24,13.85-24-13.85v-27.7l24-13.85Zm0,85.1v27.7l-24,13.85-24-13.85v-27.7l24-13.85ZM55.08,852.57l24-13.85,24,13.85v28l-24,13.85-24-13.85Zm24.49-14.72v-27.7l24-13.85,24,13.85v27.7l-24,13.85Zm24.49,14.72,24-13.85,24,13.85v28l-24,13.85-24-13.85Zm24.49-14.72v-27.7l24-13.85,24,13.85v27.7l-24,13.85ZM153,852.57l24-13.85,24,13.85v28l-24,13.85-24-13.85Zm24.49-14.72v-27.7l24-13.85,24,13.85v27.7l-24,13.85ZM202,852.57l24-13.85,24,13.85v28l-24,13.85-24-13.85Zm24.49-14.72v-27.7l24-13.85,24,13.85v27.7l-24,13.85ZM251,852.57l24-13.85,24,13.85v28l-24,13.85-24-13.85Zm24.5-14.72v-27.7l24-13.85,24,13.85v27.7l-24,13.85ZM300,852.57l24-13.85,24,13.85v28l-24,13.85-24-13.85Zm24.49-14.72v-27.7l24-13.85,24,13.85v27.7l-24,13.85ZM349,852.57l24-13.85,24,13.85v28l-24,13.85-24-13.85Zm24.49-14.72v-27.7l24-13.85,24,13.85v27.7l-24,13.85ZM398,852.57l24-13.85,24,13.85v28l-24,13.85-24-13.85Zm24.49-14.72v-27.7l24-13.85,24,13.85v27.7l-24,13.85Zm24.49,14.72,24-13.85,24,13.85v28l-24,13.85-24-13.85Zm24.5-14.72v-27.7l24-13.85,24,13.85v27.7l-24,13.85Zm24.49,14.72,24-13.85,24,13.85v28l-24,13.85-24-13.85Zm24.49-14.72v-27.7l24-13.85,24,13.85v27.7l-24,13.85Zm24.49,14.72,24-13.85,24,13.85v28l-24,13.85-24-13.85Zm24.49-14.72v-27.7l24-13.85,24,13.85v27.7l-24,13.85Zm24.49,14.72,24-13.85,24,13.85v28l-24,13.85-24-13.85Zm24.49-14.72v-27.7l24-13.85,24,13.85v27.7l-24,13.85Zm24.49,14.72,24-13.85,24,13.85v28l-24,13.85-24-13.85Zm24.49-14.72v-27.7l24-13.85,24,13.85v27.7l-24,13.85Zm24.5,14.72,24-13.85,24,13.85v28l-24,13.85-24-13.85Zm24.49-14.72v-27.7l24-13.85,24,13.85v27.7l-24,13.85Zm24.49,14.72,24-13.85,24,13.85v28l-24,13.85-24-13.85Zm24.49-14.72v-27.7l24-13.85,24,13.85v27.7l-24,13.85Zm24.49,14.72,24-13.85,24,13.85v28l-24,13.85-24-13.85Zm24.49-14.72v-27.7l24-13.85,24,13.85v27.7l-24,13.85Zm24.49,14.72,24-13.85,24,13.85v28l-24,13.85-24-13.85Zm24.49-14.72v-27.7l24-13.85,24,13.85v27.7l-24,13.85Zm24.5,14.72,24-13.85,24,13.85v28l-24,13.85-24-13.85Zm24.49-14.72v-27.7l24-13.85,24,13.85v27.7l-24,13.85Zm24.49,14.72,24-13.85,24,13.85v28l-24,13.85-24-13.85Zm24.49-14.72v-27.7l24-13.85,24,13.85v27.7l-24,13.85Zm24.49,14.72,24-13.85,24,13.85v28l-24,13.85-24-13.85Zm24.49-14.72v-27.7l24-13.85,24,13.85v27.7l-24,13.85Zm24.49,14.72,24-13.85,24,13.85v28l-24,13.85-24-13.85Zm24.49-14.72v-27.7l24-13.85,24,13.85v27.7l-24,13.85Zm24.5,14.72,24-13.85,24,13.85v28l-24,13.85-24-13.85Zm24.49-14.72v-27.7l24-13.85,24,13.85v27.7l-24,13.85Zm24.49,14.72,24-13.85,24,13.85v28l-24,13.85-24-13.85Zm24.49-14.72v-27.7l24-13.85,24,13.85v27.7l-24,13.85Zm24.49,14.72,24-13.85,24,13.85v28l-24,13.85-24-13.85Zm24.49-14.72v-27.7l24-13.85,24,13.85v27.7l-24,13.85Zm24.49,14.72,24-13.85,24,13.85v28l-24,13.85-24-13.85Zm24.49-14.72v-27.7l24-13.85,24,13.85v27.7l-24,13.85Zm24.49,14.72,24-13.85,24,13.85v28l-24,13.85-24-13.85Zm24.5-14.72v-27.7l24-13.85,24,13.85v27.7l-24,13.85Zm24.49,14.72,24-13.85,24,13.85v28l-24,13.85-24-13.85Zm24.49-14.72v-27.7l24-13.85,24,13.85v27.7l-24,13.85Zm24.49,14.72,24-13.85,24,13.85v28l-24,13.85-24-13.85Zm24.49-14.72v-27.7l24-13.85,24,13.85v27.7l-24,13.85Zm24.49,14.72,24-13.85,24,13.85v28l-24,13.85-24-13.85Zm24.49-14.72v-27.7l24-13.85,24,13.85v27.7l-24,13.85Zm24.49,14.72,24-13.85,24,13.85v28l-24,13.85-24-13.85Zm24.5-14.72v-27.7l24-13.85,24,13.85v27.7l-24,13.85Zm24.49,14.72,24-13.85,24,13.85v28l-24,13.85-24-13.85ZM1549,837.85v-27.7l24-13.85,24,13.85v27.7l-24,13.85Zm24.49,14.72,24-13.85,24,13.85v28l-24,13.85-24-13.85ZM1598,837.85v-27.7l24-13.85,24,13.85v27.7l-24,13.85Zm24.49,14.72,24-13.85,24,13.85v28l-24,13.85-24-13.85ZM1647,837.85v-27.7l24-13.85,24,13.85v27.7l-24,13.85Zm24.49,14.72,24-13.85,24,13.85v28l-24,13.85-24-13.85Zm24.5-14.72v-27.7l24-13.85,24,13.85v27.7l-24,13.85Zm24.49,14.72,24-13.85,24,13.85v28l-24,13.85-24-13.85ZM1745,837.85v-27.7l24-13.85,24,13.85v27.7l-24,13.85Zm24.49,14.72,24-13.85,24,13.85v28l-24,13.85-24-13.85ZM1794,837.85v-27.7l24-13.85,24,13.85v27.7l-24,13.85Zm0-85.1v-27.7l24-13.85,24,13.85v27.7l-24,13.85Zm0-85.1V640l24-13.85,24,13.85v27.7l-24,13.85Zm0-85.1v-27.7l24-13.85,24,13.85v27.7l-24,13.85Zm0-85.1v-27.7l24-13.85,24,13.85v27.7l-24,13.85Zm0-85.1v-27.7l24-13.85,24,13.85v27.7l-24,13.85Zm0-85.1v-27.7l24-13.85,24,13.85v27.7l-24,13.85Zm0-85.1v-27.7l24-13.85,24,13.85v27.7l-24,13.85Zm0-85.1v-27.7l24-13.85,24,13.85v27.7l-24,13.85Zm23.49-42.42-24,13.85-24-13.85v-28l24-13.85,24,13.85ZM1793,129.35v27.7l-24,13.85-24-13.85v-27.7l24-13.85Zm-24.49-14.72-24,13.85-24-13.85v-28l24-13.85,24,13.85ZM1744,129.35v27.7l-24,13.85-24-13.85v-27.7l24-13.85Zm-24.49-14.72-24,13.85-24-13.85v-28l24-13.85,24,13.85ZM1695,129.35v27.7l-24,13.85-24-13.85v-27.7l24-13.85Zm-24.5-14.72-24,13.85-24-13.85v-28l24-13.85,24,13.85ZM1646,129.35v27.7l-24,13.85-24-13.85v-27.7l24-13.85Zm-24.49-14.72-24,13.85-24-13.85v-28l24-13.85,24,13.85ZM1597,129.35v27.7l-24,13.85-24-13.85v-27.7l24-13.85Zm-24.49-14.72-24,13.85-24-13.85v-28l24-13.85,24,13.85ZM1548,129.35v27.7l-24,13.85-24-13.85v-27.7l24-13.85Zm-24.49-14.72-24,13.85-24-13.85v-28l24-13.85,24,13.85Zm-24.49,14.72v27.7l-24,13.85-24-13.85v-27.7l24-13.85Zm-24.5-14.72-24,13.85-24-13.85v-28l24-13.85,24,13.85Zm-24.49,14.72v27.7l-24,13.85-24-13.85v-27.7l24-13.85Zm-24.49-14.72-24,13.85-24-13.85v-28l24-13.85,24,13.85Zm-24.49,14.72v27.7l-24,13.85-24-13.85v-27.7l24-13.85Zm-24.49-14.72-24,13.85-24-13.85v-28l24-13.85,24,13.85Zm-24.49,14.72v27.7l-24,13.85-24-13.85v-27.7l24-13.85Zm-24.49-14.72-24,13.85-24-13.85v-28l24-13.85,24,13.85Zm-24.49,14.72v27.7l-24,13.85-24-13.85v-27.7l24-13.85Zm-24.5-14.72-24,13.85-24-13.85v-28l24-13.85,24,13.85Zm-24.49,14.72v27.7l-24,13.85-24-13.85v-27.7l24-13.85Zm-24.49-14.72-24,13.85-24-13.85v-28l24-13.85,24,13.85Zm-24.49,14.72v27.7l-24,13.85-24-13.85v-27.7l24-13.85Zm-24.49-14.72-24,13.85-24-13.85v-28l24-13.85,24,13.85Zm-24.49,14.72v27.7l-24,13.85-24-13.85v-27.7l24-13.85Zm-24.49-14.72-24,13.85-24-13.85v-28l24-13.85,24,13.85Zm-24.49,14.72v27.7l-24,13.85-24-13.85v-27.7l24-13.85Zm-24.49-14.72-24,13.85-24-13.85v-28l24-13.85,24,13.85Zm-24.5,14.72v27.7l-24,13.85-24-13.85v-27.7l24-13.85Zm-24.49-14.72-24,13.85-24-13.85v-28l24-13.85,24,13.85Zm-24.49,14.72v27.7l-24,13.85-24-13.85v-27.7l24-13.85Zm-24.49-14.72-24,13.85-24-13.85v-28l24-13.85,24,13.85Zm-24.49,14.72v27.7l-24,13.85-24-13.85v-27.7l24-13.85Zm-24.49-14.72-24,13.85-24-13.85v-28l24-13.85,24,13.85Zm-24.49,14.72v27.7l-24,13.85-24-13.85v-27.7l24-13.85Zm-24.49-14.72-24,13.85-24-13.85v-28l24-13.85,24,13.85Zm-24.5,14.72v27.7l-24,13.85-24-13.85v-27.7l24-13.85Zm-24.49-14.72-24,13.85-24-13.85v-28l24-13.85,24,13.85ZM813.3,129.35v27.7l-24,13.85-24-13.85v-27.7l24-13.85Zm-24.49-14.72-24,13.85-24-13.85v-28l24-13.85,24,13.85Zm-24.49,14.72v27.7l-24,13.85-24-13.85v-27.7l24-13.85Zm-24.49-14.72-24,13.85-24-13.85v-28l24-13.85,24,13.85Zm-24.49,14.72v27.7l-24,13.85-24-13.85v-27.7l24-13.85Zm-24.49-14.72-24,13.85-24-13.85v-28l24-13.85,24,13.85Zm-24.5,14.72v27.7l-24,13.85-24-13.85v-27.7l24-13.85Zm-24.49-14.72-24,13.85-24-13.85v-28l24-13.85,24,13.85Zm-24.49,14.72v27.7l-24,13.85-24-13.85v-27.7l24-13.85Zm-24.49-14.72-24,13.85-24-13.85v-28l24-13.85,24,13.85Zm-24.49,14.72v27.7l-24,13.85-24-13.85v-27.7l24-13.85ZM543.9,114.63l-24,13.85-24-13.85v-28l24-13.85,24,13.85Zm-24.49,14.72v27.7l-24,13.85-24-13.85v-27.7l24-13.85Zm-24.49-14.72-24,13.85-24-13.85v-28l24-13.85,24,13.85Zm-24.49,14.72v27.7l-24,13.85-24-13.85v-27.7l24-13.85Zm-24.5-14.72-24,13.85-24-13.85v-28l24-13.85,24,13.85Zm-24.49,14.72v27.7l-24,13.85-24-13.85v-27.7l24-13.85ZM397,114.63l-24,13.85-24-13.85v-28l24-13.85,24,13.85Zm-24.49,14.72v27.7l-24,13.85-24-13.85v-27.7l24-13.85ZM348,114.63l-24,13.85-24-13.85v-28l24-13.85,24,13.85Zm-24.49,14.72v27.7l-24,13.85-24-13.85v-27.7l24-13.85ZM299,114.63l-24,13.85-24-13.85v-28l24-13.85,24,13.85ZM274.5,129.35v27.7l-24,13.85-24-13.85v-27.7l24-13.85ZM250,114.63l-24,13.85-24-13.85v-28l24-13.85,24,13.85Zm-24.49,14.72v27.7l-24,13.85-24-13.85v-27.7l24-13.85ZM201,114.63l-24,13.85-24-13.85v-28l24-13.85,24,13.85Zm-24.49,14.72v27.7l-24,13.85-24-13.85v-27.7l24-13.85ZM152,114.63l-24,13.85-24-13.85v-28l24-13.85,24,13.85Zm-24.49,14.72v27.7l-24,13.85-24-13.85v-27.7l24-13.85Zm-24.49-14.72-24,13.85-24-13.85v-28l24-13.85,24,13.85ZM78.57,129.35v27.7l-24,13.85-24-13.85v-27.7l24-13.85ZM54.08,114.63l-24,13.85-24-13.85v-28l24-13.85,24,13.85Zm0,57.14v28l-24,13.85-24-13.85v-28l24-13.85Zm0,85.1v28l-24,13.85-24-13.85v-28l24-13.85Zm0,85.1v28l-24,13.85-24-13.85V342l24-13.85Zm0,85.1v28l-24,13.85L6.09,455v-28l24-13.85Zm0,85.1v28L30.08,554l-24-13.85v-28l24-13.85Zm0,85.1v28l-24,13.85-24-13.85v-28l24-13.85Zm0,85.1v28l-24,13.85-24-13.85v-28l24-13.85Zm0,85.1v28l-24,13.85-24-13.85v-28l24-13.85Zm0,85.1v28l-24,13.85-24-13.85v-28l24-13.85Zm0,85.1v28l-24,13.85-24-13.85v-28l24-13.85ZM30.58,923v-27.7l24-13.85,24,13.85V923l-24,13.85Zm24.5,14.72,24-13.85,24,13.85v28l-24,13.85-24-13.85ZM79.57,923v-27.7l24-13.85,24,13.85V923l-24,13.85Zm24.49,14.72,24-13.85,24,13.85v28l-24,13.85-24-13.85ZM128.55,923v-27.7l24-13.85,24,13.85V923l-24,13.85ZM153,937.67l24-13.85,24,13.85v28l-24,13.85-24-13.85ZM177.53,923v-27.7l24-13.85,24,13.85V923l-24,13.85ZM202,937.67l24-13.85,24,13.85v28l-24,13.85-24-13.85ZM226.51,923v-27.7l24-13.85,24,13.85V923l-24,13.85ZM251,937.67l24-13.85,24,13.85v28l-24,13.85-24-13.85ZM275.5,923v-27.7l24-13.85,24,13.85V923l-24,13.85ZM300,937.67l24-13.85,24,13.85v28l-24,13.85-24-13.85ZM324.48,923v-27.7l24-13.85,24,13.85V923l-24,13.85ZM349,937.67l24-13.85,24,13.85v28l-24,13.85-24-13.85ZM373.46,923v-27.7l24-13.85,24,13.85V923l-24,13.85ZM398,937.67l24-13.85,24,13.85v28l-24,13.85-24-13.85ZM422.44,923v-27.7l24-13.85,24,13.85V923l-24,13.85Zm24.49,14.72,24-13.85,24,13.85v28l-24,13.85-24-13.85ZM471.43,923v-27.7l24-13.85,24,13.85V923l-24,13.85Zm24.49,14.72,24-13.85,24,13.85v28l-24,13.85-24-13.85ZM520.41,923v-27.7l24-13.85,24,13.85V923l-24,13.85Zm24.49,14.72,24-13.85,24,13.85v28l-24,13.85-24-13.85ZM569.39,923v-27.7l24-13.85,24,13.85V923l-24,13.85Zm24.49,14.72,24-13.85,24,13.85v28l-24,13.85-24-13.85ZM618.37,923v-27.7l24-13.85,24,13.85V923l-24,13.85Zm24.49,14.72,24-13.85,24,13.85v28l-24,13.85-24-13.85ZM667.35,923v-27.7l24-13.85,24,13.85V923l-24,13.85Zm24.5,14.72,24-13.85,24,13.85v28l-24,13.85-24-13.85ZM716.34,923v-27.7l24-13.85,24,13.85V923l-24,13.85Zm24.49,14.72,24-13.85,24,13.85v28l-24,13.85-24-13.85ZM765.32,923v-27.7l24-13.85,24,13.85V923l-24,13.85Zm24.49,14.72,24-13.85,24,13.85v28l-24,13.85-24-13.85ZM814.3,923v-27.7l24-13.85,24,13.85V923l-24,13.85Zm24.49,14.72,24-13.85,24,13.85v28l-24,13.85-24-13.85ZM863.28,923v-27.7l24-13.85,24,13.85V923l-24,13.85Zm24.5,14.72,24-13.85,24,13.85v28l-24,13.85-24-13.85ZM912.27,923v-27.7l24-13.85,24,13.85V923l-24,13.85Zm24.49,14.72,24-13.85,24,13.85v28l-24,13.85-24-13.85ZM961.25,923v-27.7l24-13.85,24,13.85V923l-24,13.85Zm24.49,14.72,24-13.85,24,13.85v28l-24,13.85-24-13.85ZM1010.23,923v-27.7l24-13.85,24,13.85V923l-24,13.85Zm24.49,14.72,24-13.85,24,13.85v28l-24,13.85-24-13.85ZM1059.21,923v-27.7l24-13.85,24,13.85V923l-24,13.85Zm24.5,14.72,24-13.85,24,13.85v28l-24,13.85-24-13.85ZM1108.2,923v-27.7l24-13.85,24,13.85V923l-24,13.85Zm24.49,14.72,24-13.85,24,13.85v28l-24,13.85-24-13.85ZM1157.18,923v-27.7l24-13.85,24,13.85V923l-24,13.85Zm24.49,14.72,24-13.85,24,13.85v28l-24,13.85-24-13.85ZM1206.16,923v-27.7l24-13.85,24,13.85V923l-24,13.85Zm24.49,14.72,24-13.85,24,13.85v28l-24,13.85-24-13.85ZM1255.14,923v-27.7l24-13.85,24,13.85V923l-24,13.85Zm24.49,14.72,24-13.85,24,13.85v28l-24,13.85-24-13.85Zm24.5-14.72v-27.7l24-13.85,24,13.85V923l-24,13.85Zm24.49,14.72,24-13.85,24,13.85v28l-24,13.85-24-13.85ZM1353.11,923v-27.7l24-13.85,24,13.85V923l-24,13.85Zm24.49,14.72,24-13.85,24,13.85v28l-24,13.85-24-13.85ZM1402.09,923v-27.7l24-13.85,24,13.85V923l-24,13.85Zm24.49,14.72,24-13.85,24,13.85v28l-24,13.85-24-13.85ZM1451.07,923v-27.7l24-13.85,24,13.85V923l-24,13.85Zm24.49,14.72,24-13.85,24,13.85v28l-24,13.85-24-13.85Zm24.5-14.72v-27.7l24-13.85,24,13.85V923l-24,13.85Zm24.49,14.72,24-13.85,24,13.85v28l-24,13.85-24-13.85ZM1549,923v-27.7l24-13.85,24,13.85V923l-24,13.85Zm24.49,14.72,24-13.85,24,13.85v28l-24,13.85-24-13.85ZM1598,923v-27.7l24-13.85,24,13.85V923l-24,13.85Zm24.49,14.72,24-13.85,24,13.85v28l-24,13.85-24-13.85ZM1647,923v-27.7l24-13.85,24,13.85V923l-24,13.85Zm24.49,14.72,24-13.85,24,13.85v28l-24,13.85-24-13.85ZM1696,923v-27.7l24-13.85,24,13.85V923l-24,13.85Zm24.49,14.72,24-13.85,24,13.85v28l-24,13.85-24-13.85ZM1745,923v-27.7l24-13.85,24,13.85V923l-24,13.85Zm24.49,14.72,24-13.85,24,13.85v28l-24,13.85-24-13.85ZM1794,923v-27.7l24-13.85,24,13.85V923l-24,13.85Zm24.49,14.72,24-13.85,24,13.85v28l-24,13.85-24-13.85Zm0-57.14v-28l24-13.85,24,13.85v28l-24,13.85Zm0-85.1v-28l24-13.85,24,13.85v28l-24,13.85Zm0-85.1v-28l24-13.85,24,13.85v28l-24,13.85Zm0-85.1v-28l24-13.85,24,13.85v28l-24,13.85Zm0-85.1v-28l24-13.85,24,13.85v28l-24,13.85Zm0-85.1v-28l24-13.85,24,13.85v28l-24,13.85Zm0-85.1V342l24-13.85,24,13.85v28l-24,13.85Zm0-85.1v-28l24-13.85,24,13.85v28l-24,13.85Zm0-85.1v-28l24-13.85,24,13.85v28l-24,13.85Zm0-85.1v-28l24-13.85,24,13.85v28l-24,13.85Zm0-113.06,24-13.85,24,13.85v28l-24,13.85-24-13.85Zm23.49,42.68V72l-24,13.85L1794,72V44.25l24-13.85ZM1769.46,1.57l24-13.85,24,13.85v28l-24,13.85-24-13.85ZM1793,44.25V72L1769,85.8,1745,72V44.25l24-13.85ZM1720.48,1.57l24-13.85,24,13.85v28l-24,13.85-24-13.85ZM1744,44.25V72L1720,85.8,1696,72V44.25l24-13.85ZM1671.49,1.57l24-13.85,24,13.85v28l-24,13.85-24-13.85ZM1695,44.25V72L1671,85.8,1647,72V44.25l24-13.85ZM1622.51,1.57l24-13.85,24,13.85v28l-24,13.85-24-13.85ZM1646,44.25V72L1622,85.8,1598,72V44.25l24-13.85ZM1573.53,1.57l24-13.85,24,13.85v28l-24,13.85-24-13.85ZM1597,44.25V72L1573,85.8,1549,72V44.25l24-13.85ZM1524.55,1.57l24-13.85,24,13.85v28l-24,13.85-24-13.85ZM1548,44.25V72l-24,13.85-24-13.85V44.25l24-13.85ZM1475.56,1.57l24-13.85,24,13.85v28l-24,13.85-24-13.85Zm23.5,42.68V72l-24,13.85-24-13.85V44.25l24-13.85ZM1426.58,1.57l24-13.85,24,13.85v28l-24,13.85-24-13.85Zm23.49,42.68V72l-24,13.85-24-13.85V44.25l24-13.85ZM1377.6,1.57l24-13.85,24,13.85v28l-24,13.85-24-13.85Zm23.49,42.68V72l-24,13.85-24-13.85V44.25l24-13.85ZM1328.62,1.57l24-13.85,24,13.85v28l-24,13.85-24-13.85Zm23.49,42.68V72l-24,13.85-24-13.85V44.25l24-13.85ZM1279.63,1.57l24-13.85,24,13.85v28l-24,13.85-24-13.85Zm23.5,42.68V72l-24,13.85-24-13.85V44.25l24-13.85ZM1230.65,1.57l24-13.85,24,13.85v28l-24,13.85-24-13.85Zm23.49,42.68V72l-24,13.85-24-13.85V44.25l24-13.85ZM1181.67,1.57l24-13.85,24,13.85v28l-24,13.85-24-13.85Zm23.49,42.68V72l-24,13.85-24-13.85V44.25l24-13.85ZM1132.69,1.57l24-13.85,24,13.85v28l-24,13.85-24-13.85Zm23.49,42.68V72l-24,13.85L1108.2,72V44.25l24-13.85ZM1083.71,1.57l24-13.85,24,13.85v28l-24,13.85-24-13.85Zm23.49,42.68V72l-24,13.85-24-13.85V44.25l24-13.85ZM1034.72,1.57l24-13.85,24,13.85v28l-24,13.85-24-13.85Zm23.49,42.68V72l-24,13.85-24-13.85V44.25l24-13.85ZM985.74,1.57l24-13.85,24,13.85v28l-24,13.85-24-13.85Zm23.49,42.68V72l-24,13.85L961.25,72V44.25l24-13.85ZM936.76,1.57l24-13.85,24,13.85v28l-24,13.85-24-13.85Zm23.49,42.68V72l-24,13.85L912.27,72V44.25l24-13.85ZM887.78,1.57l24-13.85,24,13.85v28l-24,13.85-24-13.85Zm23.49,42.68V72l-24,13.85L863.28,72V44.25l24-13.85ZM838.79,1.57l24-13.85,24,13.85v28l-24,13.85-24-13.85Zm23.49,42.68V72l-24,13.85L814.3,72V44.25l24-13.85ZM789.81,1.57l24-13.85,24,13.85v28l-24,13.85-24-13.85ZM813.3,44.25V72l-24,13.85L765.32,72V44.25l24-13.85ZM740.83,1.57l24-13.85,24,13.85v28l-24,13.85-24-13.85Zm23.49,42.68V72l-24,13.85L716.34,72V44.25l24-13.85ZM691.85,1.57l24-13.85,24,13.85v28l-24,13.85-24-13.85Zm23.49,42.68V72l-24,13.85L667.35,72V44.25l24-13.85ZM642.86,1.57l24-13.85,24,13.85v28l-24,13.85-24-13.85Zm23.49,42.68V72l-24,13.85L618.37,72V44.25l24-13.85ZM593.88,1.57l24-13.85,24,13.85v28l-24,13.85-24-13.85Zm23.49,42.68V72l-24,13.85L569.39,72V44.25l24-13.85ZM544.9,1.57l24-13.85,24,13.85v28l-24,13.85-24-13.85Zm23.49,42.68V72l-24,13.85L520.41,72V44.25l24-13.85ZM495.92,1.57l24-13.85,24,13.85v28l-24,13.85-24-13.85Zm23.49,42.68V72l-24,13.85L471.43,72V44.25l24-13.85ZM446.93,1.57l24-13.85,24,13.85v28l-24,13.85-24-13.85Zm23.5,42.68V72l-24,13.85L422.44,72V44.25l24-13.85ZM398,1.57l24-13.85,24,13.85v28l-24,13.85L398,29.53Zm23.49,42.68V72l-24,13.85L373.46,72V44.25l24-13.85ZM349,1.57l24-13.85L397,1.57v28L373,43.38,349,29.53Zm23.49,42.68V72l-24,13.85L324.48,72V44.25l24-13.85ZM300,1.57l24-13.85L348,1.57v28L324,43.38,300,29.53Zm23.49,42.68V72l-24,13.85L275.5,72V44.25l24-13.85ZM251,1.57l24-13.85L299,1.57v28L275,43.38,251,29.53Zm23.5,42.68V72l-24,13.85L226.51,72V44.25l24-13.85ZM202,1.57l24-13.85L250,1.57v28L226,43.38,202,29.53Zm23.49,42.68V72l-24,13.85L177.53,72V44.25l24-13.85ZM153,1.57l24-13.85L201,1.57v28L177,43.38,153,29.53Zm23.49,42.68V72l-24,13.85L128.55,72V44.25l24-13.85ZM104.06,1.57l24-13.85L152,1.57v28l-24,13.85-24-13.85Zm23.49,42.68V72l-24,13.85L79.57,72V44.25l24-13.85ZM55.08,1.57l24-13.85,24,13.85v28l-24,13.85-24-13.85ZM78.57,44.25V72l-24,13.85L30.58,72V44.25l24-13.85ZM6.09,1.57l24-13.85,24,13.85v28l-24,13.85-24-13.85ZM-18.4,72V44.25l24-13.85,24,13.85V72L5.59,85.8Zm0,85.1v-27.7l24-13.85,24,13.85v27.7l-24,13.85Zm0,85.1v-27.7l24-13.85,24,13.85v27.7L5.59,256Zm0,85.1v-27.7l24-13.85,24,13.85v27.7l-24,13.85Zm0,85.1v-27.7l24-13.85,24,13.85v27.7l-24,13.85Zm0,85.1v-27.7l24-13.85,24,13.85v27.7l-24,13.85Zm0,85.1v-27.7L5.59,541l24,13.85v27.7l-24,13.85Zm0,85.1V640l24-13.85,24,13.85v27.7l-24,13.85Zm0,85.1v-27.7l24-13.85,24,13.85v27.7l-24,13.85Zm0,85.1v-27.7l24-13.85,24,13.85v27.7l-24,13.85Zm0,85.1v-27.7l24-13.85,24,13.85V923l-24,13.85Zm0,85.1v-27.7l24-13.85,24,13.85v27.7l-24,13.85Zm72.48,42.68-24,13.85-24-13.85v-28l24-13.85,24,13.85Zm-23.5-42.68v-27.7l24-13.85,24,13.85v27.7l-24,13.85Zm72.48,42.68-24,13.85-24-13.85v-28l24-13.85,24,13.85Zm-23.49-42.68v-27.7l24-13.85,24,13.85v27.7l-24,13.85ZM152,1050.73l-24,13.85-24-13.85v-28l24-13.85,24,13.85Zm-23.49-42.68v-27.7l24-13.85,24,13.85v27.7l-24,13.85ZM201,1050.73l-24,13.85-24-13.85v-28l24-13.85,24,13.85Zm-23.49-42.68v-27.7l24-13.85,24,13.85v27.7l-24,13.85ZM250,1050.73l-24,13.85-24-13.85v-28l24-13.85,24,13.85Zm-23.49-42.68v-27.7l24-13.85,24,13.85v27.7l-24,13.85ZM299,1050.73l-24,13.85-24-13.85v-28l24-13.85,24,13.85Zm-23.49-42.68v-27.7l24-13.85,24,13.85v27.7l-24,13.85ZM348,1050.73l-24,13.85-24-13.85v-28l24-13.85,24,13.85Zm-23.49-42.68v-27.7l24-13.85,24,13.85v27.7l-24,13.85ZM397,1050.73l-24,13.85-24-13.85v-28l24-13.85,24,13.85Zm-23.49-42.68v-27.7l24-13.85,24,13.85v27.7l-24,13.85Zm72.47,42.68-24,13.85-24-13.85v-28l24-13.85,24,13.85Zm-23.49-42.68v-27.7l24-13.85,24,13.85v27.7l-24,13.85Zm72.48,42.68-24,13.85-24-13.85v-28l24-13.85,24,13.85Zm-23.49-42.68v-27.7l24-13.85,24,13.85v27.7l-24,13.85Zm72.47,42.68-24,13.85-24-13.85v-28l24-13.85,24,13.85Zm-23.49-42.68v-27.7l24-13.85,24,13.85v27.7l-24,13.85Zm72.47,42.68-24,13.85-24-13.85v-28l24-13.85,24,13.85Zm-23.49-42.68v-27.7l24-13.85,24,13.85v27.7l-24,13.85Zm72.47,42.68-24,13.85-24-13.85v-28l24-13.85,24,13.85Zm-23.49-42.68v-27.7l24-13.85,24,13.85v27.7l-24,13.85Zm72.48,42.68-24,13.85-24-13.85v-28l24-13.85,24,13.85Zm-23.5-42.68v-27.7l24-13.85,24,13.85v27.7l-24,13.85Zm72.48,42.68-24,13.85-24-13.85v-28l24-13.85,24,13.85Zm-23.49-42.68v-27.7l24-13.85,24,13.85v27.7l-24,13.85Zm72.47,42.68-24,13.85-24-13.85v-28l24-13.85,24,13.85Zm-23.49-42.68v-27.7l24-13.85,24,13.85v27.7l-24,13.85Zm72.47,42.68-24,13.85-24-13.85v-28l24-13.85,24,13.85Zm-23.49-42.68v-27.7l24-13.85,24,13.85v27.7l-24,13.85Zm72.48,42.68-24,13.85-24-13.85v-28l24-13.85,24,13.85Zm-23.5-42.68v-27.7l24-13.85,24,13.85v27.7l-24,13.85Zm72.48,42.68-24,13.85-24-13.85v-28l24-13.85,24,13.85Zm-23.49-42.68v-27.7l24-13.85,24,13.85v27.7l-24,13.85Zm72.47,42.68-24,13.85-24-13.85v-28l24-13.85,24,13.85Zm-23.49-42.68v-27.7l24-13.85,24,13.85v27.7l-24,13.85Zm72.47,42.68-24,13.85-24-13.85v-28l24-13.85,24,13.85Zm-23.49-42.68v-27.7l24-13.85,24,13.85v27.7l-24,13.85Zm72.48,42.68-24,13.85-24-13.85v-28l24-13.85,24,13.85Zm-23.5-42.68v-27.7l24-13.85,24,13.85v27.7l-24,13.85Zm72.48,42.68-24,13.85-24-13.85v-28l24-13.85,24,13.85Zm-23.49-42.68v-27.7l24-13.85,24,13.85v27.7l-24,13.85Zm72.47,42.68-24,13.85-24-13.85v-28l24-13.85,24,13.85Zm-23.49-42.68v-27.7l24-13.85,24,13.85v27.7l-24,13.85Zm72.47,42.68-24,13.85-24-13.85v-28l24-13.85,24,13.85Zm-23.49-42.68v-27.7l24-13.85,24,13.85v27.7l-24,13.85Zm72.47,42.68-24,13.85-24-13.85v-28l24-13.85,24,13.85Zm-23.49-42.68v-27.7l24-13.85,24,13.85v27.7l-24,13.85Zm72.48,42.68-24,13.85-24-13.85v-28l24-13.85,24,13.85Zm-23.49-42.68v-27.7l24-13.85,24,13.85v27.7l-24,13.85Zm72.47,42.68-24,13.85-24-13.85v-28l24-13.85,24,13.85Zm-23.49-42.68v-27.7l24-13.85,24,13.85v27.7l-24,13.85Zm72.47,42.68-24,13.85-24-13.85v-28l24-13.85,24,13.85Zm-23.49-42.68v-27.7l24-13.85,24,13.85v27.7l-24,13.85Zm72.47,42.68-24,13.85-24-13.85v-28l24-13.85,24,13.85Zm-23.49-42.68v-27.7l24-13.85,24,13.85v27.7l-24,13.85Zm72.48,42.68-24,13.85-24-13.85v-28l24-13.85,24,13.85Zm-23.49-42.68v-27.7l24-13.85,24,13.85v27.7l-24,13.85Zm72.47,42.68-24,13.85-24-13.85v-28l24-13.85,24,13.85ZM1549,1008.05v-27.7l24-13.85,24,13.85v27.7l-24,13.85Zm72.47,42.68-24,13.85-24-13.85v-28l24-13.85,24,13.85ZM1598,1008.05v-27.7l24-13.85,24,13.85v27.7l-24,13.85Zm72.47,42.68-24,13.85-24-13.85v-28l24-13.85,24,13.85ZM1647,1008.05v-27.7l24-13.85,24,13.85v27.7l-24,13.85Zm72.48,42.68-24,13.85-24-13.85v-28l24-13.85,24,13.85ZM1696,1008.05v-27.7l24-13.85,24,13.85v27.7l-24,13.85Zm72.47,42.68-24,13.85-24-13.85v-28l24-13.85,24,13.85ZM1745,1008.05v-27.7l24-13.85,24,13.85v27.7l-24,13.85Zm72.47,42.68-24,13.85-24-13.85v-28l24-13.85,24,13.85ZM1794,1008.05v-27.7l24-13.85,24,13.85v27.7l-24,13.85Zm72.47,42.68-24,13.85-24-13.85v-28l24-13.85,24,13.85Zm24.5-70.38v27.7l-24,13.85-24-13.85v-27.7l24-13.85Zm0-85.1V923l-24,13.85-24-13.85v-27.7l24-13.85Zm0-85.1v27.7l-24,13.85-24-13.85v-27.7l24-13.85Zm0-85.1v27.7l-24,13.85-24-13.85v-27.7l24-13.85Zm0-85.1v27.7l-24,13.85-24-13.85V640l24-13.85Zm0-85.1v27.7l-24,13.85-24-13.85v-27.7l24-13.85Zm0-85.1v27.7l-24,13.85-24-13.85v-27.7l24-13.85Zm0-85.1v27.7l-24,13.85-24-13.85v-27.7l24-13.85Zm0-85.1v27.7l-24,13.85-24-13.85v-27.7l24-13.85Zm0-85.1v27.7l-24,13.85-24-13.85v-27.7l24-13.85Zm0-57.4-24,13.85-24-13.85v-27.7l24-13.85,24,13.85Z"/></svg>