<svg id="Livello_2" data-name="Livello 2" xmlns="http://www.w3.org/2000/svg" xmlns:xlink="http://www.w3.org/1999/xlink" viewBox="0 0 164.39 164.39"><defs><style>.cls-1{fill:url(#Sfumatura_senza_nome_194);}.cls-2{fill:#fff;}</style><linearGradient id="Sfumatura_senza_nome_194" x1="-788.97" y1="71.42" x2="649.37" y2="89.21" gradientUnits="userSpaceOnUse"><stop offset="0" stop-color="#87b3e1"/><stop offset="0.32" stop-color="#bd94c4"/><stop offset="0.58" stop-color="#e37daf"/><stop offset="0.95" stop-color="#ee9f80"/></linearGradient></defs><circle class="cls-1" cx="82.19" cy="82.19" r="82.19"/><path class="cls-2" d="M121.17,43.93a91.4,91.4,0,0,0-22.9-7.06,60.42,60.42,0,0,0-2.91,5.94,87.67,87.67,0,0,0-25.37,0c-.78-1.85-2-4.2-2.91-5.94a90,90,0,0,0-23,7.06,92.27,92.27,0,0,0-16.36,62.89h0a93.49,93.49,0,0,0,28,14.05,62.25,62.25,0,0,0,6-9.69,55.33,55.33,0,0,1-9.4-4.53l2.29-1.79a65.58,65.58,0,0,0,56,0c.78.61,1.51,1.23,2.35,1.79a58.86,58.86,0,0,1-9.52,4.53,64,64,0,0,0,6.16,9.69,93.37,93.37,0,0,0,28-14.05h0A92.25,92.25,0,0,0,121.17,43.93ZM64.28,94.33a10.58,10.58,0,0,1-10-11.17v0a10.53,10.53,0,0,1,9.82-11.19h.15a10.46,10.46,0,0,1,10,10.94c0,.08,0,.17,0,.26a10.58,10.58,0,0,1-10,11Zm36.79,0a10.64,10.64,0,0,1-10-11.2A10.59,10.59,0,0,1,101,71.93h0a10.46,10.46,0,0,1,10,10.94c0,.08,0,.17,0,.26a10.53,10.53,0,0,1-10,11Z"/></svg>