<svg id="Livello_1" data-name="Livello 1" xmlns="http://www.w3.org/2000/svg" xmlns:xlink="http://www.w3.org/1999/xlink" viewBox="0 0 1920 1080"><defs><style>.cls-1{fill:url(#Sfumatura_senza_nome_50);}.cls-2{fill:url(#Sfumatura_senza_nome_32);}.cls-3{fill:url(#Sfumatura_senza_nome_51);}.cls-4{fill:#1c2a4b;}</style><linearGradient id="Sfumatura_senza_nome_50" x1="341.55" y1="564.47" x2="547.2" y2="727.77" gradientUnits="userSpaceOnUse"><stop offset="0" stop-color="#87b3e1"/><stop offset="0.56" stop-color="#bd94c4"/><stop offset="1" stop-color="#e37daf"/></linearGradient><linearGradient id="Sfumatura_senza_nome_32" x1="290.84" y1="229.65" x2="288.83" y2="519.96" gradientUnits="userSpaceOnUse"><stop offset="0" stop-color="#e37daf"/><stop offset="0.95" stop-color="#ee9f80"/></linearGradient><linearGradient id="Sfumatura_senza_nome_51" x1="37.5" y1="744.54" x2="228.43" y2="560.73" gradientUnits="userSpaceOnUse"><stop offset="0" stop-color="#87b3e1"/><stop offset="1" stop-color="#e37daf"/></linearGradient></defs><path class="cls-1" d="M381.84,825.48a54.65,54.65,0,0,1-29.39-8.26c-18-11.31-28.15-32.64-27.86-58.53l1.32-117.53c.5-43.67,30.31-92.53,68-111.69L478.89,480c.48-.28,1-.54,1.47-.79,21.73-10.76,44.15-10.66,61.53.26,18,11.31,28.15,32.65,27.86,58.54a24.74,24.74,0,0,1-49.47-.56c.1-9-2.3-14.57-4.72-16.09-1.73-1.09-6-1.23-12.57,1.86L418.2,572.6c-.49.28-1,.55-1.48.8-21.73,10.76-41.05,42.69-41.34,68.32l-1.32,117.53c-.1,9,2.3,14.56,4.72,16.08,1.73,1.09,6,1.23,12.57-1.86l84.79-49.4c.48-.28,1-.54,1.48-.79,21.73-10.76,41-42.69,41.33-68.33l.13-12.19-70,40.38a24.74,24.74,0,0,1-24.74-42.84l108.1-62.41A24.73,24.73,0,0,1,568.93,605l-.51,50.48c-.49,43.71-30.3,92.56-68,111.73l-84.93,49.48c-.48.28-1,.55-1.48.79A72.56,72.56,0,0,1,381.84,825.48Z"/><path class="cls-2" d="M304.68,529.21a24.69,24.69,0,0,1-12.31-3.29L83.65,406.14a24.73,24.73,0,0,1,.12-43L244.67,272c37.73-21.74,95-20.92,130.71,1.86L475.94,331c.43.24.84.5,1.26.77,20.31,13.22,31.65,32.57,31.09,53.09-.58,21.25-13.77,40.85-36.2,53.77l-.22.13L316.81,526A24.73,24.73,0,0,1,304.68,529.21ZM145.89,384.82,304.8,476l142.68-80.29c7.74-4.48,11.28-9.35,11.35-12.19.06-2.06-2-5.86-8.08-9.93L350.33,316.49c-.43-.24-.85-.5-1.26-.77-20.33-13.23-57.64-13.61-79.85-.81Z"/><path class="cls-3" d="M279.72,639.85c-.49-43.71-30.36-92.61-68.13-111.74L76.72,450.91a24.74,24.74,0,0,0-37,21.47V713a24.75,24.75,0,0,0,12.23,21.34l138.21,81c.5.3,1,.57,1.53.83a72.6,72.6,0,0,0,32.14,8,54.68,54.68,0,0,0,29.39-8.26c18-11.31,28.15-32.64,27.85-58.53ZM226.86,774c-1.73,1.09-6,1.23-12.55-1.85L89.17,698.8V515l98.43,56.35c.43.24.87.48,1.31.69,21.74,10.77,41.05,42.7,41.34,68.33l.24,21.1-70.71-40.58a24.74,24.74,0,0,0-24.63,42.92l96,55.08.43,39C231.67,766.94,229.28,772.5,226.86,774Z"/><path class="cls-4" d="M692.19,607.41q-10.35,0-10.35-10.34V487.54q0-10.34,10.35-10.34h44q20.31,0,31.49,9t11.17,25a29.86,29.86,0,0,1-5.54,18.1,31.67,31.67,0,0,1-15.14,11.08q11.25,3,17.54,10.9T782,571.4q0,17.36-11.54,26.69t-32,9.32Zm8.12-73.32h32.88q27,0,27-21.06t-27-21H700.31Zm0,58.55h35.84q27.15,0,27.15-22,0-21.79-27.15-21.8H700.31Z"/><path class="cls-4" d="M812.24,565.67a7.54,7.54,0,0,1-5.54-2.21,7.31,7.31,0,0,1-2.22-5.36,7.21,7.21,0,0,1,2.22-5.45,7.71,7.71,0,0,1,5.54-2.12h40.63a7.48,7.48,0,0,1,5.36,2.12,7.21,7.21,0,0,1,2.22,5.45,7.56,7.56,0,0,1-7.58,7.57Z"/><path class="cls-4" d="M897.57,607.41q-10.35,0-10.35-10.34V487.54q0-10.34,10.35-10.34h35.64q32.14,0,49.6,16.81t17.45,48.2q0,31.41-17.45,48.3t-49.6,16.9Zm8.86-16.06h25.68q48.2,0,48.2-49.14,0-48.93-48.2-48.94H906.43Z"/><path class="cls-4" d="M1022.61,608.71q-5.54,0-7.67-3.6t.28-8.78l50-112.29a14.14,14.14,0,0,1,4.62-6.19,11,11,0,0,1,6.47-1.94,10.76,10.76,0,0,1,6.18,1.94,13.82,13.82,0,0,1,4.71,6.19l50.06,112.29q2.4,5.37.46,8.87c-1.29,2.34-3.73,3.51-7.3,3.51a9.64,9.64,0,0,1-6.46-2,16.87,16.87,0,0,1-4.25-6.27l-10.71-24.75h-65.94l-10.53,24.75a17.27,17.27,0,0,1-4.06,6.37A8.68,8.68,0,0,1,1022.61,608.71ZM1076,498.44l-26,61.69h52.64l-26.22-61.69Z"/><path class="cls-4" d="M1186.44,608.71q-9.62,0-9.61-9.79V493.27h-39.15q-8.33,0-8.32-8.13,0-7.93,8.32-7.94H1235q8.49,0,8.5,7.94,0,8.13-8.5,8.13h-39.15V598.92Q1195.86,608.72,1186.44,608.71Z"/><path class="cls-4" d="M1243,608.71c-3.69,0-6.25-1.2-7.66-3.6s-1.33-5.33.28-8.78l50-112.29a14.14,14.14,0,0,1,4.62-6.19,10.91,10.91,0,0,1,6.46-1.94,10.77,10.77,0,0,1,6.19,1.94,13.82,13.82,0,0,1,4.71,6.19l50.05,112.29q2.4,5.37.46,8.87t-7.29,3.51a9.67,9.67,0,0,1-6.47-2,16.75,16.75,0,0,1-4.24-6.27l-10.72-24.75h-65.93l-10.53,24.75a17.27,17.27,0,0,1-4.07,6.37A8.64,8.64,0,0,1,1243,608.71Zm53.38-110.27-26,61.69h52.64l-26.23-61.69Z"/><path class="cls-4" d="M1438,609.08q-21.26,0-35.84-8a52.44,52.44,0,0,1-22.07-23q-7.47-15-7.48-35.65,0-20.5,7.57-35.55a53.7,53.7,0,0,1,22-23.18q14.41-8.13,34.54-8.13a82.93,82.93,0,0,1,21.7,2.86,61,61,0,0,1,19.68,9.33,8,8,0,0,1,3.6,5.45,9.63,9.63,0,0,1-1.11,6.09,8,8,0,0,1-4.53,3.88c-2,.68-4.18.28-6.65-1.2a52.15,52.15,0,0,0-15.14-7.29,62.75,62.75,0,0,0-17.55-2.31q-21.6,0-32.87,13t-11.27,37q0,24.57,11.54,37.31t34.63,12.74a87.61,87.61,0,0,0,27.89-4.61V552.93H1442.8q-8,0-7.94-7.39,0-7,7.94-7h32q7.93,0,7.94,7.94V593q0,7-5.17,9a99.62,99.62,0,0,1-18.65,5.08A117.42,117.42,0,0,1,1438,609.08Z"/><path class="cls-4" d="M1521.66,608.71q-9.6,0-9.6-9.79V487q0-9.78,9.79-9.79H1566q21.06,0,32.51,10.07T1610,515.43q0,14.6-7.76,23.92t-22,12.47q8.86,3,15,14.22l15.89,29.55q2.76,5,1.1,9c-1.1,2.71-3.63,4.07-7.57,4.07a12.1,12.1,0,0,1-6.65-1.67,13.07,13.07,0,0,1-4.43-5.35l-19.39-35.83q-3.88-7.22-9-9.7t-13-2.49h-20.87v45.25Q1531.27,608.72,1521.66,608.71Zm9.61-69.45h31.58q28.44,0,28.44-23.46,0-23.26-28.44-23.27h-31.58Z"/><path class="cls-4" d="M1634.14,608.71c-3.69,0-6.25-1.2-7.66-3.6s-1.33-5.33.27-8.78L1676.81,484a14.14,14.14,0,0,1,4.62-6.19,10.91,10.91,0,0,1,6.46-1.94,10.77,10.77,0,0,1,6.19,1.94,13.82,13.82,0,0,1,4.71,6.19l50,112.29q2.4,5.37.46,8.87t-7.29,3.51a9.67,9.67,0,0,1-6.47-2,16.87,16.87,0,0,1-4.25-6.27l-10.71-24.75h-65.94l-10.52,24.75a17.4,17.4,0,0,1-4.07,6.37A8.66,8.66,0,0,1,1634.14,608.71Zm53.38-110.27-26,61.69h52.64l-26.23-61.69Z"/><path class="cls-4" d="M1799.63,608.71q-9.6,0-9.6-10V546.65L1748.66,489a8.43,8.43,0,0,1-1-8.68q1.93-4.43,7.85-4.43t10.16,6.09L1800,529.84,1834.36,482a18,18,0,0,1,4.61-4.71,10.34,10.34,0,0,1,5.55-1.38c3.81,0,6.34,1.38,7.57,4.15s.67,5.82-1.66,9.15l-41.38,57.62v51.9Q1809.05,608.7,1799.63,608.71Z"/></svg>