<svg xmlns="http://www.w3.org/2000/svg" xmlns:xlink="http://www.w3.org/1999/xlink" viewBox="0 0 95.39 110.15"><defs><linearGradient id="Sfumatura_senza_nome_194" y1="55.07" x2="95.39" y2="55.07" gradientUnits="userSpaceOnUse"><stop offset="0" stop-color="#86b3e1"/><stop offset="0.33" stop-color="#bd93c3"/><stop offset="0.58" stop-color="#e37cae"/><stop offset="0.95" stop-color="#ed9e7f"/></linearGradient><linearGradient id="Sfumatura_senza_nome_194-2" x1="30.07" y1="55.07" x2="65.32" y2="55.07" xlink:href="#Sfumatura_senza_nome_194"/></defs><g id="Livello_2" data-name="Livello 2"><g id="Livello_1-2" data-name="Livello 1"><polygon points="92.86 81.15 92.86 28.99 47.69 2.91 2.52 28.99 2.52 81.15 47.69 107.23 92.86 81.15" style="fill:none;stroke-miterlimit:10;stroke-width:5.04759158845993px;stroke:url(#Sfumatura_senza_nome_194)"/><path d="M45.27,80.19a49.33,49.33,0,0,1-5-.31A56.94,56.94,0,0,1,34.65,79a24.91,24.91,0,0,1-4.58-1.32V67.55a26.48,26.48,0,0,0,6.66,2,40,40,0,0,0,6.65.6q4.77,0,7.15-1.29c1.59-.85,2.38-2.42,2.38-4.69a4.18,4.18,0,0,0-2-3.85,11.3,11.3,0,0,0-5.79-1.21H37.18L38,50.61h6.58q3.85,0,5.6-1.25a4.64,4.64,0,0,0,1.74-4,4.49,4.49,0,0,0-2.08-4c-1.39-.9-3.62-1.36-6.69-1.36a31.14,31.14,0,0,0-6.59.72,26.88,26.88,0,0,0-5.74,1.86v-10a36.55,36.55,0,0,1,6.61-1.82,43,43,0,0,1,8-.75q9.24,0,14.11,3.89a12.18,12.18,0,0,1,4.88,9.95,14.72,14.72,0,0,1-1.47,6.51,9.8,9.8,0,0,1-4.5,4.54,9.55,9.55,0,0,1,5.18,3.93,12.2,12.2,0,0,1,1.7,6.58,13.19,13.19,0,0,1-2.57,8.36,15.17,15.17,0,0,1-7.08,4.88A31.14,31.14,0,0,1,45.27,80.19Z" style="fill:url(#Sfumatura_senza_nome_194-2)"/></g></g></svg>