<svg id="Livello_2" data-name="Livello 2" xmlns="http://www.w3.org/2000/svg" viewBox="0 0 326.09 466.83"><defs><style>.cls-1,.cls-11{fill:#d7d9e5;}.cls-1,.cls-10{opacity:0.4;}.cls-1,.cls-7{isolation:isolate;}.cls-2{fill:#b1b4c4;}.cls-3{fill:#626f85;}.cls-4{fill:#20232d;}.cls-5,.cls-7{fill:#fff;}.cls-6{fill:#2c3140;}.cls-7{opacity:0.1;}.cls-8{fill:#757b8a;}.cls-9{fill:#d5d7e3;}.cls-12{fill:#e9ebf5;}.cls-13{fill:#3b4152;}.cls-14{fill:#323944;}</style></defs><g id="Слой_2" data-name="Слой 2"><g id="Слой_1-2" data-name="Слой 1-2"><path class="cls-1" d="M187.33,373.17,291.8,313a3.85,3.85,0,0,0-.15-6.76l-13.15-6.79a3.89,3.89,0,0,0-3.69.09l-108,62.18a3.86,3.86,0,0,0,.15,6.78l9.53,4.9A11.27,11.27,0,0,0,187.33,373.17Z"/><path class="cls-2" d="M180.92,361.84,270,310.44c7.58-4.33,13.66-16,13.66-26.09V36c0-10-6.12-14.68-13.66-10.32l-89.05,51.5c-7.58,4.33-13.66,16-13.66,26.09V351.58C167.26,361.58,173.38,366.2,180.92,361.84Z"/><polygon class="cls-2" points="179.39 366.32 172.34 362.75 179.1 351.16 179.39 366.32"/><polygon class="cls-2" points="284.98 28.17 278.49 24.77 279.8 34.34 284.98 28.17"/><path class="cls-3" d="M186.53,364.68l89-51.4c7.58-4.33,13.65-16,13.65-26.09V38.86c0-10.06-6.11-14.69-13.65-10.33l-89,51.4C179,84.27,172.88,96,172.88,106V354.37C172.94,364.42,179.05,369,186.53,364.68Z"/><path class="cls-4" d="M173.89,106.66V355c0,10.07,6.11,14.69,13.65,10.34l34.91-20.16,10.84-6.27,43.28-25c7.59-4.34,13.66-16,13.66-26.1V39.5c0-10-6.11-14.69-13.66-10.34l-89,51.4C180,84.92,173.89,96.65,173.89,106.66Z"/><path class="cls-5" d="M180.3,104.14V346c0,6.09,4.28,8.57,9.56,5.52l27.84-16.07,2.42-1.42.83-.48,6-3.48,17.41-10h0l7.23-4.17,2.9-1.68,19.8-11.39c5.28-3,9.55-10.47,9.55-16.55V44.38c0-6.1-4.27-8.57-9.55-5.52L239.54,58.93V59A16.45,16.45,0,0,1,232,71.91c-4.12,2.36-7.45.45-7.45-4.33v-.11L189.83,87.55C184.58,90.63,180.3,98,180.3,104.14Z"/><ellipse class="cls-6" cx="230.72" cy="66.13" rx="4" ry="2.32" transform="translate(58.43 233.22) rotate(-60.11)"/><path class="cls-7" d="M232,67.32a2.61,2.61,0,0,0,1.19-2.09c0-.76-.53-1.08-1.18-.68a2.57,2.57,0,0,0-1.18,2C230.87,67.4,231.4,67.7,232,67.32Z"/><path class="cls-8" d="M170.28,139.33h0c.73.42,1.32,0,1.32-1V127.75a3.2,3.2,0,0,0-1.32-2.52h0c-.72-.41-1.31,0-1.31,1v10.59A3.13,3.13,0,0,0,170.28,139.33Z"/><path class="cls-8" d="M170.28,156.68h0c.73.42,1.32,0,1.32-1V145.1a3.18,3.18,0,0,0-1.32-2.52h0c-.72-.41-1.31,0-1.31,1v10.58A3.15,3.15,0,0,0,170.28,156.68Z"/><path class="cls-9" d="M203.87,245a9.51,9.51,0,0,0-4.33,7.46v7.38c0,2.74,2,3.84,4.33,2.46l59-34a9.51,9.51,0,0,0,4.33-7.45v-7.38c0-2.74-2-3.85-4.33-2.47Z"/><g class="cls-10"><path class="cls-11" d="M43.51,414.52c-12.82,7.4-23.7,6.63-11.82,15.38,30.49,22.44,45.15,18.84,58,11.44l55.78-32.21c12.83-7.4,5.15-23.84-7.59-31.22s-25.73-3-38.56,4.41Z"/></g><path class="cls-9" d="M24.48,331.78a6,6,0,0,0,.12,1c.06.29.13.56.21.84s.16.65.28,1,.22.53.34.81.29.68.47,1,.3.49.44.73a12.12,12.12,0,0,0,.77,1.14c.28.37.55.72.86,1.08.08.08.14.16.22.25A17.66,17.66,0,0,0,29.57,341c.31.29.66.56,1,.84s.59.49.91.71.78.54,1.18.8.81.54,1.25.79A34.44,34.44,0,0,0,37,345.69l.93.39c.83.36,1.69.68,2.57,1l.94.33c.55.17,1.08.32,1.69.49l1.29.34c.44.11,1.2.26,1.81.38.41.09.81.19,1.23.25,1.23.22,2.48.39,3.72.52l1.17.1c.74.06,1.48.12,2.17.15h4.71a10.71,10.71,0,0,0,1.66-.09l1.52-.12,1.62-.18,1.46-.21,1.75-.3,1.35-.27c.69-.15,1.36-.33,2-.5l1.08-.3c1.21-.36,2.38-.75,3.51-1.19.57-.22,1.09-.46,1.65-.7l.85-.37c.82-.4,1.63-.81,2.4-1.25l55.8-32.22c6.45-3.72,9.67-8.61,9.66-13.5l.23,87.32c0,4.89-3.25,9.76-9.65,13.49l-55.7,32.24c-.78.44-1.58.85-2.41,1.24-.27.13-.57.25-.85.37-.49.22-1,.45-1.47.64l-.17.07c-1.14.44-2.31.83-3.51,1.18l-.28.1-.85.2c-.67.18-1.34.35-2,.5a3.65,3.65,0,0,0-.55.13l-.82.14c-.57.11-1.15.22-1.73.3l-.7.12a7,7,0,0,0-.77.09c-.54.08-1.08.13-1.63.18l-.77.09h-.74l-1.66.09H54.81c-.75,0-1.47-.09-2.17-.14l-.9-.07h-.27c-1.25-.13-2.49-.3-3.72-.52h-.18c-.35-.06-.69-.16-1.08-.23-.61-.11-1.21-.24-1.82-.39l-1.28-.34c-.56-.15-1.14-.31-1.69-.48l-.36-.11c-.2-.06-.38-.15-.58-.21-.88-.31-1.73-.63-2.57-1l-.94-.4a34.3,34.3,0,0,1-3.09-1.56l-.39-.24c-.3-.18-.56-.38-.85-.56s-.81-.51-1.18-.78-.61-.49-.91-.73-.69-.54-1-.83l-.21-.17c-.41-.39-.8-.78-1.17-1.18l-.22-.26c-.21-.25-.44-.48-.64-.73a3,3,0,0,1-.22-.34,11.53,11.53,0,0,1-.77-1.15c-.1-.15-.23-.31-.32-.47l-.12-.25a9.41,9.41,0,0,1-.47-1c-.09-.2-.21-.39-.29-.59s0-.14,0-.2c-.11-.33-.19-.66-.28-1s-.14-.44-.19-.66v-.17c0-.35-.09-.69-.11-1s-.08-.45-.09-.67v-.3l-.25-87.31C24.47,331.15,24.47,331.46,24.48,331.78Z"/><path class="cls-12" d="M34.05,317.35c-12.81,7.4-12.88,19.41-.14,26.81s33.47,7.41,46.29,0L136,312c12.81-7.4,12.88-19.41.13-26.82s-33.46-7.4-46.28,0Z"/><path class="cls-13" d="M117.35,386.19l-7.58-20.59a18.23,18.23,0,0,0,3.71-10.25c0-4.22-2.36-6.5-5.63-6a8.14,8.14,0,0,0-2.92,1.09c-4.7,2.72-8.51,9.28-8.49,14.7,0,3.37,1.51,5.47,3.77,5.93l-5.68,22.27-1.77,7Z"/><path class="cls-14" d="M112.19,383.18l-7.58-20.59a18.14,18.14,0,0,0,3.72-10.25,8.67,8.67,0,0,0-.48-2.94,8.14,8.14,0,0,0-2.92,1.09c-4.7,2.72-8.51,9.28-8.49,14.7,0,3.37,1.51,5.47,3.77,5.93l-5.68,22.27Z"/><path class="cls-14" d="M102.91,254.34a9.67,9.67,0,0,1,1.46,1.08l.24.22a7.8,7.8,0,0,1,1.08,1.35l.3.48.06.12a1.17,1.17,0,0,1,.15.27,8.83,8.83,0,0,1,.45,1v.07a10.75,10.75,0,0,1,.57,2.51v.1a11.32,11.32,0,0,1,.09,1.43l.07,29.26v10.54a17.31,17.31,0,0,0,8.08,1.84V267.68a14.54,14.54,0,0,0-.21-2.28,1.72,1.72,0,0,0-.1-.48,4.85,4.85,0,0,0-.16-.63v-.09a5.54,5.54,0,0,0-.21-.57.14.14,0,0,0,0-.09c-.06-.16-.12-.3-.18-.44a1.78,1.78,0,0,0-.14-.36.86.86,0,0,1-.1-.16,4.59,4.59,0,0,0-.48-.83h0a8.44,8.44,0,0,0-.52-.7c-.19-.21-.39-.43-.6-.64a.77.77,0,0,0-.23-.21,6.53,6.53,0,0,0-.7-.58,3.33,3.33,0,0,0-.67-.43l-.22-.16Z"/><path class="cls-14" d="M43.64,298.76v1l.08,29v10.65a17.47,17.47,0,0,0,8,1.79h.1V326.91l-.06-22.45a30.05,30.05,0,0,1,.2-3.55q.09-.87.24-1.77v-.26c.07-.46.15-.93.26-1.39a.61.61,0,0,1,0-.19c.24-1.15.52-2.32.85-3.49a2,2,0,0,1,.14-.46c.16-.52.32-1,.49-1.52s.4-1.2.62-1.79.42-1.09.64-1.63c.27-.71.59-1.43.91-2.16a2.44,2.44,0,0,0,.1-.24.13.13,0,0,1,.06-.1c.58-1.27,1.2-2.56,1.9-3.83.26-.52.54-1,.83-1.52.38-.69.76-1.36,1.17-2s.92-1.41,1.38-2.1c.21-.36.43-.72.67-1.08h0l.24-.36a1.24,1.24,0,0,1,.14-.18,83.83,83.83,0,0,1,5.31-7c.12-.16.26-.3.38-.44.88-1.08,1.76-2.05,2.7-3a3.32,3.32,0,0,1,.41-.43c.47-.5.95-1,1.45-1.5s1.15-1.15,1.74-1.7c.9-.83,1.79-1.67,2.72-2.48,1.61-1.39,3.25-2.7,4.94-3.94l1-.72A65.74,65.74,0,0,1,88.87,250l1.92-1.08c.64-.37,1.44-.74,2.17-1.09.49-.24,1-.45,1.46-.67l.62-.28.74-.29a29.58,29.58,0,0,1,3.92-1.43.8.8,0,0,1,.15,0l.48-.12c.22-.08.43-.11.63-.18l.79-.22h.06l.54-.12c.47-.11.92-.21,1.37-.29.25-.06.53-.1.79-.14a.33.33,0,0,1,.14,0l1-.16h.22a15.62,15.62,0,0,1,1.8-.16,8.88,8.88,0,0,1,1.15-.07h.58a17.09,17.09,0,0,1,1.75.09h.55a5.32,5.32,0,0,1,.56.06,4.71,4.71,0,0,1,.5.08h0c.14,0,.28.06.42.07h0c.34.07.67.12,1,.22a.43.43,0,0,1,.16,0,.5.5,0,0,1,.27.07,4.27,4.27,0,0,1,.72.21,4.94,4.94,0,0,1,.55.15H116a12,12,0,0,1,1.17.48l.14.06h0c.25.11.5.24.74.37a4.16,4.16,0,0,1,.47.24l-8.09-4.7a15.06,15.06,0,0,0-2.55-1.17.17.17,0,0,0-.1,0h0a16.07,16.07,0,0,0-2.16-.6l-.24-.06h-.27c-.5-.1-1-.15-1.53-.22h-.44c-.61,0-1.23-.07-1.88-.07H99.34c-.26,0-.53.06-.79.07l-1,.11h-.09a9.54,9.54,0,0,0-1,.16,6.4,6.4,0,0,0-.75.14h-.09c-.59.12-1.2.26-1.84.42h0c-.59.14-1.2.31-1.8.49h-.1a6.26,6.26,0,0,0-.61.21c-.4.12-.78.24-1.15.38a.58.58,0,0,0-.22.08,5.34,5.34,0,0,0-.76.28c-.29.12-.59.21-.91.33a2.17,2.17,0,0,1-.35.15l-.82.36c-.24.1-.47.19-.71.31a3.36,3.36,0,0,0-.54.26,6.53,6.53,0,0,0-.85.39,4.43,4.43,0,0,0-.54.26l-.73.35c-.22.12-.56.3-.83.46a2.93,2.93,0,0,0-.4.19l-1.55.86c-.15.1-.32.17-.46.28-.69.39-1.36.81-2,1.25-.35.19-.69.43-1,.65-.17.12-.34.24-.51.34l-.52.35c-.69.48-1.37,1-2,1.45l-.63.5c-.19.14-.4.27-.59.43s-.56.43-.84.67c-.71.53-1.38,1.08-2.08,1.67l-.21.2a2.55,2.55,0,0,0-.38.35c-.48.39-1,.79-1.43,1.22s-1,.93-1.53,1.43a1.66,1.66,0,0,0-.27.26.33.33,0,0,0-.14.12c-.64.6-1.26,1.21-1.86,1.82l-.94,1c-.14.13-.28.29-.42.43s-.24.24-.36.38c-.53.57-1.08,1.19-1.6,1.78-.26.28-.5.58-.74.85l-.36.44c-.14.16-.29.32-.41.47-.54.64-1,1.26-1.53,1.89-.18.24-.35.48-.55.71s-.3.38-.44.58l-.58.76c-.47.65-.93,1.33-1.41,2l-.53.77-.14.2c-.28.39-.52.84-.79,1.23-.52.83-1.08,1.65-1.55,2.46l-.18.3c-.58.93-1.09,1.89-1.61,2.83,0,.09-.07.16-.12.24l-.15.3c-.24.46-.47.89-.7,1.35s-.46.92-.67,1.37c-.12.25-.22.51-.34.75a2.44,2.44,0,0,0-.1.24l-.18.38c-.2.43-.37.85-.55,1.29s-.34.83-.51,1.24c-.09.22-.17.45-.24.66a.85.85,0,0,1-.09.22,3.12,3.12,0,0,1-.15.39c-.14.44-.3.86-.44,1.28s-.27.84-.39,1.27c-.07.19-.12.39-.19.59s0,.14-.05.22a3.88,3.88,0,0,0-.14.45c-.12.44-.24.86-.34,1.27s-.19.81-.28,1.22a2.86,2.86,0,0,1-.12.55.54.54,0,0,1,0,.18,2.34,2.34,0,0,1-.09.46l-.21,1.17c-.08.38-.1.74-.17,1.08s0,.46-.05.69a.33.33,0,0,0,0,.14,1.41,1.41,0,0,0,0,.29c0,.35-.06.72-.09,1.08S43.66,298.42,43.64,298.76Z"/><path class="cls-13" d="M51.71,304.46l.06,22.45v14.25c4.84,0,9-1.74,10.83-4.17v-5.93l-.1-32.85c0-11.11,12.06-27.49,26.41-35.76,6.45-3.73,12.45-5.29,17.12-4.85a12,12,0,0,1,4.78,1.36,1.73,1.73,0,0,1,.21.17,3.71,3.71,0,0,1,.68.43,5.36,5.36,0,0,1,.69.57.84.84,0,0,1,.24.22,3.59,3.59,0,0,1,.59.64,3.47,3.47,0,0,1,.52.69h.06a5.79,5.79,0,0,1,.47.84,31.9,31.9,0,0,1,.43,1,.17.17,0,0,1,0,.1,3.63,3.63,0,0,1,.21.66,4.16,4.16,0,0,1,.17.63,3.55,3.55,0,0,1,.09.47,13.55,13.55,0,0,1,.21,2.29v36.92c4.78,0,8.91-1.65,10.84-4v-6.2l.07-32.95c0-7.72-3.05-13.09-8.13-15.77-.23-.14-.48-.26-.73-.38h0l-.14,0a9.91,9.91,0,0,0-1.17-.48h0a3.61,3.61,0,0,0-.64-.19,3.53,3.53,0,0,0-.72-.22.77.77,0,0,0-.27-.07h-.16l-.5-.1a3.1,3.1,0,0,0-.51-.11h0a3.1,3.1,0,0,1-.42-.08h-.06a2.76,2.76,0,0,0-.49-.07,3.57,3.57,0,0,0-.56-.07,2.53,2.53,0,0,0-.55,0,17.09,17.09,0,0,0-1.75-.09h-.58a11.09,11.09,0,0,0-1.15.07c-.6,0-1.2.08-1.8.16-.4,0-.79.1-1.19.18a.17.17,0,0,0-.14,0,3,3,0,0,0-.79.14c-.45.07-.9.17-1.38.29s-.91.22-1.38.36a6.13,6.13,0,0,0-.63.18l-.64.17c-1.29.4-2.6.88-3.92,1.43-.47.18-.9.38-1.36.58s-1,.43-1.46.67l-1.28.64c-.27.15-.57.29-.84.43-.64.36-1.27.7-1.93,1.09a65.74,65.74,0,0,0-5.66,3.65l-1,.71c-1.69,1.25-3.34,2.56-4.94,4-.94.81-1.83,1.64-2.72,2.48-.6.55-1.17,1.08-1.75,1.7s-1,1-1.45,1.49a3.39,3.39,0,0,0-.41.44c-.93,1-1.82,2-2.7,3-.12.14-.26.28-.38.43a85.68,85.68,0,0,0-5.31,7,6.42,6.42,0,0,0-.38.53h0c-.71,1.09-1.39,2.1-2.05,3.18-.41.67-.79,1.34-1.17,2-.29.51-.57,1-.83,1.53-.69,1.27-1.32,2.56-1.9,3.83-.06.12-.12.23-.16.33-.31.72-.64,1.43-.91,2.17-.22.53-.43,1.08-.64,1.62s-.43,1.2-.62,1.79-.33,1-.48,1.53a2.38,2.38,0,0,1-.14.46c-.34,1.17-.64,2.34-.86,3.48a.67.67,0,0,0,0,.2c-.11.45-.19.93-.26,1.39v.26c-.1.59-.17,1.17-.24,1.76A31.17,31.17,0,0,0,51.71,304.46Z"/><path class="cls-9" d="M204.05,154.74v-8.67c-.05-16.7,11.75-37.11,26.28-45.51s26.45-1.63,26.45,15.07v8.67l5.65-3.25c1-.59,1.89-.11,1.89,1.09l.15,54.1a16.59,16.59,0,0,1-7.51,13l-52.69,30.47c-4.18,2.37-7.58.43-7.58-4.34l-.15-54.1A4.13,4.13,0,0,1,198.4,158Zm11.3-6.52,30.13-17.34v-8.67c0-9.54-6.82-13.4-15.12-8.61s-15,16.45-15,26v8.67M224.87,188a1.5,1.5,0,0,0,.48,1.41,1.29,1.29,0,0,0,1.4-.09l7.59-4.33a4.1,4.1,0,0,0,1.41-1.54,3.58,3.58,0,0,0,.45-1.95L235,169.86a15.8,15.8,0,0,0,3.07-8.73c0-4.8-3.44-6.73-7.59-4.33a16.53,16.53,0,0,0-7.51,13c0,2.8,1.16,4.68,3.1,5.18l-1.16,13"/><path class="cls-9" d="M202.33,277a6,6,0,0,0-2.79,4.73v7.58c0,1.73,1.24,2.44,2.75,1.57L264.55,255a6.07,6.07,0,0,0,2.74-4.73v-7.59c0-1.74-1.25-2.43-2.75-1.56Z"/></g></g></svg>