<svg id="Livello_2" data-name="Livello 2" xmlns="http://www.w3.org/2000/svg" xmlns:xlink="http://www.w3.org/1999/xlink" viewBox="0 0 551.21 540"><defs><style>.cls-1{fill:none;}.cls-2{clip-path:url(#clip-path);}.cls-3{fill:#d4d3dd;}.cls-4{fill:#e0dee9;}.cls-5{fill:#eaeaf4;}.cls-6{fill:#2b3240;}.cls-7{fill:#6656a1;}.cls-8{opacity:0.4;}.cls-9{clip-path:url(#clip-path-3);}.cls-10{fill:#d7d9e5;}.cls-11{clip-path:url(#clip-path-4);}.cls-12{fill:#3b2c6c;}.cls-13{fill:#fbceaa;}.cls-14{fill:#f4f3f4;}.cls-15{fill:#39276d;}.cls-16{fill:#7e72b2;}.cls-17{fill:#ef7b7d;}.cls-18{fill:#eeeded;}.cls-19{fill:#6254a0;}.cls-20{fill:#bfbebf;}.cls-21{fill:#e5e5e4;}.cls-22{clip-path:url(#clip-path-5);}</style><clipPath id="clip-path"><rect class="cls-1" x="33.39" y="22.76" width="484.43" height="484.43"/></clipPath><clipPath id="clip-path-3"><rect class="cls-1" x="396.95" y="449.42" width="35.41" height="21.85"/></clipPath><clipPath id="clip-path-4"><rect class="cls-1" x="298.54" y="365.11" width="38.36" height="25.52"/></clipPath><clipPath id="clip-path-5"><rect class="cls-1" x="344.85" y="481.67" width="38.36" height="25.52"/></clipPath></defs><g id="Слой_2" data-name="Слой 2"><g id="Слой_1-2" data-name="Слой 1-2"><g class="cls-2"><polygon class="cls-3" points="490.36 254.81 490.34 263.51 403.32 314.07 403.35 305.38 490.36 254.81"/><polygon class="cls-4" points="403.35 305.38 403.32 314.07 315.74 263.51 315.76 254.81 403.35 305.38"/><polygon class="cls-5" points="490.36 254.81 403.35 305.38 315.76 254.81 402.78 204.24 490.36 254.81"/><polygon class="cls-3" points="476.79 122.93 476.42 253.46 403.19 296.02 403.55 165.49 476.79 122.93"/><polygon class="cls-4" points="403.55 165.49 403.19 296.02 329.46 253.46 329.83 122.93 403.55 165.49"/><polygon class="cls-5" points="476.79 122.93 403.55 165.49 329.83 122.93 403.08 80.38 476.79 122.93"/><polygon class="cls-6" points="348.83 180 348.8 193.54 337.03 186.75 337.07 173.21 348.83 180"/><polygon class="cls-6" points="348.89 161.19 348.85 174.71 337.08 167.91 337.12 154.39 348.89 161.19"/><polygon class="cls-6" points="348.95 142.35 348.9 155.89 337.14 149.1 337.17 135.56 348.95 142.35"/><polygon class="cls-6" points="396.4 226.32 396.37 239.86 354.12 215.47 354.16 201.94 396.4 226.32"/><polygon class="cls-6" points="396.45 207.5 396.42 221.03 354.18 196.65 354.22 183.11 396.45 207.5"/><polygon class="cls-6" points="396.51 188.68 396.47 202.2 354.23 177.81 354.28 164.29 396.51 188.68"/><polygon class="cls-6" points="396.56 169.85 396.53 183.38 354.29 159 354.33 145.46 396.56 169.85"/><polygon class="cls-6" points="348.73 217.65 348.7 231.19 336.93 224.4 336.96 210.86 348.73 217.65"/><polygon class="cls-6" points="348.78 198.84 348.75 212.37 336.97 205.57 337.01 192.04 348.78 198.84"/><polygon class="cls-6" points="396.35 245.15 396.31 258.69 354.07 234.3 354.11 220.76 396.35 245.15"/><polygon class="cls-6" points="422.15 182.03 422.19 195.56 410.4 202.37 410.37 188.83 422.15 182.03"/><polygon class="cls-6" points="422.09 163.19 422.13 176.73 410.36 183.53 410.32 170 422.09 163.19"/><polygon class="cls-6" points="469.92 211.02 469.96 224.54 427.72 248.93 427.68 235.4 469.92 211.02"/><polygon class="cls-6" points="469.86 192.19 469.9 205.73 427.67 230.1 427.63 216.58 469.86 192.19"/><polygon class="cls-6" points="469.81 173.37 469.85 186.89 427.61 211.28 427.57 197.75 469.81 173.37"/><polygon class="cls-6" points="469.76 154.53 469.8 168.07 427.56 192.45 427.52 178.92 469.76 154.53"/><polygon class="cls-6" points="469.71 135.71 469.75 149.24 427.5 173.63 427.46 160.09 469.71 135.71"/><polygon class="cls-6" points="422.3 238.5 422.35 252.03 410.57 258.83 410.53 245.31 422.3 238.5"/><polygon class="cls-6" points="422.25 219.68 422.29 233.21 410.51 240.01 410.48 226.48 422.25 219.68"/><polygon class="cls-6" points="422.2 200.85 422.23 214.38 410.46 221.18 410.42 207.66 422.2 200.85"/><polygon class="cls-7" points="476.45 242.93 476.42 253.46 403.19 296.02 403.15 285.25 476.45 242.93"/><polygon class="cls-7" points="403.21 285.25 403.19 296.02 329.46 253.46 329.49 242.69 403.21 285.25"/><g class="cls-2"><path class="cls-6" d="M402.73,124.66h.83l4.19,2.42a15.81,15.81,0,0,1-9.19,0Z"/><path class="cls-6" d="M384.53,109.32c10.65-5.17,26.33-5.17,37.06,0l-3.77,2.2c-8.64-4-20.91-4-29.49,0Z"/><path class="cls-6" d="M391,113.06a32,32,0,0,1,24.15,0l-3.81,2.2a23.83,23.83,0,0,0-16.52,0Z"/><path class="cls-6" d="M398.51,117.39a15.84,15.84,0,0,1,9.2,0l-4.17,2.42a6,6,0,0,0-.85,0Z"/><path class="cls-6" d="M407.37,122.47a1.93,1.93,0,0,0,0-.48l4.17-2.41a3.59,3.59,0,0,1,.24,5.07l-.24.25Z"/><path class="cls-6" d="M415.19,127c3.39-2.91,3.38-6.7-.05-9.57l3.86-2.21c5.45,4.11,5.48,9.88.07,14Z"/><path class="cls-6" d="M391.07,117.45c-3.4,2.91-3.37,6.7.06,9.57l-3.8,2.22c-5.46-4.12-5.5-9.89-.09-14Z"/><path class="cls-6" d="M421.7,130.78c6.78-5,6.78-12.1-.1-17.08l3.78-2.2c8.94,6.2,9,15.27.12,21.47Z"/><path class="cls-6" d="M388.45,133c8.62,4,20.92,4,29.49,0l3.8,2.19c-10.66,5.16-26.33,5.16-37.06,0Z"/><path class="cls-6" d="M384.57,113.7c-6.83,5-6.78,12.09.1,17.08L380.89,133c-8.95-6.2-9-15.27-.12-21.46Z"/><path class="cls-6" d="M394.92,129.21a23.8,23.8,0,0,0,16.47,0l3.88,2.21a32.19,32.19,0,0,1-24.17,0Z"/><path class="cls-6" d="M398.93,122a2,2,0,0,0,0,.49l-4.15,2.42a3.58,3.58,0,0,1-.27-5.05,1.72,1.72,0,0,1,.27-.27Z"/><polygon class="cls-3" points="362.73 328.71 362.7 337.42 275.68 387.99 275.7 379.29 362.73 328.71"/><polygon class="cls-4" points="275.7 379.29 275.68 387.99 188.1 337.43 188.12 328.71 275.7 379.29"/><polygon class="cls-5" points="362.73 328.71 275.7 379.29 188.12 328.71 275.14 278.15 362.73 328.71"/><polygon class="cls-3" points="349.15 196.84 348.77 327.38 275.54 369.93 275.92 239.41 349.15 196.84"/><polygon class="cls-4" points="275.92 239.41 275.54 369.93 201.83 327.37 202.19 196.84 275.92 239.41"/><polygon class="cls-5" points="349.15 196.84 275.92 239.41 202.19 196.84 275.43 154.28 349.15 196.84"/><polygon class="cls-6" points="221.19 253.92 221.16 267.45 209.38 260.65 209.42 247.12 221.19 253.92"/><polygon class="cls-6" points="221.25 235.09 221.21 248.62 209.44 241.83 209.48 228.3 221.25 235.09"/><polygon class="cls-6" points="221.3 216.27 221.26 229.8 209.49 223 209.53 209.47 221.3 216.27"/><polygon class="cls-6" points="268.76 300.24 268.72 313.77 226.48 289.39 226.52 275.85 268.76 300.24"/><polygon class="cls-6" points="268.81 281.42 268.77 294.95 226.54 270.55 226.57 257.03 268.81 281.42"/><polygon class="cls-6" points="268.87 262.59 268.83 276.12 226.59 251.73 226.63 238.2 268.87 262.59"/><polygon class="cls-6" points="268.92 243.75 268.88 257.29 226.65 232.9 226.69 219.38 268.92 243.75"/><polygon class="cls-6" points="221.09 291.57 221.05 305.1 209.28 298.3 209.32 284.78 221.09 291.57"/><polygon class="cls-6" points="221.15 272.74 221.11 286.28 209.34 279.49 209.37 265.95 221.15 272.74"/><polygon class="cls-6" points="268.71 319.06 268.67 332.6 226.44 308.21 226.47 294.68 268.71 319.06"/><polygon class="cls-6" points="294.51 255.93 294.55 269.47 282.77 276.27 282.73 262.74 294.51 255.93"/><polygon class="cls-6" points="294.45 237.11 294.49 250.64 282.71 257.44 282.67 243.91 294.45 237.11"/><polygon class="cls-6" points="342.27 284.93 342.31 298.46 300.08 322.84 300.04 309.32 342.27 284.93"/><polygon class="cls-6" points="342.23 266.1 342.26 279.63 300.02 304.02 299.98 290.48 342.23 266.1"/><polygon class="cls-6" points="342.17 247.28 342.2 260.81 299.97 285.19 299.93 271.66 342.17 247.28"/><polygon class="cls-6" points="342.12 228.45 342.16 241.98 299.92 266.37 299.88 252.83 342.12 228.45"/><polygon class="cls-6" points="342.06 209.62 342.1 223.16 299.87 247.53 299.83 234 342.06 209.62"/><polygon class="cls-6" points="294.66 312.42 294.7 325.94 282.92 332.75 282.89 319.22 294.66 312.42"/><polygon class="cls-6" points="294.62 293.58 294.64 307.12 282.87 313.92 282.83 300.38 294.62 293.58"/><polygon class="cls-6" points="294.56 274.77 294.6 288.29 282.82 295.1 282.77 281.57 294.56 274.77"/><polygon class="cls-7" points="348.81 316.85 348.78 327.37 275.55 369.93 275.52 359.16 348.81 316.85"/><polygon class="cls-7" points="275.58 359.16 275.55 369.93 201.83 327.37 201.86 316.59 275.58 359.16"/><path class="cls-6" d="M275.09,198.57a5.75,5.75,0,0,0,.83,0l4.19,2.42a15.78,15.78,0,0,1-9.18,0Z"/><path class="cls-6" d="M256.89,183.23c10.65-5.16,26.32-5.16,37.07,0l-3.78,2.19c-8.64-4-20.92-4-29.49,0Z"/><path class="cls-6" d="M263.36,187a32.16,32.16,0,0,1,24.16,0l-3.8,2.22a23.74,23.74,0,0,0-16.53,0Z"/><path class="cls-6" d="M270.87,191.34a15.81,15.81,0,0,1,9.19,0l-4.15,2.41h-.86Z"/><path class="cls-6" d="M279.68,196.39a2,2,0,0,0,0-.49l4.17-2.42a3.6,3.6,0,0,1,.23,5.09l-.23.23Z"/><path class="cls-6" d="M287.55,200.93c3.39-2.91,3.37-6.7-.05-9.57l3.8-2.21c5.46,4.11,5.49,9.88.09,14Z"/><path class="cls-6" d="M263.43,191.34c-3.39,2.91-3.36,6.7.06,9.57l-3.81,2.21c-5.46-4.11-5.49-9.88-.08-14Z"/><path class="cls-6" d="M294,204.68c6.79-5,6.79-12.09-.09-17.07l3.78-2.2c8.94,6.2,9,15.27.11,21.47Z"/><path class="cls-6" d="M260.81,206.84c8.61,4,20.91,4,29.48,0l3.8,2.19c-10.66,5.17-26.32,5.17-37.06,0Z"/><path class="cls-6" d="M256.93,187.61c-6.79,5-6.79,12.09.09,17.07l-3.77,2.16c-8.95-6.2-9-15.27-.12-21.47Z"/><path class="cls-6" d="M267.27,203.11a23.69,23.69,0,0,0,16.47,0l3.88,2.22a32,32,0,0,1-24.15,0Z"/><path class="cls-6" d="M271.29,195.9a2,2,0,0,0,0,.49l-4.16,2.42a3.59,3.59,0,0,1-.25-5.08,3,3,0,0,1,.25-.25Z"/><g class="cls-8"><g class="cls-9"><path class="cls-10" d="M432.06,466.8c1.8-4.85-4.53-11.7-14.14-15.26s-18.86-2.48-20.66,2.36,4.52,11.7,14.13,15.27,18.86,2.51,20.67-2.35"/></g></g><g class="cls-8"><g class="cls-11"><path class="cls-10" d="M299,386.43c2.41,5.22,12.7,5.62,23,.89s16.74-12.8,14.34-18-12.69-5.62-23-.89-16.74,12.8-14.35,18"/></g></g><path class="cls-12" d="M414.32,341.38c.88-1.43,7.62-2.36,9.84,3.36.84,2.17.72,7.75,1.43,11.19s2.35,5.45,3,8.28-.38,7.56-7.18,8.39-12-1.55-13.65-3.72-1.65-6.78,0-9.26,2.91-4.48,2.91-7.75Z"/><path class="cls-12" d="M418.77,340.39s-5.08-1.46-8.16,1.28a7.55,7.55,0,0,0-2.17,7.53c.41,1.6,1.23,3.79,2.51,3.87s7.82-12.72,7.82-12.72"/><path class="cls-13" d="M420.71,354.24s-.33,5.67-.23,6.09,2.23.81,2.82,1.31-3.08,6.24-4.95,7.09-7.65-1.33-8.05-4.21c-.37-2.64,1.65-4.7,2.44-5.42a10.55,10.55,0,0,1,1.59,0l.17-2.74c2.53-.82,6.21-2.08,6.21-2.08"/><path class="cls-13" d="M407,364.94c0-.15-.85.3-.87.31s-.4,14.53-1.11,15.85h0c-1.82,3.08-6.62,8.3-6.74,8.89-.35,1.76.67.18,2.32,0,1-.12,6.38-5.64,7.61-6.9l.08.05V383l.17-.16a11.61,11.61,0,0,0,0-1.18c2.25-15.76-.54-16.82-1.52-16.7"/><path class="cls-14" d="M421.49,360.89c1.59.25,3.41,1.1,3.66,1.94a18.7,18.7,0,0,1-.46,9.45,80.3,80.3,0,0,1-3.1,7.53s-6.87,2.91-12.43-.48c0,0-.37-3.88-.4-6-5.13-4.47-.75-10,3.59-14.26a10.29,10.29,0,0,1,1.57,0s-3.87,4.57-1.18,7.18c5.76-1.75,6.91-4.33,8.72-5.37"/><path class="cls-13" d="M410.13,347.23h0c.57-3.63,3.21-6.39,7-6.16a7.2,7.2,0,0,1,3.62,13.17,6.72,6.72,0,0,1-.58,1.59c-1.33,1.55-4.84,2.53-6,2.55-1,0-1.88-1-2.82-2.49-1.93-3.25-1.47-6.87-1.16-8.66"/><path class="cls-12" d="M418.25,341.13c2.63.52,4.8,1.26,5.5,3.87.5,1.77,1.14,5.18.53,6.6l-.38,1-3.19,1.63s-1.48-1.24-1-4.84a2.63,2.63,0,0,0-.45-1.38,4,4,0,0,1-.44-1.09,4.11,4.11,0,0,0-2.06-2.24c-2.37-1.33-5.81-.17-6.34.3a6.94,6.94,0,0,1,7.85-3.87"/><path class="cls-15" d="M423,456.18c-1.33,1.08-3.4.34-3.51.43a54.19,54.19,0,0,1-4.84,3.73c-.84.65-2.13,1.53-1.89,2.79.41,2.23,4,1.55,5.36.86s2.47-1.82,3.74-2.62c.92-.57,1.83-.86,1.94-2,.09-.7-.56-3.19-.79-3.17"/><path class="cls-16" d="M423.84,458.88c-.18,1.12-1.06,1.42-1.94,1.94-1.3.81-2.45,1.94-3.8,2.66s-4.37,1.27-5.25-.34c.47,2.17,4,1.49,5.34.81s2.46-1.82,3.74-2.62c.92-.57,1.82-.86,1.94-2a1.85,1.85,0,0,0,0-.47"/><path class="cls-15" d="M413.7,454.32c-1.22,1-3.06.43-3.16.52a49,49,0,0,1-4.46,3.4c-.75.59-1.94,1.4-1.73,2.55.39,2,3.68,1.42,4.92.79s2.26-1.67,3.43-2.4c.83-.52,1.66-.79,1.79-1.85a7.16,7.16,0,0,0-.79-3"/><path class="cls-16" d="M414.47,456.91c-.16,1-1,1.29-1.8,1.81-1.2.73-2.25,1.81-3.49,2.44s-4,1.15-4.84-.31c.43,1.94,3.67,1.35,4.9.73s2.25-1.67,3.43-2.4c.83-.52,1.66-.79,1.79-1.85a1.55,1.55,0,0,0,0-.43"/><path class="cls-13" d="M406.52,392.36c.58-4.59,2.28-11.26,2.28-11.26a13.39,13.39,0,0,0,5.09,1.26,41.35,41.35,0,0,0,7.7-.75,46.49,46.49,0,0,0,2.72,4.21c1.32,1.83,3.87,5.81,3.28,12.9-.41,4.6-3,24.12-3,24.12A36.54,36.54,0,0,1,426.19,433a85.16,85.16,0,0,1-1.61,12.13L423,456.18s-2.05,1.48-3.51.43l.18-10.84c-.17-2.65-.43-6.58-.6-9.08-.28-4.06-1-10.54-1.22-12.14s-.72-4.44-1-7.61-1.44-19.23-1.44-19.23l-.16,3s-.16,4.84-.87,10.91-1,8.72-1,8.72a12.76,12.76,0,0,1,1.38,3.88c.13,1.3,1.62,11.62.73,16.85l-1.83,13.34a3.53,3.53,0,0,1-3.15.41l-1.08-13.44c-.73-5.11-2.25-15.94-2.49-17.36a60.46,60.46,0,0,1-.91-8.59c-.35-5.82-.22-18.49.37-23.08"/><path class="cls-17" d="M421.59,379.82l4,7.95s6,8.83-.22,31.53l1.18,7s-11.84,7.59-19.76,0c0,0-2.75-21-1.29-30.66a112,112,0,0,1,3.69-16.47s1.94,2.14,11.92.73"/><path class="cls-18" d="M412.35,359.08s-3.14-1-6.48,6l1.25.74a53.61,53.61,0,0,1,5.23-6.78"/><polygon class="cls-14" points="387.82 396.84 401.33 388.98 411.04 394.58 397.52 402.44 387.82 396.84"/><path class="cls-13" d="M399.62,389.55a6.11,6.11,0,0,0-2.4.78,5.27,5.27,0,0,1-.86.63c-.13.07-.26.16-.4.22a1.23,1.23,0,0,0-.54.36,1.36,1.36,0,0,0-.24.74,3.94,3.94,0,0,0,0,1c.12.49.62.46.89.12a1.2,1.2,0,0,0,.23-.59,1.28,1.28,0,0,1,.57-1l3.22-2a.39.39,0,0,0-.42-.19"/><path class="cls-13" d="M425.31,365.33c-.44-1.84-1.88-1.25-3.12-2.33-2.9,4.07-1,15.08-.58,16.25l-11,7h0l-.74.47a13.43,13.43,0,0,1-4.11,1.78c-1.1.13-1.67,1.68-2.85,1.82a.47.47,0,0,0-.45.47.48.48,0,0,0,.15.32c.47.45,1.73.08,2.59-1v.08a1,1,0,0,0,.5.78.66.66,0,0,0,.2.06.39.39,0,0,0,.06.21.87.87,0,0,0,.66.48h0a.83.83,0,0,0,.91.58,1,1,0,0,0,.66-.3,5.8,5.8,0,0,0,2.41-1.74c.3-.38,1.35-1.27,1.79-1.67,3-1.28,12-5.12,12.37-5.67.6-.81,1.23-15.07.59-17.7"/><path class="cls-18" d="M426.32,370.28s-3.53,1.59-6.46.11l.43-5.53s0-3,2.69-3.26,4,3.1,3.34,8.72"/><path class="cls-5" d="M311.79,61.51l.28-.12c.37-.16.74-.29,1.11-.42h.07c.34-.12.67-.21,1-.31h.22a14.4,14.4,0,0,1,1.61-.35h.11c.42-.06.84-.1,1.24-.12H319a6,6,0,0,1,.85.1h.26c.33.06.66.14,1,.22h.12a7.64,7.64,0,0,1,.8.29l.27.11.7.34.25.13h0L289.55,41.8l-.11-.06-.13-.07-.71-.34-.14-.07-.11,0c-.27-.1-.55-.2-.82-.28h-.09c-.32-.08-.64-.16-1-.22h-.26c-.29,0-.57-.08-.86-.1h-1.63a9.11,9.11,0,0,0-1.24.12h-.09a14.91,14.91,0,0,0-1.61.35h-.21a10.08,10.08,0,0,0-1,.31h-.07a11.3,11.3,0,0,0-1.1.42h-.09l-.2.09c-.33.15-.68.3-1,.48-.12.06-.24.1-.36.17-.44.21-.87.45-1.31.71l33.75,19.61c.43-.26.87-.5,1.3-.71l.36-.17c.35-.18.69-.33,1-.48"/><path class="cls-5" d="M292.08,54.27c.56-.26,1.12-.49,1.66-.68h.08a14.46,14.46,0,0,1,1.43-.4c.28-.07.55-.13.82-.17s.64-.12,1-.16l.58-.06h1.53a9.82,9.82,0,0,1,1.43.19l.35.07c.36.09.72.19,1.07.31l.33.12a8.71,8.71,0,0,1,1.27.61L270,34.43l-.11-.06c-.31-.17-.64-.33-1-.47l-.19-.07-.33-.11-.5-.19-.58-.11-.35-.08h-.18a11.7,11.7,0,0,0-1.17-.15h-1.66l-.58.07h-.53l-.49.11a7.78,7.78,0,0,0-.81.17l-.43.09a9.17,9.17,0,0,0-1,.31H260c-.38.13-.77.28-1.17.44l-.5.23-.47.22a19,19,0,0,0-1.79.92c-.6.35-1.45.89-2.17,1.41l33.75,19.6c.71-.5,1.43-1,2.17-1.4a15.36,15.36,0,0,1,1.78-.92l.48-.21"/><path class="cls-5" d="M260.2,44.7l.51-.22c.51-.2,1-.4,1.51-.57l.28-.11c.59-.19,1.17-.38,1.75-.53.33-.1.67-.18,1-.25l.49-.12c.48-.11,1-.18,1.41-.26h.08c.46-.07,1-.12,1.37-.17h1.24q.94,0,1.89,0H272a9.36,9.36,0,0,1,1.47.18l.46.08a16.29,16.29,0,0,1,1.65.37h.06a15.5,15.5,0,0,1,1.49.53l.41.17c.42.19.82.38,1.21.59l.39.21h0L245.44,25l-.18-.1-.21-.11c-.39-.21-.8-.4-1.21-.59l-.21-.1-.19-.07a13.7,13.7,0,0,0-1.48-.52h-.05a13.53,13.53,0,0,0-1.67-.4h-.45c-.49-.08-1-.14-1.48-.18H238c-.64,0-1.29,0-1.93,0h-1.23c-.45.05-.91.1-1.37.17h-.07c-.46.07-1,.15-1.4.26a2.23,2.23,0,0,0-.51.12c-.16,0-.6.13-.9.22h-.09c-.59.15-1.17.34-1.76.53l-.28.11c-.49.17-1,.37-1.5.57l-.17.06c-.11,0-.23.11-.34.15-.54.24-1.07.48-1.61.74l-.59.29c-.7.35-1.4.72-2.1,1.12-1,.56-1.93,1.16-2.84,1.79-.33.22-.64.47-1,.7-.6.43-1.21.86-1.81,1.31a13.66,13.66,0,0,0-1.1,1c-.53.43-1.07.85-1.59,1.31s-.75.71-1.14,1.06l-1.47,1.37-.06.06c-.73.73-1.44,1.47-2.15,2.24l-.59.65c-.27.3-.54.59-.81.9s-.35.42-.52.64c-.51.6-1,1.2-1.49,1.81-.2.25-.41.48-.61.74s-.29.39-.43.59c-.37.47-.72,1-1.08,1.45-.22.31-.45.6-.66.91s-.3.45-.45.66c-.29.42-.58.86-.86,1.3s-.41.58-.6.88l-.53.86-.73,1.2-.43.71c-.24.41-.45.81-.69,1.22l-.61,1.1-.24.44c-.33.62-.64,1.25-1,1.88l-.38.76-.07.15c-.46,1-.89,1.88-1.3,2.83l-.06.15c-.12.26-.21.53-.33.8-.27.66-.55,1.31-.8,1.94-.06.13-.1.26-.15.39-.16.43-.31.87-.46,1.29l-.51,1.4c-.06.19-.1.38-.16.56-.18.53-.33,1.07-.5,1.6s-.25.78-.36,1.18c0,.18-.08.37-.13.56-.19.7-.35,1.39-.51,2.09-.09.36-.2.73-.28,1.09l-.18.9c-.34.2-.69.37-1,.57-.73.43-1.45.89-2.17,1.37l-.37.24c-.68.47-1.36,1-2,1.47l-.39.31c-.68.54-1.34,1.08-2,1.66l-.18.16c-.64.56-1.26,1.15-1.88,1.75l-.19.17-.12.13c-.47.46-1,1-1.4,1.43l-.07.08-1.3,1.44-.11.13-.16.18c-.69.81-1.37,1.63-2,2.48l-.06.06-.15.21q-.78,1-1.53,2.07l-.15.21-.07.11c-.49.68-1,1.38-1.4,2.07l-.13.21a3.21,3.21,0,0,0-.19.31c-.36.57-.72,1.15-1.07,1.74a2.46,2.46,0,0,1-.17.27l-.05.11c-.4.68-.78,1.36-1.15,2l-.08.17-.18.34q-.43.83-.84,1.65l-.18.35a1.89,1.89,0,0,1-.09.21c-.33.7-.66,1.4-1,2.12v.06l-.09.23c-.28.64-.54,1.28-.79,1.94l-.13.32a.86.86,0,0,1-.1.26c-.29.75-.56,1.52-.82,2.28h0l-.05.14c-.26.79-.49,1.59-.73,2.37,0,.1-.05.2-.08.3v.17c-.25.91-.48,1.83-.68,2.75l-.06.24a2.09,2.09,0,0,1-.07.36c-.07.36-.14.73-.2,1.09s-.1.49-.14.74-.11.74-.17,1.12a3.28,3.28,0,0,1-.08.52.29.29,0,0,1,0,.13c-.09.79-.17,1.58-.23,2.36v.5c0,.81-.08,1.61-.08,2.4,0,6,1.47,10.73,4,14.05a13.91,13.91,0,0,0,4,3.63l33.75,19.6c-4.94-2.91-8-9-8-17.67,0-.79,0-1.59.08-2.4v-.49c.05-.79.13-1.58.23-2.37l.09-.65c.05-.38.1-.75.17-1.12s.09-.49.13-.75.13-.72.21-1.08a4.25,4.25,0,0,1,.12-.6c.21-.91.43-1.83.68-2.75a2.06,2.06,0,0,1,.13-.47c.23-.79.46-1.59.73-2.37l0-.18c.26-.77.54-1.53.83-2.29a5.77,5.77,0,0,1,.22-.58c.25-.64.51-1.29.78-1.94,0-.1.09-.19.13-.29.31-.72.64-1.42,1-2.12l.27-.56c.27-.54.55-1.1.84-1.65l.27-.51c.36-.68.74-1.37,1.14-2l.23-.39c.34-.59.7-1.17,1.07-1.75l.32-.51c.44-.69.91-1.39,1.39-2.08l.21-.3c.51-.71,1-1.4,1.55-2.08l.2-.27c.66-.85,1.34-1.67,2-2.47l.27-.32c.43-.49.87-1,1.3-1.43l.07-.08c.47-.49,1-1,1.41-1.44l.31-.3c.62-.6,1.25-1.19,1.88-1.75l.17-.16c.65-.57,1.31-1.12,2-1.65l.38-.31c.67-.52,1.35-1,2-1.48l.36-.24c.71-.47,1.44-1,2.17-1.36l1-.58c.14-.66.3-1.32.46-2s.33-1.39.51-2.09.32-1.16.5-1.74.32-1.07.49-1.6.44-1.3.67-1.94c.15-.43.3-.87.46-1.29.3-.8.62-1.58,1-2.37.12-.27.22-.55.33-.81.46-1.06,1-2.1,1.44-3.13l.38-.76c.38-.77.78-1.55,1.19-2.31l.62-1.11c.37-.64.73-1.29,1.11-1.94.24-.4.48-.81.74-1.21.36-.59.73-1.17,1.12-1.74s.57-.87.86-1.3a17.78,17.78,0,0,1,1-1.48c.4-.49.71-1,1.07-1.46s.69-.89,1-1.32c.49-.61,1-1.21,1.49-1.81s.88-1,1.34-1.54c.19-.23.39-.44.59-.65.72-.79,1.45-1.56,2.21-2.3.48-.47,1-1,1.48-1.38s.74-.71,1.13-1l1.59-1.34c.37-.3.73-.61,1.1-.9.59-.45,1.2-.88,1.81-1.32l1-.69c1-.63,1.94-1.24,2.85-1.79.7-.4,1.39-.77,2.09-1.12l.59-.29c.54-.26,1.08-.51,1.61-.73"/><path class="cls-3" d="M255.91,46.84c15.26-8.8,28.1-4.19,31.78,10,.7-.5,1.42-1,2.17-1.4,9.62-5.55,17.61-2.13,19.23,7.5,11.08-6.42,19.8-1.39,19.8,10.95,0,11.45-7.43,25.19-17.09,32.11-.79.57-1.55,1.07-2.32,1.52s-1.47.79-2.23,1.13L223.4,157.17c-15.22,8.79-27.59,1.74-27.64-15.76S208,102.66,223.22,93.85c.36-.21.7-.38,1.05-.58,3.6-18.28,16.37-37.63,31.6-46.43"/><path class="cls-13" d="M362.06,117.63a37.89,37.89,0,0,1-5.51,7.51c-.6.69-5.18-1.06-4.22-1.55s4-4.68,5.46-7.47a91.35,91.35,0,0,0,3.21-10.2c1-3.41,1.75-8.41,2.44-10.78A4.64,4.64,0,0,1,367,91.55c1.65-.38,2.71.06,2.41,2.06-.52,3.51-3.26,17.12-7.31,24"/><path class="cls-15" d="M364.68,171c-1.41,1.17-3.51.11-3.61.22a66.3,66.3,0,0,1-5.25,4.36c-.88.69-2.27,1.63-2,3,.45,2.39,4.29,1.66,5.73.92s2.62-1.94,4-2.79c1-.61,1.94-.92,2.08-2.16.1-.74-.67-3.55-1-3.52"/><path class="cls-16" d="M365.59,174c-.18,1.18-1.13,1.51-2.1,2.11-1.38.86-2.61,2.11-4.06,2.84s-4.67,1.35-5.61-.36c.52,2.31,4.27,1.58,5.71.85s2.62-1.93,4-2.79c1-.61,1.94-.92,2.08-2.16a1.35,1.35,0,0,0,0-.49"/><path class="cls-15" d="M350.28,162.64c-1.43,1.16-3.88-.1-4,0a53.6,53.6,0,0,1-4.68,4.24c-.9.69-2.27,1.62-2,3,.46,2.4,4.28,1.67,5.74,1a44.8,44.8,0,0,0,4-2.8c1-.6,1.94-.92,2.09-2.15.09-.75-.84-3.21-1.09-3.18"/><path class="cls-16" d="M351.33,165.49c-.19,1.18-1.14,1.51-2.11,2.11-1.39.86-2.62,2.11-4.06,2.84s-4.67,1.35-5.61-.36c.51,2.31,4.28,1.58,5.71.87s2.62-1.94,4-2.8c1-.62,1.94-.93,2.08-2.16a2.09,2.09,0,0,0,0-.5"/><path class="cls-19" d="M383.69,125.39c1.58,9.84-2.8,13.51-8.48,15.61-4.07,1.5-9.93,3.82-9.93,3.82s.09,2.16.13,7c0,4.27-.52,19.85-.52,19.85a4.71,4.71,0,0,1-4.35,0s-2.29-11.93-2.77-17.31c-.66-7.31-1.79-12.08-1.41-13.65.32-1.39,8.3-5.31,10.84-7.41l-16.72,5.6a29.76,29.76,0,0,1,.48,5.5c-.15,5.81-.47,18.33-.47,18.33s-2.3,1.66-4.25,0c0,0-4.21-24.82-3.7-28.1.49-3.12,15.23-9.48,17.81-11.68a4.13,4.13,0,0,1,3.28-.88Z"/><path class="cls-14" d="M343.6,129.5,354.83,123a.63.63,0,0,1,.65,0l19.71,11.38-11.56,6.67Z"/><path class="cls-12" d="M364.15,138.67l.86.5c.07,0,.06.11,0,.15l-.82.48a.32.32,0,0,1-.27,0l-.85-.5c-.07,0-.06-.1,0-.15l.81-.48a.32.32,0,0,1,.27,0"/><path class="cls-12" d="M362.94,138l.86.5c.07,0,.06.11,0,.15l-.82.48a.32.32,0,0,1-.27,0l-.86-.5c-.06,0-.06-.1,0-.15l.82-.48a.32.32,0,0,1,.27,0"/><path class="cls-12" d="M361.72,137.27l.85.49c.07,0,.06.11,0,.16l-.81.47a.32.32,0,0,1-.27,0l-.87-.49c-.06,0-.05-.12,0-.16l.83-.47a.26.26,0,0,1,.27,0"/><path class="cls-12" d="M360.52,136.57l.85.49c.08,0,.07.12,0,.17l-.81.46a.28.28,0,0,1-.28,0l-.86-.49c-.07,0-.06-.11,0-.16l.82-.46a.32.32,0,0,1,.27,0"/><path class="cls-12" d="M359.31,135.87l.85.5c.07,0,.07.11,0,.15l-.82.48a.32.32,0,0,1-.27,0l-.86-.5c-.07,0-.06-.1,0-.15l.82-.48a.34.34,0,0,1,.28,0"/><path class="cls-12" d="M358.09,135.15l.86.49c.07,0,.06.11,0,.15l-.82.48a.32.32,0,0,1-.27,0l-.86-.49c-.07,0-.06-.11,0-.16l.82-.47a.26.26,0,0,1,.27,0"/><path class="cls-12" d="M356.88,134.48l.86.49c.06,0,.05.11,0,.16l-.82.47a.34.34,0,0,1-.28,0l-.85-.49c-.07,0-.06-.12,0-.16l.82-.47a.26.26,0,0,1,.27,0"/><path class="cls-12" d="M355.67,133.77l.86.49c.06,0,.05.12,0,.17l-.82.46a.28.28,0,0,1-.28,0l-.85-.49c-.07,0-.06-.11,0-.16l.81-.46a.34.34,0,0,1,.28,0"/><path class="cls-12" d="M354.45,133.07l.86.5c.07,0,.06.11,0,.15l-.82.48a.32.32,0,0,1-.27,0l-.85-.5c-.07,0-.06-.1,0-.15l.81-.48a.32.32,0,0,1,.27,0"/><path class="cls-12" d="M353.24,132.37l.86.5c.07,0,.06.11,0,.15l-.82.48a.32.32,0,0,1-.27,0l-.85-.5c-.07,0-.07-.1,0-.15l.81-.48a.32.32,0,0,1,.27,0"/><path class="cls-12" d="M352,131.68l.86.49c.07,0,.06.11,0,.16l-.81.47a.32.32,0,0,1-.27,0l-.86-.49c-.07,0-.06-.12,0-.16l.82-.47a.26.26,0,0,1,.27,0"/><path class="cls-12" d="M350.82,131l.85.49c.08,0,.07.12,0,.17l-.81.46a.26.26,0,0,1-.27,0l-.87-.49c-.06,0-.05-.12,0-.16l.82-.47a.32.32,0,0,1,.27,0"/><path class="cls-12" d="M349.61,130.3l.85.5c.07,0,.07.11,0,.15l-.81.48a.34.34,0,0,1-.28,0l-.86-.5c-.07,0-.06-.11,0-.15l.83-.48a.32.32,0,0,1,.27,0"/><path class="cls-12" d="M347.82,129.24l1.43.83c.07,0,.07.11,0,.15l-.81.48a.34.34,0,0,1-.28,0l-1.44-.83c-.07,0-.06-.11,0-.16l.81-.47a.3.3,0,0,1,.29,0"/><path class="cls-12" d="M363.53,137l.85.49c.08,0,.07.11,0,.16l-.81.47a.32.32,0,0,1-.27,0l-.86-.49c-.07,0-.06-.11,0-.16l.81-.47a.26.26,0,0,1,.27,0"/><path class="cls-12" d="M362.32,136.25l.85.49c.07,0,.06.12,0,.17l-.81.46a.26.26,0,0,1-.27,0l-.87-.49c-.06,0-.05-.12,0-.16l.83-.47a.32.32,0,0,1,.27,0"/><path class="cls-12" d="M361.1,135.55l.86.5c.07,0,.06.11,0,.15l-.82.48a.32.32,0,0,1-.27,0l-.86-.5c-.06,0-.06-.1,0-.15l.82-.48a.32.32,0,0,1,.27,0"/><path class="cls-12" d="M359.9,134.86l.85.49c.08,0,.07.11,0,.15l-.81.48a.34.34,0,0,1-.28,0l-.85-.5c-.08,0-.07-.11,0-.15l.82-.47a.26.26,0,0,1,.27,0"/><path class="cls-12" d="M358.69,134.18l.85.49c.07,0,.06.12,0,.16l-.82.47a.32.32,0,0,1-.27,0l-.86-.49c-.07,0-.06-.11,0-.16l.82-.47a.28.28,0,0,1,.28,0"/><path class="cls-12" d="M357.46,133.46l.87.49c.07,0,.06.11,0,.16l-.83.47a.32.32,0,0,1-.27,0l-.85-.49c-.07,0-.06-.12,0-.16l.81-.47a.26.26,0,0,1,.27,0"/><path class="cls-12" d="M356.25,132.75l.86.5c.07,0,.06.11,0,.16l-.82.47a.26.26,0,0,1-.27,0l-.85-.5c-.08,0-.07-.1,0-.15l.81-.48a.32.32,0,0,1,.27,0"/><path class="cls-12" d="M355.05,132.06l.86.49c.06,0,0,.11,0,.15l-.86.51a.32.32,0,0,1-.27,0l-.86-.5c-.07,0-.06-.1,0-.15l.82-.48a.32.32,0,0,1,.27,0"/><path class="cls-12" d="M353.82,131.36l.86.49c.07,0,.06.11,0,.16l-.82.47a.32.32,0,0,1-.27,0l-.85-.49c-.07,0-.06-.12,0-.17l.81-.46a.26.26,0,0,1,.27,0"/><path class="cls-12" d="M352.61,130.65l.85.49c.08,0,.07.12,0,.16l-.81.47a.26.26,0,0,1-.27,0l-.86-.49c-.07,0-.06-.11,0-.15l.81-.48a.32.32,0,0,1,.27,0"/><path class="cls-12" d="M351.4,130l.85.5c.07,0,.06.1,0,.15l-.81.48a.32.32,0,0,1-.27,0l-.86-.5c-.07,0-.06-.11,0-.15l.82-.48a.32.32,0,0,1,.27,0"/><path class="cls-12" d="M350.21,129.25l.86.49c.07,0,.06.12,0,.16l-.82.47a.32.32,0,0,1-.27,0l-.86-.49c-.06,0-.06-.12,0-.17l.82-.46a.26.26,0,0,1,.27,0"/><path class="cls-12" d="M364.74,137.66l1.44.83c.07,0,.06.11,0,.15l-.81.48a.32.32,0,0,1-.27,0l-1.44-.84c-.07,0-.06-.1,0-.15l.81-.47a.32.32,0,0,1,.27,0"/><path class="cls-12" d="M347.87,129.2l.86.49a.28.28,0,0,0,.25,0l.86-.5c.08,0,.08-.11,0-.15h-.07a.07.07,0,0,1,0-.1s0,0,0,0l.92-.54a.08.08,0,0,0,.05-.1.1.1,0,0,0-.05,0l-.54-.31a.3.3,0,0,0-.26,0l-.85.49-.18.1-.12.08-.13.07-.74.42c-.07,0-.07.11,0,.16"/><path class="cls-12" d="M368.85,136l.85.49c.08,0,.07.11,0,.16l-.81.47a.32.32,0,0,1-.27,0l-.87-.49c-.06,0-.05-.12,0-.16l.82-.47a.26.26,0,0,1,.27,0"/><path class="cls-12" d="M367.65,135.26l.86.5c.07,0,.06.1,0,.15l-.82.48a.42.42,0,0,1-.27,0l-.86-.5c-.07,0-.07-.11,0-.15l.82-.48a.26.26,0,0,1,.27,0"/><path class="cls-12" d="M366.43,134.56l.86.5c.07,0,.06.11,0,.15l-.81.48a.37.37,0,0,1-.29,0l-.85-.5c-.07,0-.06-.11,0-.15l.82-.48a.32.32,0,0,1,.27,0"/><path class="cls-12" d="M356.14,128.62l.85.49c.08,0,.07.12,0,.15l-.81.48a.32.32,0,0,1-.27,0l-.87-.49c-.07,0-.06-.11,0-.16l.83-.47a.26.26,0,0,1,.27,0"/><path class="cls-12" d="M354.93,127.92l.86.49c.07,0,.06.12,0,.16L355,129a.28.28,0,0,1-.28,0l-.85-.49c-.08,0-.07-.11,0-.16l.82-.47a.26.26,0,0,1,.27,0"/><path class="cls-12" d="M353.72,127.22l.86.49c.07,0,.06.12,0,.16l-.83.47a.26.26,0,0,1-.27,0l-.85-.49c-.07,0-.06-.11,0-.15l.81-.48a.34.34,0,0,1,.28,0"/><path class="cls-12" d="M352.51,126.52l.86.5c.06,0,.05.11,0,.15l-.82.48a.34.34,0,0,1-.28,0l-.85-.5c-.07,0-.06-.1,0-.15l.82-.48a.32.32,0,0,1,.27,0"/><path class="cls-12" d="M364.92,133.68l1.16.68c.07,0,.06.11,0,.16l-.82.47a.32.32,0,0,1-.27,0l-1.17-.68c-.07,0-.06-.1,0-.15l.81-.48a.37.37,0,0,1,.29,0"/><path class="cls-12" d="M357.35,129.33l1.16.68c.07,0,.07.11,0,.16l-.81.47a.32.32,0,0,1-.27,0l-1.18-.68c-.06,0-.05-.1,0-.15l.83-.48a.32.32,0,0,1,.27,0"/><path class="cls-12" d="M358.87,130.19l5.69,3.29c.06,0,.06.11,0,.15l-.82.48a.32.32,0,0,1-.27,0l-5.7-3.29c-.06,0,0-.11,0-.15l.82-.48a.34.34,0,0,1,.28,0"/><path class="cls-12" d="M364.37,136.11l.87.5c.06,0,.05.12,0,.15l-.83.48a.26.26,0,0,1-.27,0l-.85-.5c-.07,0-.07-.1,0-.15l.81-.48a.42.42,0,0,1,.27,0"/><path class="cls-12" d="M363.16,135.39l.86.49c.07,0,.06.12,0,.16l-.82.47a.26.26,0,0,1-.27,0l-.85-.49c-.07,0-.07-.11,0-.16l.81-.47a.26.26,0,0,1,.27,0"/><path class="cls-12" d="M362,134.69l.86.49c.07,0,.06.11,0,.16l-.82.47a.26.26,0,0,1-.27,0l-.85-.49c-.07,0-.07-.11,0-.15l.81-.48a.32.32,0,0,1,.27,0"/><path class="cls-12" d="M360.74,134l.86.5c.07,0,.06.1,0,.15l-.82.48a.32.32,0,0,1-.27,0l-.86-.5c-.06,0-.06-.11,0-.15l.82-.48a.32.32,0,0,1,.27,0"/><path class="cls-12" d="M359.53,133.3l.86.49c.07,0,.06.11,0,.15l-.82.48a.32.32,0,0,1-.27,0l-.86-.49c-.06,0-.05-.12,0-.17l.82-.46a.26.26,0,0,1,.27,0"/><path class="cls-12" d="M358.32,132.59l.86.49c.07,0,.06.12,0,.17l-.82.46a.26.26,0,0,1-.27,0l-.86-.49c-.07,0-.06-.12,0-.17l.82-.46a.26.26,0,0,1,.27,0"/><path class="cls-12" d="M357.11,131.89l.86.49c.07,0,.06.12,0,.16l-.82.47a.28.28,0,0,1-.28,0l-.85-.49c-.07,0-.06-.11,0-.15l.82-.48a.32.32,0,0,1,.27,0"/><path class="cls-12" d="M355.9,131.19l.86.5c.07,0,.06.11,0,.15l-.83.48a.32.32,0,0,1-.27,0l-.85-.5c-.07,0-.06-.1,0-.15l.81-.48a.34.34,0,0,1,.28,0"/><path class="cls-12" d="M354.68,130.5l.87.49c.06,0,.05.11,0,.15l-.83.48a.32.32,0,0,1-.27,0l-.85-.49c-.07,0-.06-.11,0-.16l.81-.47a.26.26,0,0,1,.27,0"/><path class="cls-12" d="M353.48,129.8l.86.49c.06,0,.05.11,0,.16l-.83.47a.32.32,0,0,1-.27,0l-.85-.49c-.07,0-.06-.12,0-.16l.81-.47a.28.28,0,0,1,.28,0"/><path class="cls-12" d="M352.27,129.1l.85.49c.07,0,.06.11,0,.16l-.82.47a.32.32,0,0,1-.27,0l-.85-.49c-.07,0-.06-.12,0-.16l.81-.47a.28.28,0,0,1,.28,0"/><path class="cls-12" d="M351.06,128.36l.85.5c.07,0,.06.11,0,.16l-.81.47a.34.34,0,0,1-.28,0L350,129c-.07,0-.06-.11,0-.16l.81-.47a.34.34,0,0,1,.28,0"/><path class="cls-12" d="M365.58,136.78l1.78,1c.06,0,.06.11,0,.16l-.82.47a.32.32,0,0,1-.27,0l-1.77-1c-.08,0-.07-.1,0-.15l.81-.47a.32.32,0,0,1,.27,0"/><path class="cls-12" d="M366.16,135.76l.85.49c.07,0,.06.11,0,.16l-.82.47a.32.32,0,0,1-.27,0l-.86-.49c-.07,0-.06-.11,0-.16l.82-.47a.28.28,0,0,1,.28,0"/><path class="cls-12" d="M364.94,135.06l.86.49c.07,0,.06.11,0,.16l-.82.47a.26.26,0,0,1-.27,0l-.86-.49c-.07,0-.06-.12,0-.16l.82-.47a.32.32,0,0,1,.27,0"/><path class="cls-12" d="M363.77,134.36l.85.5c.07,0,.06.1,0,.15l-.81.47a.28.28,0,0,1-.28,0l-.85-.49c-.07,0-.06-.12,0-.15l.82-.48a.32.32,0,0,1,.27,0"/><path class="cls-12" d="M362.52,133.66l.86.5c.06,0,.05.1,0,.15l-.82.48a.32.32,0,0,1-.27,0l-.86-.5c-.07,0-.06-.11,0-.16l.82-.47a.26.26,0,0,1,.27,0"/><path class="cls-12" d="M361.31,133l.85.49c.07,0,.06.12,0,.16l-.81.47a.32.32,0,0,1-.27,0l-.86-.49c-.07,0-.06-.12,0-.17L361,133a.26.26,0,0,1,.27,0"/><path class="cls-12" d="M360.1,132.24l.85.49c.07,0,.06.12,0,.17l-.81.46a.26.26,0,0,1-.27,0l-.86-.49c-.07,0-.06-.11,0-.16l.82-.47a.32.32,0,0,1,.27,0"/><path class="cls-12" d="M358.93,131.56l.85.5c.07,0,.06.11,0,.15l-.81.47a.26.26,0,0,1-.27,0l-.87-.49c-.06,0-.06-.11,0-.15l.83-.48a.32.32,0,0,1,.27,0"/><path class="cls-12" d="M357.68,130.86l.85.5c.08,0,.06.1,0,.15l-.81.48a.32.32,0,0,1-.27,0l-.87-.5c-.06,0-.05-.1,0-.15l.83-.48a.32.32,0,0,1,.27,0"/><path class="cls-12" d="M356.47,130.17l.85.49c.08,0,.07.11,0,.15l-.81.48a.34.34,0,0,1-.28,0l-.86-.49c-.07,0-.06-.12,0-.16l.83-.47a.26.26,0,0,1,.27,0"/><path class="cls-12" d="M355.26,129.47l.85.49c.08,0,.07.11,0,.16l-.82.47a.32.32,0,0,1-.27,0l-.86-.49c-.07,0-.06-.12,0-.16l.82-.47a.28.28,0,0,1,.28,0"/><path class="cls-12" d="M354.08,128.77l.86.49c.07,0,.06.11,0,.16l-.82.47a.32.32,0,0,1-.27,0l-.86-.49c-.07,0-.06-.12,0-.16l.82-.47a.26.26,0,0,1,.27,0"/><path class="cls-12" d="M351.33,127.2l2.36,1.36c.07,0,.06.11,0,.16l-.82.47a.26.26,0,0,1-.27,0l-2.35-1.36c-.07,0-.06-.11,0-.15l.81-.48a.32.32,0,0,1,.27,0"/><path class="cls-12" d="M367.37,136.45l1.16.68c.07,0,.06.11,0,.16l-.81.47a.34.34,0,0,1-.28,0l-1.17-.68c-.07,0-.06-.1,0-.15l.83-.48a.32.32,0,0,1,.27,0"/><path class="cls-12" d="M346.59,129.94l17.18,9.92c.07,0,.06.12,0,.17l-.4.23a.37.37,0,0,1-.29,0l-17.18-10c-.08,0-.07-.11,0-.15l.4-.24a.32.32,0,0,1,.27,0"/><polygon class="cls-20" points="366.71 130.38 366.59 130.45 363.63 132.16 358.35 129.11 358.23 129.05 361.32 127.27 366.71 130.38"/><polygon class="cls-21" points="366.59 130.45 363.63 132.16 358.35 129.11 361.32 127.39 366.59 130.45"/><path class="cls-21" d="M375.19,134.39v.26a1.08,1.08,0,0,1-.55,1l-10.47,6a1.09,1.09,0,0,1-1.08,0l-18.95-10.94a1.09,1.09,0,0,1-.54-1v-.26l20,11.56Z"/><path class="cls-14" d="M363.33,141.22a1.28,1.28,0,0,1-1.11-.09l-18.86-10.89a1.25,1.25,0,0,1-.63-.9L340.66,117v-.22a1.36,1.36,0,0,1,.38-.91l19.61,11.33a.94.94,0,0,1,.47.66Z"/><path class="cls-21" d="M363.63,141.06l-.13.07-.17.09-2.23-13.33a.94.94,0,0,0-.47-.66L341,115.9a1.57,1.57,0,0,1,.26-.19l19.65,11.34a.94.94,0,0,1,.47.66Z"/><path class="cls-13" d="M377.87,88.35s-.24,4.69-.14,5.11,2.15,1.78,2.76,2.27-3.25,4.28-5.11,5.14-7.75-1.41-7.89-4.3,1-5.34,1.94-5.48,8.46-2.74,8.46-2.74"/><path class="cls-14" d="M378.39,94.26s-3.4,5.07-8.14,5.54c-1.5-1.47-1.63-6.72.44-8.4,0,0-1.94-1.53-3.21-1.23a6.66,6.66,0,0,0-2.9,3.73,30.57,30.57,0,0,0-1.68,10.85c.08,5,0,17.55,0,17.55a10.75,10.75,0,0,0,5,7.2,15.55,15.55,0,0,0,11.26,1.55c2.4-.56,3.29-1.94,4.12-3.66-.22-3.47-1.59-10.65-1-15s1.5-7.66,1.74-11.2-.46-3.47-2.24-4.74a28.23,28.23,0,0,0-3.36-2.16"/><path class="cls-13" d="M372.94,134.65a25.84,25.84,0,0,1,2.66-1.53,5.71,5.71,0,0,0,2.29-1.37c.83-.83,2.2-3.88,3.17-6.92a31.1,31.1,0,0,0,1.12-10.47c-.42-4.23-1.94-10.14-2.32-12.59s.39-3.4,1.53-4.3c1.32-1,3.15-.58,4.13,2.82a65.9,65.9,0,0,1,2.22,14.51,33,33,0,0,1-1.68,10.66,38.42,38.42,0,0,1-4.07,8.38c-.47.78-.61,1.48-1.33,3.09a10.85,10.85,0,0,1-3.11,4.14c-1.19.85-1.75,1-2,.81s-.28-.59.23-1a8.89,8.89,0,0,0,2.12-2.37s-1.05,1-1.73,1.61a8.57,8.57,0,0,1-2,1.27c-.7.31-1.67-.28-1.17-.75s1-.71,2-1.56a8.6,8.6,0,0,0,1.41-1.54,15.72,15.72,0,0,1-2.21,1.43,3.7,3.7,0,0,1-2,.55c-.37,0-.81-.53-.12-1a13.24,13.24,0,0,0,2.64-1.8c.76-.76,1.19-1.4,1-1.41s-.63.46-1.52.74-1.85,0-1.94-.46-.09-.4.75-.81"/><path class="cls-13" d="M367.27,81.36h0c.55-3.64,3.18-6.39,6.93-6.19A7.24,7.24,0,0,1,381,82.81a7.14,7.14,0,0,1-3.15,5.54,7.05,7.05,0,0,1-.58,1.59c-1.33,1.55-5.34,2.51-6.49,2.34a3.43,3.43,0,0,1-3-2.44c-1.25-2.86-.85-6.68-.54-8.48"/><path class="cls-12" d="M377.87,88.35h0l-.34-3.18s2.59-6.71-3.54-5.42c-4,.85-5.05,1.22-6.28-1.5s3.11-5.15,8.26-4.47A7.13,7.13,0,0,1,382.35,81c-.14,2-.67,6-4.48,7.34"/><path class="cls-18" d="M388.36,106.56s-3.34,3.34-7.3,2.38c-.57-.39-1.94-8.16-1.94-8.16s0-4.31,3.3-4.19,5.92,10,5.92,10"/><path class="cls-18" d="M363.11,100.12A3.67,3.67,0,0,1,360.64,99c.13-1.74,2.36-8.34,6.84-8.84a8.29,8.29,0,0,0-2.8,3.38,44.86,44.86,0,0,0-1.57,6.57"/><g class="cls-8"><g class="cls-22"><path class="cls-10" d="M345.36,503c2.4,5.23,12.7,5.62,23,.9s16.72-12.8,14.33-18-12.69-5.62-23-.89-16.74,12.8-14.34,18"/></g></g><path class="cls-13" d="M380.45,409.48s-.64,9.62-1.94,11-5.53,2.33-5.53,2.33l-3.3,5.41s3-17.2,3.66-17.62,7.07-1.13,7.07-1.13"/><path class="cls-18" d="M374.12,398.79a3.62,3.62,0,0,1,4.58,1.39c1.21,2,2.46,8.88,2.58,10.05,0,0-1.7,2.35-4.24,1.94Z"/><path class="cls-15" d="M364.38,494.83a7,7,0,0,1-5.33-.64c-1.28,0-8.23-2.91-9.18-.44-.83,2.19,2.18,4.22,3.8,4.61,3.5.86,6.11,2.6,7.53,2.91,1,.22,2.41.37,3.24-.46s.92-4.67-.06-6"/><path class="cls-16" d="M361.2,500.65c-1.42-.29-4-2-7.53-2.91-1.36-.33-3.68-1.8-3.88-3.56-.31,2,2.41,3.8,3.88,4.16,3.5.86,6.11,2.61,7.53,2.91,1,.22,2.41.37,3.24-.46a2.12,2.12,0,0,0,.47-.84,4.19,4.19,0,0,1-3.71.69"/><path class="cls-15" d="M375.21,491.45a7,7,0,0,1-5.31-.64c-1.29,0-8.25-2.91-9.2-.44-.82,2.19,2.19,4.21,3.8,4.61,3.52.85,6.11,2.61,7.53,2.91,1.05.22,2.41.37,3.25-.46s.92-4.66-.07-6"/><path class="cls-16" d="M372,497.28c-1.42-.3-4-2.06-7.53-2.91-1.35-.33-3.67-1.8-3.88-3.56-.32,2,2.41,3.8,3.88,4.17,3.52.85,6.11,2.61,7.53,2.91,1.05.22,2.41.37,3.25-.46a2,2,0,0,0,.46-.84,4.22,4.22,0,0,1-3.71.7"/><path class="cls-19" d="M376,471.88a42.35,42.35,0,0,0-1.61-7.62s.48-6.58.72-12.82c.27-7.07,2.72-13.3.78-18.95l-21.54,4.84s1,28.28,1.32,31.7a64.14,64.14,0,0,0,1,7.92c1,5.47,2.08,17.73,2.08,17.73,2.32,1.35,5.7.24,5.7.24s0-15.34-.13-19.29c-.19-4.84-.33-4.45-.33-4.45l.72-12,.47-6s.61,4.38,1,8.3c.35,3.41,1.17,6.5,2.09,12.85.79,5.52,1.62,16.75,1.62,16.75,2.31,1.34,5.41.41,5.41.41s1.34-14.8.72-19.58"/><path class="cls-13" d="M373,398.92c-1.67.08-2.91.5-3.11,0a20.77,20.77,0,0,1-.38-2.61c.18-.47.35-1,.35-1,2.09-1.29,2.75-3.54,3-6.17.48-4.49-1.94-8.43-6.44-8.89-4.23-.44-7.34,2.53-8.17,6.61-.45,2-1.33,5.81-.13,9.11.67,1.85,1.53,3.33,2.41,3.62a23.46,23.46,0,0,0,2.5-.23h0s.22,1.25.37,2.06.1,1.22-1.5,2.2,2.42,3,5,2.81,5.56-1.79,6.38-3.48c.9-1.88.82-4.11-.32-4.05"/><path class="cls-14" d="M370.55,399.16c.47,1.15-.7,2.56-3.82,3.54s-3.41-.28-3.41-.28a58,58,0,0,0-6.07,3.13c-1.88,1.3-2.71,5.1-3,11.5-.29,7.41-.31,18.4-.07,20.34,0,0,3.51,3.5,8,3.13s12-4.34,13.87-7.4c-.06-6.5-.82-7.56.24-11.3,2.4-8.56,3.67-12.07,2.5-17.77-1-4.69-2.32-5.27-4.17-5.23a40.13,40.13,0,0,0-4.09.39"/><path class="cls-13" d="M358.16,443.05l2.28-25.8-4.84-2.55-1.88,1.57.58,23.18h0v.64h0v.81s-.11,1.94,3.57,4.28c0,0,.06-.61.11-1.18h0l.09-1Z"/><path class="cls-18" d="M358.73,404c-2.48-.05-4.07,1.27-4.67,5.09s-1,7-1,7a6.66,6.66,0,0,0,4.42,2.2c3,.33,3.88-1.19,3.88-1.19s.31-4,.48-6.68-.07-6.32-3.15-6.38"/><path class="cls-12" d="M362.92,379.17c6.06-.86,10,3,10.41,7.26.43,4-2.06,8.24-3.87,9.9a7.23,7.23,0,0,1-5.24-.63,30.52,30.52,0,0,1-.12-3.31s3-6.22-5.73-6.12c0,0-3.88-5.9,4.53-7.1"/><path class="cls-13" d="M333.52,290.75c.23,2,2.62,10.65,2.11,13.56s-8.67,7.91-8.67,7.91l-1.13-5.07,4.52-4.39-1.22-8.39Z"/><path class="cls-18" d="M327.22,282.24a3.56,3.56,0,0,1,4.53,1.37c1.2,2,2.45,8.81,2.56,10,0,0-1.68,2.33-4.21,1.94Z"/><path class="cls-15" d="M317.9,378.49a6.94,6.94,0,0,1-5.28-.63c-1.27,0-8.17-2.91-9.11-.44-.82,2.17,2.17,4.19,3.76,4.57,3.49.85,6.06,2.58,7.47,2.91,1,.22,2.39.37,3.22-.46s.92-4.62-.06-5.92"/><path class="cls-16" d="M314.74,384.27c-1.41-.3-4-2-7.47-2.91-1.34-.33-3.64-1.79-3.88-3.53-.31,2,2.4,3.78,3.88,4.13,3.49.85,6.06,2.58,7.47,2.91,1,.22,2.39.37,3.22-.46a2.06,2.06,0,0,0,.46-.83,4.18,4.18,0,0,1-3.68.69"/><path class="cls-15" d="M329.1,373.49a7,7,0,0,1-5.28-.64c-1.28,0-8.18-2.91-9.12-.44-.82,2.18,2.17,4.19,3.77,4.57,3.49.85,6.06,2.59,7.46,2.91,1,.22,2.39.37,3.22-.46s.92-4.62,0-5.91"/><path class="cls-16" d="M325.93,379.24c-1.4-.29-4-2-7.46-2.91-1.34-.32-3.64-1.79-3.88-3.53-.31,2,2.39,3.78,3.88,4.14,3.49.84,6.06,2.58,7.46,2.9,1,.22,2.39.37,3.22-.45a2,2,0,0,0,.46-.84,4.15,4.15,0,0,1-3.68.69"/><path class="cls-17" d="M329.23,354.72a41.62,41.62,0,0,0-1.6-7.57s.48-6.52.72-12.7c.27-7,2.7-13.2.79-18.8l-21.66,4.85s1.31,28,1.6,31.37a62.8,62.8,0,0,0,1,7.85c1,5.43,2.6,18.36,2.6,18.36a8.11,8.11,0,0,0,5.29.59s-.17-16.34-.31-20.25c-.19-4.79-.33-4.42-.33-4.42l.71-11.91.48-5.91s.6,4.35,1,8.22c.34,3.39,1.15,6.45,2.06,12.75.79,5.47,2.08,16.47,2.08,16.47,2.29,1.33,5.4.22,5.4.22s.83-14.33.21-19.07"/><path class="cls-13" d="M326.06,282.35c-1.64.09-2.9.52-3.08,0a20.39,20.39,0,0,1-.37-2.57c.19-.48.35-1,.35-1,2.06-1.24,2.73-3.52,3-6.09.46-4.45-1.94-8.35-6.4-8.81-4.19-.44-7.27,2.51-8.09,6.55-.44,2-1.33,5.76-.13,9.05.66,1.83,1.52,3.28,2.38,3.57a22.84,22.84,0,0,0,2.48-.22h0s.22,1.24.38,2,.09,1.21-1.49,2.19,2.39,3,5,2.78,5.51-1.76,6.31-3.44c.89-1.88.82-4.07-.32-4"/><path class="cls-14" d="M323.68,282.61c.46,1.13-.71,2.53-3.8,3.5s-3.38-.28-3.38-.28a62.19,62.19,0,0,0-6,3.1c-1.86,1.3-2.68,5.06-2.9,11.41-.29,7.35-.32,18.25-.07,20.13,0,0,3.47,3.46,7.92,3.1s11.92-4.3,13.73-7.34c0-6.45-.79-7.49.25-11.2,2.39-8.5,3.64-12,2.49-17.63-1-4.65-2.31-5.23-4.14-5.18a39.09,39.09,0,0,0-4.05.39"/><path class="cls-13" d="M300.55,306.41c3.66,1,4.51-1.37,5-3.28,1.17-4.61,1.79-8.78,2.66-11.4,1-3.09,2.08-3.57,3.58-4.18,1.77-.7,3.28.78,2.7,4.72a79.61,79.61,0,0,1-3.35,13.4c-.45,1.44-1.47,4-3,5.22-1.88,1.52-4.72,1.46-9,.39-1.83-.46-3.88-1.55-7.31-3.16-.92-.44-1.64-.72-3.43-1.55a12.12,12.12,0,0,1-4.57-3.58c-1-1.35-1.05-2-.87-2.29s.67-.31,1.16.27a10,10,0,0,0,2.63,2.43s-1.15-1.19-1.78-1.94a10.07,10.07,0,0,1-1.38-2.26c-.33-.78.35-1.86.87-1.29s.76,1.13,1.71,2.26a10.3,10.3,0,0,0,1.68,1.62,18.4,18.4,0,0,1-1.55-2.51,4.18,4.18,0,0,1-.57-2.27c0-.4.61-.9,1.15-.11a15.47,15.47,0,0,0,1.94,3c.83.86,1.55,1.36,1.57,1.12s-.5-.71-.8-1.72,0-2.07.56-2.19.44-.09.89.85a28.53,28.53,0,0,1,1.66,3,6.06,6.06,0,0,0,1.5,2.58c.9,1,2.91,2,6.34,2.91"/><path class="cls-18" d="M313.13,286.92c-2.43-.36-4.16.74-5.23,4.44s-1.83,6.71-1.83,6.71a6.66,6.66,0,0,0,4.09,2.71c2.9.71,4-.69,4-.69s.8-3.87,1.31-6.5.72-6.23-2.3-6.67"/><path class="cls-12" d="M311.61,269.82s-3.88-5.82,4.49-7.05c6-.86,9.89,3,10.33,7.2.43,4-2,8.17-3.82,9.82a7.25,7.25,0,0,1-5.21-.63,29.87,29.87,0,0,1-.1-3.28s2.9-6.17-5.69-6.06"/><polygon class="cls-3" points="235.47 402.4 235.44 411.1 148.42 461.67 148.45 452.97 235.47 402.4"/><polygon class="cls-4" points="148.45 452.97 148.42 461.67 60.84 411.11 60.87 402.41 148.45 452.97"/><polygon class="cls-5" points="235.47 402.4 148.45 452.97 60.87 402.41 147.88 351.83 235.47 402.4"/><polygon class="cls-3" points="221.89 270.52 221.52 401.06 148.29 443.61 148.66 313.09 221.89 270.52"/><polygon class="cls-4" points="148.66 313.09 148.29 443.61 74.57 401.06 74.94 270.52 148.66 313.09"/><polygon class="cls-5" points="221.89 270.52 148.66 313.09 74.94 270.52 148.17 227.96 221.89 270.52"/><polygon class="cls-6" points="93.93 327.6 93.9 341.14 82.12 334.33 82.16 320.81 93.93 327.6"/><polygon class="cls-6" points="93.99 308.78 93.95 322.3 82.18 315.51 82.22 301.98 93.99 308.78"/><polygon class="cls-6" points="94.04 289.95 94 303.49 82.24 296.68 82.27 283.15 94.04 289.95"/><polygon class="cls-6" points="141.51 373.92 141.47 387.46 99.22 363.07 99.26 349.54 141.51 373.92"/><polygon class="cls-6" points="141.55 355.1 141.51 368.63 99.28 344.25 99.32 330.71 141.55 355.1"/><polygon class="cls-6" points="141.61 336.27 141.57 349.8 99.33 325.41 99.37 311.89 141.61 336.27"/><polygon class="cls-6" points="141.66 317.44 141.62 330.97 99.39 306.59 99.43 293.06 141.66 317.44"/><polygon class="cls-6" points="93.83 365.25 93.79 378.79 82.02 371.98 82.06 358.46 93.83 365.25"/><polygon class="cls-6" points="93.89 346.43 93.85 359.96 82.08 353.17 82.11 339.63 93.89 346.43"/><polygon class="cls-6" points="141.45 392.75 141.41 406.28 99.18 381.9 99.22 368.36 141.45 392.75"/><polygon class="cls-6" points="167.25 329.62 167.29 343.15 155.51 349.95 155.47 336.42 167.25 329.62"/><polygon class="cls-6" points="167.19 310.79 167.23 324.33 155.46 331.13 155.42 317.59 167.19 310.79"/><polygon class="cls-6" points="215.02 358.61 215.06 372.14 172.82 396.52 172.78 383 215.02 358.61"/><polygon class="cls-6" points="214.97 339.78 215 353.31 172.77 377.7 172.73 364.17 214.97 339.78"/><polygon class="cls-6" points="214.92 320.96 214.96 334.49 172.71 358.88 172.67 345.34 214.92 320.96"/><polygon class="cls-6" points="214.86 302.13 214.9 315.66 172.66 340.05 172.63 326.51 214.86 302.13"/><polygon class="cls-6" points="214.81 283.3 214.85 296.83 172.61 321.23 172.57 307.69 214.81 283.3"/><polygon class="cls-6" points="167.4 386.1 167.44 399.63 155.67 406.43 155.63 392.9 167.4 386.1"/><polygon class="cls-6" points="167.35 367.27 167.39 380.8 155.61 387.6 155.57 374.07 167.35 367.27"/><polygon class="cls-6" points="167.3 348.45 167.34 361.98 155.56 368.78 155.53 355.25 167.3 348.45"/><polygon class="cls-7" points="221.55 390.53 221.52 401.05 148.29 443.61 148.31 432.84 221.55 390.53"/><polygon class="cls-7" points="148.31 432.84 148.28 443.61 74.57 401.06 74.6 390.28 148.31 432.84"/><path class="cls-6" d="M147.83,272.25a5.89,5.89,0,0,0,.84,0l4.18,2.42a15.78,15.78,0,0,1-9.18,0Z"/><path class="cls-6" d="M129.63,256.91c10.65-5.16,26.33-5.16,37.07,0l-3.78,2.19c-8.64-4-20.91-4-29.49,0Z"/><path class="cls-6" d="M136.09,260.64a32.13,32.13,0,0,1,24.15,0l-3.8,2.22a23.8,23.8,0,0,0-16.47,0Z"/><path class="cls-6" d="M143.61,265a15.81,15.81,0,0,1,9.19,0l-4.12,2.43h-.85Z"/><path class="cls-6" d="M152.42,270.07a1.93,1.93,0,0,0,0-.48l4.17-2.43a3.6,3.6,0,0,1,.23,5.09l-.23.23Z"/><path class="cls-6" d="M160.31,274.66c3.39-2.9,3.38-6.7,0-9.57l3.81-2.21c5.45,4.11,5.48,9.88.08,14Z"/><path class="cls-6" d="M136.17,265c-3.39,2.91-3.36,6.71.06,9.57l-3.81,2.21c-5.46-4.11-5.49-9.88-.08-14Z"/><path class="cls-6" d="M166.8,278.37c6.78-5,6.78-12.1-.09-17.08l3.77-2.2c8.94,6.2,9,15.27.12,21.47Z"/><path class="cls-6" d="M133.55,280.55c8.62,4,20.92,4,29.48,0l3.8,2.2c-10.66,5.16-26.32,5.16-37.05,0Z"/><path class="cls-6" d="M129.67,261.29c-6.79,5-6.79,12.09.09,17.08L126,280.56c-8.95-6.2-9-15.27-.12-21.47Z"/><path class="cls-6" d="M140,276.79a23.69,23.69,0,0,0,16.47,0l3.88,2.22a32.07,32.07,0,0,1-24.16,0Z"/><path class="cls-6" d="M144,269.59a1.93,1.93,0,0,0,0,.48l-4.16,2.42a3.59,3.59,0,0,1-.25-5.08l.25-.25Z"/><line class="cls-1" x1="235.44" y1="411.11" x2="275.68" y2="387.99"/></g></g></g></g></svg>