<svg id="Livello_2" data-name="Livello 2" xmlns="http://www.w3.org/2000/svg" viewBox="0 0 164.39 164.39"><defs><style>.cls-1{fill:#a7acd6;fill-rule:evenodd;}</style></defs><path class="cls-1" d="M82.19,1.87a82.2,82.2,0,0,0-26,160.18c4.11.71,5.65-1.75,5.65-3.91,0-1.95-.1-8.42-.1-15.31-20.65,3.8-26-5-27.64-9.66-.92-2.36-4.93-9.65-8.42-11.61-2.88-1.54-7-5.34-.11-5.44,6.48-.1,11.1,6,12.64,8.42,7.4,12.44,19.21,8.94,23.94,6.79.72-5.35,2.88-8.94,5.24-11-18.29-2-37.4-9.14-37.4-40.58a32,32,0,0,1,8.43-22.09c-.83-2.06-3.7-10.48.82-21.78,0,0,6.88-2.16,22.6,8.42a77.61,77.61,0,0,1,41.1,0c15.72-10.68,22.6-8.42,22.6-8.42,4.52,11.3,1.65,19.72.82,21.78a31.8,31.8,0,0,1,8.43,22.09c0,31.54-19.21,38.53-37.5,40.58,3,2.57,5.55,7.5,5.55,15.21,0,11-.11,19.83-.11,22.6,0,2.16,1.54,4.73,5.65,3.91A82.24,82.24,0,0,0,82.19,1.87Z"/></svg>