<?xml version="1.0" encoding="utf-8"?>
<!-- Generator: Adobe Illustrator 25.0.1, SVG Export Plug-In . SVG Version: 6.00 Build 0)  -->
<svg version="1.1" id="Livello_2_1_" xmlns="http://www.w3.org/2000/svg" xmlns:xlink="http://www.w3.org/1999/xlink" x="0px"
	 y="0px" viewBox="0 0 164.4 164.4" style="enable-background:new 0 0 164.4 164.4;" xml:space="preserve">
<style type="text/css">
	.st0{fill:#FFFFFF;}
	.st1{fill-rule:evenodd;clip-rule:evenodd;fill:#A7ACD6;}
</style>
<g>
	<circle class="st0" cx="82.2" cy="82.2" r="82.2"/>
	<path class="st1" d="M82.2,0C36.8,0,0,36.8,0,82.2c0,35.4,22.6,66.8,56.2,78c4.1,0.7,5.7-1.8,5.7-3.9c0-1.9-0.1-8.4-0.1-15.3
		c-20.7,3.8-26-5-27.6-9.7c-0.9-2.4-4.9-9.7-8.4-11.6c-2.9-1.5-7-5.3-0.1-5.4c6.5-0.1,11.1,6,12.6,8.4c7.4,12.4,19.2,8.9,23.9,6.8
		c0.7-5.3,2.9-8.9,5.2-11c-18.3-2-37.4-9.1-37.4-40.6c-0.1-8.2,2.9-16.1,8.4-22.1c-0.8-2.1-3.7-10.5,0.8-21.8c0,0,6.9-2.2,22.6,8.4
		c13.5-3.7,27.6-3.7,41.1,0c15.7-10.7,22.6-8.4,22.6-8.4c4.5,11.3,1.7,19.7,0.8,21.8c5.5,6,8.6,13.9,8.4,22.1
		c0,31.5-19.2,38.5-37.5,40.6c3,2.6,5.6,7.5,5.6,15.2c0,11-0.1,19.8-0.1,22.6c0,2.2,1.5,4.7,5.7,3.9c43-14.5,66.2-61.1,51.7-104.2
		C148.8,22.6,117.5,0,82.2,0z"/>
</g>
</svg>
