<svg id="Livello_2" data-name="Livello 2" xmlns="http://www.w3.org/2000/svg" xmlns:xlink="http://www.w3.org/1999/xlink" viewBox="0 0 164.39 164.39"><defs><style>.cls-1{fill:url(#Sfumatura_senza_nome_194);}.cls-2{fill:#fff;}</style><linearGradient id="Sfumatura_senza_nome_194" x1="-409.95" y1="76.11" x2="1028.38" y2="93.89" gradientUnits="userSpaceOnUse"><stop offset="0" stop-color="#87b3e1"/><stop offset="0.32" stop-color="#bd94c4"/><stop offset="0.58" stop-color="#e37daf"/><stop offset="0.95" stop-color="#ee9f80"/></linearGradient></defs><circle class="cls-1" cx="82.19" cy="82.19" r="82.19"/><path class="cls-2" d="M120.36,60.76c-3.39-4-8.84-6.07-16.36-6.07a18.47,18.47,0,0,0-13.32,5.56V58.5a2,2,0,0,0-1.9-1.9H73.55a2,2,0,0,0-1.9,1.9v51.38a2,2,0,0,0,1.9,1.9H89.73a2,2,0,0,0,1.9-1.9V81.34a11,11,0,0,1,1.88-6.25,4.81,4.81,0,0,1,3.83-2.32h1.9a4.81,4.81,0,0,1,3.84,2.32A11.06,11.06,0,0,1,105,81.34v28.54a2,2,0,0,0,1.91,1.9H123a2,2,0,0,0,1.91-1.9V76.58C124.94,70.24,123.75,64.73,120.36,60.76Z"/><path class="cls-2" d="M63.09,56.6H46.73A2,2,0,0,0,45,58.5v51.38a2,2,0,0,0,1.9,1.9H63.09a2,2,0,0,0,1.9-1.9V58.5A2,2,0,0,0,63.09,56.6Z"/><circle class="cls-2" cx="54.52" cy="41.37" r="11.42"/></svg>