<svg id="Livello_2" data-name="Livello 2" xmlns="http://www.w3.org/2000/svg" xmlns:xlink="http://www.w3.org/1999/xlink" viewBox="0 0 1080 2248.61"><defs><style>.cls-1{fill:none;}.cls-2{clip-path:url(#clip-path);}.cls-3{opacity:0.6;fill:url(#Sfumatura_senza_nome_16);}</style><clipPath id="clip-path"><rect class="cls-1" y="-263.41" width="1080" height="2646.85"/></clipPath><radialGradient id="Sfumatura_senza_nome_16" cx="1938.94" cy="8060.44" r="2858.32" gradientTransform="matrix(-0.47, 0.88, -0.42, -0.22, 6474.34, 307.08)" gradientUnits="userSpaceOnUse"><stop offset="0.05" stop-color="#f49c81"/><stop offset="0.22" stop-color="#eb6585"/><stop offset="0.34" stop-color="#e43a89"/><stop offset="0.37" stop-color="#da3986"/><stop offset="0.6" stop-color="#8b326d"/><stop offset="0.79" stop-color="#512d5b"/><stop offset="0.92" stop-color="#2d2a50"/><stop offset="1" stop-color="#1f294c"/></radialGradient></defs><g class="cls-2"><path class="cls-3" d="M1158,2259.43l-28.73,17.84.64,1,29.32-18.2-1.09-34.14,28.43-17.66,29.78,15.95,1.07,33.45-28.73,17.83.64,1,28.73-17.84,29.5,15.8,1.07,33.45-28.73,17.84.64,1,29.32-18.2-1.09-34.15,28.43-17.65,29.78,15.95,1.07,33.45-28.73,17.83.64,1,29.32-18.2-1.09-34.15,29-18-1.09-34.15,29-18-1.1-34.15,29-18-1.09-34.15,29-18-1.09-34.14,29-18-1.09-34.15,29-18-1.1-34.14,29-18-1.09-34.15,29-18-1.09-34.14,29-18-1.1-34.15,29-18-1.09-34.14,29-18-1.09-34.15,29-18-1.09-34.15,29-18-1.09-34.14,29-18-1.09-34.15,29-18-1.09-34.14,29-18-1.1-34.15,29-18-1.09-34.14,29-18-1.09-34.15,29-18-1.1-34.14,29-18-1.09-34.15,29-18-1.09-34.15,29-18-1.09-34.15,29-18-1.1-34.15,29-18-1.09-34.14,29-18-1.09-34.15,29-18-1.1-34.14,29-18-1.09-34.15,29-18-1.09-34.14,29-18-1.09-34.15,29-18-1.1-34.14,29-18-1.09-34.15,29-18L2202,603.43l29-18-1.1-34.14,29-18-1.09-34.15,29-18-1.09-34.14,29-18-1.09-34.15,29-18-1.09-34.14,29-18-1.09-34.15,29-18-1.11-34.84-30.43-16.29-.57,1.06,29.81,16,1.07,33.45L2369,289.41l-29.78-15.94-1.09-34.15L2308,223.2l-1.09-34.15-30.43-16.29-.57,1.06,29.81,16,1.07,33.44-28.43,17.66-29.78-15.95-1.09-34.15-30.12-16.12-1.09-34.15-30.43-16.29-.57,1.06,29.81,16,1.07,33.44-28.43,17.66-29.78-16-1.09-34.15-30.12-16.12L2125.63,92,2095.2,75.7l-.57,1.06,29.81,16,1.07,33.45-28.43,17.65-29.78-16-1.09-34.15-30.12-16.12L2035,43.46l-30.43-16.29-.57,1.06,29.81,16,1.07,33.45L2006.45,95.3l-29.78-16-1.09-34.15-30.12-16.12-1.09-34.15-30.43-16.29-.57,1.06,29.81,16,1.07,33.45-28.43,17.65-29.78-16L1885-3.32l-30.12-16.13-1.09-34.15-30.43-16.29-.57,1.07,29.81,16,1.07,33.45L1825.19-1.76l-29.78-15.95-1.08-33.8v-.34L1764.2-68l-1.08-33.8v-.35l-30.43-16.29-.57,1.07,29.81,16L1763-67.94l-28.43,17.65-29.78-15.95L1703.7-100v-.34l-30.12-16.13-1.08-33.8v-.35l-30.43-16.29-.57,1.07,29.81,16,1.07,33.45-28.43,17.65-29.78-16-1.08-33.79v-.35L1582.94-165l-1.08-33.8v-.35l-30.43-16.29-.57,1.07,29.81,16,1.07,33.45-28.43,17.65-29.78-16-1.08-33.79v-.35l-30.12-16.13-1.08-33.8v-.35L1460.79-264l-.57,1.07L1490-247l1.07,33.45-28.43,17.65-29.78-16-1.08-33.79V-246l-30.12-16.13-1.08-33.8v-.35l-30.43-16.29-.57,1.07,29.81,16,1.07,33.45L1372-244.41l-29.78-16-1.08-33.79v-.35l-30.12-16.13-1.08-33.8v-.35l-30.43-16.29L1279-360l29.81,16,1.07,33.45-28.43,17.65-29.78-15.95-1.08-33.79V-343l-30.43-16.29-.57,1.06,29.81,16,1.07,33.45L1222-291.19l-29.81-16-.57,1.07,29.81,16,1.07,33.45L1194.06-239l-29.81-16-.57,1.06,29.81,16,1.07,33.44-28.44,17.66-29.81-16-.57,1.07,29.81,16,1.07,33.45-28.43,17.65-29.81-16-.57,1.06,29.81,16,1.07,33.45-28.43,17.65-29.81-16-.57,1.07,29.81,16L1110.76-48l-28.44,17.65-29.81-16-.57,1.06,29.81,16,1.07,33.45L1054.39,21.8l-29.81-16L1024,6.9l29.81,16,1.07,33.45L1026.46,74,996.65,58l-.57,1.07,29.81,16,1.07,33.45-28.43,17.65-29.81-16-.58,1.06,29.81,16L999,160.64l-28.44,17.65-29.81-16-.57,1.07,29.81,16,1.07,33.45-28.43,17.65-29.81-16-.57,1.06,29.81,16L943.16,265l-28.43,17.66-29.81-16-.57,1.07,29.81,16,1.07,33.45-28.44,17.65-29.81-16-.57,1.06,29.81,16,1.07,33.44L858.86,387l-29.81-16-.57,1.07,29.81,16,1.07,33.45-28.43,17.65-29.81-16-.57,1.06,29.81,16,1.07,33.45L803,491.29l-29.82-16-.57,1.07,29.81,16,1.07,33.45-28.43,17.65-29.81-16-.57,1.07,29.81,16L775.56,578l-28.43,17.65-29.81-16-.57,1.06,29.81,16,1.07,33.45L719.2,647.78l-29.81-16-.57,1.07,29.81,16,1.07,33.45L691.26,700l-29.81-16-.57,1.06,29.81,16,1.07,33.45-28.43,17.65-29.81-16-.57,1.07,29.81,16,1.07,33.45L635.4,804.28l-29.81-16-.57,1.06,29.81,16,1.07,33.45-28.43,17.66-29.82-16-.57,1.07,29.81,16L608,891l-28.43,17.65-29.81-16-.57,1.06,29.81,16L580,943.13,551.6,960.78l-29.81-16-.57,1.07,29.81,16,1.07,33.45-28.43,17.65-29.81-16-.57,1.06,29.81,16,1.07,33.45-28.44,17.65-29.81-16-.57,1.07,29.81,16,1.07,33.45-28.43,17.65-29.81-16-.57,1.07,29.81,16,1.07,33.45-28.43,17.65-29.81-16-.57,1.06,29.81,16,1.07,33.45-28.44,17.65-29.81-16-.57,1.07,29.81,16,1.07,33.45L384,1273.77l-29.81-16-.57,1.06,29.81,16,1.07,33.45-28.43,17.66-29.81-16-.57,1.07,29.81,16,1.07,33.45-28.43,17.65-29.82-16-.57,1.06,29.81,16,1.08,33.44-28.44,17.66-29.81-16-.57,1.07,29.81,16,1.07,33.45-28.43,17.65-29.81-16-.57,1.06,29.81,16,1.07,33.45-28.43,17.65-29.81-16-.57,1.07,29.81,16,1.07,33.45-28.44,17.65-29.81-16-.57,1.07,29.81,16,1.07,33.45-28.43,17.65-29.81-16-.57,1.06,29.81,16,1.07,33.45-28.43,17.65-29.81-16-.57,1.07,29.81,16,1.07,33.45-28.73,17.83.64,1,29.32-18.2-1.1-34.15,28.44-17.65,29.78,15.94,1.07,33.45-28.73,17.84.64,1,28.73-17.84,29.5,15.8,1.07,33.45L222.94,1792l.64,1,29.32-18.2-1.1-34.15L280.24,1723,310,1738.94l1.07,33.45-28.73,17.84.64,1,28.72-17.84,29.51,15.8,1.07,33.45-28.73,17.83.64,1,29.32-18.2-1.09-34.15,28.43-17.65,29.78,15.94,1.07,33.45L373,1838.76l.64,1L402.35,1822l29.51,15.8,1.07,33.45L404.2,1889l.64,1,29.32-18.2-1.09-34.15,28.43-17.65L491.28,1836l1.07,33.45-28.73,17.84.64,1L493,1870.48l29.5,15.8,1.07,33.45-28.73,17.83.64,1,29.32-18.21-1.09-34.14,28.43-17.65,29.78,15.94L583,1918l-28.73,17.84.64,1L583.62,1919l29.5,15.8,1.07,33.45-28.73,17.83.64,1,29.32-18.21-1.09-34.14,28.43-17.65,29.78,15.94,1.07,33.45-28.73,17.84.64,1,28.73-17.83,29.5,15.8,1.07,33.45-28.73,17.83.64,1,29.32-18.21L705,1983.3l28.43-17.65,29.78,15.94,1.07,33.45-28.73,17.84.64,1,28.73-17.83,29.5,15.8,1.07,33.44-28.73,17.84.64,1L796.68,2066l-1.09-34.14L824,2014.18l29.78,15.94,1.07,33.45-28.73,17.84.64,1,28.73-17.83,29.5,15.79,1.07,33.45-28.73,17.84.64,1,29.32-18.21-1.09-34.14,28.43-17.66,29.78,16,1.07,33.45-28.73,17.84.64,1,28.73-17.83,29.5,15.79,1.07,33.45L948,2180.21l.64,1L977.94,2163l-1.09-34.14,28.43-17.66,29.78,15.95,1.07,33.45-28.73,17.83.64,1,28.73-17.83,29.5,15.79,1.07,33.45-28.73,17.84.64,1,29.32-18.2-1.09-34.14,28.43-17.66,29.78,15.95,1.07,33.45L1098,2227l.64,1,28.73-17.83,29.5,15.79Zm90.13,14-29.5-15.8-1.07-33.45,28.43-17.65,29.5,15.8,1.07,33.45Zm-371.49-466,29.5,15.79,1.07,33.45-28.43,17.65-29.51-15.79-1.06-33.45ZM847.54,1824l-29.78-16-1.07-33.45L845.12,1757l29.78,16,1.07,33.45Zm60.85,32.58-1.07-33.45,28.43-17.65,29.78,16,1.07,33.45-28.43,17.65Zm-1.71-34.47-29.5-15.8-1.07-33.45,28.43-17.65L934,1771l1.07,33.45Zm-31.21-50.28-29.78-15.94-1.07-33.45,28.43-17.65,29.78,15.94,1.07,33.45Zm60.85,32.59L935.25,1771l28.43-17.65,29.78,15.94,1.07,33.45-28.43,17.65ZM934.61,1770l-29.5-15.8L904,1720.73l28.43-17.66,29.51,15.8,1.07,33.45ZM903.4,1719.7l-29.78-16-1.07-33.45L901,1652.65l29.78,15.95,1.07,33.45Zm60.85,32.58-1.07-33.45,28.44-17.65,29.78,16,1.07,33.45L994,1768.23Zm-1.7-34.47L933,1702,932,1668.56l28.44-17.65,29.5,15.8,1.07,33.45Zm-31.21-50.28-29.78-15.94-1.07-33.45,28.43-17.65,29.78,15.94,1.07,33.45Zm60.85,32.59-1.07-33.45,28.43-17.65,29.78,15.94,1.07,33.45L1022,1716.06Zm-1.71-34.48-29.5-15.8-1.07-33.44,28.43-17.66,29.5,15.8,1.07,33.45Zm-31.21-50.27-29.78-15.95L928.42,1566l28.43-17.65,29.78,16,1.07,33.45Zm60.85,32.58-1.07-33.45,28.43-17.65,29.78,16,1.07,33.45-28.43,17.65Zm-1.71-34.47-29.5-15.8-1.07-33.45,28.43-17.65,29.51,15.8,1.07,33.44ZM987.2,1563.2l-29.78-15.94-1.07-33.45,28.44-17.65,29.78,15.94,1.07,33.45Zm60.85,32.59-1.07-33.45,28.44-17.65,29.78,15.94,1.07,33.45-28.44,17.65Zm-1.7-34.48-29.51-15.8-1.07-33.45,28.44-17.65,29.5,15.8,1.07,33.45ZM1015.14,1511l-29.78-16-1.08-33.45,28.44-17.65,29.78,16,1.07,33.45Zm60.85,32.58-1.07-33.45,28.43-17.65,29.78,16,1.07,33.45-28.43,17.65Zm-1.71-34.47-29.5-15.8-1.07-33.45,28.43-17.65,29.5,15.79,1.07,33.45Zm-31.21-50.28-29.78-15.94-1.07-33.45,28.43-17.65,29.78,15.94,1.07,33.45Zm60.85,32.58-1.07-33.44,28.43-17.66,29.78,16,1.07,33.45-28.43,17.65Zm-1.71-34.47-29.5-15.8-1.07-33.45,28.43-17.65,29.5,15.8,1.07,33.45ZM1071,1406.71l-29.78-16-1.07-33.45,28.43-17.65,29.78,15.95,1.07,33.44Zm60.85,32.58-1.07-33.45,28.43-17.65,29.78,16,1.07,33.44-28.43,17.66Zm-1.71-34.48-29.5-15.79-1.07-33.45,28.43-17.65,29.51,15.79,1.07,33.45Zm-31.21-50.27-29.78-16-1.07-33.45,28.44-17.65,29.78,16,1.07,33.45Zm60.85,32.58-1.07-33.44,28.44-17.66,29.78,16,1.07,33.45-28.44,17.65Zm-1.7-34.47-29.51-15.8-1.07-33.45,28.44-17.65,29.5,15.8,1.07,33.45Zm-31.21-50.27-29.78-16L1096,1253l28.43-17.65,29.78,15.94,1.07,33.45Zm60.85,32.58-1.07-33.45,28.43-17.65,29.78,15.94,1.07,33.45-28.43,17.65Zm-1.71-34.48-29.5-15.8-1.07-33.44,28.43-17.66,29.5,15.8,1.07,33.45Zm-31.21-50.27-29.78-16-1.07-33.45,28.43-17.65,29.78,15.95,1.07,33.45Zm60.85,32.58-1.07-33.45,28.43-17.65,29.78,16,1.07,33.45-28.43,17.65Zm-1.71-34.47-29.5-15.8-1.07-33.45,28.43-17.65,29.51,15.8,1.07,33.45ZM1182.73,1198,1153,1182.1l-1.07-33.45,28.44-17.65,29.78,15.94,1.07,33.45Zm60.85,32.59-1.07-33.45,28.44-17.65,29.78,15.94,1.07,33.45-28.44,17.65Zm-1.7-34.48-29.51-15.8-1.07-33.44,28.44-17.66,29.5,15.8,1.07,33.45Zm-31.21-50.27-29.78-16-1.07-33.45,28.43-17.65,29.78,16,1.07,33.45Zm60.85,32.58-1.07-33.45,28.43-17.65,29.78,16,1.07,33.45-28.43,17.65Zm-1.71-34.47-29.5-15.8-1.07-33.45,28.43-17.65,29.5,15.8,1.07,33.45Zm-31.21-50.28-29.78-15.94-1.07-33.45,28.43-17.65,29.78,15.94,1.07,33.45Zm60.85,32.59-1.07-33.45,28.43-17.65,29.78,15.94,1.07,33.45-28.43,17.65Zm-1.71-34.48-29.5-15.8-1.07-33.45,28.43-17.65,29.51,15.8,1.06,33.45Zm-31.21-50.27-29.78-16-1.07-33.45,28.43-17.65,29.78,16,1.07,33.45Zm60.85,32.58-1.07-33.45,28.43-17.65,29.78,16,1.08,33.45-28.44,17.65Zm-1.7-34.47-29.51-15.8-1.07-33.45,28.43-17.65,29.51,15.8,1.07,33.44Zm-31.21-50.28-29.78-15.94L1263.61,940l28.44-17.65,29.78,15.94,1.07,33.45Zm60.84,32.59-1.07-33.45,28.44-17.65,29.78,15.94,1.07,33.45-28.44,17.65Zm-1.7-34.48-29.51-15.8L1323,938.24l28.44-17.65,29.5,15.8,1.07,33.45Zm-31.21-50.27-29.78-16-1.07-33.45L1320,870.17l29.78,16,1.07,33.45Zm60.85,32.58-1.07-33.45,28.43-17.65,29.78,15.95,1.07,33.45L1413,985.75Zm-1.71-34.48L1352,919.53,1351,886.08l28.43-17.65,29.5,15.79,1.07,33.45Zm-31.21-50.27-29.78-15.94-1.07-33.45L1347.91,818l29.78,16,1.07,33.45Zm60.85,32.58-1.07-33.44,28.43-17.66,29.78,16,1.07,33.45L1441,933.58Zm-1.71-34.47-29.5-15.8-1.07-33.45,28.43-17.65,29.51,15.8,1.07,33.45Zm-31.21-50.27-29.78-15.95-1.07-33.45,28.44-17.65,29.78,15.95,1.07,33.44Zm60.85,32.58L1438,832l28.44-17.65,29.78,15.94,1.07,33.45-28.44,17.66Zm-1.7-34.48L1407.9,815.2l-1.07-33.45,28.44-17.65,29.5,15.79,1.07,33.45Zm-31.21-50.27-29.78-16-1.07-33.45,28.43-17.65,29.78,16,1.07,33.45Zm60.85,32.58L1466,779.85l28.43-17.65,29.78,15.95,1.07,33.45-28.43,17.65Zm-1.71-34.47-29.5-15.8-1.07-33.45,28.43-17.65,29.5,15.8,1.07,33.45Zm-31.21-50.28-29.78-15.94-1.07-33.45,28.43-17.65,29.78,15.94,1.07,33.45ZM1495,761.14l-1.07-33.45L1522.34,710,1552.12,726l1.07,33.45-28.43,17.65Zm-1.71-34.48-29.5-15.8-1.07-33.44,28.43-17.66,29.51,15.8,1.07,33.45Zm-31.21-50.27-29.78-15.95L1431.21,627l28.44-17.65,29.78,15.95,1.07,33.45ZM1522.91,709l-1.07-33.45,28.43-17.65,29.78,16,1.08,33.45-28.44,17.65Zm-1.7-34.47-29.51-15.8-1.07-33.45,28.43-17.65,29.51,15.8,1.07,33.45ZM1490,624.22l-29.78-15.94-1.08-33.45,28.44-17.65,29.78,15.94,1.07,33.45Zm60.85,32.59-1.07-33.45,28.43-17.65L1608,621.65l1.07,33.45-28.43,17.65Zm-1.71-34.48-29.51-15.8-1.06-33.44L1547,555.43l29.5,15.8,1.07,33.45Zm-31.21-50.27-29.78-15.95-1.07-33.45L1515.51,505l29.78,16,1.07,33.45Zm60.85,32.58-1.07-33.45,28.43-17.65,29.78,16,1.07,33.45-28.43,17.65Zm-1.71-34.47-29.5-15.8-1.07-33.45,28.43-17.65,29.5,15.8,1.07,33.44Zm-31.21-50.28L1516.08,504,1515,470.5l28.43-17.65,29.78,15.94,1.07,33.45Zm60.85,32.59L1605.64,519l28.43-17.65,29.78,15.94,1.07,33.45-28.43,17.65ZM1605,518l-29.5-15.8-1.07-33.45,28.43-17.65,29.51,15.8,1.07,33.45Zm-31.21-50.27-29.78-16-1.07-33.45,28.44-17.65,29.78,15.95,1.07,33.45Zm60.85,32.58-1.07-33.45L1662,449.21l29.78,16,1.07,33.45-28.44,17.65Zm-1.7-34.47L1603.43,450l-1.07-33.45,28.44-17.65,29.5,15.79,1.07,33.45Zm-31.21-50.28L1572,399.62l-1.07-33.45,28.43-17.65,29.78,15.94,1.07,33.45Zm60.85,32.58-1.07-33.44L1689.94,397,1719.72,413l1.07,33.45-28.43,17.65Zm-1.71-34.47-29.5-15.8-1.07-33.45,28.43-17.65,29.5,15.8L1689.3,396Zm-31.21-50.27-29.78-15.95L1598.81,314l28.43-17.65L1657,312.3l1.07,33.44ZM1690.51,396l-1.07-33.45,28.43-17.65,29.78,15.95,1.07,33.44-28.43,17.66Zm-1.71-34.48-29.5-15.79-1.07-33.45,28.43-17.65,29.51,15.79,1.07,33.45Zm-31.21-50.27-29.78-16-1.07-33.45,28.44-17.65L1685,260.13l1.07,33.45Zm60.85,32.58-1.07-33.44,28.44-17.66,29.78,16,1.07,33.45-28.44,17.65Zm-1.7-34.47-29.51-15.8-1.07-33.45,28.43-17.65,29.51,15.8,1.07,33.45Zm-31.21-50.27-29.78-15.95-1.08-33.45L1683.11,192,1712.89,208l1.07,33.44Zm60.85,32.58-1.07-33.45,28.43-17.65,29.78,15.94,1.07,33.45-28.43,17.65Zm-1.71-34.48-29.5-15.79-1.07-33.45,28.43-17.65,29.5,15.79,1.07,33.45Zm-31.21-50.27-29.78-16-1.07-33.45L1711,139.85l29.78,16,1.07,33.45Zm60.85,32.58L1773.24,206l28.43-17.65,29.78,16,1.07,33.45-28.43,17.65ZM1772.6,205l-29.5-15.8L1742,155.76l28.43-17.65,29.5,15.8,1.07,33.45Zm29.64-17.69-1.07-33.45,28.43-17.65,29.78,15.94,1.07,33.45L1832,203.26Zm-60.85-32.59-29.78-15.94-1.07-33.45L1739,87.69l29.78,15.94,1.07,33.45Zm-90.63-48.52L1621,90.26l-1.07-33.45,28.43-17.65,29.78,15.94,1.07,33.45Zm29.07-16.63,29.5,15.8,1.07,33.45L1682,156.48l-29.5-15.8-1.07-33.45Zm-29.64,17.69,1.07,33.45-28.43,17.65-29.78-16L1592,109l28.43-17.66Zm1.71,34.48,29.5,15.79,1.07,33.45L1654,208.64l-29.5-15.79-1.08-33.45Zm-29.64,17.69,1.07,33.44-28.43,17.66-29.78-15.95L1564,161.14l28.44-17.65Zm1.7,34.47,29.51,15.8,1.07,33.45-28.43,17.65L1596.6,245l-1.07-33.45Zm-29.64,17.69,1.08,33.45L1567,262.7l-29.78-15.95-1.07-33.44,28.43-17.66Zm1.71,34.48,29.5,15.79,1.08,33.45L1598.17,313l-29.5-15.79-1.07-33.45Zm-29.64,17.69,1.07,33.45L1539,314.87l-29.78-15.95-1.07-33.45,28.43-17.65Zm1.71,34.47,29.5,15.8,1.07,33.45-28.43,17.65-29.5-15.8-1.07-33.45Zm-29.64,17.69,1.07,33.45L1511.1,367l-29.78-15.94-1.07-33.45L1508.68,300Zm1.71,34.48,29.5,15.79,1.07,33.45-28.43,17.66-29.51-15.8-1.07-33.45Zm-29.64,17.69,1.07,33.45-28.44,17.65-29.78-15.95-1.07-33.45,28.44-17.65Zm1.7,34.47,29.51,15.8,1.07,33.45-28.44,17.65-29.5-15.8-1.07-33.45Zm-29.64,17.69,1.07,33.45-28.43,17.65-29.78-15.94L1424.38,422l28.43-17.65Zm1.71,34.48,29.5,15.8,1.07,33.45-28.43,17.65-29.5-15.8-1.07-33.45Zm-29.64,17.69,1.07,33.45-28.43,17.65-29.78-15.95-1.07-33.45,28.43-17.65Zm1.71,34.47,29.5,15.8,1.07,33.45-28.43,17.65L1429,558l-1.08-33.45Zm-29.64,17.69L1427.8,558l-28.44,17.65-29.78-15.94-1.07-33.45L1397,508.65Zm1.7,34.48,29.51,15.8,1.07,33.45L1430.58,626l-29.51-15.8L1400,576.72Zm-29.64,17.69,1.08,33.45-28.44,17.65-29.78-16-1.07-33.45L1369,560.81Zm1.71,34.47L1430,627l1.08,33.45-28.44,17.65-29.5-15.79-1.07-33.45Zm-29.64,17.69,1.07,33.45L1343.5,680l-29.78-15.95-1.07-33.45L1341.08,613Zm1.71,34.48,29.5,15.8,1.07,33.45-28.43,17.65-29.5-15.8-1.07-33.45Zm-29.64,17.69,1.07,33.45-28.43,17.65-29.78-16-1.07-33.44,28.43-17.66Zm1.71,34.48,29.5,15.79,1.07,33.45-28.43,17.65-29.51-15.79-1.07-33.45ZM1315,733.26l1.07,33.45-28.44,17.65-29.78-16L1256.78,735l28.44-17.65Zm1.7,34.47,29.51,15.8,1.07,33.45-28.44,17.65-29.5-15.8-1.07-33.45Zm-29.64,17.69,1.07,33.45-28.43,17.65-29.78-15.94-1.07-33.45,28.43-17.66Zm1.71,34.48,29.5,15.79,1.07,33.45-28.43,17.66-29.5-15.8-1.07-33.45Zm-29.64,17.69L1260.2,871l-28.43,17.65-29.78-16-1.07-33.45,28.43-17.65Zm1.71,34.47,29.5,15.8,1.07,33.45L1263,939l-29.51-15.8-1.07-33.45Zm-29.64,17.69,1.07,33.45-28.44,17.65-29.78-15.94L1173,891.46l28.44-17.65Zm1.7,34.48,29.51,15.8,1.07,33.44L1235,991.13l-29.5-15.8-1.07-33.45Zm-29.64,17.69,1.08,33.45L1175.9,993l-29.78-15.95-1.07-33.45L1173.48,926Zm1.71,34.47,29.5,15.8,1.08,33.45-28.44,17.65-29.5-15.8L1176.54,994Zm-29.64,17.69,1.07,33.45L1148,1045.18l-29.78-15.94-1.07-33.45,28.43-17.65Zm1.71,34.48,29.5,15.8,1.07,33.45-28.43,17.65-29.5-15.8-1.07-33.45Zm-29.64,17.69,1.07,33.45L1120,1097.35l-29.78-15.95-1.07-33.45,28.43-17.65Zm1.71,34.47,29.5,15.8,1.07,33.45-28.43,17.65-29.51-15.8-1.07-33.44Zm-29.65,17.69,1.08,33.45-28.44,17.65-29.78-15.94-1.07-33.45,28.44-17.65Zm1.71,34.48,29.5,15.8,1.08,33.45-28.44,17.65-29.5-15.8-1.07-33.45Zm-29.64,17.69,1.07,33.45-28.43,17.65-29.78-16-1.07-33.45,28.43-17.65Zm1.71,34.48,29.5,15.79,1.07,33.45L1095.38,1252l-29.5-15.79-1.07-33.45Zm-29.64,17.68,1.07,33.45-28.43,17.66-29.78-15.95-1.07-33.45,28.43-17.65Zm1.71,34.48,29.5,15.8,1.07,33.45-28.43,17.65-29.51-15.8-1.07-33.45Zm-29.64,17.69,1.07,33.45L1008.3,1306l-29.78-16-1.07-33.44,28.44-17.66Zm1.7,34.48,29.51,15.79,1.07,33.45-28.44,17.65-29.5-15.79-1.07-33.45Zm-29.64,17.69,1.07,33.45-28.43,17.65-29.78-16-1.07-33.45L978,1291.13Zm1.71,34.47,29.5,15.8,1.07,33.45-28.43,17.65-29.5-15.8L981,1359.2Zm-29.64,17.69,1.07,33.45-28.43,17.65-29.78-15.94L921.59,1361,950,1343.3Zm1.71,34.48,29.5,15.79,1.07,33.45-28.43,17.66-29.5-15.8-1.08-33.45Zm-29.64,17.69,1.07,33.45-28.43,17.65-29.79-16-1.07-33.45,28.44-17.65Zm1.71,34.47,29.5,15.8,1.07,33.45-28.43,17.65L926.21,1497l-1.07-33.45Zm-29.65,17.69L925,1497l-28.44,17.65-29.78-15.94-1.07-33.45,28.43-17.65Zm1.71,34.48,29.5,15.8,1.08,33.45L927.78,1565l-29.5-15.8-1.07-33.45ZM896,1515.74l1.07,33.45-28.43,17.65-29.78-15.95-1.07-33.45,28.43-17.65Zm1.71,34.47,29.5,15.8,1.07,33.45-28.43,17.65-29.5-15.8-1.07-33.45Zm-29.64,17.69,1.07,33.45L840.71,1619l-29.78-15.94-1.07-33.45L838.29,1552Zm1.71,34.48,29.5,15.8,1.07,33.45-28.43,17.65-29.51-15.8L841.34,1620Zm-29.64,17.69,1.07,33.45-28.44,17.65-29.78-16-1.07-33.45,28.44-17.65Zm1.7,34.47,29.51,15.8,1.07,33.45L844,1721.44l-29.5-15.79-1.07-33.45Zm-29.64,17.69,1.07,33.45-28.43,17.66-29.78-15.95L754,1673.94l28.43-17.65Zm1.71,34.48,29.5,15.8,1.07,33.45-28.43,17.65-29.5-15.8-1.07-33.45Zm-29.64,17.69,1.07,33.45-28.43,17.65-29.78-16-1.07-33.44,28.43-17.66Zm1.71,34.48,29.5,15.79,1.07,33.45-28.43,17.65L758.62,1810l-1.08-33.45Zm-29.64,17.69,1.07,33.45L729,1827.67l-29.78-16-1.07-33.45,28.44-17.65Zm60.85,32.58L847,1825.1l1.07,33.44-28.43,17.66-29.78-16-1.08-33.45Zm90.63,48.53,29.78,15.94,1.07,33.45-28.44,17.66-29.78-16-1.06-33.45Zm90.63,48.53,29.78,15.94,1.07,33.45-28.43,17.65-29.78-15.94L970,1923.86Zm-29.07,16.62L939.88,1907l-1.08-33.45,28.44-17.66,29.5,15.8,1.07,33.45ZM999,1905.14,998,1871.69l28.43-17.65,29.78,16,1.07,33.45-28.43,17.65Zm-1.71-34.47-29.5-15.8-1.07-33.45,28.43-17.65,29.5,15.8,1.07,33.45ZM1027,1853l-1.07-33.45,28.43-17.65,29.78,15.94,1.07,33.45-28.43,17.65Zm-1.71-34.48-29.5-15.8-1.07-33.44,28.43-17.66,29.51,15.8,1.07,33.45Zm29.64-17.69-1.07-33.45,28.44-17.65,29.78,16,1.07,33.45-28.44,17.65Zm-1.7-34.47-29.51-15.8-1.07-33.45,28.44-17.65,29.5,15.8,1.07,33.45Zm29.64-17.69-1.07-33.45,28.43-17.65,29.78,15.94,1.07,33.45-28.43,17.65Zm-1.71-34.48-29.5-15.8-1.07-33.45,28.43-17.65,29.5,15.8,1.07,33.45Zm29.64-17.69-1.07-33.45,28.43-17.65,29.78,15.95,1.07,33.45-28.43,17.65ZM1109,1662l-29.5-15.8-1.07-33.45,28.43-17.65,29.51,15.8,1.07,33.44Zm29.64-17.69-1.07-33.45,28.44-17.66,29.78,16,1.07,33.45-28.44,17.65Zm-1.7-34.48-29.51-15.8-1.07-33.45,28.44-17.65,29.5,15.8,1.07,33.45Zm29.64-17.69-1.07-33.45,28.43-17.65,29.78,16,1.07,33.45-28.43,17.65Zm-1.71-34.48-29.5-15.79-1.07-33.45,28.43-17.65,29.5,15.79,1.07,33.45Zm29.64-17.69-1.07-33.44,28.43-17.66,29.78,15.95,1.07,33.45-28.43,17.65Zm-1.71-34.47-29.5-15.8-1.07-33.45,28.43-17.65,29.5,15.8,1.07,33.45Zm29.64-17.69-1.07-33.45,28.43-17.65,29.78,15.94,1.07,33.45-28.43,17.66Zm-1.71-34.48-29.5-15.79-1.07-33.45,28.43-17.65,29.51,15.79,1.07,33.45Zm29.64-17.69-1.07-33.45,28.44-17.65,29.78,16,1.07,33.45-28.44,17.65Zm-1.7-34.47-29.51-15.8-1.07-33.45,28.44-17.65,29.5,15.8,1.07,33.45Zm29.64-17.69-1.07-33.45,28.43-17.65,29.78,15.94,1.07,33.45-28.43,17.65Zm-1.71-34.48-29.5-15.8-1.07-33.44,28.43-17.66,29.5,15.8,1.07,33.45Zm29.64-17.69-1.07-33.45,28.43-17.65,29.78,16,1.07,33.45-28.43,17.65Zm-1.71-34.47-29.5-15.8L1274,1247.6l28.43-17.65,29.51,15.8,1.07,33.45Zm29.64-17.69-1.07-33.45,28.44-17.65,29.78,15.94,1.07,33.45L1364,1295.1Zm-1.7-34.48-29.51-15.8-1.07-33.45,28.44-17.65,29.5,15.8,1.07,33.45Zm29.64-17.69-1.07-33.45,28.43-17.65,29.78,15.95,1.07,33.45-28.43,17.65Zm-1.71-34.47-29.5-15.8-1.07-33.45,28.43-17.65,29.5,15.8,1.07,33.44Zm29.64-17.69-1.07-33.45,28.43-17.65,29.78,15.94,1.07,33.45-28.43,17.65Zm-1.71-34.48-29.5-15.8-1.07-33.45,28.43-17.65,29.5,15.8,1.08,33.45Zm29.64-17.69-1.07-33.45,28.43-17.65,29.78,16,1.08,33.45-28.44,17.65Zm-1.71-34.48-29.5-15.79-1.07-33.45,28.43-17.65,29.51,15.79,1.07,33.45Zm29.65-17.69-1.08-33.44,28.44-17.66,29.78,15.95,1.07,33.45-28.43,17.65Zm-1.71-34.47-29.51-15.8-1.07-33.45,28.44-17.65,29.5,15.8,1.07,33.45Zm29.64-17.69-1.07-33.45,28.43-17.65L1531,983.18l1.07,33.44-28.43,17.66Zm-1.71-34.48-29.5-15.79-1.07-33.45L1470,917l29.5,15.79,1.07,33.45Zm29.64-17.69-1.07-33.44,28.43-17.66L1559,931l1.07,33.45-28.43,17.65Zm-1.71-34.47-29.5-15.8-1.07-33.45L1498,864.79l29.51,15.8,1.07,33.45ZM1529.74,914l-1.07-33.45,28.44-17.65,29.78,15.94,1.07,33.45-28.44,17.65Zm-1.7-34.48-29.51-15.79-1.07-33.45,28.44-17.66,29.5,15.8,1.07,33.45Zm29.64-17.69-1.07-33.45L1585,810.73l29.78,15.95,1.07,33.45-28.43,17.65ZM1556,827.36l-29.5-15.8-1.07-33.45,28.43-17.65,29.5,15.8,1.07,33.45Zm29.64-17.69-1.07-33.45L1613,758.57l29.78,15.94,1.07,33.45-28.43,17.65Zm-1.71-34.48-29.5-15.8L1553.33,726l28.43-17.66,29.51,15.8,1.07,33.45Zm29.64-17.69-1.07-33.45,28.44-17.65,29.78,16,1.07,33.45-28.44,17.65Zm-1.7-34.47-29.51-15.8-1.07-33.45,28.43-17.65,29.51,15.8,1.07,33.45Zm29.64-17.69-1.07-33.45,28.43-17.65,29.78,15.94,1.07,33.45-28.43,17.65Zm-1.71-34.48-29.5-15.8-1.07-33.45L1637.63,604l29.5,15.8,1.07,33.45Zm29.64-17.69-1.07-33.45,28.43-17.65L1726.55,618l1.07,33.45-28.43,17.65Zm-1.71-34.47-29.5-15.8-1.07-33.45,28.43-17.65,29.5,15.8,1.07,33.44ZM1697.34,601l-1.07-33.45,28.43-17.65,29.78,15.94,1.07,33.45L1727.12,617Zm-1.71-34.48-29.5-15.8-1.07-33.45,28.43-17.65,29.51,15.8,1.07,33.45Zm29.64-17.69-1.07-33.45,28.44-17.65,29.78,16,1.07,33.45-28.44,17.65Zm-1.7-34.48-29.51-15.79L1693,465.12l28.44-17.65,29.5,15.79,1.07,33.45Zm29.64-17.69-1.07-33.44,28.43-17.66,29.78,15.95,1.07,33.45L1783,512.62Zm-1.71-34.47L1722,446.4,1720.93,413l28.43-17.65,29.5,15.8,1.07,33.45Zm29.64-17.69-1.07-33.45,28.43-17.65,29.78,15.94,1.07,33.45-28.43,17.66ZM1779.43,410l-29.5-15.79-1.07-33.45,28.43-17.65,29.51,15.79,1.07,33.45Zm29.64-17.69L1808,358.89l28.44-17.65,29.78,15.95,1.07,33.45-28.44,17.65Zm-1.7-34.47-29.51-15.8-1.07-33.45L1805.22,291l29.51,15.8,1.07,33.45ZM1837,340.18l-1.07-33.45,28.43-17.65L1894.15,305l1.07,33.45-28.43,17.65Zm-1.71-34.48-29.5-15.79-1.07-33.45,28.43-17.66,29.5,15.8,1.07,33.45ZM1864.94,288l-1.07-33.45,28.43-17.65,29.78,16,1.07,33.45L1894.72,304Zm-1.71-34.47-29.5-15.8-1.07-33.45,28.43-17.65,29.5,15.8,1.07,33.45Zm29.64-17.69-1.07-33.45,28.43-17.65L1950,200.69l1.07,33.45-28.43,17.65Zm-1.71-34.48-29.5-15.8-1.07-33.44L1889,134.47l29.51,15.8,1.07,33.45Zm-90.63-48.53L1771,137,1770,103.6l28.43-17.66,29.51,15.8,1.07,33.45Zm-90.63-48.53-29.5-15.79-1.07-33.45,28.43-17.66,29.51,15.8,1.07,33.45Zm-90.63-48.53L1589.77,40,1588.7,6.54l28.43-17.66,29.51,15.8,1.07,33.45ZM1587.49,6.57,1588.56,40l-28.43,17.66-29.78-16-1.07-33.45,28.43-17.65Zm1.71,34.48,29.5,15.8,1.07,33.45L1591.34,108l-29.5-15.8-1.07-33.45Zm-29.64,17.69,1.07,33.45-28.43,17.65-29.78-16-1.07-33.44,28.43-17.66Zm1.71,34.48,29.5,15.79,1.07,33.45-28.43,17.65-29.51-15.79-1.07-33.45Zm-29.64,17.69,1.07,33.44L1504.27,162l-29.78-15.95-1.07-33.45L1501.85,95Zm1.7,34.47,29.51,15.8,1.07,33.45-28.43,17.65L1506,196.48,1504.9,163Zm-29.64,17.69,1.08,33.45-28.44,17.65-29.78-15.94-1.07-33.45,28.43-17.66Zm1.71,34.48,29.5,15.79,1.08,33.45-28.44,17.66-29.5-15.8L1477,215.2Zm-29.64,17.69,1.07,33.45-28.43,17.65-29.78-15.95-1.07-33.45L1446,199.29Zm1.71,34.47,29.5,15.8L1508,299l-28.43,17.65-29.5-15.8L1449,267.36Zm-29.64,17.69,1.07,33.45-28.43,17.65-29.78-15.94-1.07-33.45,28.43-17.65Zm1.71,34.48,29.5,15.8,1.07,33.44-28.43,17.66L1422.17,353l-1.07-33.45Zm-29.64,17.69L1421,353l-28.44,17.65-29.78-15.95-1.07-33.45,28.44-17.65Zm1.7,34.47,29.51,15.8,1.07,33.45-28.44,17.65-29.5-15.8-1.07-33.45ZM1392,371.73l1.07,33.45-28.43,17.65-29.78-15.94-1.07-33.45,28.43-17.65Zm1.71,34.48,29.5,15.8,1.07,33.45-28.43,17.65-29.5-15.8-1.07-33.45ZM1364,423.9l1.07,33.45L1336.67,475l-29.78-15.95-1.07-33.45L1334.25,408Zm1.71,34.47,29.5,15.8,1.07,33.45-28.43,17.65-29.51-15.8L1337.3,476Zm-29.64,17.69,1.07,33.45-28.43,17.66L1279,511.22l-1.07-33.45,28.44-17.65Zm1.7,34.48,29.51,15.8,1.07,33.45L1340,577.44l-29.51-15.8-1.07-33.45Zm-29.64,17.69,1.07,33.45-28.43,17.65-29.78-16L1250,529.94l28.43-17.66Zm1.71,34.48,29.5,15.79,1.07,33.45L1312,629.6l-29.5-15.79-1.07-33.45Zm-29.64,17.69,1.07,33.44-28.43,17.66-29.78-16L1222,582.1l28.43-17.65Zm1.71,34.47,29.5,15.8,1.07,33.45-28.43,17.65-29.5-15.8-1.07-33.45Zm-29.64,17.69,1.07,33.45-28.43,17.65-29.78-15.94-1.07-33.45,28.43-17.66ZM1254,667l29.5,15.79,1.07,33.45-28.43,17.66-29.51-15.8-1.07-33.45Zm-29.64,17.69,1.07,33.45L1197,735.83l-29.78-16-1.07-33.45,28.44-17.65Zm1.7,34.47,29.51,15.8,1.07,33.45-28.44,17.65-29.5-15.8-1.07-33.45Zm-29.64,17.69,1.07,33.45L1169.07,788l-29.78-15.94-1.07-33.45L1166.65,721Zm1.71,34.48,29.5,15.8,1.07,33.44-28.43,17.66-29.5-15.8L1169.71,789Zm-29.64,17.69,1.07,33.45-28.43,17.65-29.78-15.95-1.07-33.45,28.43-17.65Zm1.71,34.47,29.5,15.8,1.07,33.45-28.43,17.65-29.51-15.8-1.07-33.45Zm-29.64,17.69,1.07,33.45-28.44,17.65-29.78-15.94-1.07-33.45,28.44-17.65Zm1.7,34.48,29.51,15.8,1.07,33.44-28.43,17.66-29.51-15.8-1.07-33.45Zm-29.64,17.69,1.07,33.45-28.43,17.65-29.78-16-1.07-33.45,28.43-17.65Zm1.71,34.47,29.5,15.8,1.07,33.45-28.43,17.65L1087,979l-1.07-33.45Zm-29.64,17.69,1.07,33.45-28.43,17.65-29.78-15.94-1.07-33.45,28.43-17.65Zm1.71,34.48,29.5,15.8,1.07,33.45-28.43,17.65-29.5-15.8L1058,997.68Zm-29.64,17.69,1.07,33.45-28.43,17.65-29.78-16-1.07-33.45L1027,981.77Zm1.71,34.47L1088,1048l1.07,33.45-28.43,17.65-29.51-15.8-1.07-33.44Zm-29.64,17.69,1.07,33.45L1001.47,1101l-29.78-16-1.07-33.45,28.44-17.65Zm1.7,34.48,29.51,15.8,1.07,33.45-28.44,17.65-29.5-15.8-1.07-33.45Zm-29.64,17.69,1.07,33.45-28.43,17.65-29.78-16-1.07-33.44,28.43-17.66Zm1.71,34.48,29.5,15.79,1.07,33.45-28.43,17.65-29.5-15.79-1.07-33.45ZM973,1154.22l1.07,33.44-28.43,17.66-29.78-16-1.07-33.45,28.43-17.65Zm1.71,34.47,29.5,15.8,1.07,33.45-28.43,17.65-29.51-15.8-1.07-33.45ZM945,1206.38l1.07,33.45-28.44,17.65-29.78-15.94-1.07-33.45,28.44-17.66Zm1.7,34.48,29.51,15.79,1.07,33.45-28.44,17.66-29.5-15.8-1.07-33.45Zm-29.64,17.69,1.07,33.45-28.43,17.65-29.78-16-1.07-33.45,28.43-17.65Zm1.71,34.47,29.5,15.8,1.07,33.45L921,1359.92l-29.5-15.8-1.07-33.45Zm-29.64,17.69,1.07,33.45-28.43,17.65L832,1345.87,831,1312.42l28.43-17.65Zm1.71,34.48,29.5,15.8,1.07,33.44L893,1412.09l-29.51-15.8-1.07-33.45Zm-29.64,17.69,1.07,33.45L833.88,1414l-29.78-16L803,1364.58l28.43-17.65Zm1.7,34.47,29.51,15.8,1.07,33.45-28.43,17.65-29.51-15.8L834.51,1415ZM833.3,1415l1.07,33.45-28.43,17.65-29.78-15.94-1.07-33.45,28.43-17.65Zm1.71,34.48,29.5,15.8,1.07,33.45-28.43,17.65-29.5-15.8-1.07-33.45Zm-29.64,17.69,1.07,33.45L778,1518.31l-29.78-16-1.07-33.45,28.43-17.65Zm1.71,34.47,29.5,15.8,1.07,33.45-28.43,17.65-29.5-15.8-1.07-33.44Zm-29.64,17.69,1.07,33.45-28.43,17.66-29.78-16-1.07-33.45,28.43-17.65Zm1.71,34.48,29.5,15.8,1.07,33.45-28.43,17.65L751.78,1605l-1.07-33.45Zm-29.64,17.69,1.07,33.45-28.44,17.65-29.78-16-1.07-33.44,28.44-17.66Zm1.7,34.48,29.51,15.79,1.07,33.45-28.44,17.65-29.5-15.79-1.07-33.45Zm-29.64,17.69,1.07,33.44-28.43,17.66-29.78-16-1.07-33.45,28.43-17.65Zm1.71,34.47,29.5,15.8,1.07,33.45-28.43,17.65-29.5-15.8-1.07-33.45Zm-29.64,17.69,1.07,33.45L666.28,1727,636.5,1711l-1.07-33.45,28.43-17.66Zm1.71,34.48,29.5,15.79,1.07,33.45-28.43,17.65L668,1761.45,666.91,1728ZM665.71,1728l1.07,33.45-28.43,17.65-29.79-16-1.07-33.45,28.44-17.65Zm1.7,34.47,29.51,15.8,1.07,33.45-28.43,17.65-29.51-15.8L639,1780.16ZM758,1811l29.51,15.8,1.07,33.45-28.44,17.65-29.5-15.8-1.07-33.45Zm90.63,48.53,29.51,15.8,1.07,33.45-28.43,17.65-29.51-15.8-1.07-33.45Zm90.63,48.53,29.51,15.8,1.07,33.45L941.44,1975l-29.5-15.8-1.07-33.45Zm90.64,48.53,29.5,15.8,1.07,33.45-28.43,17.65-29.51-15.8-1.07-33.45Zm31.78,49.21-1.07-33.45,28.43-17.65,29.78,15.94,1.07,33.45-28.43,17.65Zm-1.71-34.48-29.5-15.8-1.07-33.44,28.43-17.66,29.5,15.8,1.07,33.45Zm29.64-17.69-1.07-33.45,28.43-17.65,29.78,16,1.07,33.45-28.43,17.65Zm-1.71-34.47-29.5-15.8-1.07-33.45,28.43-17.65,29.5,15.8,1.07,33.45Zm29.64-17.69-1.07-33.45,28.43-17.65,29.78,15.94,1.07,33.45-28.43,17.65Zm-1.71-34.48-29.5-15.8-1.07-33.45,28.43-17.65,29.51,15.8,1.07,33.45Zm29.64-17.69-1.07-33.45,28.44-17.65,29.78,16,1.07,33.45-28.44,17.65Zm-1.7-34.47-29.51-15.8-1.07-33.45,28.44-17.65,29.5,15.8,1.07,33.44Zm29.64-17.69-1.07-33.45,28.43-17.65,29.78,15.94,1.07,33.45-28.43,17.65Zm-1.71-34.48-29.5-15.8-1.07-33.45,28.43-17.65,29.5,15.8,1.07,33.45Zm29.64-17.69-1.07-33.45,28.43-17.65,29.78,15.95,1.07,33.45L1231.16,1761Zm-1.71-34.47-29.5-15.8-1.07-33.45,28.43-17.65,29.51,15.79,1.07,33.45Zm29.64-17.69-1.07-33.45,28.44-17.66,29.78,16,1.07,33.45-28.44,17.65Zm-1.7-34.48-29.51-15.8-1.07-33.45,28.44-17.65,29.5,15.8,1.07,33.45Zm29.64-17.69-1.07-33.45,28.43-17.65,29.78,16,1.07,33.44L1287,1656.63Zm-1.71-34.48-29.5-15.79L1225,1557l28.43-17.65,29.5,15.79,1.07,33.45Zm29.64-17.69-1.07-33.44,28.43-17.66,29.78,15.95,1.07,33.45L1315,1604.46Zm-1.71-34.47-29.5-15.8-1.07-33.45,28.43-17.65,29.5,15.8,1.07,33.45Zm29.64-17.69L1312,1502.9l28.43-17.65,29.78,15.94,1.08,33.45-28.44,17.65Zm-1.71-34.48-29.5-15.79-1.07-33.45,28.43-17.66,29.51,15.8,1.07,33.45Zm29.64-17.69-1.07-33.45,28.44-17.65,29.78,16,1.07,33.45-28.44,17.65Zm-1.7-34.47-29.51-15.8-1.07-33.45,28.44-17.65,29.5,15.8,1.07,33.45ZM1369,1432l-1.07-33.45,28.43-17.65,29.78,15.94,1.07,33.45L1398.76,1448Zm-1.71-34.48-29.5-15.8-1.07-33.44,28.43-17.66,29.5,15.8,1.07,33.45Zm29.64-17.69-1.07-33.45,28.43-17.65,29.78,16,1.07,33.45-28.43,17.65Zm-1.71-34.47-29.5-15.8-1.07-33.45,28.43-17.65,29.51,15.8,1.07,33.45Zm29.64-17.69-1.07-33.45,28.44-17.65,29.78,15.94,1.07,33.45-28.44,17.65Zm-1.7-34.48-29.51-15.8-1.07-33.45,28.44-17.65,29.5,15.8,1.07,33.45Zm29.64-17.69-1.07-33.45,28.43-17.65,29.78,15.95,1.07,33.45-28.43,17.65Zm-1.71-34.47-29.5-15.8-1.07-33.45,28.43-17.65,29.5,15.79,1.07,33.45Zm29.64-17.69-1.07-33.45,28.43-17.66,29.78,16,1.07,33.45-28.43,17.65Zm-1.71-34.48-29.5-15.8-1.07-33.45,28.43-17.65,29.51,15.8,1.07,33.45Zm29.64-17.69-1.07-33.45,28.44-17.65,29.78,16,1.07,33.44-28.44,17.66Zm-1.7-34.48-29.51-15.79-1.07-33.45,28.43-17.65,29.51,15.79,1.07,33.45Zm29.64-17.69-1.08-33.44,28.44-17.66,29.78,15.95,1.07,33.45L1566.36,1135Zm-1.71-34.47-29.5-15.8-1.08-33.45,28.44-17.65,29.5,15.8,1.07,33.45Zm29.64-17.69-1.07-33.45,28.43-17.65,29.78,16,1.07,33.44-28.43,17.66Zm-1.71-34.48-29.5-15.79-1.07-33.45,28.43-17.65,29.5,15.79,1.07,33.45Zm29.64-17.69-1.07-33.45,28.43-17.65,29.78,15.95,1.07,33.45-28.43,17.65Zm-1.71-34.47-29.5-15.8L1560.16,931l28.43-17.65,29.51,15.8,1.07,33.45Zm29.64-17.69-1.07-33.45,28.44-17.65,29.78,15.94,1.07,33.45-28.44,17.65Zm-1.7-34.48-29.51-15.8-1.07-33.44,28.44-17.66L1646,877l1.07,33.45Zm29.64-17.69-1.07-33.45,28.43-17.65,29.78,16,1.07,33.45-28.43,17.65Zm-1.71-34.47-29.5-15.8L1616,826.64,1644.46,809l29.5,15.8,1.07,33.45Zm29.64-17.69-1.07-33.45,28.43-17.65L1733.38,823l1.07,33.45L1706,874.14Zm-1.71-34.48-29.5-15.8L1644,774.47l28.43-17.65,29.51,15.8,1.07,33.45ZM1704.17,806l-1.07-33.45,28.44-17.65,29.78,16,1.07,33.45L1734,822Zm-1.7-34.47L1673,755.76l-1.07-33.45,28.44-17.65,29.5,15.8,1.07,33.45Zm29.64-17.69L1731,720.42l28.43-17.65,29.78,15.94,1.07,33.45-28.43,17.65Zm-1.71-34.48-29.5-15.8-1.07-33.45,28.43-17.65,29.5,15.8,1.07,33.45ZM1760,701.7,1759,668.25l28.43-17.65,29.78,15.95,1.07,33.45-28.43,17.65Zm-1.71-34.47-29.5-15.8L1727.76,618l28.43-17.65,29.5,15.79,1.07,33.45ZM1788,649.54l-1.07-33.45,28.43-17.66,29.78,16,1.07,33.45-28.43,17.65Zm-1.71-34.48-29.5-15.8-1.07-33.45,28.43-17.65,29.51,15.8,1.07,33.45Zm29.64-17.69-1.07-33.45,28.44-17.65,29.78,16,1.07,33.44-28.44,17.66Zm-1.7-34.48-29.51-15.79-1.07-33.45L1812.06,496l29.5,15.79,1.07,33.45Zm29.64-17.69-1.07-33.44,28.43-17.66L1901,510.05l1.07,33.45-28.43,17.65Zm-1.71-34.47-29.5-15.8-1.07-33.45L1840,443.83l29.5,15.8,1.07,33.45ZM1871.77,493l-1.07-33.45,28.43-17.65,29.78,15.94,1.07,33.45L1901.55,509Zm-1.71-34.48-29.5-15.79-1.07-33.45,28.43-17.66,29.51,15.8,1.07,33.45Zm29.64-17.69-1.07-33.45,28.44-17.65,29.78,16,1.07,33.45-28.44,17.65ZM1898,406.4l-29.51-15.8-1.07-33.45,28.44-17.65,29.5,15.8,1.07,33.45Zm29.64-17.69-1.07-33.45L1955,337.61l29.78,15.94,1.07,33.45-28.43,17.65Zm-1.71-34.48-29.5-15.8L1895.36,305l28.43-17.66,29.5,15.8,1.07,33.45Zm29.64-17.69-1.07-33.45,28.43-17.65,29.78,15.95,1.07,33.45-28.43,17.65Zm-1.71-34.47-29.5-15.8-1.07-33.45,28.43-17.65,29.5,15.8,1.07,33.45Zm29.64-17.69-1.07-33.45,28.43-17.65,29.78,15.94,1.07,33.45-28.43,17.65Zm-1.71-34.48-29.5-15.8-1.07-33.45L1979.65,183l29.51,15.8,1.07,33.45Zm29.64-17.69-1.07-33.45,28.44-17.65,29.78,15.95,1.07,33.45-28.44,17.65Zm-60.85-32.58-29.78-15.95-1.07-33.45,28.44-17.65L1978,148.53,1979,182ZM1860,151.1l-29.78-15.95-1.07-33.45,28.44-17.65,29.78,16,1.07,33.45Zm-90.63-48.53-29.78-15.95-1.07-33.45,28.44-17.65,29.78,15.95,1.07,33.45ZM1678.69,54l-29.78-15.95-1.07-33.45L1676.28-13l29.78,16,1.07,33.45ZM1588.06,5.51l-29.78-15.95-1.07-33.45,28.44-17.65,29.78,15.95,1.07,33.45ZM1497.43-43,1467.65-59l-1.07-33.45L1495-110.07l29.78,15.95,1.07,33.45Zm29.07-16.62L1556-43.85l1.07,33.45L1528.64,7.25l-29.5-15.79L1498.07-42Zm-29.64,17.69,1.07,33.44L1469.5,9.15,1439.72-6.8l-1.07-33.45,28.43-17.65Zm1.71,34.47,29.5,15.8,1.07,33.45-28.43,17.65-29.5-15.8-1.07-33.45Zm-29.64,17.69L1470,43.66l-28.43,17.65-29.78-15.94-1.07-33.45,28.43-17.65Zm1.71,34.48,29.5,15.79,1.07,33.45-28.43,17.66-29.5-15.8-1.08-33.45ZM1441,62.38l1.07,33.45-28.43,17.65-29.78-16-1.08-33.45,28.44-17.65Zm1.7,34.47,29.51,15.8,1.07,33.45-28.43,17.65L1415.34,148l-1.07-33.45Zm-29.64,17.69,1.08,33.45-28.44,17.65-29.78-15.94-1.07-33.45,28.44-17.65Zm1.71,34.48,29.5,15.8,1.08,33.44-28.44,17.66-29.5-15.8-1.07-33.45Zm-29.64,17.69,1.07,33.45-28.43,17.65L1328,201.86l-1.07-33.45,28.43-17.65Zm1.71,34.47,29.5,15.8,1.07,33.45L1389,268.08l-29.5-15.8-1.07-33.45Zm-29.64,17.69,1.07,33.45L1329.84,270,1300.06,254,1299,220.58l28.43-17.65Zm1.71,34.48,29.5,15.8,1.07,33.45-28.43,17.65-29.51-15.8L1330.47,271ZM1329.27,271l1.07,33.45-28.44,17.65-29.78-15.95-1.07-33.45,28.44-17.65Zm1.7,34.47,29.51,15.8,1.07,33.45-28.44,17.65-29.5-15.8-1.07-33.44Zm-29.64,17.69,1.07,33.45L1274,374.3l-29.78-15.94-1.07-33.45,28.43-17.65Zm1.71,34.48,29.5,15.8,1.07,33.45-28.43,17.65-29.5-15.8-1.07-33.45Zm-29.64,17.69,1.07,33.45L1246,426.47l-29.78-16-1.07-33.45,28.43-17.65Zm1.71,34.47,29.5,15.8,1.07,33.45-28.43,17.65L1247.74,461l-1.07-33.45Zm-29.64,17.69,1.07,33.45-28.43,17.66-29.79-15.95-1.07-33.45,28.44-17.65Zm1.7,34.48,29.51,15.8,1.07,33.45-28.43,17.65-29.51-15.8-1.07-33.45Zm-29.64,17.69,1.07,33.45-28.43,17.65-29.78-15.95-1.07-33.44,28.43-17.66Zm1.71,34.48,29.5,15.79,1.07,33.45-28.43,17.65-29.5-15.79-1.07-33.45Zm-29.64,17.69,1.07,33.45L1162.24,583l-29.78-16-1.07-33.45,28.43-17.65Zm1.71,34.47,29.5,15.8,1.07,33.45-28.43,17.65-29.5-15.8L1162.88,584ZM1161.67,584l1.07,33.45-28.43,17.65-29.78-15.94-1.07-33.45,28.43-17.65Zm1.71,34.48,29.5,15.79,1.07,33.45-28.43,17.66L1136,669.61l-1.07-33.45Zm-29.64,17.69,1.07,33.45-28.44,17.65-29.78-15.95-1.07-33.45L1104,620.25Zm1.7,34.47,29.51,15.8,1.07,33.45-28.44,17.65-29.5-15.8L1107,688.32Zm-29.64,17.69,1.07,33.45-28.43,17.65-29.78-15.94-1.07-33.45L1076,672.42Zm1.71,34.48,29.5,15.8,1.07,33.45-28.43,17.65-29.5-15.8-1.07-33.45Zm-29.64,17.69,1.07,33.45-28.43,17.65-29.78-16-1.07-33.45,28.43-17.65Zm1.71,34.47,29.5,15.8,1.07,33.45-28.43,17.65-29.51-15.8-1.07-33.45Zm-29.64,17.69,1.07,33.45-28.43,17.65-29.79-15.94-1.07-33.45,28.44-17.65Zm1.7,34.48,29.51,15.8,1.07,33.45-28.43,17.65-29.51-15.8-1.07-33.45ZM1022,844.86l1.07,33.45L994.64,896l-29.78-16-1.07-33.45,28.43-17.65Zm1.71,34.47,29.5,15.8,1.07,33.45-28.43,17.65-29.5-15.8L995.28,897ZM994.07,897l1.07,33.45-28.43,17.66-29.78-16-1.07-33.45,28.43-17.65Zm1.71,34.48,29.5,15.8,1.07,33.45L997.92,998.4l-29.5-15.8-1.07-33.45Zm-29.64,17.69,1.07,33.45-28.43,17.65L909,984.34l-1.08-33.45,28.44-17.65Zm1.71,34.47,29.5,15.8,1.07,33.45L970,1050.56l-29.51-15.79-1.07-33.45Zm-29.64,17.7,1.07,33.44-28.44,17.66-29.78-16L880,1003.06l28.44-17.65Zm1.7,34.47,29.51,15.8,1.07,33.45-28.44,17.65-29.5-15.8-1.07-33.45Zm-29.64,17.69,1.07,33.45-28.43,17.65-29.78-15.94-1.07-33.45,28.43-17.66ZM912,1088l29.5,15.79,1.07,33.45-28.43,17.65-29.5-15.79-1.07-33.45Zm-29.64,17.69,1.07,33.45L855,1156.79l-29.78-16-1.07-33.45,28.43-17.65Zm1.71,34.47,29.5,15.8,1.07,33.45-28.43,17.65-29.51-15.8-1.07-33.45Zm-29.64,17.69,1.07,33.45L827,1209,797.26,1193l-1.07-33.45,28.44-17.65Zm1.7,34.48,29.51,15.79,1.07,33.45-28.44,17.66-29.5-15.8L827.68,1210ZM826.47,1210l1.07,33.45-28.43,17.65-29.78-15.95-1.07-33.45,28.43-17.65Zm1.71,34.47,29.5,15.8,1.07,33.45-28.43,17.65-29.5-15.8-1.07-33.45Zm-29.64,17.69,1.07,33.45-28.43,17.65-29.78-15.94-1.07-33.45,28.43-17.65Zm1.71,34.48,29.5,15.8,1.07,33.45-28.43,17.65-29.51-15.8-1.06-33.45Zm-29.64,17.69,1.07,33.45-28.43,17.65-29.78-16-1.08-33.45,28.44-17.65Zm1.7,34.47,29.51,15.8,1.07,33.45-28.43,17.65L745,1399.92l-1.07-33.44Zm-29.64,17.69,1.08,33.45-28.44,17.65-29.78-15.94-1.07-33.45,28.44-17.65Zm1.71,34.48,29.5,15.8,1.08,33.45-28.44,17.65-29.5-15.8L716,1418.64Zm-29.64,17.69,1.07,33.45-28.43,17.65-29.78-16-1.07-33.45L685,1402.73Zm1.71,34.47L746,1469,747,1502.4l-28.43,17.65-29.5-15.79L688,1470.81Zm-29.64,17.69,1.07,33.45L659.45,1522l-29.78-16-1.07-33.45L657,1454.9Zm1.71,34.48,29.5,15.8,1.07,33.45-28.43,17.65-29.51-15.8L660.08,1523ZM658.88,1523l1.07,33.45-28.44,17.65-29.78-15.95-1.07-33.44,28.44-17.66Zm1.7,34.48,29.51,15.79,1.07,33.45-28.44,17.65-29.5-15.79-1.07-33.45Zm-29.64,17.69,1.07,33.45-28.43,17.65-29.78-16-1.07-33.45,28.43-17.65Zm1.71,34.47,29.5,15.8,1.07,33.45-28.43,17.65-29.5-15.8-1.07-33.45ZM603,1627.34l1.07,33.45-28.43,17.65-29.78-15.94-1.07-33.45,28.43-17.65Zm1.71,34.48,29.5,15.79,1.07,33.45-28.43,17.66-29.51-15.8-1.07-33.45Zm-29.64,17.69,1.07,33.45-28.43,17.65-29.79-15.95-1.07-33.45,28.44-17.65Zm1.7,34.47,29.51,15.8,1.07,33.45-28.43,17.65-29.51-15.8-1.07-33.45Zm-29.64,17.69,1.07,33.45-28.43,17.65L490,1766.83l-1.07-33.45,28.43-17.65ZM608,1764.26l29.78,15.94,1.07,33.45-28.43,17.65-29.78-15.94-1.07-33.45Zm90.63,48.52,29.78,16,1.08,33.45L701,1879.83l-29.78-15.94-1.07-33.45Zm90.63,48.53,29.79,16,1.06,33.45-28.43,17.65-29.78-15.94L760.82,1879Zm90.63,48.53,29.78,16,1.08,33.45-28.44,17.65-29.78-16-1.07-33.44Zm90.63,48.53,29.79,16,1.07,33.45-28.44,17.65-29.78-16L942.08,1976Zm90.64,48.53,29.78,15.95,1.07,33.45L1063.56,2074,1033.78,2058l-1.07-33.45Zm90.63,48.53,29.78,16,1.07,33.45-28.44,17.65-29.78-15.95-1.07-33.45Zm-29.07,16.63-29.51-15.8-1.07-33.45,28.44-17.65,29.5,15.8,1.07,33.45Zm29.64-17.69-1.07-33.45,28.43-17.65,29.78,15.94,1.07,33.45-28.43,17.65Zm-1.71-34.48-29.5-15.8-1.07-33.44L1148.5,1953l29.5,15.8,1.07,33.45Zm29.64-17.69-1.07-33.45,28.43-17.65,29.78,16,1.07,33.45-28.43,17.65Zm-1.71-34.47-29.5-15.8-1.07-33.45,28.43-17.65,29.5,15.8,1.07,33.45Zm29.64-17.69-1.07-33.45,28.43-17.65,29.78,15.94,1.07,33.45L1238,1966Zm-1.71-34.48-29.5-15.8-1.07-33.45,28.43-17.65,29.51,15.8,1.07,33.45Zm29.64-17.69-1.07-33.45,28.44-17.65,29.78,16,1.07,33.45-28.44,17.65Zm-1.7-34.47-29.51-15.8-1.07-33.45,28.44-17.65,29.5,15.8,1.07,33.44Zm29.64-17.69-1.07-33.45,28.43-17.65,29.78,15.94,1.07,33.45-28.43,17.65Zm-1.71-34.48-29.5-15.8L1231.8,1762l28.43-17.65,29.5,15.8,1.07,33.45Zm29.64-17.69-1.07-33.45,28.43-17.65,29.78,16,1.07,33.44-28.43,17.66Zm-1.71-34.48-29.5-15.79-1.07-33.45,28.43-17.65,29.51,15.79,1.07,33.45Zm29.64-17.69-1.07-33.44,28.44-17.66,29.78,16,1.07,33.45-28.44,17.65Zm-1.7-34.47-29.51-15.8-1.07-33.45L1316.1,1640l29.5,15.8,1.07,33.45Zm29.64-17.69-1.07-33.45,28.43-17.65,29.78,15.94,1.07,33.45-28.43,17.66Zm-1.71-34.48-29.5-15.79-1.07-33.45,28.43-17.65,29.5,15.79,1.07,33.45Zm29.64-17.69-1.07-33.45,28.43-17.65,29.78,16,1.07,33.45L1405.59,1653Zm-1.71-34.47-29.5-15.8-1.07-33.45,28.43-17.65,29.5,15.8,1.08,33.45Zm29.64-17.69-1.07-33.45,28.43-17.65,29.79,15.94,1.06,33.45-28.43,17.65ZM1402,1550.4l-29.5-15.8-1.07-33.44,28.43-17.66,29.51,15.8,1.07,33.45Zm29.65-17.69-1.08-33.45,28.44-17.65,29.78,16,1.07,33.45-28.43,17.65Zm-1.71-34.47-29.5-15.8-1.08-33.45,28.44-17.65,29.5,15.8,1.07,33.45Zm29.64-17.69-1.07-33.45,28.43-17.65,29.78,15.94,1.07,33.45-28.43,17.65Zm-1.71-34.48-29.5-15.8-1.07-33.45,28.43-17.65,29.5,15.8,1.07,33.45Zm29.64-17.69-1.07-33.45,28.43-17.65,29.78,16,1.07,33.45-28.43,17.65Zm-1.71-34.47-29.5-15.8-1.07-33.45,28.43-17.65,29.51,15.8,1.07,33.44Zm29.64-17.69-1.07-33.45,28.44-17.65,29.78,15.94,1.07,33.45-28.44,17.65Zm-1.7-34.48-29.51-15.8-1.07-33.45,28.44-17.65,29.5,15.8,1.07,33.45Zm29.64-17.69-1.07-33.45,28.43-17.65,29.78,16,1.07,33.45L1573.19,1340Zm-1.71-34.48-29.5-15.79-1.07-33.45,28.43-17.65,29.5,15.79,1.07,33.45Zm29.64-17.69-1.07-33.44,28.43-17.66,29.78,16,1.07,33.45-28.43,17.65Zm-1.71-34.47-29.5-15.8-1.07-33.45,28.43-17.65,29.51,15.8,1.07,33.45Zm29.64-17.69-1.07-33.45,28.44-17.65,29.78,16,1.07,33.44-28.44,17.66Zm-1.7-34.48-29.51-15.79L1567,1136l28.44-17.65,29.5,15.79,1.07,33.45Zm29.64-17.69-1.07-33.44,28.43-17.66,29.78,16,1.07,33.45L1657,1183.5Zm-1.71-34.47-29.5-15.8-1.07-33.45,28.43-17.65,29.5,15.8,1.07,33.45Zm29.64-17.69-1.07-33.45,28.43-17.65,29.78,15.94,1.07,33.45-28.43,17.66Zm-1.71-34.48-29.5-15.79-1.07-33.45,28.43-17.66,29.5,15.8,1.07,33.45Zm29.64-17.69-1.07-33.45,28.43-17.65,29.78,15.95,1.07,33.45-28.43,17.65Zm-1.71-34.47-29.5-15.8-1.07-33.45,28.43-17.65,29.51,15.8,1.07,33.45Zm29.64-17.69-1.07-33.45L1738.37,960l29.78,15.94,1.07,33.45L1740.78,1027Zm-1.7-34.48-29.51-15.8-1.07-33.44,28.44-17.66,29.5,15.8,1.07,33.45Zm29.64-17.69-1.07-33.45,28.43-17.65,29.78,16,1.07,33.45-28.43,17.65Zm-1.71-34.47-29.5-15.8-1.07-33.45,28.43-17.65,29.5,15.8,1.07,33.45Zm29.64-17.69-1.07-33.45,28.43-17.65L1824,871.57l1.07,33.45-28.43,17.65Zm-1.71-34.48-29.5-15.8L1734.59,823,1763,805.35l29.51,15.8,1.07,33.45Zm29.64-17.69-1.07-33.45,28.44-17.65L1852,819.41l1.07,33.45-28.44,17.65Zm-1.7-34.47-29.51-15.8-1.07-33.45L1791,753.19l29.5,15.8,1.07,33.44Zm29.64-17.69L1821.67,769l28.43-17.65,29.78,15.94,1.07,33.45-28.43,17.65ZM1821,767.92l-29.5-15.8-1.07-33.45L1818.89,701l29.5,15.8,1.07,33.45Zm29.64-17.69-1.07-33.45L1878,699.13l29.78,16,1.07,33.45-28.43,17.65ZM1849,715.75,1819.46,700l-1.07-33.45,28.43-17.65,29.5,15.79,1.07,33.45Zm29.64-17.69-1.07-33.44L1906,647l29.78,15.95,1.07,33.45L1908.38,714Zm-1.71-34.47-29.5-15.8-1.07-33.45,28.43-17.65,29.51,15.8,1.07,33.45Zm29.64-17.69-1.07-33.45,28.44-17.65,29.78,15.94,1.07,33.45-28.44,17.66Zm-1.7-34.48-29.51-15.79-1.07-33.45,28.44-17.65,29.5,15.79,1.07,33.45Zm29.64-17.69-1.07-33.45,28.43-17.65,29.78,16,1.07,33.45-28.43,17.65Zm-1.71-34.47-29.5-15.8L1902.19,510l28.43-17.65,29.5,15.8,1.07,33.45Zm29.64-17.69-1.07-33.45,28.43-17.65,29.78,15.94,1.07,33.45-28.43,17.65Zm-1.71-34.48-29.5-15.8-1.07-33.44,28.43-17.66,29.51,15.8,1.07,33.45Zm29.64-17.69L1989.26,456l28.44-17.65,29.78,15.95,1.07,33.45-28.44,17.65Zm-1.7-34.47-29.51-15.8-1.07-33.45L1986.49,388l29.5,15.8,1.07,33.45Zm29.64-17.69-1.07-33.45,28.43-17.65,29.78,15.94,1.07,33.45-28.43,17.65Zm-1.71-34.48-29.5-15.8L1986,353.52l28.43-17.66,29.5,15.8,1.07,33.45Zm29.64-17.69-1.07-33.45L2073.56,334l29.78,15.95,1.07,33.45L2076,401Zm-1.71-34.47L2015,334.8l-1.07-33.45,28.43-17.65,29.5,15.8,1.08,33.45Zm29.64-17.69-1.07-33.45,28.43-17.65,29.78,15.94,1.07,33.45-28.43,17.65Zm-1.71-34.48-29.5-15.8-1.07-33.45,28.43-17.65,29.51,15.8,1.07,33.45Zm29.65-17.69L2101,247.29l28.44-17.65,29.78,16,1.07,33.45-28.44,17.65Zm-1.71-34.47-29.51-15.8L2069.78,197l28.44-17.65,29.5,15.8,1.07,33.44Zm-90.63-48.53-29.51-15.8-1.07-33.45,28.44-17.65,29.5,15.8,1.07,33.44Zm-90.63-48.53-29.51-15.8L1888.52,100,1917,82.31l29.5,15.8,1.07,33.45Zm-90.63-48.53L1799,84.88l-1.07-33.45,28.44-17.65,29.5,15.8L1856.9,83Zm-90.63-48.53-29.51-15.8L1707.26,2.9l28.44-17.65,29.5,15.8,1.07,33.45ZM1647.21,3.62l-29.51-15.8-1.07-33.45,28.44-17.65,29.5,15.8L1675.64-14Zm-90.63-48.53-29.51-15.8L1526-94.16l28.44-17.65,29.5,15.8L1585-62.56ZM1466-93.44l-29.51-15.8-1.07-33.45,28.44-17.65,29.5,15.8,1.07,33.45Zm-31.78-49.21,1.07,33.45L1406.8-91.55l-29.78-16L1376-140.94l28.44-17.66Zm1.7,34.48,29.51,15.79,1.07,33.45L1438-41.28l-29.5-15.79-1.07-33.45Zm-29.64,17.69L1407.3-57l-28.43,17.65-29.78-15.95L1348-88.78l28.43-17.65ZM1407.94-56l29.5,15.8,1.07,33.45-28.43,17.65-29.5-15.8-1.07-33.45ZM1378.3-38.32l1.07,33.45-28.43,17.65L1321.16-3.16l-1.07-33.45,28.43-17.65ZM1380-3.84,1409.51,12l1.07,33.45-28.43,17.66-29.51-15.8-1.07-33.45Zm-29.64,17.69,1.07,33.45L1323,65l-29.79-16-1.07-33.45L1320.59-2.1Zm1.7,34.47,29.51,15.8,1.07,33.45-28.43,17.65-29.51-15.8L1323.64,66ZM1322.43,66l1.07,33.45-28.43,17.65-29.78-15.94-1.07-33.45,28.43-17.65Zm1.71,34.48,29.5,15.8,1.08,33.45-28.44,17.65-29.5-15.8-1.07-33.45Zm-29.64,17.69,1.07,33.45-28.43,17.65-29.78-15.95-1.07-33.45,28.43-17.65Zm1.71,34.47,29.5,15.8,1.07,33.45-28.43,17.65-29.5-15.8-1.07-33.45Zm-29.64,17.69,1.07,33.45-28.43,17.65-29.78-15.94-1.07-33.45,28.43-17.65Zm1.71,34.48,29.5,15.8,1.07,33.45-28.43,17.65-29.51-15.8-1.07-33.45Zm-29.64,17.69,1.07,33.45-28.44,17.65-29.78-15.95-1.07-33.45,28.44-17.65Zm1.7,34.47,29.51,15.8,1.07,33.45-28.44,17.65-29.5-15.8-1.07-33.44Zm-29.64,17.69,1.07,33.45-28.43,17.65-29.78-15.94-1.07-33.45,28.43-17.65Zm1.71,34.48,29.5,15.8L1243,358.4l-28.43,17.65-29.5-15.8L1184,326.8Zm-29.64,17.69,1.07,33.45-28.43,17.65L1125.63,362l-1.07-33.45L1153,310.89Zm1.71,34.47,29.5,15.8,1.07,33.45-28.43,17.65-29.51-15.79L1156,379ZM1154.84,379l1.07,33.45-28.44,17.66-29.78-15.95-1.07-33.45,28.44-17.65Zm1.7,34.48,29.51,15.8,1.07,33.45-28.44,17.65-29.5-15.8-1.07-33.45Zm-29.64,17.69,1.07,33.45-28.43,17.65-29.78-15.94-1.07-33.45,28.43-17.66Zm1.71,34.48,29.5,15.79,1.08,33.45-28.44,17.65-29.5-15.79-1.07-33.45ZM1099,483.34l1.07,33.45-28.43,17.65-29.78-16L1040.76,485l28.43-17.65Zm1.71,34.47,29.5,15.8,1.07,33.45-28.43,17.65-29.51-15.8-1.06-33.45ZM1071,535.5l1.07,33.45-28.43,17.65-29.78-15.94-1.07-33.45,28.43-17.65Zm1.7,34.48,29.51,15.79,1.07,33.45-28.43,17.66-29.51-15.8-1.07-33.45Zm-29.64,17.69,1.08,33.45-28.44,17.65L986,622.82l-1.07-33.45,28.44-17.65Zm1.71,34.47,29.5,15.8,1.08,33.45L1047,689l-29.5-15.8-1.07-33.45Zm-29.64,17.69,1.07,33.45-28.43,17.65L958,675,957,641.54l28.43-17.65Zm1.71,34.48,29.5,15.8,1.07,33.45L1019,741.21l-29.5-15.8L988.45,692ZM987.24,692l1.07,33.45L959.88,743.1l-29.78-16L929,693.7l28.43-17.65ZM989,726.47l29.5,15.8,1.07,33.45-28.43,17.65-29.51-15.8-1.07-33.44Zm-29.64,17.69,1.07,33.45-28.44,17.65-29.78-15.94-1.07-33.45,28.44-17.65Zm1.7,34.48,29.51,15.8,1.07,33.45-28.44,17.65-29.5-15.8-1.07-33.45Zm-29.64,17.69,1.07,33.45L904,847.43l-29.78-15.95L873.16,798l28.43-17.65Zm1.71,34.47,29.5,15.8,1.07,33.45L935.22,897.7l-29.5-15.8-1.07-33.44Zm-29.64,17.69,1.07,33.45L876.08,899.6l-29.78-16-1.07-33.45,28.43-17.65ZM905.15,883l29.5,15.8,1.07,33.45-28.43,17.65-29.51-15.8-1.07-33.45Zm-29.64,17.69,1.07,33.45-28.43,17.65-29.78-16-1.07-33.44,28.43-17.66Zm1.7,34.48,29.51,15.79,1.07,33.45L879.36,1002l-29.51-15.79-1.07-33.45Zm-29.64,17.69,1.07,33.44-28.43,17.66L790.43,988l-1.07-33.45,28.43-17.65Zm1.71,34.47,29.5,15.8,1.08,33.45-28.44,17.65-29.5-15.8L820.85,1005ZM819.64,1005l1.07,33.45-28.43,17.65-29.78-15.94-1.07-33.45L789.86,989Zm1.71,34.48,29.5,15.79,1.07,33.45-28.43,17.66-29.5-15.8-1.07-33.45Zm-29.64,17.69,1.07,33.45-28.43,17.65-29.78-16-1.07-33.45,28.43-17.65Zm1.71,34.47,29.5,15.8,1.07,33.45-28.43,17.65-29.51-15.8L765,1109.28Zm-29.64,17.69,1.07,33.45-28.44,17.65-29.78-15.94L705.56,1111,734,1093.38Zm1.7,34.48L795,1159.6l1.07,33.45-28.44,17.65-29.5-15.8-1.07-33.45Zm-29.64,17.69,1.07,33.45-28.43,17.65-29.78-15.95-1.07-33.45,28.43-17.65Zm1.71,34.47,29.5,15.8,1.07,33.45-28.43,17.65-29.5-15.8-1.07-33.45Zm-29.64,17.69L709,1247.1l-28.43,17.65-29.78-15.94-1.07-33.45,28.43-17.65Zm1.71,34.48,29.5,15.8,1.07,33.45L711.76,1315l-29.51-15.8-1.07-33.45ZM680,1265.82l1.07,33.45-28.43,17.65-29.79-16-1.07-33.45,28.44-17.65Zm1.7,34.47,29.51,15.8,1.07,33.45-28.43,17.65-29.51-15.8L653.25,1318ZM652,1318l1.07,33.45-28.43,17.65-29.78-15.94-1.07-33.45L622.26,1302Zm1.71,34.48,29.5,15.8,1.08,33.45-28.44,17.65-29.5-15.8-1.07-33.45Zm-29.64,17.69,1.07,33.45-28.43,17.65-29.78-16-1.07-33.45,28.43-17.65Zm1.71,34.47,29.5,15.8,1.07,33.45L628,1471.52l-29.5-15.79-1.07-33.45Zm-29.64,17.69,1.07,33.45-28.43,17.66-29.78-16L538,1424l28.43-17.65Zm1.71,34.48,29.5,15.8,1.07,33.45L600,1523.69l-29.51-15.8-1.07-33.45Zm-29.64,17.69,1.07,33.45-28.44,17.65-29.78-15.95L510,1476.19l28.44-17.66ZM570,1509l29.51,15.79,1.07,33.45-28.44,17.65-29.5-15.79-1.07-33.45Zm-29.64,17.69,1.07,33.45L513,1577.75l-29.78-16-1.07-33.45,28.43-17.65Zm1.71,34.47,29.5,15.8,1.07,33.45L544.16,1628l-29.5-15.8-1.07-33.45Zm-29.64,17.69,1.07,33.45L485,1629.91,455.24,1614l-1.07-33.45,28.43-17.65Zm1.71,34.48,29.5,15.79,1.07,33.45-28.43,17.66-29.51-15.8-1.07-33.45ZM484.45,1631l1.07,33.45-28.44,17.65-29.78-15.95-1.07-33.45L454.67,1615Zm1.7,34.47,29.51,15.8,1.07,33.45-28.44,17.65-29.5-15.8-1.07-33.45Zm-29.64,17.69,1.07,33.45-28.43,17.65-29.78-15.94-1.07-33.45,28.43-17.65Zm1.71,34.48,29.5,15.8,1.07,33.45-28.43,17.65-29.5-15.8-1.07-33.45Zm90.63,48.53,29.5,15.8,1.07,33.45L551,1833.05l-29.5-15.8-1.07-33.45Zm90.63,48.53,29.5,15.8,1.07,33.44-28.43,17.66-29.5-15.8-1.07-33.45Zm90.63,48.53,29.5,15.79,1.08,33.45-28.44,17.66-29.5-15.8-1.07-33.45Zm90.63,48.53,29.51,15.79,1.06,33.45-28.43,17.65-29.5-15.79-1.07-33.45Zm90.63,48.53,29.5,15.79,1.08,33.45-28.44,17.65L884,2011.37l-1.07-33.45ZM1002,2008.8l29.51,15.79,1.07,33.45-28.44,17.65-29.5-15.79-1.07-33.45Zm90.63,48.52,29.51,15.8,1.07,33.45-28.44,17.65-29.5-15.79L1064.2,2075Zm90.63,48.53,29.51,15.8,1.07,33.45-28.44,17.65-29.5-15.8-1.07-33.44Zm31.78,49.21-1.07-33.45,28.44-17.65,29.78,15.95,1.07,33.45L1244.82,2171Zm-1.7-34.47-29.51-15.8-1.07-33.45,28.44-17.65,29.5,15.8,1.07,33.45ZM1243,2102.9l-1.07-33.45,28.43-17.65,29.78,15.94,1.07,33.45-28.43,17.65Zm-1.71-34.48-29.5-15.8-1.07-33.44,28.43-17.66,29.5,15.8,1.07,33.45Zm29.64-17.69-1.07-33.45,28.43-17.65,29.78,15.95,1.07,33.45-28.43,17.65Zm-1.71-34.47-29.5-15.8-1.07-33.45,28.43-17.65,29.5,15.8,1.07,33.45Zm29.64-17.69-1.07-33.45,28.43-17.65,29.78,15.94,1.07,33.45-28.43,17.65Zm-1.71-34.48-29.5-15.8-1.07-33.45,28.43-17.65,29.51,15.8,1.07,33.45Zm29.64-17.69L1325.7,1913l28.44-17.65,29.78,16,1.07,33.45-28.44,17.65Zm-1.7-34.47-29.51-15.8-1.07-33.45,28.44-17.65,29.5,15.79,1.07,33.45Zm29.64-17.69-1.07-33.45,28.43-17.66,29.78,15.95,1.07,33.45-28.43,17.65Zm-1.71-34.48-29.5-15.8-1.07-33.45,28.43-17.65,29.5,15.8,1.07,33.45Zm29.64-17.69-1.07-33.45L1410,1791l29.78,16,1.07,33.44L1412.42,1858Zm-1.71-34.48-29.5-15.79-1.07-33.45,28.43-17.65,29.51,15.79,1.07,33.45Zm29.64-17.69-1.07-33.44,28.44-17.66,29.78,16,1.07,33.45-28.44,17.65Zm-1.7-34.47-29.51-15.8-1.07-33.45,28.44-17.65,29.5,15.8,1.07,33.45Zm29.64-17.69-1.07-33.45,28.43-17.65,29.78,15.94,1.07,33.45-28.43,17.65Zm-1.71-34.48-29.5-15.79-1.07-33.45,28.43-17.66,29.5,15.8,1.07,33.45Zm29.64-17.69-1.07-33.45,28.43-17.65,29.78,16,1.07,33.45-28.43,17.65Zm-1.71-34.47-29.5-15.8-1.07-33.45,28.43-17.65,29.51,15.8,1.07,33.45Zm29.64-17.69L1493.3,1600l28.44-17.65,29.78,15.94,1.07,33.45-28.44,17.65Zm-1.7-34.48-29.51-15.8-1.07-33.44,28.43-17.66,29.51,15.8,1.07,33.45Zm29.64-17.69-1.07-33.45,28.43-17.65,29.78,15.95,1.07,33.45-28.43,17.65Zm-1.71-34.47-29.51-15.8-1.06-33.45,28.43-17.65,29.5,15.8,1.07,33.45Zm29.64-17.69-1.07-33.45L1577.6,1478l29.78,15.94,1.07,33.45L1580,1545Zm-1.71-34.48-29.5-15.8-1.07-33.45,28.43-17.65,29.5,15.8L1577,1477Zm29.64-17.69-1.07-33.45,28.43-17.65,29.78,16,1.07,33.45L1608,1492.86Zm-1.71-34.47-29.5-15.8-1.07-33.45,28.43-17.65,29.51,15.8,1.07,33.44Zm29.64-17.69L1605,1391.3l28.44-17.66,29.78,15.95,1.07,33.45-28.44,17.65Zm-1.7-34.48-29.51-15.8-1.07-33.45,28.44-17.65,29.5,15.8,1.07,33.45Zm29.64-17.69-1.07-33.45,28.43-17.65,29.78,16,1.07,33.44-28.43,17.66Zm-1.71-34.48-29.5-15.79-1.07-33.45,28.43-17.65,29.5,15.79,1.07,33.45Zm29.64-17.69L1660.9,1287l28.43-17.66,29.78,16,1.07,33.45-28.43,17.65Zm-1.71-34.47-29.5-15.8-1.07-33.45,28.43-17.65,29.51,15.8,1.07,33.45Zm29.64-17.69-1.07-33.45,28.44-17.65,29.78,15.94,1.07,33.45-28.44,17.66Zm-1.7-34.48L1658.69,1218l-1.07-33.45,28.43-17.65,29.51,15.79,1.07,33.45Zm29.64-17.69-1.07-33.45L1745.2,1165l29.78,16,1.07,33.45L1747.62,1232Zm-1.71-34.47-29.5-15.8-1.07-33.45,28.43-17.65,29.5,15.8,1.07,33.45Zm29.64-17.69-1.07-33.45,28.43-17.65,29.78,15.94,1.07,33.45-28.43,17.65Zm-1.71-34.48-29.5-15.8-1.07-33.44,28.43-17.66,29.5,15.8,1.07,33.45Zm29.64-17.69-1.07-33.45,28.43-17.65,29.78,15.95,1.07,33.45-28.43,17.65Zm-1.71-34.47-29.5-15.8-1.07-33.45,28.43-17.65,29.51,15.8,1.07,33.45Zm29.64-17.69-1.07-33.45,28.44-17.65,29.78,15.94,1.07,33.45-28.44,17.65Zm-1.7-34.48-29.51-15.8-1.07-33.44,28.44-17.66,29.5,15.8,1.07,33.45Zm29.64-17.69L1828.5,974l28.43-17.65,29.78,15.95,1.07,33.45-28.43,17.65ZM1827.86,973l-29.5-15.8-1.07-33.45,28.43-17.65,29.5,15.8,1.07,33.45Zm29.64-17.69-1.07-33.45,28.43-17.65,29.78,15.94,1.07,33.45-28.43,17.65Zm-1.71-34.48-29.5-15.8-1.07-33.45,28.43-17.65,29.51,15.8,1.07,33.45Zm29.64-17.69-1.07-33.45L1912.8,852l29.78,16,1.07,33.45L1915.21,919Zm-1.7-34.47-29.51-15.8-1.07-33.45,28.44-17.65,29.5,15.79,1.07,33.45Zm29.64-17.69-1.07-33.45,28.43-17.66,29.78,15.95,1.07,33.45-28.43,17.65Zm-1.71-34.48-29.5-15.8-1.07-33.45,28.43-17.65,29.5,15.8,1.07,33.45Zm29.64-17.69-1.07-33.45,28.43-17.65,29.78,16,1.07,33.44-28.43,17.66Zm-1.71-34.48-29.5-15.79L1909,715l28.43-17.65,29.5,15.79,1.08,33.45Zm29.64-17.69-1.07-33.44,28.43-17.66,29.78,16,1.07,33.45L1999,762.54Zm-1.71-34.47-29.5-15.8L1937,662.87l28.43-17.65,29.51,15.8,1.07,33.45Zm29.65-17.69L1996.09,661l28.44-17.65,29.78,15.94,1.07,33.45L2027,710.37ZM1995.46,660,1966,644.16l-1.07-33.45,28.44-17.66,29.5,15.8,1.07,33.45Zm29.64-17.69L2024,608.81l28.43-17.65,29.78,16,1.07,33.45-28.43,17.65Zm-1.71-34.47-29.5-15.8-1.07-33.45,28.43-17.65,29.5,15.8,1.07,33.45ZM2053,590.1,2052,556.65,2080.39,539l29.78,15.94,1.07,33.45L2082.81,606Zm-1.71-34.48-29.5-15.8-1.07-33.44,28.43-17.66,29.51,15.8,1.07,33.45ZM2081,537.93l-1.07-33.45,28.44-17.65,29.78,15.95,1.07,33.45-28.44,17.65Zm-1.7-34.47-29.51-15.8-1.07-33.45,28.44-17.65,29.5,15.8,1.07,33.45Zm29.64-17.69-1.07-33.45,28.43-17.65L2166,450.61l1.07,33.45-28.43,17.65Zm-1.71-34.48-29.5-15.8L2076.62,402l28.43-17.65,29.5,15.8,1.07,33.45Zm29.64-17.69-1.07-33.45,28.43-17.65L2194,398.45,2195,431.9l-28.43,17.65Zm-1.71-34.47-29.5-15.8-1.07-33.45L2133,332.23l29.51,15.8,1.07,33.44Zm29.64-17.69L2163.69,348l28.44-17.65,29.78,15.94,1.07,33.45-28.44,17.65Zm-1.7-34.48-29.51-15.8-1.07-33.45,28.43-17.65,29.51,15.8,1.07,33.45Zm29.64-17.69-1.07-33.45,28.43-17.65,29.78,15.95,1.07,33.45-28.43,17.65ZM2191,294.8,2161.48,279l-1.06-33.45,28.43-17.65,29.5,15.79,1.07,33.45Zm29.64-17.69-1.07-33.45L2248,226,2277.77,242l1.07,33.45-28.43,17.65Zm-60.85-32.59L2130,228.58l-1.07-33.45,28.43-17.66,29.78,15.95,1.07,33.45ZM2069.15,196l-29.78-15.94-1.07-33.45L2066.73,129l29.78,15.94,1.07,33.45Zm-90.63-48.53-29.78-15.94-1.07-33.45,28.43-17.65,29.78,15.94,1.07,33.45Zm-90.63-48.53L1858.11,83,1857,49.54l28.43-17.65,29.78,15.94,1.07,33.45ZM1797.26,50.4l-29.78-15.94L1766.41,1l28.43-17.65L1824.62-.7l1.07,33.45ZM1706.63,1.87l-29.78-15.94-1.07-33.45,28.43-17.65L1734-49.23l1.07,33.45ZM1616-46.66,1586.22-62.6,1585.15-96l28.43-17.65,29.78,15.94,1.07,33.45Zm-90.63-48.52-29.78-15.95-1.07-33.45L1523-162.23l29.78,15.94,1.07,33.45Zm-90.63-48.53L1405-159.66l-1.07-33.45,28.43-17.65,29.78,15.94,1.07,33.45Zm-90.63-48.53-29.78-15.95-1.07-33.45,28.43-17.65,29.78,16,1.07,33.44Zm29.07-16.63,29.5,15.8,1.07,33.45L1375.32-142l-29.51-15.8-1.07-33.45Zm-29.64,17.69,1.07,33.45-28.44,17.65L1286.39-156l-1.07-33.45,28.44-17.66Zm1.7,34.48,29.51,15.79,1.07,33.45L1347.38-89.8l-29.5-15.8L1316.81-139ZM1315.6-139l1.07,33.45-28.43,17.65-29.78-16-1.07-33.45L1285.82-155Zm1.71,34.47,29.5,15.8,1.07,33.45-28.43,17.65L1290-53.44l-1.07-33.45Zm-29.64,17.69,1.07,33.45-28.43,17.65-29.78-15.94-1.07-33.45,28.43-17.65Zm1.71,34.48,29.5,15.8L1320-3.13l-28.43,17.66L1262-1.27l-1.07-33.45Zm-29.64,17.69,1.07,33.45-28.43,17.65L1202.59.47,1201.52-33,1230-50.63Zm1.7,34.47L1291,15.59,1292,49l-28.43,17.65-29.51-15.8L1233,17.44ZM1231.8,17.48l1.07,33.45-28.43,17.65-29.78-15.94-1.07-33.45L1202,1.54ZM1233.51,52l29.5,15.8,1.07,33.45-28.43,17.65-29.5-15.8-1.07-33.45Zm-29.64,17.69,1.07,33.45-28.43,17.65-29.78-16-1.07-33.45,28.43-17.65Zm1.71,34.47,29.5,15.8,1.07,33.45L1207.72,171l-29.5-15.8-1.07-33.45Zm-29.64,17.69,1.07,33.45-28.43,17.65L1118.8,157l-1.07-33.45,28.43-17.65Zm1.71,34.48,29.5,15.8,1.07,33.45-28.43,17.65-29.51-15.8-1.07-33.45ZM1148,174l1.07,33.45-28.44,17.65-29.78-16-1.07-33.45L1118.23,158Zm1.7,34.47,29.51,15.8,1.07,33.45-28.44,17.65-29.5-15.79-1.07-33.45Zm-29.64,17.69,1.07,33.45-28.43,17.66-29.78-15.95-1.07-33.45,28.43-17.65Zm1.71,34.48,29.5,15.8,1.07,33.45-28.43,17.65-29.5-15.8-1.07-33.45Zm-29.64,17.69,1.07,33.45-28.43,17.65-29.78-16L1033.93,280l28.43-17.66Zm1.71,34.48,29.5,15.79,1.07,33.45L1096,379.68l-29.51-15.79-1.07-33.45Zm-29.64,17.69,1.07,33.45-28.44,17.65-29.78-15.95L1006,332.18l28.44-17.65Zm1.7,34.47,29.51,15.8,1.07,33.45-28.44,17.65-29.5-15.8-1.07-33.45Zm-29.64,17.69,1.07,33.45-28.43,17.65L979.13,417.8l-1.07-33.45,28.43-17.65Zm1.71,34.48,29.5,15.79,1.07,33.45L1040.12,484l-29.5-15.8-1.07-33.45Zm-29.64,17.69,1.07,33.45L981,485.91,951.2,470l-1.07-33.45,28.43-17.65Zm1.71,34.47,29.5,15.8,1.07,33.45-28.43,17.65-29.5-15.8-1.07-33.45ZM980.41,487l1.07,33.45-28.43,17.65-29.78-15.94-1.08-33.45L950.63,471Zm1.7,34.48,29.51,15.8,1.07,33.44-28.43,17.66-29.51-15.8-1.07-33.45Zm-29.64,17.69,1.08,33.45-28.44,17.65-29.78-16-1.07-33.45,28.44-17.65Zm1.71,34.47,29.51,15.8,1.07,33.45-28.44,17.65-29.5-15.8-1.07-33.45ZM924.54,591.3l1.07,33.45L897.18,642.4,867.4,626.46,866.33,593l28.43-17.65Zm1.71,34.48,29.5,15.8L956.82,675l-28.43,17.65-29.5-15.8-1.07-33.45Zm-29.64,17.69,1.07,33.45-28.43,17.65-29.78-16-1.07-33.45,28.43-17.65Zm1.71,34.47,29.5,15.8,1.07,33.45-28.43,17.65L871,729l-1.07-33.44Zm-29.64,17.69,1.07,33.45-28.44,17.65-29.78-15.94-1.07-33.45,28.44-17.65Zm1.7,34.48,29.51,15.8L901,779.36,872.52,797,843,781.21,842,747.76ZM840.74,747.8l1.07,33.45L813.38,798.9,783.6,783l-1.07-33.45L811,731.85Zm1.71,34.47,29.5,15.8L873,831.52l-28.43,17.65-29.5-15.79L814,799.93ZM812.81,800l1.07,33.45-28.43,17.66-29.78-16-1.07-33.45L783,784Zm1.71,34.48,29.5,15.8,1.07,33.45-28.43,17.65-29.51-15.8-1.06-33.45Zm-29.64,17.69L786,885.58l-28.43,17.65-29.78-16-1.08-33.44,28.44-17.66Zm1.7,34.48,29.51,15.79,1.07,33.45L788.73,953.5l-29.51-15.79-1.07-33.45ZM756.94,904.3,758,937.75,729.58,955.4,699.8,939.45,698.73,906l28.44-17.65Zm1.71,34.47,29.5,15.8L789.23,988l-28.44,17.65-29.5-15.8-1.07-33.45ZM729,956.46l1.07,33.45-28.43,17.65-29.78-15.94-1.07-33.45,28.43-17.65Zm1.71,34.48,29.5,15.79,1.07,33.45-28.43,17.66-29.5-15.8-1.07-33.45Zm-29.64,17.69,1.07,33.45-28.43,17.65-29.78-16-1.07-33.45,28.43-17.65Zm1.71,34.47,29.5,15.8,1.07,33.45L704.93,1110l-29.51-15.8-1.07-33.45Zm-29.64,17.69,1.07,33.45-28.44,17.65L616,1096l-1.07-33.45,28.44-17.65Zm1.7,34.48,29.51,15.8,1.07,33.45L677,1162.17l-29.5-15.8-1.07-33.45ZM645.21,1113l1.07,33.45-28.43,17.65-29.78-16L587,1114.66,615.43,1097Zm1.71,34.47,29.5,15.8,1.07,33.45-28.43,17.65-29.5-15.8-1.07-33.45Zm-29.64,17.69,1.07,33.45-28.43,17.65-29.78-15.94-1.07-33.45,28.43-17.65ZM619,1199.6l29.5,15.8,1.07,33.45-28.43,17.65-29.51-15.8-1.07-33.45Zm-29.64,17.69,1.07,33.45L562,1268.39l-29.79-16L531.13,1219l28.44-17.65Zm1.7,34.47,29.51,15.8,1.07,33.45-28.43,17.65-29.51-15.79-1.07-33.45Zm-29.64,17.69,1.07,33.45-28.43,17.66-29.78-16-1.07-33.45,28.43-17.65Zm1.71,34.48,29.5,15.8,1.07,33.45-28.43,17.65-29.5-15.8-1.07-33.45Zm-29.64,17.69,1.07,33.45-28.43,17.65-29.78-16-1.07-33.44,28.43-17.66Zm1.71,34.48,29.5,15.79,1.07,33.45L537.33,1423l-29.5-15.79-1.07-33.45Zm-29.64,17.69,1.07,33.44-28.43,17.66-29.78-16-1.08-33.45,28.44-17.65Zm1.71,34.47,29.5,15.8,1.07,33.45-28.43,17.65-29.51-15.8-1.07-33.45ZM477.62,1426l1.07,33.45-28.44,17.65-29.78-15.94-1.07-33.45L447.84,1410Zm1.7,34.48,29.51,15.79,1.07,33.45-28.44,17.66-29.5-15.8-1.07-33.45Zm-29.64,17.69,1.07,33.45-28.43,17.65-29.78-16-1.07-33.45,28.43-17.65Zm1.71,34.47,29.5,15.8,1.07,33.45-28.43,17.65-29.5-15.8L423,1530.24Zm-29.64,17.69,1.07,33.45-28.43,17.65-29.78-15.94L363.54,1532,392,1514.34Zm1.71,34.48,29.5,15.8L454,1614l-28.43,17.66-29.51-15.8L395,1582.41Zm-29.64,17.69,1.07,33.45-28.44,17.65-29.78-16-1.07-33.45L364,1566.5Zm1.7,34.47,29.51,15.8,1.07,33.45-28.44,17.65-29.5-15.8-1.07-33.45Zm-29.64,17.69,1.07,33.45-28.43,17.65-29.78-15.94-1.07-33.45,28.43-17.65Zm1.71,34.48,29.5,15.8,1.07,33.45L369.73,1736l-29.5-15.8-1.07-33.45ZM338,1686.78l1.07,33.45-28.43,17.65-29.78-16-1.07-33.45,28.43-17.65Zm60.85,32.58,29.78,16,1.07,33.45-28.43,17.65-29.78-16L370.37,1737Zm90.63,48.53,29.78,15.95,1.07,33.45-28.43,17.65-29.78-16L461,1785.54Zm90.63,48.53,29.78,15.95,1.07,33.45-28.43,17.65-29.78-16-1.07-33.45ZM670.69,1865l29.78,16,1.07,33.45L673.11,1932l-29.78-16-1.07-33.45Zm90.63,48.53,29.78,16,1.07,33.45-28.43,17.65-29.78-16-1.07-33.45ZM852,1962l29.78,16,1.07,33.45-28.43,17.65-29.78-16-1.07-33.45Zm90.63,48.53,29.78,16,1.07,33.44L945,2077.59l-29.78-16-1.07-33.45Zm90.63,48.53L1063,2075l1.07,33.44-28.43,17.66-29.78-15.95-1.07-33.45Zm90.63,48.53,29.78,15.94,1.07,33.45-28.43,17.66-29.78-16-1.07-33.45Zm90.63,48.53,29.78,15.94,1.07,33.45-28.43,17.65-29.78-15.94-1.07-33.45Zm120.41,64.47,1.07,33.45-28.43,17.65-29.78-15.94-1.07-33.45,28.43-17.65Zm-58.85.68-29.5-15.8-1.07-33.44,28.43-17.66,29.51,15.8,1.07,33.45Zm86.79-52.84,1.07,33.45-28.44,17.65-29.78-15.95-1.07-33.45,28.44-17.65Zm-58.85.68-29.51-15.8-1.07-33.45,28.44-17.65,29.5,15.8,1.07,33.45Zm86.78-52.85,1.07,33.45-28.43,17.65-29.78-15.94-1.07-33.45,28.43-17.65Zm-58.85.68-29.5-15.8-1.07-33.45,28.43-17.65,29.5,15.8,1.07,33.45Zm86.78-52.84,1.07,33.45-28.43,17.65-29.78-15.95-1.07-33.45,28.43-17.65Zm-58.85.68-29.5-15.8-1.07-33.45,28.43-17.65,29.5,15.8,1.07,33.44Zm86.78-52.85,1.07,33.45L1419.25,2063l-29.78-15.94-1.07-33.45,28.43-17.65Zm-58.85.68-29.5-15.8-1.07-33.45,28.43-17.65,29.51,15.8,1.07,33.45Zm86.79-52.84,1.07,33.45-28.44,17.65-29.78-16-1.07-33.45,28.44-17.65Zm-58.85.67-29.51-15.79-1.07-33.45,28.44-17.65,29.5,15.79,1.07,33.45Zm86.78-52.84,1.07,33.45-28.43,17.65-29.78-16-1.07-33.44,28.43-17.66Zm-58.85.68-29.5-15.8-1.07-33.45,28.43-17.65,29.5,15.8,1.07,33.45Zm86.78-52.85,1.07,33.45-28.43,17.66-29.78-16-1.07-33.45,28.43-17.65Zm-58.85.68-29.5-15.79-1.07-33.45,28.43-17.65,29.51,15.79,1.07,33.45Zm86.79-52.84,1.07,33.45L1531,1854.38l-29.78-16-1.07-33.45,28.44-17.65Zm-58.85.68-29.51-15.8-1.07-33.45,28.44-17.65,29.5,15.8,1.07,33.45Zm86.78-52.85,1.07,33.45-28.43,17.65-29.78-15.94-1.07-33.45,28.43-17.65Zm-58.85.68-29.5-15.8-1.07-33.44,28.43-17.66,29.5,15.8,1.07,33.45Zm86.78-52.84,1.07,33.45-28.43,17.65-29.78-16-1.07-33.45,28.43-17.65Zm-58.85.68-29.5-15.8-1.07-33.45,28.43-17.65,29.51,15.8,1.07,33.45Zm86.79-52.85,1.07,33.45-28.44,17.65L1585,1681.94l-1.07-33.45,28.43-17.65Zm-58.85.68-29.51-15.8-1.07-33.45,28.43-17.65,29.51,15.8,1.07,33.45Zm86.78-52.84,1.07,33.45-28.43,17.65-29.78-16-1.07-33.45,28.43-17.65Zm-58.85.68-29.5-15.8-1.07-33.45,28.43-17.65,29.5,15.8,1.07,33.44Zm86.78-52.85,1.07,33.45-28.43,17.65-29.78-15.94-1.07-33.45,28.43-17.65Zm-58.85.68-29.5-15.8-1.07-33.45,28.43-17.65,29.5,15.8,1.07,33.45Zm86.78-52.84,1.07,33.45-28.43,17.65-29.78-16-1.07-33.45,28.43-17.65Zm-58.85.68-29.5-15.8-1.07-33.45,28.43-17.65,29.51,15.79,1.07,33.45Zm86.79-52.85,1.07,33.45-28.44,17.65-29.78-16-1.07-33.44,28.44-17.66Zm-58.85.68-29.51-15.8-1.07-33.45,28.44-17.65,29.5,15.8,1.07,33.45Zm86.78-52.84,1.07,33.44-28.43,17.66-29.78-16-1.07-33.45L1752,1370Zm-58.85.67-29.5-15.79-1.07-33.45,28.43-17.65,29.5,15.79,1.07,33.45Zm86.78-52.84,1.07,33.45-28.43,17.65-29.78-16-1.07-33.44,28.43-17.66Zm-58.85.68-29.5-15.8-1.07-33.45,28.43-17.65,29.51,15.8,1.07,33.45Zm86.79-52.85,1.07,33.45-28.44,17.65-29.78-15.94-1.07-33.45,28.44-17.65Zm-58.85.68-29.51-15.8-1.07-33.44,28.44-17.66,29.5,15.8,1.07,33.45Zm86.78-52.84,1.07,33.45-28.43,17.65-29.78-16-1.07-33.45,28.43-17.65Zm-58.85.68-29.5-15.8-1.07-33.45,28.43-17.65,29.5,15.8,1.07,33.45Zm86.78-52.85,1.07,33.45-28.43,17.65-29.78-15.94-1.07-33.45,28.43-17.65Zm-58.85.68-29.5-15.8-1.07-33.44,28.43-17.66,29.5,15.8,1.07,33.45Zm86.78-52.84,1.07,33.45-28.43,17.65-29.78-16-1.07-33.45,28.43-17.65Zm-58.85.68-29.5-15.8-1.07-33.45,28.43-17.65,29.51,15.8,1.07,33.45Zm86.79-52.85,1.07,33.45L1922,1124.06l-29.78-15.94-1.07-33.45,28.44-17.65Zm-58.85.68-29.51-15.8-1.07-33.45,28.44-17.65,29.5,15.8L1919,1056Zm86.78-52.84,1.07,33.45L1950,1071.9l-29.78-16-1.07-33.45,28.43-17.65Zm-58.85.68-29.5-15.8-1.07-33.45,28.43-17.65,29.5,15.8,1.07,33.44Zm86.78-52.85,1.07,33.45-28.43,17.65-29.78-15.94-1.07-33.45,28.43-17.65Zm-58.85.68-29.5-15.8-1.07-33.45,28.43-17.65,29.51,15.8,1.07,33.45Zm86.79-52.84,1.07,33.45-28.44,17.65-29.78-16L1975,918.17l28.44-17.65Zm-58.85.67-29.51-15.79-1.07-33.45,28.44-17.65,29.5,15.79,1.07,33.45Zm86.78-52.84,1.07,33.45-28.43,17.65L2004,899.45,2002.93,866l28.43-17.66Zm-58.85.68-29.5-15.8-1.07-33.45,28.43-17.65,29.5,15.8,1.07,33.45Zm86.78-52.85,1.07,33.45-28.43,17.66-29.78-16-1.07-33.45,28.43-17.65Zm-58.85.68L2000.72,797l-1.07-33.45,28.43-17.65,29.51,15.79,1.06,33.45ZM2117,760l1.08,33.45-28.44,17.65-29.78-16-1.07-33.45L2087.22,744Zm-58.84.68-29.51-15.8-1.07-33.45L2056,693.75l29.51,15.8,1.07,33.45Zm86.78-52.85,1.07,33.45-28.44,17.65L2087.79,743l-1.06-33.45,28.43-17.65Zm-58.85.68-29.51-15.8-1.06-33.44L2084,641.58l29.5,15.8,1.07,33.45Zm86.78-52.84,1.07,33.45-28.43,17.65-29.78-16-1.07-33.45,28.43-17.65Zm-58.85.68-29.5-15.8-1.07-33.45,28.43-17.65,29.5,15.8,1.07,33.45Zm86.78-52.85,1.07,33.45-28.43,17.65-29.78-15.94-1.07-33.45L2171,587.53Zm-58.85.68-29.5-15.8-1.07-33.45,28.43-17.65,29.51,15.8,1.07,33.45Zm86.79-52.84,1.07,33.45-28.44,17.65-29.78-15.95L2170.52,553,2199,535.36Zm-58.85.68-29.51-15.8-1.07-33.45,28.44-17.65,29.5,15.8,1.07,33.44Zm86.78-52.85,1.07,33.45-28.43,17.65-29.78-15.94-1.07-33.45,28.43-17.65Zm-58.85.68-29.5-15.8-1.07-33.45,28.43-17.65,29.5,15.8,1.07,33.45ZM2284.6,447l1.07,33.45-28.43,17.65-29.78-15.95-1.07-33.45L2254.82,431Zm-58.85.68-29.5-15.8-1.07-33.45,28.43-17.65,29.51,15.8,1.07,33.44Zm86.78-52.85,1.08,33.45-28.44,17.65L2255.39,430l-1.07-33.45,28.43-17.66Zm-58.84.68-29.51-15.8-1.07-33.45,28.43-17.65,29.51,15.8,1.07,33.45Zm86.78-52.84,1.07,33.44-28.43,17.66-29.78-15.95-1.07-33.45,28.43-17.65Zm-58.85.67-29.51-15.79-1.06-33.45,28.43-17.65,29.5,15.79,1.07,33.45Zm86.78-52.84,1.07,33.45L2341,341.58l-29.78-15.95-1.07-33.44,28.43-17.66Zm-61-66.22,29.5,15.8,1.07,33.45-28.43,17.65-29.5-15.8L2279,241.91Zm-90.63-48.53,29.5,15.8,1.07,33.45-28.43,17.65-29.5-15.8-1.07-33.45Zm-90.63-48.53,29.5,15.8,1.07,33.45-28.43,17.65-29.5-15.8-1.07-33.45Zm-90.63-48.53,29.5,15.8,1.07,33.45-28.43,17.65-29.5-15.8-1.07-33.45Zm-90.63-48.53,29.5,15.8,1.07,33.45L1947,97l-29.5-15.8-1.07-33.45Zm-90.63-48.53,29.5,15.8,1.07,33.45L1856.4,48.51l-29.5-15.8L1825.83-.74Zm-90.63-48.53,29.5,15.8,1.07,33.45L1765.77,0l-29.5-15.8-1.07-33.45ZM1673-115.45l29.5,15.8,1.07,33.45-28.43,17.65-29.5-15.8-1.07-33.44ZM1582.37-164l29.5,15.8,1.07,33.45-28.43,17.65L1555-112.87l-1.07-33.45Zm-90.63-48.53,29.5,15.8,1.07,33.45-28.43,17.65-29.5-15.79-1.07-33.45ZM1401.11-261l29.5,15.79,1.07,33.45-28.43,17.65-29.5-15.79-1.07-33.45Zm-90.63-48.53,29.5,15.79,1.07,33.45-28.43,17.65-29.5-15.79-1.07-33.45Zm-86.78,52.84-1.07-33.45,28.43-17.65,29.78,15.95,1.07,33.45-28.43,17.65Zm58.85-.68,29.5,15.8,1.07,33.45-28.43,17.65-29.51-15.8-1.07-33.45Zm-86.79,52.85L1194.69-238l28.44-17.65,29.77,15.94,1.08,33.45-28.44,17.65Zm58.85-.68,29.51,15.79,1.07,33.45-28.44,17.66-29.5-15.8-1.07-33.45Zm-86.78,52.84-1.07-33.45,28.43-17.65,29.78,16,1.07,33.45-28.43,17.65Zm58.85-.68,29.5,15.8,1.07,33.45-28.43,17.65-29.5-15.8-1.07-33.45Zm-86.78,52.85-1.07-33.45,28.43-17.65L1197-135.38l1.07,33.45-28.43,17.65Zm58.85-.68,29.5,15.8,1.07,33.45L1200.89-34l-29.51-15.8-1.07-33.45ZM1112-48.06l-1.07-33.45,28.44-17.65,29.78,16,1.07,33.45-28.44,17.65Zm58.85-.68,29.51,15.8L1201.39.51,1173,18.16l-29.5-15.8-1.07-33.45ZM1084,4.11,1083-29.34,1111.39-47,1141.17-31l1.07,33.45-28.43,17.65Zm58.85-.68,29.5,15.8,1.07,33.45L1145,70.33l-29.5-15.8-1.07-33.45ZM1056.1,56.27,1055,22.82l28.43-17.65,29.78,16,1.07,33.45-28.43,17.65Zm58.85-.68,29.5,15.8,1.07,33.45-28.43,17.65-29.5-15.8-1.07-33.44Zm-86.78,52.85L1027.1,75l28.43-17.65,29.78,15.94,1.07,33.45L1058,124.38Zm58.85-.68,29.5,15.8,1.07,33.45-28.43,17.65-29.51-15.8-1.07-33.45Zm-86.79,52.84-1.07-33.45,28.44-17.65,29.77,16,1.08,33.45L1030,176.55Zm58.85-.67,29.5,15.79,1.08,33.45-28.44,17.65L1031.72,211l-1.07-33.45ZM972.3,212.77l-1.07-33.45,28.43-17.65,29.78,15.94,1.07,33.45-28.43,17.66Zm58.85-.68,29.5,15.8,1.07,33.45L1033.29,279l-29.5-15.8-1.07-33.45Zm-86.78,52.84-1.07-33.44,28.43-17.66,29.78,15.95,1.07,33.45-28.43,17.65Zm58.85-.67,29.5,15.79,1.07,33.45-28.43,17.65-29.51-15.79-1.07-33.45ZM916.43,317.1l-1.07-33.45L943.8,266,973.58,282l1.07,33.45-28.44,17.65Zm58.85-.68,29.51,15.8,1.07,33.45-28.44,17.65-29.5-15.8-1.07-33.45ZM888.5,369.27l-1.07-33.45,28.43-17.65,29.78,15.94,1.07,33.45-28.43,17.65Zm58.85-.68,29.5,15.79,1.07,33.45-28.43,17.66L920,419.69l-1.07-33.45Zm-86.78,52.84L859.5,388l28.43-17.65,29.78,15.95,1.07,33.45-28.43,17.65Zm58.85-.68,29.5,15.8L950,470l-28.43,17.65-29.5-15.8L891,438.4ZM832.63,473.6l-1.07-33.45L860,422.5l29.78,15.94,1.07,33.45-28.43,17.65Zm58.86-.68,29.5,15.8,1.07,33.45-28.43,17.65L864.12,524l-1.07-33.45ZM804.7,525.76l-1.07-33.45,28.43-17.65,29.78,15.95,1.08,33.45-28.44,17.65Zm58.85-.68,29.5,15.8,1.08,33.45L865.69,592l-29.5-15.8-1.07-33.45Zm-86.78,52.85-1.07-33.45,28.43-17.65,29.78,15.94L835,576.22l-28.43,17.65Zm58.85-.68,29.5,15.8,1.07,33.45-28.43,17.65-29.5-15.8-1.07-33.45Zm-86.78,52.84-1.07-33.45L776.2,579l29.78,16,1.07,33.45L778.62,646Zm58.85-.67,29.5,15.79,1.07,33.45-28.43,17.65-29.51-15.79-1.07-33.45ZM720.9,682.26l-1.07-33.45,28.44-17.65,29.78,15.94,1.07,33.45-28.44,17.66Zm58.85-.68,29.51,15.8,1.07,33.45-28.44,17.65-29.5-15.8-1.07-33.45ZM693,734.42,691.9,701l28.43-17.65,29.78,15.95,1.07,33.45-28.43,17.65Zm58.85-.67,29.5,15.79L782.39,783,754,800.64l-29.5-15.79-1.07-33.45ZM665,786.59,664,753.14l28.43-17.65,29.78,16,1.07,33.44-28.43,17.66Zm58.85-.68,29.5,15.8,1.07,33.45L726,852.81,696.53,837l-1.08-33.45ZM637.1,838.76,636,805.31l28.44-17.66,29.78,16,1.07,33.45L666.88,854.7Zm58.85-.68,29.51,15.79,1.07,33.45L698.1,905l-29.51-15.79-1.07-33.45Zm-86.78,52.84-1.07-33.45,28.43-17.65,29.78,15.95,1.08,33.45L639,906.87Zm58.85-.68,29.5,15.8,1.08,33.45-28.44,17.65-29.5-15.8-1.07-33.45Zm-86.78,52.85-1.07-33.45L608.6,892l29.78,15.94,1.07,33.45L611,959Zm58.85-.68,29.5,15.79,1.07,33.45-28.43,17.66-29.5-15.8-1.07-33.45Zm-86.78,52.84-1.07-33.45,28.43-17.65,29.78,16,1.07,33.45-28.43,17.65Zm58.85-.68,29.5,15.8,1.07,33.45-28.43,17.65-29.51-15.8-1.07-33.45Zm-86.79,52.85L524.3,1014l28.44-17.65,29.78,15.94,1.07,33.45-28.44,17.65Zm58.85-.68,29.51,15.8L614.8,1096l-28.44,17.65-29.5-15.8-1.07-33.45Zm-86.78,52.84-1.07-33.45,28.43-17.65,29.78,16,1.07,33.45-28.43,17.65Zm58.85-.68,29.5,15.8,1.07,33.45-28.43,17.65-29.5-15.8-1.07-33.44Zm-86.78,52.85-1.07-33.45,28.43-17.65,29.78,15.94,1.07,33.45-28.43,17.65Zm58.85-.68,29.5,15.8,1.07,33.45L530.5,1218,501,1202.17l-1.07-33.45Zm-86.79,52.84-1.07-33.45,28.44-17.65,29.78,16,1.07,33.45-28.44,17.65Zm58.85-.67L529.93,1219l1.07,33.45-28.44,17.65-29.5-15.79L472,1220.89Zm-86.78,52.84-1.07-33.45L441,1205l29.78,15.94,1.07,33.45L443.42,1272Zm58.85-.68,29.5,15.8,1.07,33.45-28.43,17.65-29.5-15.8-1.07-33.45Zm-86.78,52.84-1.07-33.44,28.43-17.66,29.78,15.95,1.07,33.45-28.43,17.65Zm58.85-.67,29.5,15.79,1.07,33.45-28.43,17.65-29.5-15.79-1.08-33.45Zm-86.78,52.84L356.71,1327l28.43-17.65,29.78,16,1.07,33.45-28.43,17.65Zm58.85-.68,29.5,15.8L447.2,1409l-28.43,17.65-29.51-15.8-1.07-33.45Zm-86.79,52.85-1.07-33.45,28.43-17.65L387,1377.42l1.08,33.45-28.44,17.65Zm58.85-.68,29.5,15.79,1.08,33.45-28.44,17.66-29.5-15.8-1.07-33.45Zm-86.78,52.84-1.07-33.45,28.43-17.65,29.78,15.95,1.07,33.45-28.43,17.65Zm58.85-.68,29.5,15.8,1.07,33.45L362.9,1531l-29.5-15.8-1.07-33.45ZM274,1516.91l-1.07-33.45,28.43-17.65,29.78,15.94,1.07,33.45-28.43,17.65Zm58.85-.68,29.5,15.8,1.07,33.45L335,1583.13l-29.51-15.8-1.07-33.45ZM246,1569.07,245,1535.62,273.41,1518l29.78,16,1.07,33.45L275.82,1585Zm58.85-.68,29.51,15.8,1.07,33.45L307,1635.29l-29.5-15.8L276.46,1586Zm-86.78,52.85L217,1587.79l28.43-17.65,29.78,15.94,1.07,33.45-28.43,17.65Zm58.85-.68,29.5,15.8,1.07,33.45-28.43,17.65-29.5-15.8-1.07-33.45Zm-86.78,52.84L189.11,1640l28.43-17.65,29.78,16,1.07,33.45L220,1689.35Zm61,66.22-29.5-15.79-1.08-33.45L249,1672.72l29.5,15.8L279.6,1722Zm90.63,48.53-29.5-15.8-1.07-33.44,28.43-17.66,29.5,15.8,1.07,33.45Zm90.63,48.53-29.51-15.8-1.07-33.45,28.44-17.65,29.5,15.8,1.07,33.45Zm90.63,48.53-29.5-15.8L492.49,1836l28.43-17.65,29.5,15.8,1.07,33.45Zm90.63,48.53-29.5-15.8-1.07-33.45,28.43-17.65,29.5,15.8,1.07,33.45Zm90.63,48.53-29.5-15.8L673.75,1933l28.43-17.65,29.5,15.8,1.07,33.45ZM795,2030.8l-29.5-15.8-1.07-33.45,28.43-17.65,29.5,15.8,1.07,33.45Zm90.63,48.53-29.5-15.8L855,2030.08l28.43-17.65,29.5,15.8,1.07,33.45Zm90.63,48.53-29.5-15.8-1.07-33.45L974.07,2061l29.5,15.8,1.07,33.45Zm90.63,48.53-29.5-15.8-1.07-33.45,28.43-17.65,29.5,15.8,1.07,33.45Zm61.13,32.73-1.07-33.45,28.43-17.65,29.5,15.8,1.07,33.45-28.43,17.65Z"/></g></svg>