<?xml version="1.0" encoding="utf-8"?>
<!-- Generator: Adobe Illustrator 26.0.1, SVG Export Plug-In . SVG Version: 6.00 Build 0)  -->
<svg version="1.1" xmlns="http://www.w3.org/2000/svg" xmlns:xlink="http://www.w3.org/1999/xlink" x="0px" y="0px"
	 viewBox="0 0 1080 1080" style="enable-background:new 0 0 1080 1080;" xml:space="preserve">
<style type="text/css">
	.st0{fill:#31E2DE;}
	.st1{opacity:0.4;fill:url(#SVGID_00000084519116335757316320000001515398939888789936_);}
	.st2{opacity:0.4;}
	.st3{fill:#FFFFFF;}
	.st4{opacity:0.4;fill:url(#SVGID_00000083786934066489871260000002234744191457339009_);}
	.st5{opacity:0.4;fill:url(#SVGID_00000064324011858334454960000003069747150748394375_);}
	.st6{opacity:0.4;fill:url(#SVGID_00000145058479454346745090000002880948453976223887_);}
</style>
<g id="_x32_">
	<rect x="-1100" width="1080" height="1080"/>
	<rect x="-1100" y="-1244" width="1080" height="1080"/>
</g>
<g id="_x31_">
	<g>
		<g>
			<path class="st0" d="M-561.59,528.63c3.2-1.58,5.67-3.76,7.39-6.54c1.72-2.78,2.58-6.05,2.58-9.79c0-3.89-0.93-7.27-2.77-10.16
				c-1.84-2.88-4.47-5.09-7.87-6.64c-3.39-1.56-7.4-2.33-12.01-2.33h-23.31v11.52h22.43c2.96,0,5.2,0.67,6.71,2
				c1.5,1.33,2.26,3.2,2.26,5.61c0,2.41-0.76,4.27-2.26,5.58c-1.51,1.3-3.75,1.96-6.71,1.96h-22.43v25.04h14.41v-13.74h7.87
				l9.25,13.74h15.44L-561.59,528.63z"/>
			<rect x="-538.64" y="518.43" class="st0" width="21.27" height="10.79"/>
			<path class="st0" d="M-468.8,498.71c-4.22-4.38-10-6.58-17.33-6.58c-3.69,0-7.05,0.73-10.09,2.18c-3.04,1.46-5.43,3.53-7.21,6.21
				c-1.77,2.68-2.66,5.77-2.66,9.27c0,3.2,0.79,6.05,2.37,8.53c1.58,2.49,3.71,4.41,6.38,5.76c2.67,1.36,5.61,2.04,8.82,2.04
				c4.7,0,8.52-1.26,11.43-3.77c-0.39,3.89-1.71,6.86-3.96,8.9c-2.26,2.04-5.21,3.06-8.85,3.06c-3.79,0-6.91-0.88-9.4-2.65
				l-5.24,10.48c1.85,1.19,4.08,2.11,6.7,2.77c2.62,0.67,5.36,1,8.23,1c5.38,0,10.14-1.11,14.24-3.32c4.1-2.22,7.29-5.46,9.54-9.72
				c2.26-4.25,3.38-9.34,3.38-15.25C-462.46,509.4-464.57,503.09-468.8,498.71 M-480.02,513.82c-1.31,1.2-3.02,1.81-5.1,1.81
				c-2.09,0-3.78-0.6-5.07-1.78c-1.28-1.18-1.92-2.76-1.92-4.73c0-2.01,0.64-3.62,1.92-4.8c1.29-1.18,2.96-1.77,4.99-1.77
				c2.19,0,3.92,0.6,5.22,1.81c1.28,1.21,1.92,2.77,1.92,4.69C-478.05,511.02-478.7,512.61-480.02,513.82"/>
			<path class="st0" d="M-422.36,519.13c-2.26-2.63-5.5-4.39-9.73-5.28l10.57-11.52v-9.16h-36.86v11.3h20.11l-9.11,9.97v9.24h6.04
				c5.2,0,7.8,1.67,7.8,5.02c0,1.72-0.73,3.05-2.19,3.99c-1.46,0.93-3.42,1.4-5.9,1.4c-2.43,0-4.89-0.37-7.39-1.1
				c-2.51-0.74-4.74-1.8-6.74-3.18l-5.25,11.01c2.57,1.62,5.62,2.88,9.14,3.76c3.52,0.89,7.08,1.33,10.67,1.33
				c4.9,0,9.02-0.8,12.34-2.4c3.32-1.6,5.81-3.7,7.43-6.31c1.63-2.61,2.43-5.45,2.43-8.5
				C-418.98,524.96-420.11,521.77-422.36,519.13"/>
			<path class="st0" d="M-372.25,504.58c-1.92-4.06-4.58-7.15-7.98-9.27s-7.26-3.18-11.59-3.18c-4.37,0-8.25,1.06-11.64,3.18
				c-3.4,2.12-6.07,5.21-7.98,9.27c-1.92,4.06-2.88,8.88-2.88,14.44c0,5.57,0.96,10.38,2.88,14.44c1.91,4.07,4.57,7.16,7.98,9.28
				c3.39,2.11,7.28,3.17,11.64,3.17c4.33,0,8.18-1.06,11.59-3.17c3.4-2.12,6.05-5.21,7.98-9.28c1.91-4.06,2.88-8.87,2.88-14.44
				C-369.38,513.46-370.34,508.64-372.25,504.58 M-386.02,530.36c-1.44,2.39-3.36,3.59-5.8,3.59c-2.47,0-4.43-1.2-5.86-3.59
				c-1.44-2.39-2.15-6.17-2.15-11.34s0.71-8.95,2.15-11.34c1.43-2.38,3.38-3.58,5.86-3.58c2.44,0,4.36,1.2,5.8,3.58
				c1.43,2.39,2.15,6.17,2.15,11.34S-384.59,527.97-386.02,530.36"/>
			<path class="st0" d="M-585.1,582.24c2.72,0,4.94-1.09,6.67-3.28l3.55,3.71c-2.82,3.22-6.14,4.82-9.96,4.82
				c-3.82,0-6.97-1.22-9.44-3.67c-2.47-2.45-3.71-5.54-3.71-9.27s1.26-6.84,3.78-9.34c2.52-2.49,5.6-3.74,9.25-3.74
				c4.07,0,7.48,1.57,10.22,4.72l-3.44,3.96c-1.75-2.21-3.93-3.31-6.53-3.31c-2.08,0-3.86,0.69-5.34,2.07
				c-1.48,1.38-2.22,3.24-2.22,5.58c0,2.34,0.7,4.22,2.1,5.63C-588.78,581.53-587.08,582.24-585.1,582.24"/>
			<path class="st0" d="M-541.79,587.21l-2.31-5.44h-10.4l-2.31,5.44h-5.89l10.72-25.16h5.36l10.72,25.16H-541.79z M-549.28,569.53
				l-3.12,7.31h6.21L-549.28,569.53z"/>
			<path class="st0" d="M-504.4,564.29c1.74,1.5,2.61,3.8,2.61,6.91c0,3.11-0.89,5.38-2.68,6.82c-1.79,1.44-4.51,2.16-8.18,2.16
				h-3.3v7.02h-5.54v-25.16h8.77C-508.91,562.04-506.14,562.79-504.4,564.29 M-508.46,574.19c0.66-0.76,0.99-1.86,0.99-3.31
				c0-1.45-0.43-2.48-1.29-3.09c-0.86-0.61-2.21-0.92-4.03-0.92h-3.16v8.46h3.73C-510.38,575.33-509.12,574.95-508.46,574.19"/>
			<rect x="-486.28" y="562.04" class="st0" width="5.54" height="25.16"/>
			<polygon class="st0" points="-452.59,566.9 -452.59,587.21 -458.13,587.21 -458.13,566.9 -465.16,566.9 -465.16,562.04 
				-445.56,562.04 -445.56,566.9 			"/>
			<path class="st0" d="M-413.58,587.21l-2.31-5.44h-10.4l-2.31,5.44h-5.89l10.72-25.16h5.36l10.72,25.16H-413.58z M-421.07,569.53
				l-3.12,7.31h6.21L-421.07,569.53z"/>
			<polygon class="st0" points="-393.28,587.21 -393.28,562.04 -387.74,562.04 -387.74,582.2 -377.16,582.2 -377.16,587.21 			"/>
		</g>
		<g>
			<g>
				<defs>
					<path id="SVGID_1_" d="M-669.99,590.7c3.9-1.88,7.53-4.2,10.86-6.88c12.8-10.3,20.98-26.1,20.98-43.82
						c0-22.32-13-41.61-31.84-50.7V590.7z"/>
				</defs>
				<use xlink:href="#SVGID_1_"  style="overflow:visible;fill:#FFFFFF;"/>
				<clipPath id="SVGID_00000052065832298459869810000017903521849842745256_">
					<use xlink:href="#SVGID_1_"  style="overflow:visible;"/>
				</clipPath>
			</g>
			<g>
				<defs>
					<path id="SVGID_00000082357399717401740940000008913683958540738473_" d="M-710.61,486.14v107.73
						c3.67,1.12,7.5,1.85,11.45,2.19c1.57,0.13,3.17,0.2,4.78,0.2c5.42,0,10.66-0.77,15.61-2.21V485.96
						c-4.96-1.44-10.2-2.21-15.61-2.21C-700.02,483.75-705.47,484.59-710.61,486.14"/>
				</defs>
				<use xlink:href="#SVGID_00000082357399717401740940000008913683958540738473_"  style="overflow:visible;fill:#FFFFFF;"/>
				<clipPath id="SVGID_00000011032002434342179800000005680254241018259588_">
					<use xlink:href="#SVGID_00000082357399717401740940000008913683958540738473_"  style="overflow:visible;"/>
				</clipPath>
			</g>
			<g>
				<defs>
					<path id="SVGID_00000153689882941736334050000001857692720494792351_" d="M-750.62,540c0,22.32,13,41.61,31.84,50.7V489.3
						C-737.63,498.39-750.62,517.68-750.62,540"/>
				</defs>
				<use xlink:href="#SVGID_00000153689882941736334050000001857692720494792351_"  style="overflow:visible;fill:#FFFFFF;"/>
				<clipPath id="SVGID_00000054963823851172930320000005217064280899452329_">
					<use xlink:href="#SVGID_00000153689882941736334050000001857692720494792351_"  style="overflow:visible;"/>
				</clipPath>
			</g>
			
				<linearGradient id="SVGID_00000181776813361551978190000004675123956394657210_" gradientUnits="userSpaceOnUse" x1="-742.5153" y1="568.041" x2="-718.7832" y2="568.041">
				<stop  offset="0" style="stop-color:#000000"/>
				<stop  offset="1" style="stop-color:#FFFFFF"/>
			</linearGradient>
			<path style="opacity:0.4;fill:url(#SVGID_00000181776813361551978190000004675123956394657210_);" d="M-742.52,569.1
				c5.63,9.3,13.88,16.84,23.73,21.6v-45.33L-742.52,569.1z"/>
			<g class="st2">
				<defs>
					<path id="SVGID_00000111177343045393828460000001871105852424140194_" class="st2" d="M-710.6,557.92v35.95
						c3.67,1.11,7.5,1.85,11.45,2.18c1.57,0.13,3.17,0.2,4.78,0.2c5.42,0,10.66-0.77,15.61-2.21v-67.96L-710.6,557.92z"/>
				</defs>
				
					<linearGradient id="SVGID_00000054234713284506630010000001832781843427265212_" gradientUnits="userSpaceOnUse" x1="-710.6042" y1="561.1605" x2="-678.7642" y2="561.1605">
					<stop  offset="0" style="stop-color:#000000"/>
					<stop  offset="1" style="stop-color:#FFFFFF"/>
				</linearGradient>
				
					<use xlink:href="#SVGID_00000111177343045393828460000001871105852424140194_"  style="overflow:visible;fill:url(#SVGID_00000054234713284506630010000001832781843427265212_);"/>
				<clipPath id="SVGID_00000106853206807735656260000015401813801396645019_">
					<use xlink:href="#SVGID_00000111177343045393828460000001871105852424140194_"  style="overflow:visible;"/>
				</clipPath>
			</g>
		</g>
	</g>
	<g>
		<g>
			<path class="st3" d="M-561.59-715.37c3.2-1.58,5.67-3.76,7.39-6.54c1.72-2.78,2.58-6.05,2.58-9.79c0-3.89-0.93-7.27-2.77-10.16
				c-1.84-2.88-4.47-5.09-7.87-6.64c-3.39-1.56-7.4-2.33-12.01-2.33h-23.31v11.52h22.43c2.96,0,5.2,0.67,6.71,2
				c1.5,1.33,2.26,3.2,2.26,5.61c0,2.41-0.76,4.27-2.26,5.58c-1.51,1.3-3.75,1.96-6.71,1.96h-22.43v25.04h14.41v-13.74h7.87
				l9.25,13.74h15.44L-561.59-715.37z"/>
			<rect x="-538.64" y="-725.57" class="st3" width="21.27" height="10.79"/>
			<path class="st3" d="M-468.8-745.29c-4.22-4.38-10-6.58-17.33-6.58c-3.69,0-7.05,0.73-10.09,2.18c-3.04,1.46-5.43,3.53-7.21,6.21
				c-1.77,2.68-2.66,5.77-2.66,9.27c0,3.2,0.79,6.05,2.37,8.53c1.58,2.49,3.71,4.41,6.38,5.76c2.67,1.36,5.61,2.04,8.82,2.04
				c4.7,0,8.52-1.26,11.43-3.77c-0.39,3.89-1.71,6.86-3.96,8.9c-2.26,2.04-5.21,3.06-8.85,3.06c-3.79,0-6.91-0.88-9.4-2.65
				l-5.24,10.48c1.85,1.19,4.08,2.11,6.7,2.77c2.62,0.67,5.36,1,8.23,1c5.38,0,10.14-1.11,14.24-3.32c4.1-2.22,7.29-5.46,9.54-9.72
				c2.26-4.25,3.38-9.34,3.38-15.25C-462.46-734.6-464.57-740.91-468.8-745.29 M-480.02-730.18c-1.31,1.2-3.02,1.81-5.1,1.81
				c-2.09,0-3.78-0.6-5.07-1.78c-1.28-1.18-1.92-2.76-1.92-4.73c0-2.01,0.64-3.62,1.92-4.8c1.29-1.18,2.96-1.77,4.99-1.77
				c2.19,0,3.92,0.6,5.22,1.81c1.28,1.21,1.92,2.77,1.92,4.69C-478.05-732.98-478.7-731.39-480.02-730.18"/>
			<path class="st3" d="M-422.36-724.87c-2.26-2.63-5.5-4.39-9.73-5.28l10.57-11.52v-9.16h-36.86v11.3h20.11l-9.11,9.97v9.24h6.04
				c5.2,0,7.8,1.67,7.8,5.02c0,1.72-0.73,3.05-2.19,3.99c-1.46,0.93-3.42,1.4-5.9,1.4c-2.43,0-4.89-0.37-7.39-1.1
				c-2.51-0.74-4.74-1.8-6.74-3.18l-5.25,11.01c2.57,1.62,5.62,2.88,9.14,3.76c3.52,0.89,7.08,1.33,10.67,1.33
				c4.9,0,9.02-0.8,12.34-2.4c3.32-1.6,5.81-3.7,7.43-6.31c1.63-2.61,2.43-5.45,2.43-8.5
				C-418.98-719.04-420.11-722.23-422.36-724.87"/>
			<path class="st3" d="M-372.25-739.42c-1.92-4.06-4.58-7.15-7.98-9.27s-7.26-3.18-11.59-3.18c-4.37,0-8.25,1.06-11.64,3.18
				c-3.4,2.12-6.07,5.21-7.98,9.27c-1.92,4.06-2.88,8.88-2.88,14.44c0,5.57,0.96,10.38,2.88,14.44c1.91,4.07,4.57,7.16,7.98,9.28
				c3.39,2.11,7.28,3.17,11.64,3.17c4.33,0,8.18-1.06,11.59-3.17c3.4-2.12,6.05-5.21,7.98-9.28c1.91-4.06,2.88-8.87,2.88-14.44
				C-369.38-730.54-370.34-735.36-372.25-739.42 M-386.02-713.64c-1.44,2.39-3.36,3.59-5.8,3.59c-2.47,0-4.43-1.2-5.86-3.59
				c-1.44-2.39-2.15-6.17-2.15-11.34s0.71-8.95,2.15-11.34c1.43-2.38,3.38-3.58,5.86-3.58c2.44,0,4.36,1.2,5.8,3.58
				c1.43,2.39,2.15,6.17,2.15,11.34S-384.59-716.03-386.02-713.64"/>
			<path class="st3" d="M-585.1-661.76c2.72,0,4.94-1.09,6.67-3.28l3.55,3.71c-2.82,3.22-6.14,4.82-9.96,4.82
				c-3.82,0-6.97-1.22-9.44-3.67c-2.47-2.45-3.71-5.54-3.71-9.27s1.26-6.84,3.78-9.34c2.52-2.49,5.6-3.74,9.25-3.74
				c4.07,0,7.48,1.57,10.22,4.72l-3.44,3.96c-1.75-2.21-3.93-3.31-6.53-3.31c-2.08,0-3.86,0.69-5.34,2.07
				c-1.48,1.38-2.22,3.24-2.22,5.58c0,2.34,0.7,4.22,2.1,5.63C-588.78-662.47-587.08-661.76-585.1-661.76"/>
			<path class="st3" d="M-541.79-656.79l-2.31-5.44h-10.4l-2.31,5.44h-5.89l10.72-25.16h5.36l10.72,25.16H-541.79z M-549.28-674.47
				l-3.12,7.31h6.21L-549.28-674.47z"/>
			<path class="st3" d="M-504.4-679.71c1.74,1.5,2.61,3.8,2.61,6.91c0,3.11-0.89,5.38-2.68,6.82c-1.79,1.44-4.51,2.16-8.18,2.16
				h-3.3v7.02h-5.54v-25.16h8.77C-508.91-681.96-506.14-681.21-504.4-679.71 M-508.46-669.81c0.66-0.76,0.99-1.86,0.99-3.31
				c0-1.45-0.43-2.48-1.29-3.09c-0.86-0.61-2.21-0.92-4.03-0.92h-3.16v8.46h3.73C-510.38-668.67-509.12-669.05-508.46-669.81"/>
			<rect x="-486.28" y="-681.96" class="st3" width="5.54" height="25.16"/>
			<polygon class="st3" points="-452.59,-677.1 -452.59,-656.79 -458.13,-656.79 -458.13,-677.1 -465.16,-677.1 -465.16,-681.96 
				-445.56,-681.96 -445.56,-677.1 			"/>
			<path class="st3" d="M-413.58-656.79l-2.31-5.44h-10.4l-2.31,5.44h-5.89l10.72-25.16h5.36l10.72,25.16H-413.58z M-421.07-674.47
				l-3.12,7.31h6.21L-421.07-674.47z"/>
			<polygon class="st3" points="-393.28,-656.79 -393.28,-681.96 -387.74,-681.96 -387.74,-661.8 -377.16,-661.8 -377.16,-656.79 
							"/>
		</g>
		<g>
			<g>
				<defs>
					<path id="SVGID_00000165203532263186986150000000718755796621973939_" d="M-669.99-653.3c3.9-1.88,7.53-4.2,10.86-6.88
						c12.8-10.3,20.98-26.1,20.98-43.82c0-22.32-13-41.61-31.84-50.7V-653.3z"/>
				</defs>
				<use xlink:href="#SVGID_00000165203532263186986150000000718755796621973939_"  style="overflow:visible;fill:#FFFFFF;"/>
				<clipPath id="SVGID_00000037686424772029763160000017129152573964371346_">
					<use xlink:href="#SVGID_00000165203532263186986150000000718755796621973939_"  style="overflow:visible;"/>
				</clipPath>
			</g>
			<g>
				<defs>
					<path id="SVGID_00000016039638863712880760000000874557703198001280_" d="M-710.61-757.86v107.73
						c3.67,1.12,7.5,1.85,11.45,2.19c1.57,0.13,3.17,0.2,4.78,0.2c5.42,0,10.66-0.77,15.61-2.21v-108.08
						c-4.96-1.44-10.2-2.21-15.61-2.21C-700.02-760.25-705.47-759.41-710.61-757.86"/>
				</defs>
				<use xlink:href="#SVGID_00000016039638863712880760000000874557703198001280_"  style="overflow:visible;fill:#FFFFFF;"/>
				<clipPath id="SVGID_00000065780942273817301890000015525958245496990378_">
					<use xlink:href="#SVGID_00000016039638863712880760000000874557703198001280_"  style="overflow:visible;"/>
				</clipPath>
			</g>
			<g>
				<defs>
					<path id="SVGID_00000095320966797793689930000000527729097626062477_" d="M-750.62-704c0,22.32,13,41.61,31.84,50.7v-101.4
						C-737.63-745.61-750.62-726.32-750.62-704"/>
				</defs>
				<use xlink:href="#SVGID_00000095320966797793689930000000527729097626062477_"  style="overflow:visible;fill:#FFFFFF;"/>
				<clipPath id="SVGID_00000111190212842147888090000011304377209338505634_">
					<use xlink:href="#SVGID_00000095320966797793689930000000527729097626062477_"  style="overflow:visible;"/>
				</clipPath>
			</g>
			
				<linearGradient id="SVGID_00000116197222751330793290000010088445608273185160_" gradientUnits="userSpaceOnUse" x1="-742.5153" y1="-675.959" x2="-718.7832" y2="-675.959">
				<stop  offset="0" style="stop-color:#000000"/>
				<stop  offset="1" style="stop-color:#FFFFFF"/>
			</linearGradient>
			<path style="opacity:0.4;fill:url(#SVGID_00000116197222751330793290000010088445608273185160_);" d="M-742.52-674.9
				c5.63,9.3,13.88,16.84,23.73,21.6v-45.33L-742.52-674.9z"/>
			<g class="st2">
				<defs>
					<path id="SVGID_00000123413089635549003060000017348619775573993367_" class="st2" d="M-710.6-686.08v35.95
						c3.67,1.11,7.5,1.85,11.45,2.18c1.57,0.13,3.17,0.2,4.78,0.2c5.42,0,10.66-0.77,15.61-2.21v-67.96L-710.6-686.08z"/>
				</defs>
				
					<linearGradient id="SVGID_00000030467892026929320830000013860178416495833745_" gradientUnits="userSpaceOnUse" x1="-710.6042" y1="-682.8395" x2="-678.7642" y2="-682.8395">
					<stop  offset="0" style="stop-color:#000000"/>
					<stop  offset="1" style="stop-color:#FFFFFF"/>
				</linearGradient>
				
					<use xlink:href="#SVGID_00000123413089635549003060000017348619775573993367_"  style="overflow:visible;fill:url(#SVGID_00000030467892026929320830000013860178416495833745_);"/>
				<clipPath id="SVGID_00000054957667398786367030000005883108787843004810_">
					<use xlink:href="#SVGID_00000123413089635549003060000017348619775573993367_"  style="overflow:visible;"/>
				</clipPath>
			</g>
		</g>
	</g>
	<g>
		<g>
			<path class="st3" d="M538.41-715.37c3.2-1.58,5.67-3.76,7.39-6.54c1.72-2.78,2.58-6.05,2.58-9.79c0-3.89-0.93-7.27-2.77-10.16
				c-1.84-2.88-4.47-5.09-7.87-6.64c-3.39-1.56-7.4-2.33-12.01-2.33h-23.31v11.52h22.43c2.96,0,5.2,0.67,6.71,2
				c1.5,1.33,2.26,3.2,2.26,5.61c0,2.41-0.76,4.27-2.26,5.58c-1.51,1.3-3.75,1.96-6.71,1.96h-22.43v25.04h14.41v-13.74h7.87
				l9.25,13.74h15.44L538.41-715.37z"/>
			<rect x="561.36" y="-725.57" class="st3" width="21.27" height="10.79"/>
			<path class="st3" d="M631.2-745.29c-4.22-4.38-10-6.58-17.33-6.58c-3.69,0-7.05,0.73-10.09,2.18c-3.04,1.46-5.43,3.53-7.21,6.21
				c-1.77,2.68-2.66,5.77-2.66,9.27c0,3.2,0.79,6.05,2.37,8.53c1.58,2.49,3.71,4.41,6.38,5.76c2.67,1.36,5.61,2.04,8.82,2.04
				c4.7,0,8.52-1.26,11.43-3.77c-0.39,3.89-1.71,6.86-3.96,8.9c-2.26,2.04-5.21,3.06-8.85,3.06c-3.79,0-6.91-0.88-9.4-2.65
				l-5.24,10.48c1.85,1.19,4.08,2.11,6.7,2.77c2.62,0.67,5.36,1,8.23,1c5.38,0,10.14-1.11,14.24-3.32c4.1-2.22,7.29-5.46,9.54-9.72
				c2.26-4.25,3.38-9.34,3.38-15.25C637.54-734.6,635.43-740.91,631.2-745.29 M619.98-730.18c-1.31,1.2-3.02,1.81-5.1,1.81
				c-2.09,0-3.78-0.6-5.07-1.78c-1.28-1.18-1.92-2.76-1.92-4.73c0-2.01,0.64-3.62,1.92-4.8c1.29-1.18,2.96-1.77,4.99-1.77
				c2.19,0,3.92,0.6,5.22,1.81c1.28,1.21,1.92,2.77,1.92,4.69C621.95-732.98,621.3-731.39,619.98-730.18"/>
			<path class="st3" d="M677.64-724.87c-2.26-2.63-5.5-4.39-9.73-5.28l10.57-11.52v-9.16h-36.86v11.3h20.11l-9.11,9.97v9.24h6.04
				c5.2,0,7.8,1.67,7.8,5.02c0,1.72-0.73,3.05-2.19,3.99c-1.46,0.93-3.42,1.4-5.9,1.4c-2.43,0-4.89-0.37-7.39-1.1
				c-2.51-0.74-4.74-1.8-6.74-3.18l-5.25,11.01c2.57,1.62,5.62,2.88,9.14,3.76c3.52,0.89,7.08,1.33,10.67,1.33
				c4.9,0,9.02-0.8,12.34-2.4c3.32-1.6,5.81-3.7,7.43-6.31c1.63-2.61,2.43-5.45,2.43-8.5C681.02-719.04,679.89-722.23,677.64-724.87
				"/>
			<path class="st3" d="M727.75-739.42c-1.92-4.06-4.58-7.15-7.98-9.27s-7.26-3.18-11.59-3.18c-4.37,0-8.25,1.06-11.64,3.18
				c-3.4,2.12-6.07,5.21-7.98,9.27c-1.92,4.06-2.88,8.88-2.88,14.44c0,5.57,0.96,10.38,2.88,14.44c1.91,4.07,4.57,7.16,7.98,9.28
				c3.39,2.11,7.28,3.17,11.64,3.17c4.33,0,8.18-1.06,11.59-3.17c3.4-2.12,6.05-5.21,7.98-9.28c1.91-4.06,2.88-8.87,2.88-14.44
				C730.62-730.54,729.66-735.36,727.75-739.42 M713.98-713.64c-1.44,2.39-3.36,3.59-5.8,3.59c-2.47,0-4.43-1.2-5.86-3.59
				c-1.44-2.39-2.15-6.17-2.15-11.34s0.71-8.95,2.15-11.34c1.43-2.38,3.38-3.58,5.86-3.58c2.44,0,4.36,1.2,5.8,3.58
				c1.43,2.39,2.15,6.17,2.15,11.34S715.41-716.03,713.98-713.64"/>
			<path class="st3" d="M514.9-661.76c2.72,0,4.94-1.09,6.67-3.28l3.55,3.71c-2.82,3.22-6.14,4.82-9.96,4.82
				c-3.82,0-6.97-1.22-9.44-3.67c-2.47-2.45-3.71-5.54-3.71-9.27s1.26-6.84,3.78-9.34c2.52-2.49,5.6-3.74,9.25-3.74
				c4.07,0,7.48,1.57,10.22,4.72l-3.44,3.96c-1.75-2.21-3.93-3.31-6.53-3.31c-2.08,0-3.86,0.69-5.34,2.07
				c-1.48,1.38-2.22,3.24-2.22,5.58c0,2.34,0.7,4.22,2.1,5.63C511.22-662.47,512.92-661.76,514.9-661.76"/>
			<path class="st3" d="M558.21-656.79l-2.31-5.44h-10.4l-2.31,5.44h-5.89l10.72-25.16h5.36l10.72,25.16H558.21z M550.72-674.47
				l-3.12,7.31h6.21L550.72-674.47z"/>
			<path class="st3" d="M595.6-679.71c1.74,1.5,2.61,3.8,2.61,6.91c0,3.11-0.89,5.38-2.68,6.82c-1.79,1.44-4.51,2.16-8.18,2.16h-3.3
				v7.02h-5.54v-25.16h8.77C591.09-681.96,593.86-681.21,595.6-679.71 M591.54-669.81c0.66-0.76,0.99-1.86,0.99-3.31
				c0-1.45-0.43-2.48-1.29-3.09c-0.86-0.61-2.21-0.92-4.03-0.92h-3.16v8.46h3.73C589.62-668.67,590.88-669.05,591.54-669.81"/>
			<rect x="613.72" y="-681.96" class="st3" width="5.54" height="25.16"/>
			<polygon class="st3" points="647.41,-677.1 647.41,-656.79 641.87,-656.79 641.87,-677.1 634.84,-677.1 634.84,-681.96 
				654.44,-681.96 654.44,-677.1 			"/>
			<path class="st3" d="M686.42-656.79l-2.31-5.44h-10.4l-2.31,5.44h-5.89l10.72-25.16h5.36l10.72,25.16H686.42z M678.93-674.47
				l-3.12,7.31h6.21L678.93-674.47z"/>
			<polygon class="st3" points="706.72,-656.79 706.72,-681.96 712.26,-681.96 712.26,-661.8 722.84,-661.8 722.84,-656.79 			"/>
		</g>
		<g>
			<g>
				<defs>
					<path id="SVGID_00000124840651494813663300000010701224128690606992_" d="M430.01-653.3c3.9-1.88,7.53-4.2,10.86-6.88
						c12.8-10.3,20.99-26.1,20.99-43.82c0-22.32-13-41.61-31.85-50.7V-653.3z"/>
				</defs>
				<use xlink:href="#SVGID_00000124840651494813663300000010701224128690606992_"  style="overflow:visible;fill:#FFFFFF;"/>
				<clipPath id="SVGID_00000166637960636792819420000017338214234473985681_">
					<use xlink:href="#SVGID_00000124840651494813663300000010701224128690606992_"  style="overflow:visible;"/>
				</clipPath>
			</g>
			<g>
				<defs>
					<path id="SVGID_00000142896298902898943210000018314824527914053049_" d="M389.39-757.86v107.73c3.67,1.12,7.5,1.85,11.45,2.19
						c1.57,0.13,3.17,0.2,4.78,0.2c5.42,0,10.66-0.77,15.62-2.21v-108.08c-4.96-1.44-10.2-2.21-15.62-2.21
						C399.98-760.25,394.53-759.41,389.39-757.86"/>
				</defs>
				<use xlink:href="#SVGID_00000142896298902898943210000018314824527914053049_"  style="overflow:visible;fill:#FFFFFF;"/>
				<clipPath id="SVGID_00000178170128985879519450000004056256828703891331_">
					<use xlink:href="#SVGID_00000142896298902898943210000018314824527914053049_"  style="overflow:visible;"/>
				</clipPath>
			</g>
			<g>
				<defs>
					<path id="SVGID_00000001632746110991269820000001193029245758225593_" d="M349.38-704c0,22.32,13,41.61,31.84,50.7v-101.4
						C362.37-745.61,349.38-726.32,349.38-704"/>
				</defs>
				<use xlink:href="#SVGID_00000001632746110991269820000001193029245758225593_"  style="overflow:visible;fill:#FFFFFF;"/>
				<clipPath id="SVGID_00000146464673785438774650000017565310347079632019_">
					<use xlink:href="#SVGID_00000001632746110991269820000001193029245758225593_"  style="overflow:visible;"/>
				</clipPath>
			</g>
			
				<linearGradient id="SVGID_00000150102692327432481380000001157606513621858484_" gradientUnits="userSpaceOnUse" x1="357.4848" y1="-675.959" x2="381.2168" y2="-675.959">
				<stop  offset="0" style="stop-color:#000000"/>
				<stop  offset="1" style="stop-color:#FFFFFF"/>
			</linearGradient>
			<path style="opacity:0.4;fill:url(#SVGID_00000150102692327432481380000001157606513621858484_);" d="M357.48-674.9
				c5.63,9.3,13.88,16.84,23.73,21.6v-45.33L357.48-674.9z"/>
			<g class="st2">
				<defs>
					<path id="SVGID_00000071525900594884885220000001099535184583512208_" class="st2" d="M389.4-686.08v35.95
						c3.67,1.11,7.5,1.85,11.45,2.18c1.57,0.13,3.17,0.2,4.78,0.2c5.42,0,10.66-0.77,15.61-2.21v-67.96L389.4-686.08z"/>
				</defs>
				
					<linearGradient id="SVGID_00000079447982737680007540000008073308421627025818_" gradientUnits="userSpaceOnUse" x1="389.3958" y1="-682.8395" x2="421.2358" y2="-682.8395">
					<stop  offset="0" style="stop-color:#000000"/>
					<stop  offset="1" style="stop-color:#FFFFFF"/>
				</linearGradient>
				
					<use xlink:href="#SVGID_00000071525900594884885220000001099535184583512208_"  style="overflow:visible;fill:url(#SVGID_00000079447982737680007540000008073308421627025818_);"/>
				<clipPath id="SVGID_00000087413586764675657180000011259874069154180255_">
					<use xlink:href="#SVGID_00000071525900594884885220000001099535184583512208_"  style="overflow:visible;"/>
				</clipPath>
			</g>
		</g>
	</g>
	<g>
		<g>
			<path class="st0" d="M538.41,528.63c3.2-1.58,5.67-3.76,7.39-6.54c1.72-2.78,2.58-6.05,2.58-9.79c0-3.89-0.93-7.27-2.77-10.16
				c-1.84-2.88-4.47-5.09-7.87-6.64c-3.39-1.56-7.4-2.33-12.01-2.33h-23.31v11.52h22.43c2.96,0,5.2,0.67,6.71,2
				c1.5,1.33,2.26,3.2,2.26,5.61c0,2.41-0.76,4.27-2.26,5.58c-1.51,1.3-3.75,1.96-6.71,1.96h-22.43v25.04h14.41v-13.74h7.87
				l9.25,13.74h15.44L538.41,528.63z"/>
			<rect x="561.36" y="518.43" class="st0" width="21.27" height="10.79"/>
			<path class="st0" d="M631.2,498.71c-4.22-4.38-10-6.58-17.33-6.58c-3.69,0-7.05,0.73-10.09,2.18c-3.04,1.46-5.43,3.53-7.21,6.21
				c-1.77,2.68-2.66,5.77-2.66,9.27c0,3.2,0.79,6.05,2.37,8.53c1.58,2.49,3.71,4.41,6.38,5.76c2.67,1.36,5.61,2.04,8.82,2.04
				c4.7,0,8.52-1.26,11.43-3.77c-0.39,3.89-1.71,6.86-3.96,8.9c-2.26,2.04-5.21,3.06-8.85,3.06c-3.79,0-6.91-0.88-9.4-2.65
				l-5.24,10.48c1.85,1.19,4.08,2.11,6.7,2.77c2.62,0.67,5.36,1,8.23,1c5.38,0,10.14-1.11,14.24-3.32c4.1-2.22,7.29-5.46,9.54-9.72
				c2.26-4.25,3.38-9.34,3.38-15.25C637.54,509.4,635.43,503.09,631.2,498.71 M619.98,513.82c-1.31,1.2-3.02,1.81-5.1,1.81
				c-2.09,0-3.78-0.6-5.07-1.78c-1.28-1.18-1.92-2.76-1.92-4.73c0-2.01,0.64-3.62,1.92-4.8c1.29-1.18,2.96-1.77,4.99-1.77
				c2.19,0,3.92,0.6,5.22,1.81c1.28,1.21,1.92,2.77,1.92,4.69C621.95,511.02,621.3,512.61,619.98,513.82"/>
			<path class="st0" d="M677.64,519.13c-2.26-2.63-5.5-4.39-9.73-5.28l10.57-11.52v-9.16h-36.86v11.3h20.11l-9.11,9.97v9.24h6.04
				c5.2,0,7.8,1.67,7.8,5.02c0,1.72-0.73,3.05-2.19,3.99c-1.46,0.93-3.42,1.4-5.9,1.4c-2.43,0-4.89-0.37-7.39-1.1
				c-2.51-0.74-4.74-1.8-6.74-3.18l-5.25,11.01c2.57,1.62,5.62,2.88,9.14,3.76c3.52,0.89,7.08,1.33,10.67,1.33
				c4.9,0,9.02-0.8,12.34-2.4c3.32-1.6,5.81-3.7,7.43-6.31c1.63-2.61,2.43-5.45,2.43-8.5C681.02,524.96,679.89,521.77,677.64,519.13
				"/>
			<path class="st0" d="M727.75,504.58c-1.92-4.06-4.58-7.15-7.98-9.27s-7.26-3.18-11.59-3.18c-4.37,0-8.25,1.06-11.64,3.18
				c-3.4,2.12-6.07,5.21-7.98,9.27c-1.92,4.06-2.88,8.88-2.88,14.44c0,5.57,0.96,10.38,2.88,14.44c1.91,4.07,4.57,7.16,7.98,9.28
				c3.39,2.11,7.28,3.17,11.64,3.17c4.33,0,8.18-1.06,11.59-3.17c3.4-2.12,6.05-5.21,7.98-9.28c1.91-4.06,2.88-8.87,2.88-14.44
				C730.62,513.46,729.66,508.64,727.75,504.58 M713.98,530.36c-1.44,2.39-3.36,3.59-5.8,3.59c-2.47,0-4.43-1.2-5.86-3.59
				c-1.44-2.39-2.15-6.17-2.15-11.34s0.71-8.95,2.15-11.34c1.43-2.38,3.38-3.58,5.86-3.58c2.44,0,4.36,1.2,5.8,3.58
				c1.43,2.39,2.15,6.17,2.15,11.34S715.41,527.97,713.98,530.36"/>
			<path class="st0" d="M514.9,582.24c2.72,0,4.94-1.09,6.67-3.28l3.55,3.71c-2.82,3.22-6.14,4.82-9.96,4.82
				c-3.82,0-6.97-1.22-9.44-3.67c-2.47-2.45-3.71-5.54-3.71-9.27s1.26-6.84,3.78-9.34c2.52-2.49,5.6-3.74,9.25-3.74
				c4.07,0,7.48,1.57,10.22,4.72l-3.44,3.96c-1.75-2.21-3.93-3.31-6.53-3.31c-2.08,0-3.86,0.69-5.34,2.07
				c-1.48,1.38-2.22,3.24-2.22,5.58c0,2.34,0.7,4.22,2.1,5.63C511.22,581.53,512.92,582.24,514.9,582.24"/>
			<path class="st0" d="M558.21,587.21l-2.31-5.44h-10.4l-2.31,5.44h-5.89l10.72-25.16h5.36l10.72,25.16H558.21z M550.72,569.53
				l-3.12,7.31h6.21L550.72,569.53z"/>
			<path class="st0" d="M595.6,564.29c1.74,1.5,2.61,3.8,2.61,6.91c0,3.11-0.89,5.38-2.68,6.82c-1.79,1.44-4.51,2.16-8.18,2.16h-3.3
				v7.02h-5.54v-25.16h8.77C591.09,562.04,593.86,562.79,595.6,564.29 M591.54,574.19c0.66-0.76,0.99-1.86,0.99-3.31
				c0-1.45-0.43-2.48-1.29-3.09c-0.86-0.61-2.21-0.92-4.03-0.92h-3.16v8.46h3.73C589.62,575.33,590.88,574.95,591.54,574.19"/>
			<rect x="613.72" y="562.04" class="st0" width="5.54" height="25.16"/>
			<polygon class="st0" points="647.41,566.9 647.41,587.21 641.87,587.21 641.87,566.9 634.84,566.9 634.84,562.04 654.44,562.04 
				654.44,566.9 			"/>
			<path class="st0" d="M686.42,587.21l-2.31-5.44h-10.4l-2.31,5.44h-5.89l10.72-25.16h5.36l10.72,25.16H686.42z M678.93,569.53
				l-3.12,7.31h6.21L678.93,569.53z"/>
			<polygon class="st0" points="706.72,587.21 706.72,562.04 712.26,562.04 712.26,582.2 722.84,582.2 722.84,587.21 			"/>
		</g>
		<g>
			<g>
				<defs>
					<path id="SVGID_00000079479219656095323050000012091127530453877941_" d="M430.01,590.7c3.9-1.88,7.53-4.2,10.86-6.88
						c12.8-10.3,20.99-26.1,20.99-43.82c0-22.32-13-41.61-31.85-50.7V590.7z"/>
				</defs>
				<use xlink:href="#SVGID_00000079479219656095323050000012091127530453877941_"  style="overflow:visible;fill:#FFFFFF;"/>
				<clipPath id="SVGID_00000152251433062104331100000005641563844785089665_">
					<use xlink:href="#SVGID_00000079479219656095323050000012091127530453877941_"  style="overflow:visible;"/>
				</clipPath>
			</g>
			<g>
				<defs>
					<path id="SVGID_00000137111209504474316130000008732060779331538846_" d="M389.39,486.14v107.73c3.67,1.12,7.5,1.85,11.45,2.19
						c1.57,0.13,3.17,0.2,4.78,0.2c5.42,0,10.66-0.77,15.62-2.21V485.96c-4.96-1.44-10.2-2.21-15.62-2.21
						C399.98,483.75,394.53,484.59,389.39,486.14"/>
				</defs>
				<use xlink:href="#SVGID_00000137111209504474316130000008732060779331538846_"  style="overflow:visible;fill:#FFFFFF;"/>
				<clipPath id="SVGID_00000016044757306616111080000003878632386252579468_">
					<use xlink:href="#SVGID_00000137111209504474316130000008732060779331538846_"  style="overflow:visible;"/>
				</clipPath>
			</g>
			<g>
				<defs>
					<path id="SVGID_00000105412406564604482360000000535255318144410285_" d="M349.38,540c0,22.32,13,41.61,31.84,50.7V489.3
						C362.37,498.39,349.38,517.68,349.38,540"/>
				</defs>
				<use xlink:href="#SVGID_00000105412406564604482360000000535255318144410285_"  style="overflow:visible;fill:#FFFFFF;"/>
				<clipPath id="SVGID_00000160167877274628415650000013575554613709216421_">
					<use xlink:href="#SVGID_00000105412406564604482360000000535255318144410285_"  style="overflow:visible;"/>
				</clipPath>
			</g>
			
				<linearGradient id="SVGID_00000031895101706630672600000012115922597945766060_" gradientUnits="userSpaceOnUse" x1="357.4848" y1="568.041" x2="381.2168" y2="568.041">
				<stop  offset="0" style="stop-color:#000000"/>
				<stop  offset="1" style="stop-color:#FFFFFF"/>
			</linearGradient>
			<path style="opacity:0.4;fill:url(#SVGID_00000031895101706630672600000012115922597945766060_);" d="M357.48,569.1
				c5.63,9.3,13.88,16.84,23.73,21.6v-45.33L357.48,569.1z"/>
			<g class="st2">
				<defs>
					<path id="SVGID_00000111152511509232279720000000253682367195830926_" class="st2" d="M389.4,557.92v35.95
						c3.67,1.11,7.5,1.85,11.45,2.18c1.57,0.13,3.17,0.2,4.78,0.2c5.42,0,10.66-0.77,15.61-2.21v-67.96L389.4,557.92z"/>
				</defs>
				
					<linearGradient id="SVGID_00000072278267081032986280000016244097639625531565_" gradientUnits="userSpaceOnUse" x1="389.3958" y1="561.1605" x2="421.2358" y2="561.1605">
					<stop  offset="0" style="stop-color:#000000"/>
					<stop  offset="1" style="stop-color:#FFFFFF"/>
				</linearGradient>
				
					<use xlink:href="#SVGID_00000111152511509232279720000000253682367195830926_"  style="overflow:visible;fill:url(#SVGID_00000072278267081032986280000016244097639625531565_);"/>
				<clipPath id="SVGID_00000005248298503981384690000005474161290300289213_">
					<use xlink:href="#SVGID_00000111152511509232279720000000253682367195830926_"  style="overflow:visible;"/>
				</clipPath>
			</g>
		</g>
	</g>
</g>
</svg>
