<svg id="Livello_2" data-name="Livello 2" xmlns="http://www.w3.org/2000/svg" xmlns:xlink="http://www.w3.org/1999/xlink" viewBox="0 0 153.2 165.84"><defs><style>.cls-1{fill:url(#Sfumatura_senza_nome_194);}</style><linearGradient id="Sfumatura_senza_nome_194" x1="5.83" y1="123.78" x2="142.11" y2="45.1" gradientUnits="userSpaceOnUse"><stop offset="0" stop-color="#87b3e1"/><stop offset="0.32" stop-color="#bd94c4"/><stop offset="0.58" stop-color="#e37daf"/><stop offset="0.95" stop-color="#ee9f80"/></linearGradient></defs><path class="cls-1" d="M146.53,63.73a7.58,7.58,0,0,0-9.5-1.58l-73.44,42.4V61.29L85.87,74.15,101,65.41,59.81,41.62A7.6,7.6,0,0,0,50.3,43.2a7.91,7.91,0,0,0-1.85,5.24v69a7.89,7.89,0,0,0,1.85,5.24,7.6,7.6,0,0,0,9.51,1.58l73.43-42.4v33.8L76.6,148.32,20,115.62V50.22L76.6,17.52l49.89,28.8a7.58,7.58,0,0,0,7.57,0h0a7.57,7.57,0,0,0,0-13.12l-53.67-31a7.53,7.53,0,0,0-7.57,0L8.6,39.29a7.57,7.57,0,0,0-3.78,6.56V120a7.57,7.57,0,0,0,3.78,6.56l64.22,37.07a7.53,7.53,0,0,0,7.57,0l64.21-37.07a7.58,7.58,0,0,0,3.79-6.56V69A7.92,7.92,0,0,0,146.53,63.73Z"/></svg>