<svg id="Livello_2" data-name="Livello 2" xmlns="http://www.w3.org/2000/svg" xmlns:xlink="http://www.w3.org/1999/xlink" viewBox="0 0 1080 1920"><defs><style>.cls-1{opacity:0.6;fill:url(#Sfumatura_senza_nome_16);}</style><radialGradient id="Sfumatura_senza_nome_16" cx="-126.65" cy="361.73" r="2309.27" gradientTransform="matrix(0, 1, 0.48, 0, 10.23, 179.38)" gradientUnits="userSpaceOnUse"><stop offset="0.05" stop-color="#f49c81"/><stop offset="0.22" stop-color="#eb6585"/><stop offset="0.34" stop-color="#e43a89"/><stop offset="0.37" stop-color="#da3986"/><stop offset="0.6" stop-color="#8b326d"/><stop offset="0.79" stop-color="#512d5b"/><stop offset="0.92" stop-color="#2d2a50"/><stop offset="1" stop-color="#1f294c"/></radialGradient></defs><path class="cls-1" d="M139.2,1880.89h27l13.66,23.66.85-.49-13.66-23.66L180.6,1857h27.3l13.52,23.41-13.81,23.91,13.95,24.14.84-.48-13.66-23.66,13.52-23.42h27L263,1904.55l.84-.49-13.66-23.66L263.66,1857H291l13.52,23.41-13.8,23.91,13.94,24.14.85-.48-13.66-23.66,13.52-23.42h27L346,1904.55l.84-.49L333.2,1880.4,346.72,1857H374l13.52,23.41-13.8,23.91,13.94,24.14.85-.48-13.66-23.66,13.52-23.42h27l13.66,23.66.85-.49-13.66-23.66L429.78,1857h27.29l13.52,23.41-13.8,23.91,13.94,24.14.84-.48-13.66-23.66,13.52-23.42h27l13.66,23.66.85-.49-13.66-23.66L512.83,1857h27.3l13.52,23.41-13.81,23.91,13.95,24.14.84-.48L541,1904.31l13.52-23.42h27l13.66,23.66.84-.49-13.66-23.66L595.89,1857h27.29l13.52,23.41-13.8,23.91,13.94,24.14.85-.48L624,1904.31l13.52-23.42h27l13.66,23.66.84-.49-13.66-23.66L679,1857h27.29l13.52,23.41L706,1904.31l13.94,24.14.85-.48-13.66-23.66,13.52-23.42h27l13.66,23.66.85-.49-13.66-23.66L762,1857H789.3l13.52,23.41L789,1904.31,803,1928.45l.84-.48-13.66-23.66,13.52-23.42h27l13.66,23.66.85-.49-13.66-23.66L845.07,1857h27.29l13.52,23.41-13.8,23.91L886,1928.45l.84-.48-13.66-23.66,13.52-23.42h27l13.66,23.66.84-.49L914.6,1880.4,928.12,1857h27.29l13.52,23.41-13.8,23.91,14,24.14.84-.48-13.66-23.66,13.52-23.42h27l13.66,23.66.84-.49-13.66-23.66,13.52-23.41h27.29L1052,1880.4l-13.8,23.91,13.94,24.14.85-.48-13.66-23.66,13.52-23.42h27.32v-1h-27.32l-13.52-23.42,13.52-23.42h27.32v-1h-27.32l-13.52-23.42,13.52-23.41h27.32v-1h-27.32l-13.52-23.41,13.52-23.42h27.32v-1h-27.32l-13.52-23.41,13.52-23.42h27.32v-1h-27.32l-13.52-23.42,13.52-23.41h27.32v-1h-27.32l-13.52-23.41,13.52-23.42h27.32v-1h-27.32l-13.52-23.41,13.52-23.42h27.32v-1h-27.32l-13.52-23.42,13.52-23.41h27.32v-1h-27.32l-13.52-23.41,13.52-23.42h27.32v-1h-27.32l-13.52-23.41,13.52-23.42h27.32v-1h-27.32l-13.52-23.42,13.52-23.41h27.32v-1h-27.32l-13.52-23.42,13.52-23.41h27.32v-1h-27.32l-13.52-23.41,13.52-23.42h27.32v-1h-27.32L1039.32,1235l13.52-23.41h27.32v-1h-27.32l-13.52-23.42,13.52-23.41h27.32v-1h-27.32l-13.52-23.41,13.52-23.42h27.32v-1h-27.32l-13.52-23.42,13.52-23.42h27.32v-1h-27.32l-13.52-23.42,13.52-23.41h27.32v-1h-27.32L1039.32,996l13.52-23.42h27.32v-1h-27.32l-13.52-23.42,13.52-23.42h27.32v-1h-27.32l-13.52-23.42L1052.84,877h27.32v-1h-27.32l-13.52-23.41,13.52-23.42h27.32v-1h-27.32l-13.52-23.42,13.52-23.42h27.32v-1h-27.32l-13.52-23.42,13.52-23.41h27.32v-1h-27.32l-13.52-23.41,13.52-23.42h27.32v-1h-27.32l-13.52-23.41,13.52-23.42h27.32v-1h-27.32l-13.52-23.42,13.52-23.41h27.32v-1h-27.32l-13.52-23.41,13.52-23.42h27.32v-1h-27.32l-13.52-23.41,13.52-23.42h27.32v-1h-27.32l-13.52-23.42,13.52-23.41h27.32v-1h-27.32l-13.52-23.42,13.52-23.41h27.32v-1h-27.32l-13.52-23.41,13.52-23.42h27.32v-1h-27.32l-13.52-23.42,13.52-23.41h27.32v-1h-27.32l-13.52-23.42,13.52-23.41h27.32v-1h-27.32l-13.52-23.41,13.52-23.42h27.32v-1h-27.32l-13.52-23.42,13.52-23.41h27.32v-1h-27.32l-13.52-23.42L1052.84,112h27.32v-1h-27.32l-13.52-23.41,13.52-23.42h27.32v-1h-27.32l-13.52-23.42,13.52-23.41h27.32v-1h-27.89l-.14.24-13.66,23.66h-27.29L997.66,15.94l13.52-23.42h27.32v-1h-27.88l-.14.24L996.82,15.45h-27.6l-.14.24L955.41,39.35H928.12L914.6,15.94,928.12-7.48h27.32v-1H927.56l-.14.24L913.76,15.45h-27.6l-.14.24L872.36,39.35H845.07L831.55,15.94,845.07-7.48h27.32v-1H844.5l-.14.24L830.7,15.45H803.1l-.14.24L789.3,39.35H762L748.49,15.94,762-7.48h27.32v-1H761.44l-.14.24L747.64,15.45H720l-.14.24L706.24,39.35H679L665.43,15.94,679-7.48h27.32v-1H678.39l-.14.24L664.59,15.45H637l-.14.24L623.18,39.35H595.89L582.37,15.94,595.89-7.48h27.32v-1H595.33l-.14.24L581.53,15.45h-27.6l-.14.24L540.13,39.35h-27.3L499.32,15.94,512.83-7.48h27.32v-1H512.27l-13.8,23.9h-27.6l-13.8,23.9H429.78L416.26,15.94,429.78-7.48H457.1v-1H429.21l-13.8,23.9h-27.6L374,39.35H346.72L333.2,15.94,346.72-7.48H374v-1H346.16l-13.8,23.9H304.75L291,39.35H263.66L250.14,15.94,263.66-7.48H291v-1H263.1l-13.8,23.9H221.7l-13.8,23.9H180.6L167.09,15.94,180.6-7.48h27.32v-1H180l-13.8,23.9h-27.6l-13.8,23.9H97.55L84,15.94,97.55-7.48h27.32v-1H97l-13.8,23.9H55.58l-13.8,23.9H14.49L1,15.94,14.49-7.48H41.81v-1H13.93L-.16,15.94l13.8,23.9L-.16,63.74l13.8,23.91-13.8,23.9,13.8,23.9L-.16,159.36l13.8,23.9-13.8,23.9,13.8,23.91L-.16,255l13.8,23.9L-.16,302.78l13.8,23.9-13.8,23.9,13.8,23.91-13.8,23.9,13.8,23.91L-.16,446.2l13.8,23.9L-.16,494l13.8,23.9-13.8,23.9,13.8,23.91-13.8,23.9,13.8,23.9L-.16,637.43l13.8,23.9-13.8,23.9,13.8,23.91L-.16,733l13.8,23.9L-.16,780.85l13.8,23.9-13.8,23.9,13.8,23.91-13.8,23.9,13.8,23.9L-.16,924.27l13.8,23.9-13.8,23.9L13.64,996l-13.8,23.9,13.8,23.9-13.8,23.91,13.8,23.9-13.8,23.9,13.8,23.91-13.8,23.9,13.8,23.9-13.8,23.91,13.8,23.9-13.8,23.9,13.8,23.91-13.8,23.9,13.8,23.9-13.8,23.91,13.8,23.9-13.8,23.9,13.8,23.91-13.8,23.9,13.8,23.91L-.16,1498l13.8,23.9-13.8,23.91,13.8,23.9-13.8,23.9,13.8,23.91-13.8,23.9,13.8,23.9-13.8,23.91,13.8,23.9L-.16,1737l13.8,23.91-13.8,23.9,13.8,23.9L-.16,1832.6l13.8,23.9-13.8,23.9,14,24.15.84-.49L1,1880.4,14.49,1857H41.78L55.3,1880.4l-13.8,23.91,13.94,24.14.85-.48-13.66-23.66,13.51-23.42h27l13.66,23.66.85-.49L84,1880.4,97.55,1857h27.29l13.52,23.41-13.8,23.91,13.94,24.14.84-.48-13.66-23.66ZM42.63,1856.5l13.51-23.42h27L96.7,1856.5l-13.52,23.42h-27ZM512,1713.08l-13.52,23.41h-27l-13.52-23.41,13.52-23.42h27Zm-12.67-23.9,13.51-23.42h27.3l13.52,23.42-13.52,23.41h-27.3Zm-69.54,23.41-13.52-23.41,13.52-23.42h27.29l13.52,23.42-13.52,23.41Zm28.13-47.32,13.52-23.41h27L512,1665.27l-13.52,23.42h-27Zm41.41-23.9L512.83,1618h27.3l13.52,23.42-13.52,23.41h-27.3Zm-69.54,23.41-13.52-23.41L429.78,1618h27.29l13.52,23.42-13.52,23.41Zm28.13-47.31,13.52-23.42h27L512,1617.47l-13.52,23.41h-27Zm41.41-23.91,13.51-23.41h27.3l13.52,23.41L540.13,1617h-27.3ZM429.78,1617l-13.52-23.42,13.52-23.41h27.29l13.52,23.41L457.07,1617Zm28.13-47.32,13.52-23.42h27L512,1569.66l-13.52,23.41h-27Zm41.41-23.9,13.51-23.42h27.3l13.52,23.42-13.52,23.41h-27.3Zm-69.54,23.41-13.52-23.41,13.52-23.42h27.29l13.52,23.42-13.52,23.41Zm28.13-47.32,13.52-23.41h27L512,1521.85l-13.52,23.42h-27Zm41.41-23.9,13.51-23.42h27.3L553.65,1498l-13.52,23.41h-27.3Zm-69.54,23.41L416.26,1498l13.52-23.42h27.29L470.59,1498l-13.52,23.41Zm28.13-47.31,13.52-23.42h27L512,1474.05l-13.52,23.41h-27Zm41.41-23.91,13.51-23.41h27.3l13.52,23.41-13.52,23.42h-27.3Zm-69.54,23.42-13.52-23.42,13.52-23.41h27.29l13.52,23.41-13.52,23.42Zm28.13-47.32,13.52-23.42h27L512,1426.24l-13.52,23.41h-27Zm41.41-23.91,13.51-23.41h27.3l13.52,23.41-13.52,23.42h-27.3Zm-69.54,23.42-13.52-23.42,13.52-23.41h27.29l13.52,23.42-13.52,23.41Zm28.13-47.32L471.43,1355h27L512,1378.43l-13.52,23.42h-27Zm41.41-23.9,13.51-23.42h27.3l13.52,23.42-13.52,23.41h-27.3Zm-69.54,23.41-13.52-23.41,13.52-23.42h27.29l13.52,23.42-13.52,23.41Zm28.13-47.32,13.52-23.41h27L512,1330.62,498.47,1354h-27Zm41.41-23.9,13.51-23.41h27.3l13.52,23.41-13.52,23.42h-27.3Zm-69.54,23.42-13.52-23.42,13.52-23.41h27.29l13.52,23.41-13.52,23.42Zm28.13-47.32,13.52-23.42h27L512,1282.82l-13.52,23.41h-27Zm41.41-23.91,13.51-23.41h27.3l13.52,23.41-13.52,23.42h-27.3Zm-69.54,23.42-13.52-23.42,13.52-23.41h27.29l13.52,23.41-13.52,23.42ZM457.91,1235l13.52-23.41h27L512,1235l-13.52,23.42h-27Zm41.41-23.9,13.51-23.42h27.3l13.52,23.42-13.52,23.41h-27.3Zm-69.54,23.41-13.52-23.41,13.52-23.42h27.29l13.52,23.42-13.52,23.41Zm28.13-47.32,13.52-23.41h27L512,1187.2l-13.52,23.42h-27Zm41.41-23.9,13.51-23.41h27.3l13.52,23.41-13.52,23.42h-27.3Zm-69.54,23.42-13.52-23.42,13.52-23.41h27.29l13.52,23.41-13.52,23.42Zm28.13-47.32L471.43,1116h27L512,1139.4l-13.52,23.41h-27Zm41.41-23.91,13.51-23.41h27.3l13.52,23.41-13.52,23.42h-27.3Zm-69.54,23.42-13.52-23.42,13.52-23.41h27.29l13.52,23.41-13.52,23.42Zm28.13-47.32,13.52-23.42h27L512,1091.59,498.47,1115h-27Zm41.41-23.9,13.51-23.42h27.3l13.52,23.42-13.52,23.41h-27.3Zm-69.54,23.41-13.52-23.41,13.52-23.42h27.29l13.52,23.42-13.52,23.41Zm28.13-47.32,13.52-23.41h27L512,1043.78l-13.52,23.42h-27Zm41.41-23.9,13.51-23.42h27.3l13.52,23.42-13.52,23.42h-27.3Zm-69.54,23.42-13.52-23.42,13.52-23.42h27.29l13.52,23.42-13.52,23.42ZM457.91,996l13.52-23.42h27L512,996l-13.52,23.41h-27Zm41.41-23.91,13.51-23.41h27.3l13.52,23.41-13.52,23.42h-27.3Zm-69.54,23.42-13.52-23.42,13.52-23.41h27.29l13.52,23.41-13.52,23.42Zm28.13-47.32,13.52-23.42h27L512,948.17l-13.52,23.42h-27Zm41.41-23.9,13.51-23.42h27.3l13.52,23.42-13.52,23.41h-27.3Zm-69.54,23.41-13.52-23.41,13.52-23.42h27.29l13.52,23.42-13.52,23.41Zm28.13-47.32L471.43,877h27L512,900.36l-13.52,23.42h-27Zm41.41-23.9L512.83,853h27.3l13.52,23.42-13.52,23.42h-27.3Zm-69.54,23.42-13.52-23.42L429.78,853h27.29l13.52,23.42-13.52,23.42Zm28.13-47.32,13.52-23.42h27L512,852.56,498.47,876h-27Zm41.41-23.91,13.51-23.41h27.3l13.52,23.41-13.52,23.42h-27.3Zm-69.54,23.42-13.52-23.42,13.52-23.41h27.29l13.52,23.41-13.52,23.42Zm28.13-47.32,13.52-23.42h27L512,804.75l-13.52,23.42h-27Zm41.41-23.9,13.51-23.42h27.3l13.52,23.42-13.52,23.41h-27.3Zm-69.54,23.41-13.52-23.41,13.52-23.42h27.29l13.52,23.42-13.52,23.41Zm28.13-47.32,13.52-23.41h27L512,756.94l-13.52,23.42h-27ZM499.32,733l13.51-23.42h27.3L553.65,733l-13.52,23.41h-27.3Zm-69.54,23.41L416.26,733l13.52-23.42h27.29L470.59,733l-13.52,23.41Zm28.13-47.31,13.52-23.42h27L512,709.14l-13.52,23.41h-27Zm41.41-23.91,13.51-23.41h27.3l13.52,23.41-13.52,23.42h-27.3Zm-69.54,23.42-13.52-23.42,13.52-23.41h27.29l13.52,23.41-13.52,23.42Zm28.13-47.32,13.52-23.42h27L512,661.33l-13.52,23.41h-27Zm41.41-23.9L512.83,614h27.3l13.52,23.42-13.52,23.41h-27.3Zm-69.54,23.41-13.52-23.41L429.78,614h27.29l13.52,23.42-13.52,23.41Zm28.13-47.32,13.52-23.41h27L512,613.52l-13.52,23.42h-27Zm41.41-23.9,13.51-23.42h27.3l13.52,23.42L540.13,613h-27.3ZM429.78,613l-13.52-23.41,13.52-23.42h27.29l13.52,23.42L457.07,613Zm28.13-47.31,13.52-23.42h27L512,565.72l-13.52,23.41h-27Zm41.41-23.91,13.51-23.41h27.3l13.52,23.41-13.52,23.42h-27.3Zm-69.54,23.42-13.52-23.42,13.52-23.41h27.29l13.52,23.41-13.52,23.42Zm28.13-47.32,13.52-23.42h27L512,517.91l-13.52,23.41h-27ZM499.32,494l13.51-23.42h27.3L553.65,494l-13.52,23.41h-27.3Zm-69.54,23.41L416.26,494l13.52-23.42h27.29L470.59,494l-13.52,23.41Zm28.13-47.32,13.52-23.41h27L512,470.1l-13.52,23.42h-27Zm41.41-23.9,13.51-23.42h27.3l13.52,23.42-13.52,23.41h-27.3Zm-69.54,23.41L416.26,446.2l13.52-23.42h27.29l13.52,23.42-13.52,23.41Zm28.13-47.32,13.52-23.41h27L512,422.3l-13.52,23.41h-27Zm41.41-23.9L512.83,375h27.3l13.52,23.41-13.52,23.42h-27.3Zm-69.54,23.42-13.52-23.42L429.78,375h27.29l13.52,23.41-13.52,23.42Zm28.13-47.32,13.52-23.42h27L512,374.49,498.47,397.9h-27Zm41.41-23.91,13.51-23.41h27.3l13.52,23.41L540.13,374h-27.3ZM429.78,374l-13.52-23.42,13.52-23.41h27.29l13.52,23.41L457.07,374Zm28.13-47.32,13.52-23.41h27L512,326.68,498.47,350.1h-27Zm41.41-23.9,13.51-23.42h27.3l13.52,23.42-13.52,23.41h-27.3Zm-69.54,23.41-13.52-23.41,13.52-23.42h27.29l13.52,23.42-13.52,23.41Zm28.13-47.32,13.52-23.41h27L512,278.87l-13.52,23.42h-27ZM499.32,255l13.51-23.41h27.3L553.65,255l-13.52,23.42h-27.3Zm-69.54,23.42L416.26,255l13.52-23.41h27.29L470.59,255l-13.52,23.42Zm28.13-47.32,13.52-23.42h27L512,231.07l-13.52,23.41h-27Zm41.41-23.91,13.51-23.41h27.3l13.52,23.41-13.52,23.42h-27.3Zm-69.54,23.42-13.52-23.42,13.52-23.41h27.29l13.52,23.41-13.52,23.42Zm28.13-47.32,13.52-23.41h27L512,183.26l-13.52,23.42h-27Zm-28.13-.49-13.52-23.41,13.52-23.42h27.29l13.52,23.42-13.52,23.41Zm69.54-23.41,13.51-23.42h27.3l13.52,23.42-13.52,23.41h-27.3Zm83.05,0,13.52-23.42h27.29l13.52,23.42-13.52,23.41H595.89Zm12.68,23.9-13.52,23.42h-27L541,183.26l13.52-23.41h27Zm28.13.49,13.52,23.41-13.52,23.42H595.89l-13.52-23.42,13.52-23.41Zm-28.13,47.32-13.52,23.41h-27L541,231.07l13.52-23.42h27Zm28.13.49L636.7,255l-13.52,23.42H595.89L582.37,255l13.52-23.41Zm-28.13,47.31-13.52,23.42h-27L541,278.87l13.52-23.41h27Zm28.13.49,13.52,23.42-13.52,23.41H595.89l-13.52-23.41,13.52-23.42Zm-28.13,47.32L581.53,350.1h-27L541,326.68l13.52-23.41h27Zm28.13.49,13.52,23.41L623.18,374H595.89l-13.52-23.42,13.52-23.41Zm-28.13,47.32L581.53,397.9h-27L541,374.49l13.52-23.42h27Zm28.13.49,13.52,23.41-13.52,23.42H595.89l-13.52-23.42L595.89,375Zm-28.13,47.31-13.52,23.42h-27L541,422.29l13.52-23.41h27Zm28.13.49L636.7,446.2l-13.52,23.41H595.89L582.37,446.2l13.52-23.42ZM595.05,470.1l-13.52,23.42h-27L541,470.1l13.52-23.41h27Zm28.13.49L636.7,494l-13.52,23.41H595.89L582.37,494l13.52-23.42Zm-28.13,47.32-13.52,23.41h-27L541,517.91l13.52-23.42h27Zm28.13.49,13.52,23.41-13.52,23.42H595.89l-13.52-23.42,13.52-23.41Zm-28.13,47.32-13.52,23.41h-27L541,565.72l13.52-23.42h27Zm28.13.48,13.52,23.42L623.18,613H595.89l-13.52-23.41,13.52-23.42Zm-28.13,47.32-13.52,23.42h-27L541,613.52l13.52-23.41h27Zm28.13.49,13.52,23.42-13.52,23.41H595.89l-13.52-23.41L595.89,614Zm-28.13,47.32-13.52,23.41h-27L541,661.33l13.52-23.42h27Zm28.13.49,13.52,23.41-13.52,23.42H595.89l-13.52-23.42,13.52-23.41Zm-28.13,47.32-13.52,23.41h-27L541,709.14l13.52-23.42h27Zm28.13.48L636.7,733l-13.52,23.41H595.89L582.37,733l13.52-23.42Zm-28.13,47.32-13.52,23.42h-27L541,756.94l13.52-23.41h27Zm28.13.49,13.52,23.42-13.52,23.41H595.89l-13.52-23.41,13.52-23.42Zm-28.13,47.32-13.52,23.42h-27L541,804.75l13.52-23.42h27Zm28.13.49,13.52,23.41-13.52,23.42H595.89l-13.52-23.42,13.52-23.41Zm-28.13,47.32L581.53,876h-27L541,852.56l13.52-23.42h27Zm28.13.48,13.52,23.42-13.52,23.42H595.89l-13.52-23.42L595.89,853Zm-28.13,47.32-13.52,23.42h-27L541,900.36,554.49,877h27Zm28.13.49,13.52,23.42-13.52,23.41H595.89l-13.52-23.41,13.52-23.42Zm-28.13,47.32-13.52,23.42h-27L541,948.17l13.52-23.42h27Zm28.13.49,13.52,23.41-13.52,23.42H595.89l-13.52-23.42,13.52-23.41ZM595.05,996l-13.52,23.41h-27L541,996l13.52-23.42h27Zm28.13.48,13.52,23.42-13.52,23.42H595.89l-13.52-23.42,13.52-23.42Zm-28.13,47.32-13.52,23.42h-27L541,1043.78l13.52-23.41h27Zm28.13.49,13.52,23.42-13.52,23.41H595.89l-13.52-23.41,13.52-23.42Zm-28.13,47.32L581.53,1115h-27L541,1091.59l13.52-23.42h27Zm28.13.49,13.52,23.41-13.52,23.42H595.89l-13.52-23.42,13.52-23.41Zm-28.13,47.32-13.52,23.41h-27L541,1139.4,554.49,1116h27Zm28.13.49,13.52,23.41-13.52,23.42H595.89l-13.52-23.42,13.52-23.41Zm-28.13,47.31-13.52,23.42h-27L541,1187.2l13.52-23.41h27Zm28.13.49,13.52,23.42-13.52,23.41H595.89l-13.52-23.41,13.52-23.42ZM595.05,1235l-13.52,23.42h-27L541,1235l13.52-23.41h27Zm28.13.49,13.52,23.41-13.52,23.42H595.89l-13.52-23.42,13.52-23.41Zm-28.13,47.32-13.52,23.41h-27L541,1282.82l13.52-23.42h27Zm28.13.49,13.52,23.41-13.52,23.42H595.89l-13.52-23.42,13.52-23.41Zm-28.13,47.31L581.53,1354h-27L541,1330.62l13.52-23.41h27Zm28.13.49,13.52,23.42-13.52,23.41H595.89l-13.52-23.41,13.52-23.42Zm-28.13,47.32-13.52,23.42h-27L541,1378.43,554.49,1355h27Zm28.13.49,13.52,23.41-13.52,23.42H595.89l-13.52-23.42,13.52-23.41Zm-28.13,47.32-13.52,23.41h-27L541,1426.24l13.52-23.42h27Zm28.13.49,13.52,23.41-13.52,23.42H595.89l-13.52-23.42,13.52-23.41Zm-28.13,47.32-13.52,23.41h-27L541,1474.05l13.52-23.42h27Zm28.13.48L636.7,1498l-13.52,23.41H595.89L582.37,1498l13.52-23.42Zm-28.13,47.32-13.52,23.42h-27L541,1521.85l13.52-23.41h27Zm28.13.49,13.52,23.42-13.52,23.41H595.89l-13.52-23.41,13.52-23.42Zm-28.13,47.32-13.52,23.41h-27L541,1569.66l13.52-23.42h27Zm28.13.49,13.52,23.41L623.18,1617H595.89l-13.52-23.42,13.52-23.41Zm-28.13,47.32-13.52,23.41h-27L541,1617.47l13.52-23.42h27Zm28.13.48,13.52,23.42-13.52,23.41H595.89l-13.52-23.41L595.89,1618Zm-28.13,47.32-13.52,23.42h-27L541,1665.27l13.52-23.41h27Zm28.13.49,13.52,23.42-13.52,23.41H595.89l-13.52-23.41,13.52-23.42Zm-28.13,47.32-13.52,23.41h-27L541,1713.08l13.52-23.42h27Zm28.13.49L636.7,1737l-13.52,23.42H595.89L582.37,1737l13.52-23.41ZM553.65,1737l-13.52,23.42h-27.3L499.32,1737l13.51-23.41h27.3Zm-83.06,0-13.52,23.42H429.78L416.26,1737l13.52-23.41h27.29Zm-83.06,0L374,1760.4H346.72L333.2,1737l13.52-23.41H374Zm-12.67-23.9,13.52-23.42h27l13.52,23.42-13.52,23.41h-27Zm-28.14-.49-13.52-23.41,13.52-23.42H374l13.52,23.42L374,1712.59Zm28.14-47.32,13.52-23.41h27l13.52,23.41-13.52,23.42h-27Zm-28.14-.49-13.52-23.41L346.72,1618H374l13.52,23.42L374,1664.78Zm28.14-47.31,13.52-23.42h27l13.52,23.42-13.52,23.41h-27Zm-28.14-.49-13.52-23.42,13.52-23.41H374l13.52,23.41L374,1617Zm28.14-47.32,13.52-23.42h27l13.52,23.42-13.52,23.41h-27Zm-28.14-.49-13.52-23.41,13.52-23.42H374l13.52,23.42L374,1569.17Zm28.14-47.32,13.52-23.41h27l13.52,23.41-13.52,23.42h-27Zm-28.14-.49L333.2,1498l13.52-23.42H374L387.53,1498,374,1521.36Zm28.14-47.31,13.52-23.42h27l13.52,23.42-13.52,23.41h-27Zm-28.14-.49-13.52-23.42,13.52-23.41H374l13.52,23.41L374,1473.56Zm28.14-47.32,13.52-23.42h27l13.52,23.42-13.52,23.41h-27Zm-28.14-.49-13.52-23.42,13.52-23.41H374l13.52,23.42L374,1425.75Zm28.14-47.32L388.38,1355h27l13.52,23.41-13.52,23.42h-27Zm-28.14-.49-13.52-23.41,13.52-23.42H374l13.52,23.42L374,1377.94Zm28.14-47.32,13.52-23.41h27l13.52,23.41L415.41,1354h-27Zm-28.14-.48-13.52-23.42,13.52-23.41H374l13.52,23.41L374,1330.14Zm28.14-47.32,13.52-23.42h27l13.52,23.42-13.52,23.41h-27Zm-28.14-.49-13.52-23.42,13.52-23.41H374l13.52,23.41L374,1282.33ZM374.86,1235l13.52-23.41h27L428.93,1235l-13.52,23.42h-27Zm-28.14-.49-13.52-23.41,13.52-23.42H374l13.52,23.42L374,1234.52Zm28.14-47.32,13.52-23.41h27l13.52,23.41-13.52,23.42h-27Zm-28.14-.48L333.2,1163.3l13.52-23.41H374l13.52,23.41L374,1186.72Zm28.14-47.32L388.38,1116h27l13.52,23.42-13.52,23.41h-27Zm-28.14-.49-13.52-23.42,13.52-23.41H374l13.52,23.41L374,1138.91Zm28.14-47.32,13.52-23.42h27l13.52,23.42L415.41,1115h-27Zm-28.14-.49-13.52-23.41,13.52-23.42H374l13.52,23.42L374,1091.1Zm28.14-47.32,13.52-23.41h27l13.52,23.41-13.52,23.42h-27Zm-28.14-.48-13.52-23.42,13.52-23.42H374l13.52,23.42L374,1043.3ZM374.86,996l13.52-23.42h27L428.93,996l-13.52,23.41h-27Zm-28.14-.49L333.2,972.07l13.52-23.41H374l13.52,23.41L374,995.49Zm28.14-47.32,13.52-23.42h27l13.52,23.42-13.52,23.42h-27Zm-28.14-.49L333.2,924.27l13.52-23.42H374l13.52,23.42L374,947.68Zm28.14-47.32L388.38,877h27l13.52,23.41-13.52,23.42h-27Zm-28.14-.48L333.2,876.46,346.72,853H374l13.52,23.42L374,899.88Zm28.14-47.32,13.52-23.42h27l13.52,23.42L415.41,876h-27Zm-28.14-.49L333.2,828.65l13.52-23.41H374l13.52,23.41L374,852.07Zm28.14-47.32,13.52-23.42h27l13.52,23.42-13.52,23.42h-27Zm-28.14-.49L333.2,780.85l13.52-23.42H374l13.52,23.42L374,804.26Zm28.14-47.32,13.52-23.41h27l13.52,23.41-13.52,23.42h-27Zm-28.14-.49L333.2,733l13.52-23.42H374L387.53,733,374,756.45Zm28.14-47.31,13.52-23.42h27l13.52,23.42-13.52,23.41h-27Zm-28.14-.49L333.2,685.23l13.52-23.41H374l13.52,23.41L374,708.65Zm28.14-47.32,13.52-23.42h27l13.52,23.42-13.52,23.41h-27Zm-28.14-.49L333.2,637.43,346.72,614H374l13.52,23.42L374,660.84Zm28.14-47.32,13.52-23.41h27l13.52,23.41-13.52,23.42h-27ZM346.72,613,333.2,589.62l13.52-23.42H374l13.52,23.42L374,613Zm28.14-47.31,13.52-23.42h27l13.52,23.42-13.52,23.41h-27Zm-28.14-.49L333.2,541.81l13.52-23.41H374l13.52,23.41L374,565.23Zm28.14-47.32,13.52-23.42h27l13.52,23.42-13.52,23.41h-27Zm-28.14-.49L333.2,494l13.52-23.42H374L387.53,494,374,517.42Zm28.14-47.32,13.52-23.41h27l13.52,23.41-13.52,23.42h-27Zm-28.14-.49L333.2,446.2l13.52-23.42H374l13.52,23.42L374,469.61Zm28.14-47.32,13.52-23.41h27l13.52,23.42-13.52,23.41h-27Zm-28.14-.48L333.2,398.39,346.72,375H374l13.52,23.41L374,421.81Zm28.14-47.32,13.52-23.42h27l13.52,23.42L415.41,397.9h-27ZM346.72,374,333.2,350.58l13.52-23.41H374l13.52,23.41L374,374Zm28.14-47.32,13.52-23.41h27l13.52,23.41L415.41,350.1h-27Zm-28.14-.49L333.2,302.78l13.52-23.42H374l13.52,23.42L374,326.19Zm28.14-47.32,13.52-23.41h27l13.52,23.41-13.52,23.42h-27Zm-28.14-.48L333.2,255l13.52-23.41H374L387.53,255,374,278.39Zm28.14-47.32,13.52-23.42h27l13.52,23.42-13.52,23.41h-27Zm-28.14-.49L333.2,207.16l13.52-23.41H374l13.52,23.41L374,230.58Zm28.14-47.32,13.52-23.41h27l13.52,23.41-13.52,23.42h-27Zm-28.14-.49L333.2,159.36l13.52-23.42H374l13.52,23.42L374,182.77Zm28.14-47.32L388.38,112h27l13.52,23.41-13.52,23.42h-27Zm83.05,0L471.43,112h27L512,135.45l-13.52,23.42h-27Zm83.06,0L554.49,112h27l13.52,23.41-13.52,23.42h-27Zm83.06,0L637.55,112h27l13.52,23.41-13.52,23.42h-27Zm82.21.49,13.52,23.42-13.52,23.41H679l-13.52-23.41L679,135.94Zm-28.13,47.32-13.52,23.42h-27L624,183.26l13.52-23.41h27Zm28.13.49,13.52,23.41-13.52,23.42H679l-13.52-23.42L679,183.75Zm-28.13,47.32-13.52,23.41h-27L624,231.07l13.52-23.42h27Zm28.13.49L719.76,255l-13.52,23.42H679L665.43,255,679,231.56Zm-28.13,47.31-13.52,23.42h-27L624,278.87l13.52-23.41h27Zm28.13.49,13.52,23.42-13.52,23.41H679l-13.52-23.41L679,279.36Zm-28.13,47.32L664.59,350.1h-27L624,326.68l13.52-23.41h27Zm28.13.49,13.52,23.41L706.24,374H679l-13.52-23.42L679,327.17Zm-28.13,47.32L664.59,397.9h-27L624,374.49l13.52-23.42h27Zm28.13.49,13.52,23.41-13.52,23.42H679l-13.52-23.42L679,375Zm-28.13,47.31-13.52,23.42h-27L624,422.29l13.52-23.41h27Zm28.13.49,13.52,23.42-13.52,23.41H679L665.43,446.2,679,422.78ZM678.11,470.1l-13.52,23.42h-27L624,470.1l13.52-23.41h27Zm28.13.49L719.76,494l-13.52,23.41H679L665.43,494,679,470.59Zm-28.13,47.32-13.52,23.41h-27L624,517.91l13.52-23.42h27Zm28.13.49,13.52,23.41-13.52,23.42H679l-13.52-23.42L679,518.4Zm-28.13,47.32-13.52,23.41h-27L624,565.72l13.52-23.42h27Zm28.13.48,13.52,23.42L706.24,613H679l-13.52-23.41L679,566.2Zm-28.13,47.32-13.52,23.42h-27L624,613.52l13.52-23.41h27Zm28.13.49,13.52,23.42-13.52,23.41H679l-13.52-23.41L679,614Zm-28.13,47.32-13.52,23.41h-27L624,661.33l13.52-23.42h27Zm28.13.49,13.52,23.41-13.52,23.42H679l-13.52-23.42L679,661.82Zm-28.13,47.32-13.52,23.41h-27L624,709.14l13.52-23.42h27Zm28.13.48L719.76,733l-13.52,23.41H679L665.43,733,679,709.62Zm-28.13,47.32-13.52,23.42h-27L624,756.94l13.52-23.41h27Zm28.13.49,13.52,23.42-13.52,23.41H679l-13.52-23.41L679,757.43Zm-28.13,47.32-13.52,23.42h-27L624,804.75l13.52-23.42h27Zm28.13.49,13.52,23.41-13.52,23.42H679l-13.52-23.42L679,805.24Zm-28.13,47.32L664.59,876h-27L624,852.56l13.52-23.42h27Zm28.13.48,13.52,23.42-13.52,23.42H679l-13.52-23.42L679,853Zm-28.13,47.32-13.52,23.42h-27L624,900.36,637.55,877h27Zm28.13.49,13.52,23.42-13.52,23.41H679l-13.52-23.41L679,900.85Zm-28.13,47.32-13.52,23.42h-27L624,948.17l13.52-23.42h27Zm28.13.49,13.52,23.41-13.52,23.42H679l-13.52-23.42L679,948.66ZM678.11,996l-13.52,23.41h-27L624,996l13.52-23.42h27Zm28.13.48,13.52,23.42-13.52,23.42H679l-13.52-23.42L679,996.46Zm-28.13,47.32-13.52,23.42h-27L624,1043.78l13.52-23.41h27Zm28.13.49,13.52,23.42-13.52,23.41H679l-13.52-23.41L679,1044.27Zm-28.13,47.32L664.59,1115h-27L624,1091.59l13.52-23.42h27Zm28.13.49,13.52,23.41-13.52,23.42H679l-13.52-23.42L679,1092.08Zm-28.13,47.32-13.52,23.41h-27L624,1139.4,637.55,1116h27Zm28.13.49,13.52,23.41-13.52,23.42H679l-13.52-23.42L679,1139.89Zm-28.13,47.31-13.52,23.42h-27L624,1187.2l13.52-23.41h27Zm28.13.49,13.52,23.42-13.52,23.41H679l-13.52-23.41L679,1187.69ZM678.11,1235l-13.52,23.42h-27L624,1235l13.52-23.41h27Zm28.13.49,13.52,23.41-13.52,23.42H679l-13.52-23.42L679,1235.5Zm-28.13,47.32-13.52,23.41h-27L624,1282.82l13.52-23.42h27Zm28.13.49,13.52,23.41-13.52,23.42H679l-13.52-23.42L679,1283.31Zm-28.13,47.31L664.59,1354h-27L624,1330.62l13.52-23.41h27Zm28.13.49,13.52,23.42-13.52,23.41H679l-13.52-23.41L679,1331.11Zm-28.13,47.32-13.52,23.42h-27L624,1378.43,637.55,1355h27Zm28.13.49,13.52,23.41-13.52,23.42H679l-13.52-23.42L679,1378.92Zm-28.13,47.32-13.52,23.41h-27L624,1426.24l13.52-23.42h27Zm28.13.49,13.52,23.41-13.52,23.42H679l-13.52-23.42L679,1426.73Zm-28.13,47.32-13.52,23.41h-27L624,1474.05l13.52-23.42h27Zm28.13.48L719.76,1498l-13.52,23.41H679L665.43,1498,679,1474.53Zm-28.13,47.32-13.52,23.42h-27L624,1521.85l13.52-23.41h27Zm28.13.49,13.52,23.42-13.52,23.41H679l-13.52-23.41L679,1522.34Zm-28.13,47.32-13.52,23.41h-27L624,1569.66l13.52-23.42h27Zm28.13.49,13.52,23.41L706.24,1617H679l-13.52-23.42L679,1570.15Zm-28.13,47.32-13.52,23.41h-27L624,1617.47l13.52-23.42h27Zm28.13.48,13.52,23.42-13.52,23.41H679l-13.52-23.41L679,1618Zm-28.13,47.32-13.52,23.42h-27L624,1665.27l13.52-23.41h27Zm28.13.49,13.52,23.42-13.52,23.41H679l-13.52-23.41L679,1665.76Zm-28.13,47.32-13.52,23.41h-27L624,1713.08l13.52-23.42h27Zm28.13.49L719.76,1737l-13.52,23.42H679L665.43,1737,679,1713.57Zm-28.13,47.32-13.52,23.41h-27L624,1760.89l13.52-23.42h27Zm-83.06,0-13.52,23.41h-27L541,1760.89l13.52-23.42h27Zm-83.06,0-13.52,23.41h-27l-13.52-23.41,13.52-23.42h27Zm-83.06,0-13.52,23.41h-27l-13.52-23.41,13.52-23.42h27Zm-83.06,0-13.51,23.41h-27l-13.52-23.41,13.52-23.42h27Zm-82.21-.49L250.14,1737l13.52-23.41H291L304.47,1737,291,1760.4Zm28.14-47.32,13.52-23.42h27l13.51,23.42-13.51,23.41h-27Zm-28.14-.49-13.52-23.41,13.52-23.42H291l13.52,23.42L291,1712.59Zm28.14-47.32,13.52-23.41h27l13.51,23.41-13.51,23.42h-27Zm-28.14-.49-13.52-23.41L263.66,1618H291l13.52,23.42L291,1664.78Zm28.14-47.31,13.52-23.42h27l13.51,23.42-13.51,23.41h-27Zm-28.14-.49-13.52-23.42,13.52-23.41H291l13.52,23.41L291,1617Zm28.14-47.32,13.52-23.42h27l13.51,23.42-13.51,23.41h-27Zm-28.14-.49-13.52-23.41,13.52-23.42H291l13.52,23.42L291,1569.17Zm28.14-47.32,13.52-23.41h27l13.51,23.41-13.51,23.42h-27Zm-28.14-.49L250.14,1498l13.52-23.42H291L304.47,1498,291,1521.36Zm28.14-47.31,13.52-23.42h27l13.51,23.42-13.51,23.41h-27Zm-28.14-.49-13.52-23.42,13.52-23.41H291l13.52,23.41L291,1473.56Zm28.14-47.32,13.52-23.42h27l13.51,23.42-13.51,23.41h-27Zm-28.14-.49-13.52-23.42,13.52-23.41H291l13.52,23.42L291,1425.75Zm28.14-47.32L305.32,1355h27l13.51,23.41-13.51,23.42h-27Zm-28.14-.49-13.52-23.41,13.52-23.42H291l13.52,23.42L291,1377.94Zm28.14-47.32,13.52-23.41h27l13.51,23.41L332.36,1354h-27Zm-28.14-.48-13.52-23.42,13.52-23.41H291l13.52,23.41L291,1330.14Zm28.14-47.32,13.52-23.42h27l13.51,23.42-13.51,23.41h-27Zm-28.14-.49-13.52-23.42,13.52-23.41H291l13.52,23.41L291,1282.33ZM291.8,1235l13.52-23.41h27L345.87,1235l-13.51,23.42h-27Zm-28.14-.49-13.52-23.41,13.52-23.42H291l13.52,23.42L291,1234.52Zm28.14-47.32,13.52-23.41h27l13.51,23.41-13.51,23.42h-27Zm-28.14-.48-13.52-23.42,13.52-23.41H291l13.52,23.41L291,1186.72Zm28.14-47.32L305.32,1116h27l13.51,23.42-13.51,23.41h-27Zm-28.14-.49-13.52-23.42,13.52-23.41H291l13.52,23.41L291,1138.91Zm28.14-47.32,13.52-23.42h27l13.51,23.42L332.36,1115h-27Zm-28.14-.49-13.52-23.41,13.52-23.42H291l13.52,23.42L291,1091.1Zm28.14-47.32,13.52-23.41h27l13.51,23.41-13.51,23.42h-27Zm-28.14-.48-13.52-23.42,13.52-23.42H291l13.52,23.42L291,1043.3ZM291.8,996l13.52-23.42h27L345.87,996l-13.51,23.41h-27Zm-28.14-.49-13.52-23.42,13.52-23.41H291l13.52,23.41L291,995.49Zm28.14-47.32,13.52-23.42h27l13.51,23.42-13.51,23.42h-27Zm-28.14-.49-13.52-23.41,13.52-23.42H291l13.52,23.42L291,947.68Zm28.14-47.32L305.32,877h27l13.51,23.41-13.51,23.42h-27Zm-28.14-.48-13.52-23.42L263.66,853H291l13.52,23.42L291,899.88Zm28.14-47.32,13.52-23.42h27l13.51,23.42L332.36,876h-27Zm-28.14-.49-13.52-23.42,13.52-23.41H291l13.52,23.41L291,852.07Zm28.14-47.32,13.52-23.42h27l13.51,23.42-13.51,23.42h-27Zm-28.14-.49-13.52-23.41,13.52-23.42H291l13.52,23.42L291,804.26Zm28.14-47.32,13.52-23.41h27l13.51,23.41-13.51,23.42h-27Zm-28.14-.49L250.14,733l13.52-23.42H291L304.47,733,291,756.45Zm28.14-47.31,13.52-23.42h27l13.51,23.42-13.51,23.41h-27Zm-28.14-.49-13.52-23.42,13.52-23.41H291l13.52,23.41L291,708.65Zm28.14-47.32,13.52-23.42h27l13.51,23.42-13.51,23.41h-27Zm-28.14-.49-13.52-23.41L263.66,614H291l13.52,23.42L291,660.84Zm28.14-47.32,13.52-23.41h27l13.51,23.41-13.51,23.42h-27ZM263.66,613l-13.52-23.41,13.52-23.42H291l13.52,23.42L291,613Zm28.14-47.31,13.52-23.42h27l13.51,23.42-13.51,23.41h-27Zm-28.14-.49-13.52-23.42,13.52-23.41H291l13.52,23.41L291,565.23Zm28.14-47.32,13.52-23.42h27l13.51,23.42-13.51,23.41h-27Zm-28.14-.49L250.14,494l13.52-23.42H291L304.47,494,291,517.42ZM291.8,470.1l13.52-23.41h27l13.51,23.41-13.51,23.42h-27Zm-28.14-.49L250.14,446.2l13.52-23.42H291l13.52,23.42L291,469.61Zm28.14-47.32,13.52-23.41h27l13.51,23.42-13.51,23.41h-27Zm-28.14-.48-13.52-23.42L263.66,375H291l13.52,23.41L291,421.81Zm28.14-47.32,13.52-23.42h27l13.51,23.42L332.36,397.9h-27ZM263.66,374l-13.52-23.42,13.52-23.41H291l13.52,23.41L291,374Zm28.14-47.32,13.52-23.41h27l13.51,23.41L332.36,350.1h-27Zm-28.14-.49-13.52-23.41,13.52-23.42H291l13.52,23.42L291,326.19Zm28.14-47.32,13.52-23.41h27l13.51,23.41-13.51,23.42h-27Zm-28.14-.48L250.14,255l13.52-23.41H291L304.47,255,291,278.39Zm28.14-47.32,13.52-23.42h27l13.51,23.42-13.51,23.41h-27Zm-28.14-.49-13.52-23.42,13.52-23.41H291l13.52,23.41L291,230.58Zm28.14-47.32,13.52-23.41h27l13.51,23.41-13.51,23.42h-27Zm-28.14-.49-13.52-23.41,13.52-23.42H291l13.52,23.42L291,182.77Zm28.14-47.32L305.32,112h27l13.51,23.41-13.51,23.42h-27ZM263.66,135l-13.52-23.42,13.52-23.41H291l13.52,23.41L291,135Zm69.54-23.42,13.52-23.41H374l13.52,23.41L374,135H346.72Zm83.06,0,13.52-23.41h27.29l13.52,23.41L457.07,135H429.78Zm83.06,0,13.51-23.41h27.3l13.52,23.41L540.13,135h-27.3Zm83.05,0,13.52-23.41h27.29l13.52,23.41L623.18,135H595.89Zm83.06,0L679,88.14h27.29l13.52,23.41L706.24,135H679Zm83.06,0L762,88.14H789.3l13.52,23.41L789.3,135H762Zm12.67,23.9-13.52,23.42h-27l-13.52-23.42L720.61,112h27Zm28.14.49,13.52,23.42L789.3,182.77H762l-13.52-23.41L762,135.94Zm-28.14,47.32-13.52,23.42h-27l-13.52-23.42,13.52-23.41h27Zm28.14.49,13.52,23.41L789.3,230.58H762l-13.52-23.42L762,183.75Zm-28.14,47.32-13.52,23.41h-27l-13.52-23.41,13.52-23.42h27Zm28.14.49L802.82,255,789.3,278.39H762L748.49,255,762,231.56Zm-28.14,47.31-13.52,23.42h-27l-13.52-23.42,13.52-23.41h27Zm28.14.49,13.52,23.42L789.3,326.19H762l-13.52-23.41L762,279.36Zm-28.14,47.32L747.64,350.1h-27l-13.52-23.42,13.52-23.41h27Zm28.14.49,13.52,23.41L789.3,374H762l-13.52-23.42L762,327.17Zm-28.14,47.32L747.64,397.9h-27l-13.52-23.41,13.52-23.42h27Zm28.14.49,13.52,23.41L789.3,421.81H762l-13.52-23.42L762,375Zm-28.14,47.31-13.52,23.42h-27l-13.52-23.42,13.52-23.41h27Zm28.14.49,13.52,23.42L789.3,469.61H762L748.49,446.2,762,422.78ZM761.16,470.1l-13.52,23.42h-27L707.09,470.1l13.52-23.41h27Zm28.14.49L802.82,494,789.3,517.42H762L748.49,494,762,470.59Zm-28.14,47.32-13.52,23.41h-27l-13.52-23.41,13.52-23.42h27Zm28.14.49,13.52,23.41L789.3,565.23H762l-13.52-23.42L762,518.4Zm-28.14,47.32-13.52,23.41h-27l-13.52-23.41,13.52-23.42h27Zm28.14.48,13.52,23.42L789.3,613H762l-13.52-23.41L762,566.2Zm-28.14,47.32-13.52,23.42h-27l-13.52-23.42,13.52-23.41h27Zm28.14.49,13.52,23.42L789.3,660.84H762l-13.52-23.41L762,614Zm-28.14,47.32-13.52,23.41h-27l-13.52-23.41,13.52-23.42h27Zm28.14.49,13.52,23.41L789.3,708.65H762l-13.52-23.42L762,661.82Zm-28.14,47.32-13.52,23.41h-27l-13.52-23.41,13.52-23.42h27Zm28.14.48L802.82,733,789.3,756.45H762L748.49,733,762,709.62Zm-28.14,47.32-13.52,23.42h-27l-13.52-23.42,13.52-23.41h27Zm28.14.49,13.52,23.42L789.3,804.26H762l-13.52-23.41L762,757.43Zm-28.14,47.32-13.52,23.42h-27l-13.52-23.42,13.52-23.42h27Zm28.14.49,13.52,23.41L789.3,852.07H762l-13.52-23.42L762,805.24Zm-28.14,47.32L747.64,876h-27l-13.52-23.41,13.52-23.42h27Zm28.14.48,13.52,23.42L789.3,899.88H762l-13.52-23.42L762,853Zm-28.14,47.32-13.52,23.42h-27l-13.52-23.42L720.61,877h27Zm28.14.49,13.52,23.42L789.3,947.68H762l-13.52-23.41L762,900.85Zm-28.14,47.32-13.52,23.42h-27l-13.52-23.42,13.52-23.42h27Zm28.14.49,13.52,23.41L789.3,995.49H762l-13.52-23.42L762,948.66ZM761.16,996l-13.52,23.41h-27L707.09,996l13.52-23.42h27Zm28.14.48,13.52,23.42L789.3,1043.3H762l-13.52-23.42L762,996.46Zm-28.14,47.32-13.52,23.42h-27l-13.52-23.42,13.52-23.41h27Zm28.14.49,13.52,23.42L789.3,1091.1H762l-13.52-23.41L762,1044.27Zm-28.14,47.32L747.64,1115h-27l-13.52-23.42,13.52-23.42h27Zm28.14.49,13.52,23.41-13.52,23.42H762l-13.52-23.42L762,1092.08Zm-28.14,47.32-13.52,23.41h-27l-13.52-23.41L720.61,1116h27Zm28.14.49,13.52,23.41-13.52,23.42H762l-13.52-23.42L762,1139.89Zm-28.14,47.31-13.52,23.42h-27l-13.52-23.42,13.52-23.41h27Zm28.14.49,13.52,23.42-13.52,23.41H762l-13.52-23.41L762,1187.69ZM761.16,1235l-13.52,23.42h-27L707.09,1235l13.52-23.41h27Zm28.14.49,13.52,23.41-13.52,23.42H762l-13.52-23.42L762,1235.5Zm-28.14,47.32-13.52,23.41h-27l-13.52-23.41,13.52-23.42h27Zm28.14.49,13.52,23.41-13.52,23.42H762l-13.52-23.42L762,1283.31Zm-28.14,47.31L747.64,1354h-27l-13.52-23.42,13.52-23.41h27Zm28.14.49,13.52,23.42-13.52,23.41H762l-13.52-23.41L762,1331.11Zm-28.14,47.32-13.52,23.42h-27l-13.52-23.42L720.61,1355h27Zm28.14.49,13.52,23.41-13.52,23.42H762l-13.52-23.42L762,1378.92Zm-28.14,47.32-13.52,23.41h-27l-13.52-23.41,13.52-23.42h27Zm28.14.49,13.52,23.41-13.52,23.42H762l-13.52-23.42L762,1426.73Zm-28.14,47.32-13.52,23.41h-27l-13.52-23.41,13.52-23.42h27Zm28.14.48L802.82,1498l-13.52,23.41H762L748.49,1498,762,1474.53Zm-28.14,47.32-13.52,23.42h-27l-13.52-23.42,13.52-23.41h27Zm28.14.49,13.52,23.42-13.52,23.41H762l-13.52-23.41L762,1522.34Zm-28.14,47.32-13.52,23.41h-27l-13.52-23.41,13.52-23.42h27Zm28.14.49,13.52,23.41L789.3,1617H762l-13.52-23.42L762,1570.15Zm-28.14,47.32-13.52,23.41h-27l-13.52-23.41,13.52-23.42h27Zm28.14.48,13.52,23.42-13.52,23.41H762l-13.52-23.41L762,1618Zm-28.14,47.32-13.52,23.42h-27l-13.52-23.42,13.52-23.41h27Zm28.14.49,13.52,23.42-13.52,23.41H762l-13.52-23.41L762,1665.76Zm-28.14,47.32-13.52,23.41h-27l-13.52-23.41,13.52-23.42h27Zm28.14.49L802.82,1737,789.3,1760.4H762L748.49,1737,762,1713.57Zm-28.14,47.32-13.52,23.41h-27l-13.52-23.41,13.52-23.42h27Zm28.14.48,13.52,23.42-13.52,23.42H762l-13.52-23.42L762,1761.37Zm-69.54,23.42-13.52,23.42H679l-13.52-23.42L679,1761.37h27.29Zm-83.06,0-13.52,23.42H595.89l-13.52-23.42,13.52-23.42h27.29Zm-83.05,0-13.52,23.42h-27.3l-13.51-23.42,13.51-23.42h27.3Zm-83.06,0-13.52,23.42H429.78l-13.52-23.42,13.52-23.42h27.29Zm-83.06,0L374,1808.21H346.72l-13.52-23.42,13.52-23.42H374Zm-83.06,0L291,1808.21H263.66l-13.52-23.42,13.52-23.42H291Zm-83.05,0-13.52,23.42H180.6l-13.51-23.42,13.51-23.42h27.3Zm-12.68-23.9,13.52-23.42h27l13.52,23.42L249.3,1784.3h-27Zm-28.14-.49L167.09,1737l13.51-23.41h27.3L221.42,1737,207.9,1760.4Zm28.14-47.32,13.52-23.42h27l13.52,23.42-13.52,23.41h-27Zm-28.14-.49-13.51-23.41,13.51-23.42h27.3l13.52,23.42-13.52,23.41Zm28.14-47.32,13.52-23.41h27l13.52,23.41-13.52,23.42h-27Zm-28.14-.49-13.51-23.41L180.6,1618h27.3l13.52,23.42-13.52,23.41Zm28.14-47.31,13.52-23.42h27l13.52,23.42-13.52,23.41h-27ZM180.6,1617l-13.51-23.42,13.51-23.41h27.3l13.52,23.41L207.9,1617Zm28.14-47.32,13.52-23.42h27l13.52,23.42-13.52,23.41h-27Zm-28.14-.49-13.51-23.41,13.51-23.42h27.3l13.52,23.42-13.52,23.41Zm28.14-47.32,13.52-23.41h27l13.52,23.41-13.52,23.42h-27Zm-28.14-.49L167.09,1498l13.51-23.42h27.3L221.42,1498l-13.52,23.41Zm28.14-47.31,13.52-23.42h27l13.52,23.42-13.52,23.41h-27Zm-28.14-.49-13.51-23.42,13.51-23.41h27.3l13.52,23.41-13.52,23.42Zm28.14-47.32,13.52-23.42h27l13.52,23.42-13.52,23.41h-27Zm-28.14-.49-13.51-23.42,13.51-23.41h27.3l13.52,23.42-13.52,23.41Zm28.14-47.32L222.26,1355h27l13.52,23.41-13.52,23.42h-27Zm-28.14-.49-13.51-23.41,13.51-23.42h27.3l13.52,23.42-13.52,23.41Zm28.14-47.32,13.52-23.41h27l13.52,23.41L249.3,1354h-27Zm-28.14-.48-13.51-23.42,13.51-23.41h27.3l13.52,23.41-13.52,23.42Zm28.14-47.32,13.52-23.42h27l13.52,23.42-13.52,23.41h-27Zm-28.14-.49-13.51-23.42,13.51-23.41h27.3l13.52,23.41-13.52,23.42ZM208.74,1235l13.52-23.41h27L262.82,1235l-13.52,23.42h-27Zm-28.14-.49-13.51-23.41,13.51-23.42h27.3l13.52,23.42-13.52,23.41Zm28.14-47.32,13.52-23.41h27l13.52,23.41-13.52,23.42h-27Zm-28.14-.48-13.51-23.42,13.51-23.41h27.3l13.52,23.41-13.52,23.42Zm28.14-47.32L222.26,1116h27l13.52,23.42-13.52,23.41h-27Zm-28.14-.49-13.51-23.42,13.51-23.41h27.3l13.52,23.41-13.52,23.42Zm28.14-47.32,13.52-23.42h27l13.52,23.42L249.3,1115h-27Zm-28.14-.49-13.51-23.41,13.51-23.42h27.3l13.52,23.42L207.9,1091.1Zm28.14-47.32,13.52-23.41h27l13.52,23.41L249.3,1067.2h-27Zm-28.14-.48-13.51-23.42,13.51-23.42h27.3l13.52,23.42L207.9,1043.3ZM208.74,996l13.52-23.42h27L262.82,996l-13.52,23.41h-27Zm-28.14-.49-13.51-23.42,13.51-23.41h27.3l13.52,23.41L207.9,995.49Zm28.14-47.32,13.52-23.42h27l13.52,23.42L249.3,971.59h-27Zm-28.14-.49-13.51-23.41,13.51-23.42h27.3l13.52,23.42L207.9,947.68Zm28.14-47.32L222.26,877h27l13.52,23.41L249.3,923.78h-27Zm-28.14-.48-13.51-23.42L180.6,853h27.3l13.52,23.42L207.9,899.88Zm28.14-47.32,13.52-23.42h27l13.52,23.42L249.3,876h-27Zm-28.14-.49-13.51-23.42,13.51-23.41h27.3l13.52,23.41L207.9,852.07Zm28.14-47.32,13.52-23.42h27l13.52,23.42L249.3,828.17h-27Zm-28.14-.49-13.51-23.41,13.51-23.42h27.3l13.52,23.42L207.9,804.26Zm28.14-47.32,13.52-23.41h27l13.52,23.41L249.3,780.36h-27Zm-28.14-.49L167.09,733l13.51-23.42h27.3L221.42,733,207.9,756.45Zm28.14-47.31,13.52-23.42h27l13.52,23.42L249.3,732.55h-27Zm-28.14-.49-13.51-23.42,13.51-23.41h27.3l13.52,23.41L207.9,708.65Zm28.14-47.32,13.52-23.42h27l13.52,23.42L249.3,684.74h-27Zm-28.14-.49-13.51-23.41L180.6,614h27.3l13.52,23.42L207.9,660.84Zm28.14-47.32,13.52-23.41h27l13.52,23.41L249.3,636.94h-27ZM180.6,613l-13.51-23.41L180.6,566.2h27.3l13.52,23.42L207.9,613Zm28.14-47.31,13.52-23.42h27l13.52,23.42L249.3,589.13h-27Zm-28.14-.49-13.51-23.42L180.6,518.4h27.3l13.52,23.41L207.9,565.23Zm28.14-47.32,13.52-23.42h27l13.52,23.42L249.3,541.32h-27Zm-28.14-.49L167.09,494l13.51-23.42h27.3L221.42,494,207.9,517.42Zm28.14-47.32,13.52-23.41h27l13.52,23.41L249.3,493.52h-27Zm-28.14-.49L167.09,446.2l13.51-23.42h27.3l13.52,23.42L207.9,469.61Zm28.14-47.32,13.52-23.41h27l13.52,23.42L249.3,445.71h-27Zm-28.14-.48-13.51-23.42L180.6,375h27.3l13.52,23.41L207.9,421.81Zm28.14-47.32,13.52-23.42h27l13.52,23.42L249.3,397.9h-27ZM180.6,374l-13.51-23.42,13.51-23.41h27.3l13.52,23.41L207.9,374Zm28.14-47.32,13.52-23.41h27l13.52,23.41L249.3,350.1h-27Zm-28.14-.49-13.51-23.41,13.51-23.42h27.3l13.52,23.42L207.9,326.19Zm28.14-47.32,13.52-23.41h27l13.52,23.41L249.3,302.29h-27Zm-28.14-.48L167.09,255l13.51-23.41h27.3L221.42,255,207.9,278.39Zm28.14-47.32,13.52-23.42h27l13.52,23.42L249.3,254.48h-27Zm-28.14-.49-13.51-23.42,13.51-23.41h27.3l13.52,23.41L207.9,230.58Zm28.14-47.32,13.52-23.41h27l13.52,23.41L249.3,206.68h-27Zm-28.14-.49-13.51-23.41,13.51-23.42h27.3l13.52,23.42L207.9,182.77Zm28.14-47.32L222.26,112h27l13.52,23.41L249.3,158.87h-27ZM180.6,135l-13.51-23.42L180.6,88.14h27.3l13.52,23.41L207.9,135Zm28.14-47.32,13.52-23.42h27l13.52,23.42L249.3,111.06h-27Zm83.06,0,13.52-23.42h27l13.51,23.42-13.51,23.41h-27Zm83.06,0,13.52-23.42h27l13.52,23.42-13.52,23.41h-27Zm83.05,0,13.52-23.42h27L512,87.65l-13.52,23.41h-27Zm83.06,0,13.52-23.42h27l13.52,23.42-13.52,23.41h-27Zm83.06,0,13.52-23.42h27l13.52,23.42-13.52,23.41h-27Zm83.06,0,13.52-23.42h27l13.52,23.42-13.52,23.41h-27Zm83,0,13.52-23.42h27l13.52,23.42L830.7,111.06h-27Zm82.22.49,13.52,23.41L872.36,135H845.07l-13.52-23.42,13.52-23.41Zm-28.14,47.31L830.7,158.87h-27l-13.52-23.42L803.66,112h27Zm28.14.49,13.52,23.42-13.52,23.41H845.07l-13.52-23.41,13.52-23.42Zm-28.14,47.32L830.7,206.68h-27l-13.52-23.42,13.52-23.41h27Zm28.14.49,13.52,23.41-13.52,23.42H845.07l-13.52-23.42,13.52-23.41Zm-28.14,47.32L830.7,254.48h-27l-13.52-23.41,13.52-23.42h27Zm28.14.49L885.88,255l-13.52,23.42H845.07L831.55,255l13.52-23.41Zm-28.14,47.31L830.7,302.29h-27l-13.52-23.42,13.52-23.41h27Zm28.14.49,13.52,23.42-13.52,23.41H845.07l-13.52-23.41,13.52-23.42Zm-28.14,47.32L830.7,350.1h-27l-13.52-23.42,13.52-23.41h27Zm28.14.49,13.52,23.41L872.36,374H845.07l-13.52-23.42,13.52-23.41Zm-28.14,47.32L830.7,397.9h-27l-13.52-23.41,13.52-23.42h27Zm28.14.49,13.52,23.41-13.52,23.42H845.07l-13.52-23.42L845.07,375Zm-28.14,47.31L830.7,445.71h-27l-13.52-23.42,13.52-23.41h27Zm28.14.49,13.52,23.42-13.52,23.41H845.07L831.55,446.2l13.52-23.42ZM844.22,470.1,830.7,493.52h-27L790.14,470.1l13.52-23.41h27Zm28.14.49L885.88,494l-13.52,23.41H845.07L831.55,494l13.52-23.42Zm-28.14,47.32L830.7,541.32h-27l-13.52-23.41,13.52-23.42h27Zm28.14.49,13.52,23.41-13.52,23.42H845.07l-13.52-23.42,13.52-23.41Zm-28.14,47.32L830.7,589.13h-27l-13.52-23.41,13.52-23.42h27Zm28.14.48,13.52,23.42L872.36,613H845.07l-13.52-23.41,13.52-23.42Zm-28.14,47.32L830.7,636.94h-27l-13.52-23.42,13.52-23.41h27Zm28.14.49,13.52,23.42-13.52,23.41H845.07l-13.52-23.41L845.07,614Zm-28.14,47.32L830.7,684.74h-27l-13.52-23.41,13.52-23.42h27Zm28.14.49,13.52,23.41-13.52,23.42H845.07l-13.52-23.42,13.52-23.41Zm-28.14,47.32L830.7,732.55h-27l-13.52-23.41,13.52-23.42h27Zm28.14.48L885.88,733l-13.52,23.41H845.07L831.55,733l13.52-23.42Zm-28.14,47.32L830.7,780.36h-27l-13.52-23.42,13.52-23.41h27Zm28.14.49,13.52,23.42-13.52,23.41H845.07l-13.52-23.41,13.52-23.42Zm-28.14,47.32L830.7,828.17h-27l-13.52-23.42,13.52-23.42h27Zm28.14.49,13.52,23.41-13.52,23.42H845.07l-13.52-23.42,13.52-23.41Zm-28.14,47.32L830.7,876h-27l-13.52-23.41,13.52-23.42h27Zm28.14.48,13.52,23.42-13.52,23.42H845.07l-13.52-23.42L845.07,853Zm-28.14,47.32L830.7,923.78h-27l-13.52-23.42L803.66,877h27Zm28.14.49,13.52,23.42-13.52,23.41H845.07l-13.52-23.41,13.52-23.42Zm-28.14,47.32L830.7,971.59h-27l-13.52-23.42,13.52-23.42h27Zm28.14.49,13.52,23.41-13.52,23.42H845.07l-13.52-23.42,13.52-23.41ZM844.22,996l-13.52,23.41h-27L790.14,996l13.52-23.42h27Zm28.14.48,13.52,23.42-13.52,23.42H845.07l-13.52-23.42,13.52-23.42Zm-28.14,47.32L830.7,1067.2h-27l-13.52-23.42,13.52-23.41h27Zm28.14.49,13.52,23.42-13.52,23.41H845.07l-13.52-23.41,13.52-23.42Zm-28.14,47.32L830.7,1115h-27l-13.52-23.42,13.52-23.42h27Zm28.14.49,13.52,23.41-13.52,23.42H845.07l-13.52-23.42,13.52-23.41Zm-28.14,47.32-13.52,23.41h-27l-13.52-23.41L803.66,1116h27Zm28.14.49,13.52,23.41-13.52,23.42H845.07l-13.52-23.42,13.52-23.41Zm-28.14,47.31-13.52,23.42h-27l-13.52-23.42,13.52-23.41h27Zm28.14.49,13.52,23.42-13.52,23.41H845.07l-13.52-23.41,13.52-23.42ZM844.22,1235l-13.52,23.42h-27L790.14,1235l13.52-23.41h27Zm28.14.49,13.52,23.41-13.52,23.42H845.07l-13.52-23.42,13.52-23.41Zm-28.14,47.32-13.52,23.41h-27l-13.52-23.41,13.52-23.42h27Zm28.14.49,13.52,23.41-13.52,23.42H845.07l-13.52-23.42,13.52-23.41Zm-28.14,47.31L830.7,1354h-27l-13.52-23.42,13.52-23.41h27Zm28.14.49,13.52,23.42-13.52,23.41H845.07l-13.52-23.41,13.52-23.42Zm-28.14,47.32-13.52,23.42h-27l-13.52-23.42L803.66,1355h27Zm28.14.49,13.52,23.41-13.52,23.42H845.07l-13.52-23.42,13.52-23.41Zm-28.14,47.32-13.52,23.41h-27l-13.52-23.41,13.52-23.42h27Zm28.14.49,13.52,23.41-13.52,23.42H845.07l-13.52-23.42,13.52-23.41Zm-28.14,47.32-13.52,23.41h-27l-13.52-23.41,13.52-23.42h27Zm28.14.48L885.88,1498l-13.52,23.41H845.07L831.55,1498l13.52-23.42Zm-28.14,47.32-13.52,23.42h-27l-13.52-23.42,13.52-23.41h27Zm28.14.49,13.52,23.42-13.52,23.41H845.07l-13.52-23.41,13.52-23.42Zm-28.14,47.32-13.52,23.41h-27l-13.52-23.41,13.52-23.42h27Zm28.14.49,13.52,23.41L872.36,1617H845.07l-13.52-23.42,13.52-23.41Zm-28.14,47.32-13.52,23.41h-27l-13.52-23.41,13.52-23.42h27Zm28.14.48,13.52,23.42-13.52,23.41H845.07l-13.52-23.41L845.07,1618Zm-28.14,47.32-13.52,23.42h-27l-13.52-23.42,13.52-23.41h27Zm28.14.49,13.52,23.42-13.52,23.41H845.07l-13.52-23.41,13.52-23.42Zm-28.14,47.32-13.52,23.41h-27l-13.52-23.41,13.52-23.42h27Zm28.14.49L885.88,1737l-13.52,23.42H845.07L831.55,1737l13.52-23.41Zm-28.14,47.32L830.7,1784.3h-27l-13.52-23.41,13.52-23.42h27Zm28.14.48,13.52,23.42-13.52,23.42H845.07l-13.52-23.42,13.52-23.42Zm-28.14,47.32-13.52,23.42h-27l-13.52-23.42,13.52-23.41h27Zm-83.06,0-13.52,23.42h-27l-13.52-23.42,13.52-23.41h27Zm-83,0-13.52,23.42h-27L624,1808.69l13.52-23.41h27Zm-83.06,0-13.52,23.42h-27L541,1808.69l13.52-23.41h27Zm-83.06,0-13.52,23.42h-27l-13.52-23.42,13.52-23.41h27Zm-83.06,0-13.52,23.42h-27l-13.52-23.42,13.52-23.41h27Zm-83.06,0-13.51,23.42h-27l-13.52-23.42,13.52-23.41h27Zm-83.05,0-13.52,23.42h-27l-13.52-23.42,13.52-23.41h27Zm-83.06,0-13.52,23.42h-27l-13.52-23.42,13.52-23.41h27Zm-82.21-.48L84,1784.79l13.52-23.42h27.29l13.52,23.42-13.52,23.42Zm28.13-47.32,13.52-23.42h27l13.52,23.42-13.52,23.41h-27Zm-28.13-.49L84,1737l13.52-23.41h27.29L138.36,1737l-13.52,23.42Zm28.13-47.32,13.52-23.42h27l13.52,23.42-13.52,23.41h-27Zm-28.13-.49L84,1689.18l13.52-23.42h27.29l13.52,23.42-13.52,23.41Zm28.13-47.32,13.52-23.41h27l13.52,23.41-13.52,23.42h-27Zm-28.13-.49L84,1641.37,97.55,1618h27.29l13.52,23.42-13.52,23.41Zm28.13-47.31,13.52-23.42h27l13.52,23.42-13.52,23.41h-27ZM97.55,1617,84,1593.56l13.52-23.41h27.29l13.52,23.41L124.84,1617Zm28.13-47.32,13.52-23.42h27l13.52,23.42-13.52,23.41h-27Zm-28.13-.49L84,1545.76l13.52-23.42h27.29l13.52,23.42-13.52,23.41Zm28.13-47.32,13.52-23.41h27l13.52,23.41-13.52,23.42h-27Zm-28.13-.49L84,1498l13.52-23.42h27.29L138.36,1498l-13.52,23.41Zm28.13-47.31,13.52-23.42h27l13.52,23.42-13.52,23.41h-27Zm-28.13-.49L84,1450.14l13.52-23.41h27.29l13.52,23.41-13.52,23.42Zm28.13-47.32,13.52-23.42h27l13.52,23.42-13.52,23.41h-27Zm-28.13-.49L84,1402.33l13.52-23.41h27.29l13.52,23.42-13.52,23.41Zm28.13-47.32L139.2,1355h27l13.52,23.41-13.52,23.42h-27Zm-28.13-.49L84,1354.53l13.52-23.42h27.29l13.52,23.42-13.52,23.41Zm28.13-47.32,13.52-23.41h27l13.52,23.41L166.24,1354h-27Zm-28.13-.48L84,1306.72l13.52-23.41h27.29l13.52,23.41-13.52,23.42Zm28.13-47.32,13.52-23.42h27l13.52,23.42-13.52,23.41h-27Zm-28.13-.49L84,1258.91l13.52-23.41h27.29l13.52,23.41-13.52,23.42ZM125.68,1235l13.52-23.41h27L179.76,1235l-13.52,23.42h-27Zm-28.13-.49L84,1211.11l13.52-23.42h27.29l13.52,23.42-13.52,23.41Zm28.13-47.32,13.52-23.41h27l13.52,23.41-13.52,23.42h-27Zm-28.13-.48L84,1163.3l13.52-23.41h27.29l13.52,23.41-13.52,23.42Zm28.13-47.32L139.2,1116h27l13.52,23.42-13.52,23.41h-27Zm-28.13-.49L84,1115.49l13.52-23.41h27.29l13.52,23.41-13.52,23.42Zm28.13-47.32,13.52-23.42h27l13.52,23.42L166.24,1115h-27Zm-28.13-.49L84,1067.69l13.52-23.42h27.29l13.52,23.42-13.52,23.41Zm28.13-47.32,13.52-23.41h27l13.52,23.41-13.52,23.42h-27Zm-28.13-.48L84,1019.88l13.52-23.42h27.29l13.52,23.42-13.52,23.42ZM125.68,996l13.52-23.42h27L179.76,996l-13.52,23.41h-27Zm-28.13-.49L84,972.07l13.52-23.41h27.29l13.52,23.41-13.52,23.42Zm28.13-47.32,13.52-23.42h27l13.52,23.42-13.52,23.42h-27Zm-28.13-.49L84,924.27l13.52-23.42h27.29l13.52,23.42-13.52,23.41Zm28.13-47.32L139.2,877h27l13.52,23.41-13.52,23.42h-27Zm-28.13-.48L84,876.46,97.55,853h27.29l13.52,23.42-13.52,23.42Zm28.13-47.32,13.52-23.42h27l13.52,23.42L166.24,876h-27Zm-28.13-.49L84,828.65l13.52-23.41h27.29l13.52,23.41-13.52,23.42Zm28.13-47.32,13.52-23.42h27l13.52,23.42-13.52,23.42h-27Zm-28.13-.49L84,780.85l13.52-23.42h27.29l13.52,23.42-13.52,23.41Zm28.13-47.32,13.52-23.41h27l13.52,23.41-13.52,23.42h-27Zm-28.13-.49L84,733l13.52-23.42h27.29L138.36,733l-13.52,23.41Zm28.13-47.31,13.52-23.42h27l13.52,23.42-13.52,23.41h-27Zm-28.13-.49L84,685.23l13.52-23.41h27.29l13.52,23.41-13.52,23.42Zm28.13-47.32,13.52-23.42h27l13.52,23.42-13.52,23.41h-27Zm-28.13-.49L84,637.43,97.55,614h27.29l13.52,23.42-13.52,23.41Zm28.13-47.32,13.52-23.41h27l13.52,23.41-13.52,23.42h-27ZM97.55,613,84,589.62,97.55,566.2h27.29l13.52,23.42L124.84,613Zm28.13-47.31L139.2,542.3h27l13.52,23.42-13.52,23.41h-27Zm-28.13-.49L84,541.81,97.55,518.4h27.29l13.52,23.41-13.52,23.42Zm28.13-47.32,13.52-23.42h27l13.52,23.42-13.52,23.41h-27Zm-28.13-.49L84,494l13.52-23.42h27.29L138.36,494l-13.52,23.41Zm28.13-47.32,13.52-23.41h27l13.52,23.41-13.52,23.42h-27Zm-28.13-.49L84,446.2l13.52-23.42h27.29l13.52,23.42-13.52,23.41Zm28.13-47.32,13.52-23.41h27l13.52,23.42-13.52,23.41h-27Zm-28.13-.48L84,398.39,97.55,375h27.29l13.52,23.41-13.52,23.42Zm28.13-47.32,13.52-23.42h27l13.52,23.42L166.24,397.9h-27ZM97.55,374,84,350.58l13.52-23.41h27.29l13.52,23.41L124.84,374Zm28.13-47.32,13.52-23.41h27l13.52,23.41L166.24,350.1h-27Zm-28.13-.49L84,302.78l13.52-23.42h27.29l13.52,23.42-13.52,23.41Zm28.13-47.32,13.52-23.41h27l13.52,23.41-13.52,23.42h-27Zm-28.13-.48L84,255l13.52-23.41h27.29L138.36,255l-13.52,23.42Zm28.13-47.32,13.52-23.42h27l13.52,23.42-13.52,23.41h-27Zm-28.13-.49L84,207.16l13.52-23.41h27.29l13.52,23.41-13.52,23.42Zm28.13-47.32,13.52-23.41h27l13.52,23.41-13.52,23.42h-27Zm-28.13-.49L84,159.36l13.52-23.42h27.29l13.52,23.42-13.52,23.41Zm28.13-47.32L139.2,112h27l13.52,23.41-13.52,23.42h-27ZM97.55,135,84,111.55,97.55,88.14h27.29l13.52,23.41L124.84,135Zm28.13-47.32L139.2,64.23h27l13.52,23.42-13.52,23.41h-27Zm-28.13-.49L84,63.74,97.55,40.33h27.29l13.52,23.41L124.84,87.16Zm69.54-23.42L180.6,40.33h27.3l13.52,23.41L207.9,87.16H180.6Zm83,0,13.52-23.41H291l13.52,23.41L291,87.16H263.66Zm83.06,0,13.52-23.41H374l13.52,23.41L374,87.16H346.72Zm83.06,0,13.52-23.41h27.29l13.52,23.41L457.07,87.16H429.78Zm83.06,0,13.51-23.41h27.3l13.52,23.41L540.13,87.16h-27.3Zm83.05,0,13.52-23.41h27.29L636.7,63.74,623.18,87.16H595.89Zm83.06,0L679,40.33h27.29l13.52,23.41L706.24,87.16H679Zm83.06,0L762,40.33H789.3l13.52,23.41L789.3,87.16H762Zm83.06,0,13.52-23.41h27.29l13.52,23.41L872.36,87.16H845.07Zm83.05,0,13.52-23.41h27.29l13.52,23.41L955.41,87.16H928.12Zm12.68,23.91-13.52,23.41h-27L873.2,87.65l13.52-23.42h27Zm28.13.49,13.52,23.41L955.41,135H928.12L914.6,111.55l13.52-23.41Zm-28.13,47.31-13.52,23.42h-27L873.2,135.45,886.72,112h27Zm28.13.49,13.52,23.42-13.52,23.41H928.12L914.6,159.36l13.52-23.42Zm-28.13,47.32-13.52,23.42h-27L873.2,183.26l13.52-23.41h27Zm28.13.49,13.52,23.41-13.52,23.42H928.12L914.6,207.16l13.52-23.41Zm-28.13,47.32-13.52,23.41h-27L873.2,231.07l13.52-23.42h27Zm28.13.49L968.93,255l-13.52,23.42H928.12L914.6,255l13.52-23.41Zm-28.13,47.31-13.52,23.42h-27L873.2,278.87l13.52-23.41h27Zm28.13.49,13.52,23.42-13.52,23.41H928.12L914.6,302.78l13.52-23.42Zm-28.13,47.32L913.76,350.1h-27L873.2,326.68l13.52-23.41h27Zm28.13.49,13.52,23.41L955.41,374H928.12L914.6,350.58l13.52-23.41Zm-28.13,47.32L913.76,397.9h-27L873.2,374.49l13.52-23.42h27Zm28.13.49,13.52,23.41-13.52,23.42H928.12L914.6,398.39,928.12,375Zm-28.13,47.31-13.52,23.42h-27L873.2,422.29l13.52-23.41h27Zm28.13.49,13.52,23.42-13.52,23.41H928.12L914.6,446.2l13.52-23.42ZM927.28,470.1l-13.52,23.42h-27L873.2,470.1l13.52-23.41h27Zm28.13.49L968.93,494l-13.52,23.41H928.12L914.6,494l13.52-23.42Zm-28.13,47.32-13.52,23.41h-27L873.2,517.91l13.52-23.42h27Zm28.13.49,13.52,23.41-13.52,23.42H928.12L914.6,541.81l13.52-23.41Zm-28.13,47.32-13.52,23.41h-27L873.2,565.72l13.52-23.42h27Zm28.13.48,13.52,23.42L955.41,613H928.12L914.6,589.62l13.52-23.42Zm-28.13,47.32-13.52,23.42h-27L873.2,613.52l13.52-23.41h27Zm28.13.49,13.52,23.42-13.52,23.41H928.12L914.6,637.43,928.12,614Zm-28.13,47.32-13.52,23.41h-27L873.2,661.33l13.52-23.42h27Zm28.13.49,13.52,23.41-13.52,23.42H928.12L914.6,685.23l13.52-23.41Zm-28.13,47.32-13.52,23.41h-27L873.2,709.14l13.52-23.42h27Zm28.13.48L968.93,733l-13.52,23.41H928.12L914.6,733l13.52-23.42Zm-28.13,47.32-13.52,23.42h-27L873.2,756.94l13.52-23.41h27Zm28.13.49,13.52,23.42-13.52,23.41H928.12L914.6,780.85l13.52-23.42Zm-28.13,47.32-13.52,23.42h-27L873.2,804.75l13.52-23.42h27Zm28.13.49,13.52,23.41-13.52,23.42H928.12L914.6,828.65l13.52-23.41Zm-28.13,47.32L913.76,876h-27L873.2,852.56l13.52-23.42h27Zm28.13.48,13.52,23.42-13.52,23.42H928.12L914.6,876.46,928.12,853Zm-28.13,47.32-13.52,23.42h-27L873.2,900.36,886.72,877h27Zm28.13.49,13.52,23.42-13.52,23.41H928.12L914.6,924.27l13.52-23.42Zm-28.13,47.32-13.52,23.42h-27L873.2,948.17l13.52-23.42h27Zm28.13.49,13.52,23.41-13.52,23.42H928.12L914.6,972.07l13.52-23.41ZM927.28,996l-13.52,23.41h-27L873.2,996l13.52-23.42h27Zm28.13.48,13.52,23.42-13.52,23.42H928.12l-13.52-23.42,13.52-23.42Zm-28.13,47.32-13.52,23.42h-27l-13.52-23.42,13.52-23.41h27Zm28.13.49,13.52,23.42-13.52,23.41H928.12l-13.52-23.41,13.52-23.42Zm-28.13,47.32L913.76,1115h-27l-13.52-23.42,13.52-23.42h27Zm28.13.49,13.52,23.41-13.52,23.42H928.12l-13.52-23.42,13.52-23.41Zm-28.13,47.32-13.52,23.41h-27L873.2,1139.4,886.72,1116h27Zm28.13.49,13.52,23.41-13.52,23.42H928.12L914.6,1163.3l13.52-23.41Zm-28.13,47.31-13.52,23.42h-27L873.2,1187.2l13.52-23.41h27Zm28.13.49,13.52,23.42-13.52,23.41H928.12l-13.52-23.41,13.52-23.42ZM927.28,1235l-13.52,23.42h-27L873.2,1235l13.52-23.41h27Zm28.13.49,13.52,23.41-13.52,23.42H928.12l-13.52-23.42,13.52-23.41Zm-28.13,47.32-13.52,23.41h-27l-13.52-23.41,13.52-23.42h27Zm28.13.49,13.52,23.41-13.52,23.42H928.12l-13.52-23.42,13.52-23.41Zm-28.13,47.31L913.76,1354h-27l-13.52-23.42,13.52-23.41h27Zm28.13.49,13.52,23.42-13.52,23.41H928.12l-13.52-23.41,13.52-23.42Zm-28.13,47.32-13.52,23.42h-27l-13.52-23.42L886.72,1355h27Zm28.13.49,13.52,23.41-13.52,23.42H928.12l-13.52-23.42,13.52-23.41Zm-28.13,47.32-13.52,23.41h-27l-13.52-23.41,13.52-23.42h27Zm28.13.49,13.52,23.41-13.52,23.42H928.12l-13.52-23.42,13.52-23.41Zm-28.13,47.32-13.52,23.41h-27l-13.52-23.41,13.52-23.42h27Zm28.13.48L968.93,1498l-13.52,23.41H928.12L914.6,1498l13.52-23.42Zm-28.13,47.32-13.52,23.42h-27l-13.52-23.42,13.52-23.41h27Zm28.13.49,13.52,23.42-13.52,23.41H928.12l-13.52-23.41,13.52-23.42Zm-28.13,47.32-13.52,23.41h-27l-13.52-23.41,13.52-23.42h27Zm28.13.49,13.52,23.41L955.41,1617H928.12l-13.52-23.42,13.52-23.41Zm-28.13,47.32-13.52,23.41h-27l-13.52-23.41,13.52-23.42h27Zm28.13.48,13.52,23.42-13.52,23.41H928.12l-13.52-23.41L928.12,1618Zm-28.13,47.32-13.52,23.42h-27l-13.52-23.42,13.52-23.41h27Zm28.13.49,13.52,23.42-13.52,23.41H928.12l-13.52-23.41,13.52-23.42Zm-28.13,47.32-13.52,23.41h-27l-13.52-23.41,13.52-23.42h27Zm28.13.49L968.93,1737l-13.52,23.42H928.12L914.6,1737l13.52-23.41Zm-28.13,47.32-13.52,23.41h-27l-13.52-23.41,13.52-23.42h27Zm28.13.48,13.52,23.42-13.52,23.42H928.12l-13.52-23.42,13.52-23.42Zm-28.13,47.32-13.52,23.42h-27l-13.52-23.42,13.52-23.41h27Zm28.13.49,13.52,23.42L955.41,1856H928.12L914.6,1832.6l13.52-23.42Zm-69.53,23.42L872.36,1856H845.07l-13.52-23.41,13.52-23.42h27.29Zm-83.06,0L789.3,1856H762l-13.52-23.41L762,1809.18H789.3Zm-83.06,0L706.24,1856H679l-13.52-23.41L679,1809.18h27.29Zm-83.06,0L623.18,1856H595.89l-13.52-23.41,13.52-23.42h27.29Zm-83.05,0L540.13,1856h-27.3l-13.51-23.41,13.51-23.42h27.3Zm-83.06,0L457.07,1856H429.78l-13.52-23.41,13.52-23.42h27.29Zm-83.06,0L374,1856H346.72L333.2,1832.6l13.52-23.42H374Zm-83.06,0L291,1856H263.66l-13.52-23.41,13.52-23.42H291Zm-83.05,0L207.9,1856H180.6l-13.51-23.41,13.51-23.42h27.3Zm-83.06,0L124.84,1856H97.55L84,1832.6l13.52-23.42h27.29Zm-96.58-23.42L55.3,1832.6,41.78,1856H14.49L1,1832.6l13.52-23.42Zm.85-.49,13.51-23.41h27l13.52,23.41-13.52,23.42h-27Zm-.85-47.32,13.52,23.42-13.52,23.42H14.49L1,1784.79l13.52-23.42Zm.85-.48,13.51-23.42h27l13.52,23.42L83.18,1784.3h-27Zm-.85-47.32L55.3,1737,41.78,1760.4H14.49L1,1737l13.52-23.41Zm.85-.49,13.51-23.42h27l13.52,23.42-13.52,23.41h-27Zm-.85-47.32,13.52,23.42-13.52,23.41H14.49L1,1689.18l13.52-23.42Zm.85-.49,13.51-23.41h27l13.52,23.41-13.52,23.42h-27ZM41.78,1618l13.52,23.42-13.52,23.41H14.49L1,1641.37,14.49,1618Zm.85-.48,13.51-23.42h27l13.52,23.42-13.52,23.41h-27Zm-.85-47.32,13.52,23.41L41.78,1617H14.49L1,1593.56l13.52-23.41Zm.85-.49,13.51-23.42h27l13.52,23.42-13.52,23.41h-27Zm-.85-47.32,13.52,23.42-13.52,23.41H14.49L1,1545.76l13.52-23.42Zm.85-.49,13.51-23.41h27l13.52,23.41-13.52,23.42h-27Zm-.85-47.32L55.3,1498l-13.52,23.41H14.49L1,1498l13.52-23.42Zm.85-.48,13.51-23.42h27l13.52,23.42-13.52,23.41h-27Zm-.85-47.32,13.52,23.41-13.52,23.42H14.49L1,1450.14l13.52-23.41Zm.85-.49,13.51-23.42h27l13.52,23.42-13.52,23.41h-27Zm-.85-47.32,13.52,23.42-13.52,23.41H14.49L1,1402.33l13.52-23.41Zm.85-.49L56.14,1355h27l13.52,23.41-13.52,23.42h-27Zm-.85-47.32,13.52,23.42-13.52,23.41H14.49L1,1354.53l13.52-23.42Zm.85-.49,13.51-23.41h27l13.52,23.41L83.18,1354h-27Zm-.85-47.31,13.52,23.41-13.52,23.42H14.49L1,1306.72l13.52-23.41Zm.85-.49,13.51-23.42h27l13.52,23.42-13.52,23.41h-27Zm-.85-47.32,13.52,23.41-13.52,23.42H14.49L1,1258.91l13.52-23.41Zm.85-.49,13.51-23.41h27L96.7,1235l-13.52,23.42h-27Zm-.85-47.32,13.52,23.42-13.52,23.41H14.49L1,1211.11l13.52-23.42Zm.85-.49,13.51-23.41h27L96.7,1187.2l-13.52,23.42h-27Zm-.85-47.31L55.3,1163.3l-13.52,23.42H14.49L1,1163.3l13.52-23.41Zm.85-.49L56.14,1116h27L96.7,1139.4l-13.52,23.41h-27Zm-.85-47.32,13.52,23.41-13.52,23.42H14.49L1,1115.49l13.52-23.41Zm.85-.49,13.51-23.42h27l13.52,23.42L83.18,1115h-27Zm-.85-47.32,13.52,23.42L41.78,1091.1H14.49L1,1067.69l13.52-23.42Zm.85-.49,13.51-23.41h27l13.52,23.41L83.18,1067.2h-27Zm-.85-47.32,13.52,23.42L41.78,1043.3H14.49L1,1019.88l13.52-23.42Zm.85-.48,13.51-23.42h27L96.7,996l-13.52,23.41h-27Zm-.85-47.32L55.3,972.07,41.78,995.49H14.49L1,972.07l13.52-23.41Zm.85-.49,13.51-23.42h27L96.7,948.17,83.18,971.59h-27Zm-.85-47.32L55.3,924.27,41.78,947.68H14.49L1,924.27l13.52-23.42Zm.85-.49L56.14,877h27L96.7,900.36,83.18,923.78h-27ZM41.78,853,55.3,876.46,41.78,899.88H14.49L1,876.46,14.49,853Zm.85-.48,13.51-23.42h27L96.7,852.56,83.18,876h-27Zm-.85-47.32L55.3,828.65,41.78,852.07H14.49L1,828.65l13.52-23.41Zm.85-.49,13.51-23.42h27L96.7,804.75,83.18,828.17h-27Zm-.85-47.32L55.3,780.85,41.78,804.26H14.49L1,780.85l13.52-23.42Zm.85-.49,13.51-23.41h27L96.7,756.94,83.18,780.36h-27Zm-.85-47.32L55.3,733,41.78,756.45H14.49L1,733l13.52-23.42Zm.85-.48,13.51-23.42h27L96.7,709.14,83.18,732.55h-27Zm-.85-47.32L55.3,685.23,41.78,708.65H14.49L1,685.23l13.52-23.41Zm.85-.49,13.51-23.42h27L96.7,661.33,83.18,684.74h-27ZM41.78,614,55.3,637.43,41.78,660.84H14.49L1,637.43,14.49,614Zm.85-.49,13.51-23.41h27L96.7,613.52,83.18,636.94h-27Zm-.85-47.32L55.3,589.62,41.78,613H14.49L1,589.62,14.49,566.2Zm.85-.48L56.14,542.3h27L96.7,565.72,83.18,589.13h-27Zm-.85-47.32L55.3,541.81,41.78,565.23H14.49L1,541.81,14.49,518.4Zm.85-.49,13.51-23.42h27L96.7,517.91,83.18,541.32h-27Zm-.85-47.32L55.3,494,41.78,517.42H14.49L1,494l13.52-23.42Zm.85-.49,13.51-23.41h27L96.7,470.1,83.18,493.52h-27Zm-.85-47.32L55.3,446.2,41.78,469.61H14.49L1,446.2l13.52-23.42Zm.85-.49,13.51-23.41h27L96.7,422.3,83.18,445.71h-27ZM41.78,375,55.3,398.39,41.78,421.81H14.49L1,398.39,14.49,375Zm.85-.49,13.51-23.42h27L96.7,374.49,83.18,397.9h-27Zm-.85-47.32L55.3,350.58,41.78,374H14.49L1,350.58l13.52-23.41Zm.85-.49,13.51-23.41h27L96.7,326.68,83.18,350.1h-27Zm-.85-47.32L55.3,302.78,41.78,326.19H14.49L1,302.78l13.52-23.42Zm.85-.49,13.51-23.41h27L96.7,278.87,83.18,302.29h-27Zm-.85-47.31L55.3,255,41.78,278.39H14.49L1,255l13.52-23.41Zm.85-.49,13.51-23.42h27L96.7,231.07,83.18,254.48h-27Zm-.85-47.32L55.3,207.16,41.78,230.58H14.49L1,207.16l13.52-23.41Zm.85-.49,13.51-23.41h27L96.7,183.26,83.18,206.68h-27Zm-.85-47.32L55.3,159.36,41.78,182.77H14.49L1,159.36l13.52-23.42Zm.85-.49L56.14,112h27L96.7,135.45,83.18,158.87h-27Zm-.85-47.31L55.3,111.55,41.78,135H14.49L1,111.55,14.49,88.14Zm.85-.49L56.14,64.23h27L96.7,87.65,83.18,111.06h-27Zm-.85-47.32L55.3,63.74,41.78,87.16H14.49L1,63.74,14.49,40.33Zm54.92-.49L83.18,63.26h-27L42.63,39.84,56.14,16.43h27Zm83.06,0L166.24,63.26h-27L125.68,39.84,139.2,16.43h27Zm83.06,0L249.3,63.26h-27L208.74,39.84l13.52-23.41h27Zm83.05,0L332.36,63.26h-27L291.8,39.84l13.52-23.41h27Zm83.06,0L415.41,63.26h-27L374.86,39.84l13.52-23.41h27Zm83.06,0L498.47,63.26h-27L457.91,39.84l13.52-23.41h27Zm83.06,0L581.53,63.26h-27L541,39.84l13.52-23.41h27Zm83.06,0L664.59,63.26h-27L624,39.84l13.52-23.41h27Zm83,0L747.64,63.26h-27L707.09,39.84l13.52-23.41h27Zm83.06,0L830.7,63.26h-27L790.14,39.84l13.52-23.41h27Zm83.06,0L913.76,63.26h-27L873.2,39.84l13.52-23.41h27Zm83.06,0L996.82,63.26h-27L956.26,39.84l13.52-23.41h27Zm.84,47.32L997.66,63.74l13.52-23.41h27.29L1052,63.74l-13.52,23.42Zm-.84.49-13.52,23.41h-27L956.26,87.65l13.52-23.42h27Zm.84,47.32-13.52-23.42,13.52-23.41h27.29L1052,111.55,1038.47,135Zm-.84.48-13.52,23.42h-27l-13.52-23.42L969.78,112h27Zm.84,47.32-13.52-23.41,13.52-23.42h27.29L1052,159.36l-13.52,23.41Zm-.84.49-13.52,23.42h-27l-13.52-23.42,13.52-23.41h27Zm.84,47.32-13.52-23.42,13.52-23.41h27.29L1052,207.16l-13.52,23.42Zm-.84.49-13.52,23.41h-27l-13.52-23.41,13.52-23.42h27Zm.84,47.32L997.66,255l13.52-23.41h27.29L1052,255l-13.52,23.42Zm-.84.48-13.52,23.42h-27l-13.52-23.42,13.52-23.41h27Zm.84,47.32-13.52-23.41,13.52-23.42h27.29L1052,302.78l-13.52,23.41Zm-.84.49L996.82,350.1h-27l-13.52-23.42,13.52-23.41h27Zm.84,47.32-13.52-23.42,13.52-23.41h27.29L1052,350.58,1038.47,374Zm-.84.49L996.82,397.9h-27l-13.52-23.41,13.52-23.42h27Zm.84,47.32-13.52-23.42L1011.18,375h27.29L1052,398.39l-13.52,23.42Zm-.84.48-13.52,23.42h-27l-13.52-23.42,13.52-23.41h27Zm.84,47.32L997.66,446.2l13.52-23.42h27.29L1052,446.2l-13.52,23.41Zm-.84.49-13.52,23.42h-27L956.26,470.1l13.52-23.41h27Zm.84,47.32L997.66,494l13.52-23.42h27.29L1052,494l-13.52,23.41Zm-.84.49-13.52,23.41h-27l-13.52-23.41,13.52-23.42h27Zm.84,47.32-13.52-23.42,13.52-23.41h27.29L1052,541.81l-13.52,23.42Zm-.84.49-13.52,23.41h-27l-13.52-23.41,13.52-23.42h27Zm.84,47.31-13.52-23.41,13.52-23.42h27.29L1052,589.62,1038.47,613Zm-.84.49-13.52,23.42h-27l-13.52-23.42,13.52-23.41h27Zm.84,47.32-13.52-23.41L1011.18,614h27.29L1052,637.43l-13.52,23.41Zm-.84.49-13.52,23.41h-27l-13.52-23.41,13.52-23.42h27Zm.84,47.32-13.52-23.42,13.52-23.41h27.29L1052,685.23l-13.52,23.42Zm-.84.49-13.52,23.41h-27l-13.52-23.41,13.52-23.42h27Zm.84,47.31L997.66,733l13.52-23.42h27.29L1052,733l-13.52,23.41Zm-.84.49-13.52,23.42h-27l-13.52-23.42,13.52-23.41h27Zm.84,47.32-13.52-23.41,13.52-23.42h27.29L1052,780.85l-13.52,23.41Zm-.84.49-13.52,23.42h-27l-13.52-23.42,13.52-23.42h27Zm.84,47.32-13.52-23.42,13.52-23.41h27.29L1052,828.65l-13.52,23.42Zm-.84.49L996.82,876h-27l-13.52-23.41,13.52-23.42h27Zm.84,47.32-13.52-23.42L1011.18,853h27.29L1052,876.46l-13.52,23.42Zm-.84.48-13.52,23.42h-27l-13.52-23.42L969.78,877h27Zm.84,47.32-13.52-23.41,13.52-23.42h27.29L1052,924.27l-13.52,23.41Zm-.84.49-13.52,23.42h-27l-13.52-23.42,13.52-23.42h27Zm.84,47.32-13.52-23.42,13.52-23.41h27.29L1052,972.07l-13.52,23.42Zm-.84.49-13.52,23.41h-27L956.26,996l13.52-23.42h27Zm.84,47.32-13.52-23.42,13.52-23.42h27.29l13.52,23.42-13.52,23.42Zm-.84.48-13.52,23.42h-27l-13.52-23.42,13.52-23.41h27Zm.84,47.32-13.52-23.41,13.52-23.42h27.29l13.52,23.42-13.52,23.41Zm-.84.49L996.82,1115h-27l-13.52-23.42,13.52-23.42h27Zm.84,47.32-13.52-23.42,13.52-23.41h27.29l13.52,23.41-13.52,23.42Zm-.84.49-13.52,23.41h-27l-13.52-23.41L969.78,1116h27Zm.84,47.32-13.52-23.42,13.52-23.41h27.29L1052,1163.3l-13.52,23.42Zm-.84.48-13.52,23.42h-27l-13.52-23.42,13.52-23.41h27Zm.84,47.32-13.52-23.41,13.52-23.42h27.29l13.52,23.42-13.52,23.41Zm-.84.49-13.52,23.42h-27L956.26,1235l13.52-23.41h27Zm.84,47.32-13.52-23.42,13.52-23.41h27.29l13.52,23.41-13.52,23.42Zm-.84.49-13.52,23.41h-27l-13.52-23.41,13.52-23.42h27Zm.84,47.32-13.52-23.42,13.52-23.41h27.29l13.52,23.41-13.52,23.42Zm-.84.48L996.82,1354h-27l-13.52-23.42,13.52-23.41h27Zm.84,47.32-13.52-23.41,13.52-23.42h27.29l13.52,23.42-13.52,23.41Zm-.84.49-13.52,23.42h-27l-13.52-23.42L969.78,1355h27Zm.84,47.32-13.52-23.42,13.52-23.41h27.29l13.52,23.41-13.52,23.42Zm-.84.49-13.52,23.41h-27l-13.52-23.41,13.52-23.42h27Zm.84,47.32-13.52-23.42,13.52-23.41h27.29l13.52,23.41-13.52,23.42Zm-.84.49-13.52,23.41h-27l-13.52-23.41,13.52-23.42h27Zm.84,47.31L997.66,1498l13.52-23.42h27.29L1052,1498l-13.52,23.41Zm-.84.49-13.52,23.42h-27l-13.52-23.42,13.52-23.41h27Zm.84,47.32-13.52-23.41,13.52-23.42h27.29l13.52,23.42-13.52,23.41Zm-.84.49-13.52,23.41h-27l-13.52-23.41,13.52-23.42h27Zm.84,47.32-13.52-23.42,13.52-23.41h27.29l13.52,23.41L1038.47,1617Zm-.84.49-13.52,23.41h-27l-13.52-23.41,13.52-23.42h27Zm.84,47.31-13.52-23.41,13.52-23.42h27.29l13.52,23.42-13.52,23.41Zm-.84.49-13.52,23.42h-27l-13.52-23.42,13.52-23.41h27Zm.84,47.32-13.52-23.41,13.52-23.42h27.29l13.52,23.42-13.52,23.41Zm-.84.49-13.52,23.41h-27l-13.52-23.41,13.52-23.42h27Zm.84,47.32L997.66,1737l13.52-23.41h27.29L1052,1737l-13.52,23.42Zm-.84.49-13.52,23.41h-27l-13.52-23.41,13.52-23.42h27Zm.84,47.32-13.52-23.42,13.52-23.42h27.29l13.52,23.42-13.52,23.42Zm-.84.48-13.52,23.42h-27l-13.52-23.42,13.52-23.41h27Zm.84,47.32-13.52-23.41,13.52-23.42h27.29L1052,1832.6,1038.47,1856Zm-54.92.49,13.52-23.42h27l13.52,23.42-13.52,23.42h-27Zm-83.06,0,13.52-23.42h27l13.52,23.42-13.52,23.42h-27Zm-83.06,0,13.52-23.42h27l13.52,23.42-13.52,23.42h-27Zm-83,0,13.52-23.42h27l13.52,23.42-13.52,23.42h-27Zm-83.06,0,13.52-23.42h27l13.52,23.42-13.52,23.42h-27Zm-83.06,0,13.52-23.42h27l13.52,23.42-13.52,23.42h-27Zm-83.06,0,13.52-23.42h27L512,1856.5l-13.52,23.42h-27Zm-83.05,0,13.52-23.42h27l13.52,23.42-13.52,23.42h-27Zm-83.06,0,13.52-23.42h27l13.51,23.42-13.51,23.42h-27Zm-83.06,0,13.52-23.42h27l13.52,23.42-13.52,23.42h-27Zm-69.54,23.42-13.52-23.42,13.52-23.42h27l13.52,23.42-13.52,23.42Z"/></svg>